<svg width="15" height="15" viewBox="0 0 15 15" fill="none" xmlns="http://www.w3.org/2000/svg">
<path opacity="0.7" fill-rule="evenodd" clip-rule="evenodd" d="M2.77379 1.05184C3.80015 0.366042 5.00683 0 6.24123 0C7.89646 0.000105363 9.48391 0.657691 10.6543 1.82812C11.8248 2.99855 12.4823 4.58596 12.4825 6.24119C12.4825 7.47559 12.1164 8.6823 11.4306 9.70867C11.3103 9.8888 11.181 10.062 11.0435 10.2276L14.831 14.0151C15.0563 14.2404 15.0563 14.6057 14.831 14.831C14.6057 15.0563 14.2404 15.0563 14.0151 14.831L10.2276 11.0435C9.74884 11.4409 9.21075 11.7667 8.62964 12.0074C7.48921 12.4797 6.2343 12.6033 5.02363 12.3625C3.81295 12.1217 2.70087 11.5273 1.82802 10.6544C0.955165 9.78159 0.360745 8.66951 0.119926 7.45883C-0.120893 6.24815 0.0027042 4.99325 0.475088 3.85281C0.947471 2.71238 1.74742 1.73763 2.77379 1.05184ZM6.24119 1.15385C5.23501 1.15385 4.25144 1.45222 3.41483 2.01122C2.57822 2.57023 1.92615 3.36477 1.5411 4.29437C1.15605 5.22397 1.0553 6.24687 1.2516 7.23372C1.4479 8.22058 1.93242 9.12706 2.64391 9.83855C3.35539 10.55 4.26187 11.0346 5.24873 11.2309C6.23558 11.4272 7.25849 11.3264 8.18808 10.9414C9.11768 10.5563 9.91222 9.90424 10.4712 9.06762C11.0302 8.23102 11.3286 7.24744 11.3286 6.24126M6.24119 1.15385C7.59042 1.15394 8.88439 1.68996 9.83844 2.64401C10.7925 3.59806 11.3285 4.89204 11.3286 6.24126" fill="white"/>
</svg>
