<svg width="70" height="70" viewBox="0 0 70 70" fill="none" xmlns="http://www.w3.org/2000/svg">
<path d="M66.5 1.16667H3.5C2.21134 1.16667 1.16667 2.21134 1.16667 3.5V45.5C1.16667 46.7887 2.21134 47.8333 3.5 47.8333H66.5C67.7887 47.8333 68.8333 46.7887 68.8333 45.5V3.5C68.8333 2.21134 67.7887 1.16667 66.5 1.16667Z" fill="#9CDD05"/>
<path d="M66.5 64.1667C67.1183 64.1685 67.7107 64.4149 68.1479 64.8521C68.5851 65.2893 68.8315 65.8817 68.8333 66.5C68.8288 67.1174 68.5814 67.7083 68.1449 68.1449C67.7083 68.5814 67.1174 68.8288 66.5 68.8333H57.1667C56.5484 68.8315 55.956 68.5851 55.5188 68.1479C55.0816 67.7107 54.8352 67.1183 54.8333 66.5C54.8379 65.8826 55.0852 65.2917 55.5218 64.8551C55.9584 64.4185 56.5492 64.1712 57.1667 64.1667H66.5Z" fill="#FEE9AB"/>
<path d="M59.5 47.8333H64.1667V64.1667H59.5V47.8333Z" fill="#FF7956"/>
<path d="M47.8333 17.5H61.8333V36.1667H47.8333V17.5Z" fill="#FEE9AB"/>
<path d="M28 17.5H42V36.1667H28V17.5Z" fill="#FEE9AB"/>
<path d="M8.16667 17.5H22.1667V36.1667H8.16667V17.5Z" fill="#FEE9AB"/>
<path d="M12.8333 64.1667C13.4516 64.1685 14.044 64.4149 14.4812 64.8521C14.9184 65.2893 15.1648 65.8817 15.1667 66.5C15.1621 67.1174 14.9148 67.7083 14.4782 68.1449C14.0416 68.5814 13.4508 68.8288 12.8333 68.8333H3.5C2.88173 68.8315 2.28931 68.5851 1.85212 68.1479C1.41494 67.7107 1.16851 67.1183 1.16667 66.5C1.17125 65.8826 1.41855 65.2917 1.85515 64.8551C2.29174 64.4185 2.88258 64.1712 3.5 64.1667H12.8333Z" fill="#FEE9AB"/>
<path d="M5.83333 47.8333H10.5V64.1667H5.83333V47.8333Z" fill="#FF7956"/>
<path d="M66.5 49C67.4283 49 68.3185 48.6312 68.9749 47.9749C69.6312 47.3185 70 46.4283 70 45.5V3.5C70 2.57174 69.6312 1.6815 68.9749 1.02513C68.3185 0.368749 67.4283 0 66.5 0H3.5C2.57174 0 1.6815 0.368749 1.02513 1.02513C0.368749 1.6815 0 2.57174 0 3.5V45.5C0 46.4283 0.368749 47.3185 1.02513 47.9749C1.6815 48.6312 2.57174 49 3.5 49H4.66667V63H3.5C2.57174 63 1.6815 63.3687 1.02513 64.0251C0.368749 64.6815 0 65.5717 0 66.5C0 67.4283 0.368749 68.3185 1.02513 68.9749C1.6815 69.6312 2.57174 70 3.5 70H12.8333C13.7616 70 14.6518 69.6312 15.3082 68.9749C15.9646 68.3185 16.3333 67.4283 16.3333 66.5C16.3333 65.5717 15.9646 64.6815 15.3082 64.0251C14.6518 63.3687 13.7616 63 12.8333 63H11.6667V49H58.3333V63H57.1667C56.2384 63 55.3482 63.3687 54.6918 64.0251C54.0354 64.6815 53.6667 65.5717 53.6667 66.5C53.6667 67.4283 54.0354 68.3185 54.6918 68.9749C55.3482 69.6312 56.2384 70 57.1667 70H66.5C67.4283 70 68.3185 69.6312 68.9749 68.9749C69.6312 68.3185 70 67.4283 70 66.5C70 65.5717 69.6312 64.6815 68.9749 64.0251C68.3185 63.3687 67.4283 63 66.5 63H65.3333V49H66.5ZM2.33333 45.5V3.5C2.33333 3.19058 2.45625 2.89383 2.67504 2.67504C2.89383 2.45625 3.19058 2.33333 3.5 2.33333H66.5C66.8094 2.33333 67.1062 2.45625 67.325 2.67504C67.5437 2.89383 67.6667 3.19058 67.6667 3.5V45.5C67.6667 45.8094 67.5437 46.1062 67.325 46.325C67.1062 46.5437 66.8094 46.6667 66.5 46.6667H3.5C3.19058 46.6667 2.89383 46.5437 2.67504 46.325C2.45625 46.1062 2.33333 45.8094 2.33333 45.5ZM14 66.5C14 66.8094 13.8771 67.1062 13.6583 67.325C13.4395 67.5437 13.1428 67.6667 12.8333 67.6667H3.5C3.19058 67.6667 2.89383 67.5437 2.67504 67.325C2.45625 67.1062 2.33333 66.8094 2.33333 66.5C2.33333 66.1906 2.45625 65.8938 2.67504 65.675C2.89383 65.4562 3.19058 65.3333 3.5 65.3333H12.8333C13.1428 65.3333 13.4395 65.4562 13.6583 65.675C13.8771 65.8938 14 66.1906 14 66.5ZM9.33333 63H7V49H9.33333V63ZM67.6667 66.5C67.6667 66.8094 67.5437 67.1062 67.325 67.325C67.1062 67.5437 66.8094 67.6667 66.5 67.6667H57.1667C56.8572 67.6667 56.5605 67.5437 56.3417 67.325C56.1229 67.1062 56 66.8094 56 66.5C56 66.1906 56.1229 65.8938 56.3417 65.675C56.5605 65.4562 56.8572 65.3333 57.1667 65.3333H66.5C66.8094 65.3333 67.1062 65.4562 67.325 65.675C67.5437 65.8938 67.6667 66.1906 67.6667 66.5ZM63 63H60.6667V49H63V63Z" fill="black"/>
<path d="M28 4.66667H42V7H28V4.66667Z" fill="black"/>
<path d="M23.3333 9.33333H46.6667V11.6667H23.3333V9.33333Z" fill="black"/>
<path d="M22.1667 16.3333H8.16667C7.85725 16.3333 7.5605 16.4562 7.34171 16.675C7.12292 16.8938 7 17.1906 7 17.5V36.1667C7 36.4761 7.12292 36.7728 7.34171 36.9916C7.5605 37.2104 7.85725 37.3333 8.16667 37.3333H22.1667C22.4761 37.3333 22.7728 37.2104 22.9916 36.9916C23.2104 36.7728 23.3333 36.4761 23.3333 36.1667V17.5C23.3333 17.1906 23.2104 16.8938 22.9916 16.675C22.7728 16.4562 22.4761 16.3333 22.1667 16.3333ZM21 35H9.33333V18.6667H21V35Z" fill="black"/>
<path d="M42 16.3333H28C27.6906 16.3333 27.3938 16.4562 27.175 16.675C26.9562 16.8938 26.8333 17.1906 26.8333 17.5V36.1667C26.8333 36.4761 26.9562 36.7728 27.175 36.9916C27.3938 37.2104 27.6906 37.3333 28 37.3333H42C42.3094 37.3333 42.6062 37.2104 42.825 36.9916C43.0437 36.7728 43.1667 36.4761 43.1667 36.1667V17.5C43.1667 17.1906 43.0437 16.8938 42.825 16.675C42.6062 16.4562 42.3094 16.3333 42 16.3333ZM40.8333 35H29.1667V18.6667H40.8333V35Z" fill="black"/>
<path d="M61.8333 16.3333H47.8333C47.5239 16.3333 47.2272 16.4562 47.0084 16.675C46.7896 16.8938 46.6667 17.1906 46.6667 17.5V36.1667C46.6667 36.4761 46.7896 36.7728 47.0084 36.9916C47.2272 37.2104 47.5239 37.3333 47.8333 37.3333H61.8333C62.1428 37.3333 62.4395 37.2104 62.6583 36.9916C62.8771 36.7728 63 36.4761 63 36.1667V17.5C63 17.1906 62.8771 16.8938 62.6583 16.675C62.4395 16.4562 62.1428 16.3333 61.8333 16.3333ZM60.6667 35H49V18.6667H60.6667V35Z" fill="black"/>
<path d="M7 39.6667H11.6667V42H7V39.6667Z" fill="black"/>
<path d="M14 39.6667H23.3333V42H14V39.6667Z" fill="black"/>
<path d="M26.8333 39.6667H29.1667V42H26.8333V39.6667Z" fill="black"/>
<path d="M31.5 39.6667H43.1667V42H31.5V39.6667Z" fill="black"/>
<path d="M46.6667 39.6667H49V42H46.6667V39.6667Z" fill="black"/>
<path d="M51.3333 39.6667H53.6667V42H51.3333V39.6667Z" fill="black"/>
<path d="M56 39.6667H63V42H56V39.6667Z" fill="black"/>
<path d="M11.6667 21H14V23.3333H11.6667V21Z" fill="black"/>
<path d="M16.3333 21H18.6667V23.3333H16.3333V21Z" fill="black"/>
<path d="M11.6667 25.6667H18.6667V28H11.6667V25.6667Z" fill="black"/>
<path d="M11.6667 30.3333H18.6667V32.6667H11.6667V30.3333Z" fill="black"/>
<path d="M31.5 21H38.5V23.3333H31.5V21Z" fill="black"/>
<path d="M31.5 25.6667H38.5V28H31.5V25.6667Z" fill="black"/>
<path d="M31.5 30.3333H38.5V32.6667H31.5V30.3333Z" fill="black"/>
<path d="M51.3333 21H53.6667V23.3333H51.3333V21Z" fill="black"/>
<path d="M56 21H58.3333V23.3333H56V21Z" fill="black"/>
<path d="M51.3333 25.6667H58.3333V28H51.3333V25.6667Z" fill="black"/>
<path d="M51.3333 30.3333H53.6667V32.6667H51.3333V30.3333Z" fill="black"/>
<path d="M56 30.3333H58.3333V32.6667H56V30.3333Z" fill="black"/>
</svg>
