<svg width="76" height="76" viewBox="0 0 76 76" fill="none" xmlns="http://www.w3.org/2000/svg">
<g clip-path="url(#clip0_683_1001)">
<path d="M37.9998 8.35168C39.1561 8.35168 40.0934 7.41436 40.0934 6.25811C40.0934 5.10187 39.1561 4.16455 37.9998 4.16455C36.8436 4.16455 35.9062 5.10187 35.9062 6.25811C35.9062 7.41436 36.8436 8.35168 37.9998 8.35168Z" fill="#8C8C8C"/>
<path d="M0.890625 70.3523V18.8071C0.890625 17.9873 1.55515 17.3228 2.375 17.3228H73.6254C74.4452 17.3228 75.1097 17.9873 75.1097 18.8071V70.3523C75.1097 71.1722 74.4452 71.8367 73.6254 71.8367H2.375C1.55527 71.8367 0.890625 71.1721 0.890625 70.3523Z" fill="#C46627"/>
<path d="M70.4291 67.8984H5.5708C5.16088 67.8984 4.82861 67.5661 4.82861 67.1562V22.0027C4.82861 21.5928 5.16088 21.2605 5.5708 21.2605H70.4291C70.839 21.2605 71.1713 21.5928 71.1713 22.0027V67.1562C71.1713 67.5661 70.839 67.8984 70.4291 67.8984Z" fill="#FFE169"/>
<path opacity="0.09" d="M75.1107 18.8064V70.359C75.1107 71.1754 74.4427 71.8434 73.6263 71.8434H2.37598C1.55957 71.8434 0.891602 71.1754 0.891602 70.359V66.1285H57.5206C64.052 66.1285 69.3959 60.7846 69.3959 54.2533V17.322H73.6263C74.4427 17.322 75.1107 17.99 75.1107 18.8064Z" fill="black"/>
<path d="M46.8081 62.2439H63.9828C64.8027 62.2439 65.4672 61.5793 65.4672 60.7595V28.3992C65.4672 27.5793 64.8027 26.9148 63.9828 26.9148H46.8081C45.9883 26.9148 45.3237 27.5793 45.3237 28.3992V60.7595C45.3237 61.5792 45.9884 62.2439 46.8081 62.2439Z" fill="#F4F4F4"/>
<path d="M49.2837 43.0052H61.5078C61.9177 43.0052 62.25 42.6729 62.25 42.263V30.8174C62.25 30.4075 61.9177 30.0752 61.5078 30.0752H49.2837C48.8738 30.0752 48.5415 30.4075 48.5415 30.8174V42.263C48.5415 42.6728 48.8738 43.0052 49.2837 43.0052Z" fill="#F71414"/>
<path opacity="0.09" d="M65.4623 28.3955V60.755C65.4623 61.5748 64.7978 62.2394 63.9779 62.2394H46.8037C45.9873 62.2394 45.3193 61.5862 45.3193 60.755V59.5972H55.3982C59.4804 59.5972 62.8202 56.2573 62.8202 52.1752V26.9111H63.9781C64.8092 26.9111 65.4623 27.5791 65.4623 28.3955Z" fill="black"/>
<path d="M12.0161 62.244H38.9905C39.8104 62.244 40.4749 61.5794 40.4749 60.7596V45.5952C40.4749 44.7754 39.8104 44.1108 38.9905 44.1108H12.0161C11.1963 44.1108 10.5317 44.7754 10.5317 45.5952V60.7595C10.5317 61.5793 11.1964 62.244 12.0161 62.244Z" fill="#F4F4F4"/>
<path d="M19.5972 58.5795C22.5807 58.5795 24.9992 56.161 24.9992 53.1776C24.9992 50.1942 22.5807 47.7756 19.5972 47.7756C16.6138 47.7756 14.1953 50.1942 14.1953 53.1776C14.1953 56.161 16.6138 58.5795 19.5972 58.5795Z" fill="#28D1B0"/>
<path opacity="0.09" d="M40.4802 45.5996V60.7552C40.4802 61.5864 39.8122 62.2396 38.9958 62.2396H12.0098C11.1899 62.2396 10.5254 61.575 10.5254 60.7552V59.5974H33.3699C35.8191 59.5974 37.8232 57.5935 37.8232 55.1441V44.1152H38.9959C39.8122 44.1152 40.4802 44.7684 40.4802 45.5996Z" fill="black"/>
<path d="M22.3373 26.9148H12.0161C11.1963 26.9148 10.5317 27.5793 10.5317 28.3992V38.7203C10.5317 39.5402 11.1963 40.2047 12.0161 40.2047H22.3373C23.1571 40.2047 23.8216 39.5402 23.8216 38.7203V28.3992C23.8216 27.5793 23.1571 26.9148 22.3373 26.9148Z" fill="#F4F4F4"/>
<path opacity="0.09" d="M23.8254 28.3955V38.7268C23.8254 39.5432 23.1574 40.2111 22.341 40.2111H12.0098C11.1934 40.2111 10.5254 39.5432 10.5254 38.7268V37.5541H16.7152C19.1645 37.5541 21.1685 35.5502 21.1685 33.1009V26.9111H22.3411C23.1574 26.9111 23.8254 27.5791 23.8254 28.3955Z" fill="black"/>
<path d="M38.9911 26.9148H28.6699C27.8501 26.9148 27.1855 27.5793 27.1855 28.3992V38.7203C27.1855 39.5402 27.8501 40.2047 28.6699 40.2047H38.9911C39.8109 40.2047 40.4755 39.5402 40.4755 38.7203V28.3992C40.4755 27.5793 39.8108 26.9148 38.9911 26.9148Z" fill="#F4F4F4"/>
<path d="M36.7043 29.9438H30.9565C30.5466 29.9438 30.2144 30.2761 30.2144 30.686V36.4338C30.2144 36.8437 30.5466 37.176 30.9565 37.176H36.7043C37.1142 37.176 37.4465 36.8437 37.4465 36.4338V30.686C37.4465 30.2762 37.1142 29.9438 36.7043 29.9438Z" fill="#30C3E5"/>
<path opacity="0.09" d="M40.4803 28.3955V38.7268C40.4803 39.5432 39.8123 40.2111 38.9959 40.2111H28.6646C27.8481 40.2111 27.1802 39.5432 27.1802 38.7268V37.5541H33.37C35.8192 37.5541 37.8233 35.5502 37.8233 33.1009V26.9111H38.996C39.8123 26.9111 40.4803 27.5791 40.4803 28.3955Z" fill="black"/>
<path d="M73.6256 16.4318H46.3756L40.3732 8.04814C40.7517 7.54797 40.9847 6.93249 40.9847 6.25846C40.9847 4.61247 39.646 3.27368 38.0006 3.27368C36.3546 3.27368 35.0158 4.61235 35.0158 6.25846C35.0158 6.93379 35.2499 7.55046 35.6297 8.05111L29.6309 16.4318H2.37524C1.06542 16.4318 0 17.4972 0 18.8069V70.352C0 71.661 1.06542 72.7264 2.37524 72.7264H73.6256C74.9346 72.7264 76 71.661 76 70.352V18.8069C76 17.4972 74.9346 16.4318 73.6256 16.4318ZM38.0007 5.05529C38.6639 5.05529 39.2032 5.59524 39.2032 6.25846C39.2032 6.92168 38.6639 7.46093 38.0007 7.46093C37.3375 7.46093 36.7975 6.92168 36.7975 6.25846C36.7975 5.59524 37.3375 5.05529 38.0007 5.05529ZM37.0815 9.08269C37.3729 9.17781 37.6779 9.24241 38.0007 9.24241C38.3245 9.24241 38.6307 9.17758 38.9228 9.08174L44.184 16.4318H31.8211L37.0815 9.08269ZM74.2199 70.3521C74.2199 70.6797 73.9532 70.9465 73.6256 70.9465H2.37524C2.04761 70.9465 1.78161 70.6797 1.78161 70.3521V18.8069C1.78161 18.4793 2.04761 18.2133 2.37524 18.2133H73.6256C73.9532 18.2133 74.2199 18.4793 74.2199 18.8069V70.3521ZM70.4292 20.3696H5.5708C4.67056 20.3696 3.93787 21.1025 3.93787 22.0026V67.1557C3.93787 68.056 4.67067 68.7879 5.5708 68.7879H70.4291C71.3293 68.7879 72.0613 68.0558 72.0613 67.1557V22.0026C72.0614 21.1025 71.3293 20.3696 70.4292 20.3696ZM70.2814 67.0079H5.71948V22.1513H70.2814V67.0079ZM46.8078 63.1345H63.9827C65.2917 63.1345 66.3571 62.0691 66.3571 60.7601V28.399C66.3571 27.0893 65.2917 26.0238 63.9827 26.0238H46.8078C45.4988 26.0238 44.4334 27.0892 44.4334 28.399V60.7601C44.4334 62.0691 45.4988 63.1345 46.8078 63.1345ZM46.2135 28.399C46.2135 28.0714 46.4802 27.8054 46.8078 27.8054H63.9827C64.3104 27.8054 64.5771 28.0714 64.5771 28.399V60.7601C64.5771 61.0877 64.3104 61.3544 63.9827 61.3544H46.8078C46.4802 61.3544 46.2135 61.0877 46.2135 60.7601V28.399ZM12.0165 63.1345H38.9909C40.2998 63.1345 41.3645 62.0691 41.3645 60.7601V45.5957C41.3645 44.2867 40.2998 43.2213 38.9909 43.2213H12.0165C10.7069 43.2213 9.64131 44.2867 9.64131 45.5957V60.7601C9.64131 62.0691 10.7069 63.1345 12.0165 63.1345ZM11.4229 45.5957C11.4229 45.2681 11.6889 45.0014 12.0165 45.0014H38.9909C39.3178 45.0014 39.5838 45.2681 39.5838 45.5957V60.7601C39.5838 61.0877 39.3178 61.3544 38.9909 61.3544H12.0165C11.6889 61.3544 11.4229 61.0877 11.4229 60.7601V45.5957ZM12.0165 41.0946H22.3377C23.6474 41.0946 24.7129 40.0292 24.7129 38.7202V28.399C24.7129 27.0893 23.6475 26.0238 22.3377 26.0238H12.0165C10.7069 26.0238 9.64131 27.0892 9.64131 28.399V38.7202C9.64131 40.0292 10.7069 41.0946 12.0165 41.0946ZM11.4229 28.399C11.4229 28.0714 11.6889 27.8054 12.0165 27.8054H22.3377C22.6653 27.8054 22.9313 28.0714 22.9313 28.399V38.7202C22.9313 39.0478 22.6653 39.3145 22.3377 39.3145H12.0165C11.6889 39.3145 11.4229 39.0478 11.4229 38.7202V28.399ZM28.6696 41.0946H38.9907C40.2997 41.0946 41.3644 40.0292 41.3644 38.7202V28.399C41.3644 27.0893 40.2997 26.0238 38.9907 26.0238H28.6696C27.3599 26.0238 26.2943 27.0892 26.2943 28.399V38.7202C26.2945 40.0292 27.3599 41.0946 28.6696 41.0946ZM28.0759 28.399C28.0759 28.0714 28.3419 27.8054 28.6696 27.8054H38.9907C39.3177 27.8054 39.5836 28.0714 39.5836 28.399V38.7202C39.5836 39.0478 39.3177 39.3145 38.9907 39.3145H28.6696C28.3419 39.3145 28.0759 39.0478 28.0759 38.7202V28.399ZM62.2505 46.8858C62.7419 46.8858 63.1406 47.2845 63.1406 47.7758C63.1406 48.2672 62.7419 48.6659 62.2505 48.6659H57.2088C56.7174 48.6659 56.3187 48.2672 56.3187 47.7758C56.3187 47.2845 56.7174 46.8858 57.2088 46.8858H62.2505ZM47.6515 47.7758C47.6515 47.2845 48.0502 46.8858 48.5416 46.8858H54.295C54.7864 46.8858 55.185 47.2845 55.185 47.7758C55.185 48.2672 54.7864 48.6659 54.295 48.6659H48.5416C48.0502 48.666 47.6515 48.2673 47.6515 47.7758ZM47.6515 52.1595C47.6515 51.6681 48.0502 51.2695 48.5416 51.2695H62.2505C62.7419 51.2695 63.1406 51.6681 63.1406 52.1595C63.1406 52.6509 62.7419 53.0495 62.2505 53.0495H48.5416C48.0502 53.0495 47.6515 52.6509 47.6515 52.1595ZM63.1406 56.5416C63.1406 57.033 62.7419 57.4316 62.2505 57.4316H53.1746C52.6832 57.4316 52.2846 57.033 52.2846 56.5416C52.2846 56.0502 52.6832 55.6516 53.1746 55.6516H62.2505C62.7419 55.6516 63.1406 56.0502 63.1406 56.5416ZM47.6515 56.5416C47.6515 56.0502 48.0502 55.6516 48.5416 55.6516H50.3159C50.8073 55.6516 51.206 56.0502 51.206 56.5416C51.206 57.033 50.8073 57.4316 50.3159 57.4316H48.5416C48.0502 57.4318 47.6515 57.0331 47.6515 56.5416ZM28.4369 48.8312C28.4369 48.3398 28.8356 47.9411 29.3277 47.9411H33.6939C34.186 47.9411 34.5846 48.3398 34.5846 48.8312C34.5846 49.3226 34.186 49.7212 33.6939 49.7212H29.3277C28.8356 49.7212 28.4369 49.3227 28.4369 48.8312ZM49.2837 43.8953H61.5082C62.4085 43.8953 63.1404 43.1632 63.1404 42.2631V30.8169C63.1404 29.9167 62.4083 29.184 61.5082 29.184H49.2837C48.3835 29.184 47.6515 29.9168 47.6515 30.8169V42.263C47.6515 43.1632 48.3835 43.8953 49.2837 43.8953ZM49.4316 30.9655H61.3604V42.1151H49.4316V30.9655ZM30.9563 38.0664H36.7041C37.6043 38.0664 38.337 37.3336 38.337 36.4334V30.6857C38.337 29.7854 37.6042 29.0528 36.7041 29.0528H30.9563C30.0561 29.0528 29.3234 29.7856 29.3234 30.6857V36.4334C29.3234 37.3337 30.0561 38.0664 30.9563 38.0664ZM31.1049 30.8344H36.5554V36.2849H31.1049V30.8344ZM19.5972 59.4699C23.0668 59.4699 25.89 56.6475 25.89 53.1771C25.89 49.7081 23.0668 46.8858 19.5972 46.8858C16.1276 46.8858 13.3052 49.7081 13.3052 53.1771C13.3052 56.6475 16.1276 59.4699 19.5972 59.4699ZM19.5972 48.666C22.0848 48.666 24.1084 50.6896 24.1084 53.1772C24.1084 55.6648 22.0848 57.6898 19.5972 57.6898C17.1104 57.6898 15.0867 55.6648 15.0867 53.1772C15.0868 50.6896 17.1104 48.666 19.5972 48.666ZM28.4369 53.1772C28.4369 52.6858 28.8356 52.2872 29.3277 52.2872H36.8113C37.3034 52.2872 37.7021 52.6858 37.7021 53.1772C37.7021 53.6686 37.3034 54.0672 36.8113 54.0672H29.3277C28.8356 54.0672 28.4369 53.6686 28.4369 53.1772ZM28.4369 57.5231C28.4369 57.0317 28.8356 56.633 29.3277 56.633H35.4755C35.9676 56.633 36.3662 57.0317 36.3662 57.5231C36.3662 58.0145 35.9676 58.4131 35.4755 58.4131H29.3277C28.8356 58.4131 28.4369 58.0145 28.4369 57.5231ZM12.8319 31.5395C12.8319 31.0474 13.2305 30.6488 13.7226 30.6488H20.6315C21.1236 30.6488 21.5223 31.0474 21.5223 31.5395C21.5223 32.0316 21.1236 32.4303 20.6315 32.4303H13.7226C13.2305 32.4304 12.8319 32.0317 12.8319 31.5395ZM12.8319 35.5803C12.8319 35.0882 13.2305 34.6896 13.7226 34.6896H20.6315C21.1236 34.6896 21.5223 35.0882 21.5223 35.5803C21.5223 36.0724 21.1236 36.4711 20.6315 36.4711H13.7226C13.2305 36.4711 12.8319 36.0724 12.8319 35.5803Z" fill="#0B0C0C"/>
</g>
<defs>
<clipPath id="clip0_683_1001">
<rect width="76" height="76" fill="white"/>
</clipPath>
</defs>
</svg>
