<svg width="72" height="72" viewBox="0 0 72 72" fill="none" xmlns="http://www.w3.org/2000/svg">
<g clip-path="url(#clip0_683_1560)">
<path d="M40.088 8.9994H31.9111V5.58355C31.9111 3.32557 33.7416 1.49512 35.9996 1.49512C38.2575 1.49512 40.088 3.32557 40.088 5.58355V8.9994Z" fill="#9494A0"/>
<path d="M40.0883 9.99938H31.9116C31.3589 9.99938 30.9116 9.55213 30.9116 8.99939V5.58343C30.9116 2.7778 33.1938 0.494629 35.9994 0.494629C38.8051 0.494629 41.0882 2.7778 41.0882 5.58343V8.9994C41.0882 9.55213 40.641 9.99938 40.0883 9.99938ZM32.9116 7.99941H39.0883V5.58343C39.0883 3.88033 37.7026 2.49461 35.9995 2.49461C34.2964 2.49461 32.9116 3.88033 32.9116 5.58343L32.9116 7.99941Z" fill="#101016"/>
<path d="M36.0001 6.24708C36.5525 6.24708 37.0002 5.7993 37.0002 5.24695C37.0002 4.6946 36.5525 4.24683 36.0001 4.24683C35.4478 4.24683 35 4.6946 35 5.24695C35 5.7993 35.4478 6.24708 36.0001 6.24708Z" fill="#101016"/>
<path d="M63.4227 70.5063H8.57633C4.39204 70.5063 1 67.1143 1 62.93V16.5758C1 12.3916 4.39204 8.99951 8.57633 8.99951H63.4227C67.607 8.99951 70.9991 12.3916 70.9991 16.5758V62.93C70.9991 67.1143 67.607 70.5063 63.4227 70.5063Z" fill="#F7BB90"/>
<path d="M8.57712 64.5059C7.70799 64.5059 7.00098 63.7989 7.00098 62.9298V16.5749C7.00098 15.7058 7.70799 14.9988 8.57712 14.9988H63.4221C64.2932 14.9988 65.0002 15.7058 65.0002 16.5749V62.9298C65.0002 63.7989 64.2932 64.5059 63.4221 64.5059H8.57712Z" fill="#F9DDCD"/>
<path opacity="0.15" d="M70.9978 16.5825V62.922C70.9978 67.1219 67.5979 70.5019 63.4179 70.5019H34.8184C41.8782 64.402 53.998 51.1822 53.8581 32.3024C53.7781 21.9225 50.0381 13.7626 47.2182 9.00269H63.4179C67.5979 9.00269 70.9978 12.3826 70.9978 16.5825Z" fill="black"/>
<path d="M63.422 71.5055H8.57703C3.8476 71.5055 0 67.6579 0 62.9294V16.5756C0 11.8471 3.8476 7.99951 8.57703 7.99951H63.422C68.1524 7.99951 72 11.8471 72 16.5756V62.9294C72 67.6579 68.1524 71.5055 63.422 71.5055ZM8.57703 9.99948C4.95014 9.99948 1.99998 12.9496 1.99998 16.5756V62.9294C1.99998 66.5563 4.95014 69.5055 8.57703 69.5055H63.422C67.0489 69.5055 70 66.5563 70 62.9294V16.5756C70 12.9496 67.0489 9.99948 63.422 9.99948H8.57703Z" fill="#101016"/>
<path d="M63.4221 65.5056H8.57711C7.15624 65.5056 6.00098 64.3494 6.00098 62.9295V16.5747C6.00098 15.1538 7.15624 13.9985 8.57711 13.9985H63.4221C64.8439 13.9985 66.0002 15.1538 66.0002 16.5747V62.9295C66.0002 64.3494 64.8439 65.5056 63.4221 65.5056ZM8.57711 15.9985C8.25974 15.9985 8.00095 16.2573 8.00095 16.5747V62.9295C8.00095 63.2479 8.25973 63.5057 8.57711 63.5057H63.4221C63.7404 63.5057 64.0002 63.2479 64.0002 62.9295V16.5747C64.0002 16.2573 63.7404 15.9985 63.4221 15.9985H8.57711Z" fill="#101016"/>
<path d="M58.2533 54.7096L45.2662 53.8602C44.0136 53.7782 43.0646 52.6963 43.1465 51.4437L43.996 38.4567C44.078 37.2041 45.1598 36.255 46.4125 36.337L59.3995 37.1865C60.6521 37.2684 61.6011 38.3503 61.5192 39.6029L60.6697 52.5899C60.5878 53.8425 59.5059 54.7916 58.2533 54.7096Z" fill="#F98143"/>
<path d="M56.602 43.992C56.5786 43.992 56.5571 43.992 56.5356 43.9901L48.2096 43.4451C47.6569 43.408 47.2408 42.9334 47.276 42.3827C47.3131 41.8299 47.8385 41.4022 48.3385 41.4491L56.6645 41.994C57.2173 42.0311 57.6333 42.5057 57.5981 43.0565C57.563 43.5858 57.1235 43.992 56.602 43.992Z" fill="#101016"/>
<path d="M56.2368 49.5837C56.2134 49.5837 56.1919 49.5837 56.1704 49.5817L47.8443 49.0368C47.2916 48.9997 46.8756 48.5251 46.9108 47.9743C46.9479 47.4216 47.4752 47.0095 47.9733 47.0407L56.2993 47.5856C56.852 47.6228 57.268 48.0974 57.2329 48.6481C57.1977 49.1774 56.7583 49.5837 56.2368 49.5837Z" fill="#101016"/>
<path opacity="0.15" d="M61.519 39.6029L60.6692 52.5949C60.5882 53.8323 59.5038 54.7835 58.2465 54.7013L51.6807 54.2718C53.6077 52.6942 56.6462 49.4457 56.8835 44.5909C57.0734 41.0758 55.709 38.341 54.8025 36.8787L59.3927 37.1789C60.65 37.2611 61.6012 38.3456 61.519 39.6029Z" fill="black"/>
<path d="M58.3989 55.7145C58.3305 55.7145 58.2602 55.7125 58.1879 55.7086L45.2018 54.859C43.401 54.7419 42.0319 53.1794 42.1491 51.3786L42.9987 38.3925C43.1178 36.5898 44.6959 35.2109 46.4772 35.3388L59.4633 36.1884C61.2621 36.3066 62.6332 37.8671 62.5179 39.6678L61.6683 52.654C61.5551 54.3825 60.1098 55.7145 58.3989 55.7145ZM58.3168 53.7126C59.0121 53.7614 59.6274 53.2243 59.6723 52.5251L60.5219 39.5389C60.5668 38.8378 60.0336 38.2304 59.3344 38.1835L46.3483 37.3349C45.6178 37.2938 45.0397 37.8222 44.9948 38.5214L44.1452 51.5075C44.0983 52.2087 44.6315 52.818 45.3307 52.863L58.3168 53.7126Z" fill="#101016"/>
<path d="M52.9074 39.3155C54.3345 39.3155 55.4915 38.1585 55.4915 36.7313C55.4915 35.3042 54.3345 34.1472 52.9074 34.1472C51.4802 34.1472 50.3232 35.3042 50.3232 36.7313C50.3232 38.1585 51.4802 39.3155 52.9074 39.3155Z" fill="#F7524B"/>
<path d="M52.9142 40.3144C52.8341 40.3144 52.754 40.3125 52.672 40.3066C50.7033 40.1797 49.2033 38.4707 49.3303 36.4981C49.3927 35.5411 49.8244 34.667 50.5451 34.0362C51.2619 33.4063 52.1564 33.0987 53.1427 33.1544C54.0958 33.2169 54.9708 33.6475 55.6017 34.3672C56.2345 35.087 56.547 36.0098 56.4845 36.9649C56.422 37.9199 55.9903 38.7949 55.2696 39.4258C54.6114 40.0039 53.7814 40.3144 52.9142 40.3144ZM52.9044 35.1465C52.5197 35.1465 52.1544 35.2842 51.8634 35.5401C51.5451 35.8194 51.3537 36.2051 51.3263 36.628C51.2697 37.499 51.9318 38.2539 52.8029 38.3105C53.2169 38.332 53.6329 38.1992 53.9513 37.9219C54.2696 37.6426 54.461 37.2559 54.4884 36.834C54.5157 36.4121 54.3771 36.0049 54.0997 35.6866C53.8204 35.3682 53.4337 35.1778 53.0118 35.1504C52.9747 35.1475 52.9396 35.1465 52.9044 35.1465Z" fill="#101016"/>
<path d="M35.2865 40.9669L22.3925 39.1978C21.1488 39.0272 20.279 37.8807 20.4496 36.6371L22.2186 23.7431C22.3892 22.4994 23.5357 21.6296 24.7794 21.8002L37.6734 23.5692C38.917 23.7398 39.7869 24.8863 39.6163 26.13L37.8473 39.024C37.6766 40.2676 36.5301 41.1375 35.2865 40.9669Z" fill="#53C496"/>
<path opacity="0.15" d="M39.6167 26.1349L37.847 39.0339C37.6785 40.2624 36.5293 41.1343 35.281 40.963L28.7622 40.0687C30.7963 38.6317 34.0577 35.6071 34.639 30.7814C35.0779 27.2886 33.911 24.4639 33.1106 22.9409L37.6678 23.5661C38.9161 23.7374 39.788 24.8866 39.6167 26.1349Z" fill="black"/>
<path d="M34.4705 30.1612C34.4256 30.1612 34.3797 30.1582 34.3338 30.1514L26.0673 29.0186C25.5204 28.9434 25.1376 28.4385 25.2118 27.8917C25.288 27.3448 25.7929 26.9601 26.3388 27.0362L34.6053 28.17C35.1521 28.2452 35.5349 28.7501 35.4607 29.2969C35.3914 29.7979 34.9627 30.1612 34.4705 30.1612Z" fill="#101016"/>
<path d="M33.7085 35.714C33.6636 35.714 33.6177 35.711 33.5718 35.7042L25.3053 34.5695C24.7575 34.4952 24.3757 33.9904 24.4509 33.4435C24.5251 32.8966 25.0221 32.506 25.5768 32.589L33.8433 33.7238C34.3911 33.798 34.773 34.3029 34.6978 34.8497C34.6294 35.3507 34.2007 35.714 33.7085 35.714Z" fill="#101016"/>
<path d="M35.5963 41.9883C35.4498 41.9883 35.3014 41.9785 35.151 41.957L22.2567 40.1875C21.3905 40.0703 20.6229 39.6211 20.0946 38.9238C19.5663 38.2285 19.3407 37.3672 19.4598 36.501L21.2274 23.6076C21.3465 22.7414 21.7957 21.9729 22.492 21.4446C23.1902 20.9153 24.0594 20.6877 24.9148 20.8098L37.8092 22.5783C38.6764 22.6975 39.4439 23.1467 39.9732 23.843C40.5006 24.5402 40.7252 25.4006 40.606 26.2668L38.8385 39.1601C38.6139 40.7969 37.2057 41.9883 35.5963 41.9883ZM35.4225 39.9766C36.1354 40.0703 36.7613 39.584 36.857 38.8867L38.6256 25.9943C38.6724 25.6564 38.5846 25.3225 38.3795 25.052C38.1734 24.7805 37.8746 24.6067 37.5377 24.5608L24.6433 22.7903C24.3045 22.7473 23.9715 22.8332 23.701 23.0373C23.4305 23.2434 23.2557 23.5422 23.2088 23.8791L21.4412 36.7725C21.3944 37.1094 21.4823 37.4444 21.6873 37.7159C21.8934 37.9864 22.1912 38.1602 22.5281 38.2071L35.4225 39.9766Z" fill="#101016"/>
<path d="M31.2311 25.2381C32.6583 25.2381 33.8152 24.0811 33.8152 22.6539C33.8152 21.2268 32.6583 20.0698 31.2311 20.0698C29.8039 20.0698 28.647 21.2268 28.647 22.6539C28.647 24.0811 29.8039 25.2381 31.2311 25.2381Z" fill="#F7524B"/>
<path d="M31.2388 26.2383C31.0747 26.2383 30.9087 26.2276 30.7437 26.2042C29.7945 26.0743 28.9536 25.5831 28.3755 24.8204C27.7964 24.0577 27.5494 23.1153 27.6802 22.1671C27.8091 21.2189 28.3013 20.3771 29.064 19.799C29.8267 19.2199 30.7769 18.9718 31.7173 19.1037C32.6655 19.2326 33.5073 19.7248 34.0854 20.4874C34.6645 21.2501 34.9116 22.1925 34.7817 23.1407C34.6518 24.0889 34.1596 24.9307 33.3969 25.5089C32.7681 25.9874 32.0151 26.2383 31.2388 26.2383ZM31.2271 21.0695C30.8833 21.0695 30.5513 21.1808 30.273 21.3917C29.9361 21.6476 29.7183 22.0196 29.6616 22.4386C29.604 22.8585 29.7124 23.2745 29.9683 23.6114C30.2242 23.9483 30.5962 24.1651 31.0151 24.2237C31.4282 24.2755 31.8501 24.1719 32.188 23.9161C32.5249 23.6602 32.7427 23.2882 32.7993 22.8692C32.8569 22.4493 32.7485 22.0333 32.4927 21.6964C32.2368 21.3595 31.8648 21.1417 31.4458 21.0851C31.3726 21.0743 31.2993 21.0695 31.2271 21.0695Z" fill="#101016"/>
<path d="M30.0691 55.5421L17.2777 57.943C16.0439 58.1746 14.856 57.3622 14.6244 56.1284L12.2235 43.337C11.9919 42.1032 12.8043 40.9153 14.0381 40.6838L26.8295 38.2828C28.0633 38.0513 29.2512 38.8637 29.4827 40.0974L31.8837 52.8888C32.1153 54.1226 31.3028 55.3105 30.0691 55.5421Z" fill="#79B6EF"/>
<path opacity="0.15" d="M29.4847 40.1021L31.8866 52.8984C32.1153 54.1171 31.301 55.3078 30.0626 55.5402L23.5957 56.7541C25.0707 54.7475 27.2078 50.8464 26.2325 46.0846C25.5439 42.6324 23.5433 40.3219 22.3022 39.1304L26.8232 38.2818C28.0616 38.0494 29.2522 38.8637 29.4847 40.1021Z" fill="black"/>
<path d="M17.3583 47.1407C16.8867 47.1407 16.4668 46.8047 16.3769 46.3243C16.2744 45.7833 16.6318 45.2598 17.1748 45.1583L25.3748 43.6192C25.9158 43.5216 26.4402 43.8751 26.5418 44.418C26.6443 44.9591 26.2869 45.4825 25.744 45.5841L17.5439 47.1231C17.4814 47.1348 17.4199 47.1407 17.3583 47.1407Z" fill="#101016"/>
<path d="M18.3915 52.6482C17.9199 52.6482 17.5 52.3123 17.4101 51.8318C17.3076 51.2908 17.665 50.7674 18.208 50.6658L26.409 49.1268C26.9569 49.0311 27.4754 49.3826 27.576 49.9256C27.6785 50.4666 27.3211 50.99 26.7782 51.0916L18.5771 52.6306C18.5146 52.6424 18.4531 52.6482 18.3915 52.6482Z" fill="#101016"/>
<path d="M16.8504 58.9842C16.1981 58.9842 15.5614 58.7869 15.0106 58.4119C14.289 57.9178 13.8036 57.1717 13.6425 56.3123L11.2411 43.5215C10.9081 41.75 12.08 40.0352 13.8524 39.7012L26.6452 37.3009C27.5056 37.1368 28.3757 37.3214 29.0963 37.8145C29.818 38.3087 30.3043 39.0548 30.4655 39.9141L32.8658 52.705C33.1998 54.4764 32.028 56.1912 30.2536 56.5252L17.4627 58.9256C17.2586 58.9646 17.0536 58.9842 16.8504 58.9842ZM27.2526 39.2442C27.1735 39.2442 27.0944 39.2501 27.0153 39.2657L14.2225 41.666C13.5331 41.7969 13.077 42.4629 13.2059 43.1543L15.6073 55.9452C15.6708 56.2791 15.8592 56.5682 16.1395 56.7615C16.4207 56.951 16.7557 57.0252 17.0936 56.9608L29.8844 54.5604C30.2194 54.496 30.5094 54.3085 30.7008 54.0272C30.8922 53.746 30.9635 53.4081 30.901 53.0741L28.5007 40.2813C28.4372 39.9473 28.2487 39.6583 27.9675 39.4669C27.7536 39.3204 27.5065 39.2442 27.2526 39.2442Z" fill="#101016"/>
<path d="M20.4274 42.0367C21.8546 42.0367 23.0115 40.8797 23.0115 39.4525C23.0115 38.0254 21.8546 36.8684 20.4274 36.8684C19.0002 36.8684 17.8433 38.0254 17.8433 39.4525C17.8433 40.8797 19.0002 42.0367 20.4274 42.0367Z" fill="#F7524B"/>
<path d="M20.4194 43.037C19.7046 43.037 19.0074 42.8241 18.4039 42.412C17.6138 41.8709 17.0816 41.0546 16.9058 40.1132C16.7281 39.1737 16.9293 38.2206 17.4693 37.4296C18.0103 36.6386 18.8267 36.1064 19.7681 35.9296C20.7095 35.7548 21.6616 35.954 22.4517 36.4941C23.2417 37.0351 23.7739 37.8505 23.9507 38.7909V38.7929C24.3149 40.7343 23.0308 42.6092 21.0894 42.9744C20.8667 43.0174 20.6421 43.037 20.4194 43.037ZM20.4322 37.8691C20.3335 37.8691 20.2349 37.8769 20.1363 37.8964C19.7202 37.9745 19.3589 38.2089 19.1206 38.5585C18.8814 38.9081 18.7925 39.33 18.8706 39.744C18.9488 40.162 19.1841 40.5214 19.5327 40.7597C19.8804 40.9999 20.3003 41.0839 20.7202 41.0097C21.5786 40.8475 22.146 40.0194 21.9858 39.162C21.9077 38.7441 21.6714 38.3847 21.3227 38.1445C21.0562 37.9628 20.7476 37.8691 20.4322 37.8691Z" fill="#101016"/>
</g>
<defs>
<clipPath id="clip0_683_1560">
<rect width="72" height="72" fill="white"/>
</clipPath>
</defs>
</svg>
