<svg width="80" height="75" viewBox="0 0 80 75" fill="none" xmlns="http://www.w3.org/2000/svg">
<path fill-rule="evenodd" clip-rule="evenodd" d="M43.1698 34.6642H38.1075C37.4982 34.6642 37.0294 34.1945 37.0294 33.5838V18.8821C37.0294 18.3185 37.4982 17.8018 38.1075 17.8018H41.7636C45.8415 17.8018 47.9977 22.6397 45.3259 25.6928C49.7319 27.9474 48.1383 34.6642 43.1698 34.6642ZM6.89029 61.8131C3.0936 61.8131 0 58.713 0 54.9084V6.85768C0 3.10005 3.0936 0 6.89029 0H54.8411C58.6378 0 61.7314 3.10005 61.7314 6.85768V48.6613L71.3403 50.9159C72.1371 51.1508 72.4183 52.1372 71.809 52.7478L69.0435 55.519L79.6836 66.1343C80.1055 66.5571 80.1055 67.2147 79.6836 67.6374L72.6527 74.683C72.2309 75.1057 71.5278 75.1057 71.1528 74.683L60.5127 64.0676L57.7472 66.8389C57.1378 67.4025 56.1535 67.1207 55.966 66.3222L54.8879 61.8131H6.89029ZM60.4658 50.5871L54.0911 49.0841L57.6066 63.9737L59.7627 61.8131C60.1846 61.3903 60.8408 61.3903 61.2626 61.8131L71.9027 72.4284L77.4337 66.8859L66.7936 56.2706C66.3718 55.8478 66.3718 55.1433 66.7936 54.7675L68.9498 52.5599L60.4658 50.5871ZM59.5752 48.1916V12.4472H2.15614V54.9084C2.15614 57.5388 4.26542 59.6994 6.89029 59.6994H54.4192L51.6537 47.8629C51.4662 47.1113 52.1225 46.4068 52.9193 46.5946L59.5752 48.1916ZM59.5752 10.3335V6.85768C59.5752 4.27431 57.4659 2.11367 54.8411 2.11367H6.89029C4.26542 2.11367 2.15614 4.27431 2.15614 6.85768V10.3335H59.5752ZM12.2807 7.28041H8.15585C6.74967 7.28041 6.74967 5.16675 8.15585 5.16675H12.2807C13.6868 5.16675 13.6868 7.28041 12.2807 7.28041ZM20.5771 7.28041H16.4992C15.093 7.28041 15.093 5.16675 16.4992 5.16675H20.5771C21.9833 5.16675 21.9833 7.28041 20.5771 7.28041ZM28.9205 7.28041H24.7957C23.3895 7.28041 23.3895 5.16675 24.7957 5.16675H28.9205C30.3266 5.16675 30.3266 7.28041 28.9205 7.28041ZM47.3883 41.24H10.3589C8.95269 41.24 8.95269 39.0794 10.3589 39.0794H47.3883C48.7476 39.0794 48.7476 41.24 47.3883 41.24ZM47.3883 47.7689H10.3589C8.95269 47.7689 8.95269 45.6552 10.3589 45.6552H47.3883C48.7476 45.6552 48.7476 47.7689 47.3883 47.7689ZM47.3883 54.3448H10.3589C8.95269 54.3448 8.95269 52.1841 10.3589 52.1841H47.3883C48.7476 52.1841 48.7476 54.3448 47.3883 54.3448ZM28.4517 34.6642H27.8424C24.9363 34.6642 22.5926 32.3156 22.5926 29.4504V23.0625C22.5926 20.1503 24.9363 17.8018 27.8424 17.8018H28.4517C31.311 17.8018 33.6546 20.1503 33.6546 23.0625V29.4504C33.6546 32.3156 31.311 34.6642 28.4517 34.6642ZM27.8424 19.9624C26.1081 19.9624 24.7488 21.3246 24.7488 23.0625V29.4504C24.7488 33.5838 31.5453 33.5838 31.5453 29.4504V23.0625C31.5453 21.3246 30.1392 19.9624 28.4517 19.9624H27.8424ZM13.7806 34.6642C9.42142 34.6642 7.78087 28.8398 10.1245 28.8398C10.7339 28.8398 11.2026 29.3095 11.2026 29.9202C11.2026 33.349 16.3586 33.349 16.3586 29.9202V18.9291C16.3586 17.52 18.5147 17.52 18.5147 18.9291V29.9202C18.5147 32.5035 16.4054 34.6642 13.7806 34.6642ZM39.1387 25.1761H41.7636C45.1853 25.1761 45.1853 19.9624 41.7636 19.9624H39.1387V25.1761ZM39.1387 32.5505H43.1698C46.5915 32.5505 46.5915 27.2898 43.1698 27.2898H39.1387V32.5505Z" fill="#333333"/>
<path fill-rule="evenodd" clip-rule="evenodd" d="M2.15614 10.3335H59.5752V6.85768C59.5752 4.27431 57.4659 2.11367 54.8411 2.11367H6.89029C4.26542 2.11367 2.15614 4.27431 2.15614 6.85768V10.3335ZM28.9205 5.16675C30.3266 5.16675 30.3266 7.28041 28.9205 7.28041H24.7957C23.3895 7.28041 23.3895 5.16675 24.7957 5.16675H28.9205ZM20.5771 5.16675C21.9833 5.16675 21.9833 7.28041 20.5771 7.28041H16.4992C15.093 7.28041 15.093 5.16675 16.4992 5.16675H20.5771ZM12.2807 5.16675C13.6868 5.16675 13.6868 7.28041 12.2807 7.28041H8.15585C6.74967 7.28041 6.74967 5.16675 8.15585 5.16675H12.2807Z" fill="#BC4D4D"/>
<path fill-rule="evenodd" clip-rule="evenodd" d="M28.4517 19.9624H27.8424C26.1081 19.9624 24.7488 21.3246 24.7488 23.0625V29.4504C24.7488 33.5838 31.5453 33.5838 31.5453 29.4504V23.0625C31.5453 21.3246 30.1392 19.9624 28.4517 19.9624Z" fill="#FFE4AF"/>
<path fill-rule="evenodd" clip-rule="evenodd" d="M39.1387 19.9624V25.1761H41.7636C45.1853 25.1761 45.1853 19.9624 41.7636 19.9624H39.1387Z" fill="#FFE4AF"/>
<path fill-rule="evenodd" clip-rule="evenodd" d="M43.1698 27.2898H39.1387V32.5505H43.1698C46.5915 32.5505 46.5915 27.2898 43.1698 27.2898Z" fill="#FFE4AF"/>
<path fill-rule="evenodd" clip-rule="evenodd" d="M41.7636 17.8018C45.8415 17.8018 47.9977 22.6397 45.3259 25.6928C49.7319 27.9474 48.1383 34.6642 43.1698 34.6642H38.1075C37.4982 34.6642 37.0294 34.1945 37.0294 33.5838V18.8821C37.0294 18.3185 37.4982 17.8018 38.1075 17.8018H41.7636ZM10.3589 39.0794H47.3883C48.7476 39.0794 48.7476 41.24 47.3883 41.24H10.3589C8.95269 41.24 8.95269 39.0794 10.3589 39.0794ZM10.3589 45.6552H47.3883C48.7476 45.6552 48.7476 47.7689 47.3883 47.7689H10.3589C8.95269 47.7689 8.95269 45.6552 10.3589 45.6552ZM10.3589 52.1841H47.3883C48.7476 52.1841 48.7476 54.3448 47.3883 54.3448H10.3589C8.95269 54.3448 8.95269 52.1841 10.3589 52.1841ZM6.89029 59.6994H54.4192L51.6537 47.8629C51.4662 47.1113 52.1225 46.4068 52.9193 46.5946L59.5752 48.1916V12.4472H2.15614V54.9084C2.15614 57.5388 4.26542 59.6994 6.89029 59.6994ZM33.6546 29.4504C33.6546 32.3156 31.311 34.6642 28.4517 34.6642H27.8424C24.9363 34.6642 22.5926 32.3156 22.5926 29.4504V23.0625C22.5926 20.1503 24.9363 17.8018 27.8424 17.8018H28.4517C31.311 17.8018 33.6546 20.1503 33.6546 23.0625V29.4504ZM18.5147 18.9291V29.9202C18.5147 32.5035 16.4054 34.6642 13.7806 34.6642C9.42142 34.6642 7.78087 28.8398 10.1245 28.8398C10.7339 28.8398 11.2026 29.3095 11.2026 29.9202C11.2026 33.349 16.3586 33.349 16.3586 29.9202V18.9291C16.3586 17.52 18.5147 17.52 18.5147 18.9291Z" fill="#FFE4AF"/>
<path fill-rule="evenodd" clip-rule="evenodd" d="M60.4658 50.5871L54.0911 49.0841L57.6066 63.9737L59.7627 61.8131C60.1846 61.3903 60.8408 61.3903 61.2626 61.8131L71.9027 72.4284L77.4337 66.8859L66.7936 56.2706C66.3718 55.8478 66.3718 55.1433 66.7936 54.7675L68.9498 52.5599L60.4658 50.5871Z" fill="#FF3131"/>
</svg>
