<?xml version="1.0" encoding="UTF-8"?>
<svg version="1.1" xmlns="http://www.w3.org/2000/svg" width="512" height="512">
<path d="M0 0 C0.70801357 -0.00367669 1.41602713 -0.00735338 2.14549565 -0.01114148 C4.52988601 -0.02219877 6.91423283 -0.02602561 9.29864502 -0.02983093 C11.00347025 -0.03609406 12.7082941 -0.04274073 14.41311646 -0.04974365 C19.053744 -0.06716783 23.69436123 -0.07770937 28.33501339 -0.08594918 C31.23332588 -0.09109655 34.13163515 -0.09717241 37.02994537 -0.10346031 C46.09511323 -0.12251672 55.16027291 -0.13674665 64.22545695 -0.14507228 C74.69508615 -0.15484604 85.164504 -0.18116729 95.63405871 -0.22157317 C103.72245043 -0.25171961 111.81078152 -0.26653977 119.89922833 -0.26985329 C124.73185165 -0.27220555 129.56424931 -0.28118867 134.39681244 -0.30631447 C138.94406592 -0.32957433 143.49094482 -0.33383687 148.03824234 -0.32355309 C149.70634582 -0.3230571 151.37446761 -0.3293961 153.0425148 -0.34310913 C155.32224931 -0.36080063 157.60063557 -0.3537367 159.88037109 -0.34057617 C161.15537853 -0.34296453 162.43038597 -0.34535288 163.74403 -0.34781361 C169.00251356 0.40661418 172.05377873 2.85269231 175.50665283 6.77217102 C178.39691946 10.83995368 178.35370906 13.9337104 178.37115479 18.79048157 C178.37772598 19.57932236 178.38429718 20.36816315 178.3910675 21.1809082 C178.41082032 23.79856966 178.42246916 26.41617361 178.43243408 29.03388977 C178.43650961 29.92798868 178.44058514 30.82208759 178.44478416 31.74328041 C178.46565607 36.47808731 178.47995139 41.21286515 178.48931885 45.94770813 C178.50036926 50.83249783 178.53475003 55.71683023 178.57449055 60.60145855 C178.60067477 64.36164175 178.60901242 68.12171646 178.61260033 71.8819828 C178.61746376 73.68206168 178.62907084 75.48213579 178.64763832 77.28212547 C178.67206245 79.80741082 178.67105878 82.3315198 178.66412354 84.85688782 C178.68333862 85.96456512 178.68333862 85.96456512 178.70294189 87.09461975 C178.64762597 92.64462428 177.27263642 95.68999539 174.19415283 100.14717102 C166.39934236 106.19212608 163.25591911 105.14717102 152.19415283 105.14717102 C152.19415283 134.18717102 152.19415283 163.22717102 152.19415283 193.14717102 C155.16415283 193.80717102 158.13415283 194.46717102 161.19415283 195.14717102 C176.12329658 202.50496749 186.48035319 214.61077198 192.19415283 230.14717102 C196.94548694 246.0683081 194.86284259 262.27808684 187.38165283 276.95967102 C184.55169875 281.89580576 181.1445773 286.06818245 177.19415283 290.14717102 C180.30395241 292.73867066 183.51773491 295.03132491 186.88165283 297.27217102 C201.97312299 307.85638189 211.59050852 322.57923382 215.74183941 340.51320648 C216.20143815 343.18959576 216.32837854 345.6703512 216.34132385 348.38435364 C216.35205681 349.93623634 216.35205681 349.93623634 216.36300659 351.51947021 C216.3656955 352.64377945 216.3683844 353.76808868 216.37115479 354.9264679 C216.37772598 356.11885574 216.38429718 357.31124359 216.3910675 358.5397644 C216.41076451 362.48181016 216.42245681 366.42384258 216.43243408 370.36592102 C216.43648396 371.72569804 216.44060095 373.08547485 216.44478416 374.44525146 C216.46381094 380.83058119 216.47805113 387.21589949 216.48639613 393.60125208 C216.49618057 400.96533311 216.52254166 408.32911454 216.56289703 415.69308996 C216.59305295 421.39173814 216.60786421 427.09030032 216.61117715 432.78902674 C216.61352685 436.19023627 216.62247735 439.59112476 216.64763832 442.99224854 C216.6718934 446.78436939 216.6710897 450.57570006 216.66412354 454.36787415 C216.68333862 456.054338 216.68333862 456.054338 216.70294189 457.77487183 C216.65232224 465.31690617 216.65232224 465.31690617 214.47727966 469.25837708 C208.9302122 473.84737638 203.5312865 473.42385073 196.6206665 473.3742218 C195.55679718 473.37451385 194.49292786 473.37480591 193.39682007 473.37510681 C189.88517055 473.373715 186.37373398 473.35816054 182.86212158 473.34248352 C180.42546199 473.33875287 177.98880091 473.33590614 175.55213928 473.33390808 C169.14224091 473.32627576 162.73243333 473.3066306 156.3225708 473.28450012 C149.78042835 473.26403313 143.23827121 473.25490453 136.69610596 473.24482727 C123.86208287 473.22338443 111.02812268 473.18963825 98.19415283 473.14717102 C98.09151123 473.92632874 97.98886963 474.70548645 97.88311768 475.508255 C97.19415283 478.14717102 97.19415283 478.14717102 94.17071533 480.36982727 C92.12122478 481.93661691 91.30765359 482.69412625 90.67364502 485.22480774 C90.52330221 487.69216841 90.50827735 490.11350712 90.56915283 492.58467102 C90.66843754 499.00342744 90.58354441 503.02093212 86.19415283 508.14717102 C83.1172979 510.19840764 82.49744277 510.39781166 79.02833748 510.40443993 C78.17549931 510.41088882 77.32266114 510.41733771 76.44397938 510.42398202 C75.50673712 510.42088482 74.56949486 510.41778762 73.60385132 510.41459656 C72.11071799 510.42139323 72.11071799 510.42139323 70.58742034 510.4283272 C67.23639528 510.44103454 63.88553142 510.43934675 60.53448486 510.43769836 C58.13824249 510.44367965 55.74200205 510.45048426 53.34576416 510.45805359 C47.50308368 510.47392021 41.66044129 510.48016374 35.81774367 510.48127834 C31.06909128 510.4822282 26.32045222 510.48633537 21.57180405 510.4926796 C8.11249311 510.51029573 -5.34678591 510.5195179 -18.80610846 510.51801865 C-19.8948341 510.51789878 -19.8948341 510.51789878 -21.0055542 510.51777649 C-21.73225615 510.51769473 -22.45895809 510.51761297 -23.20768131 510.51752873 C-34.98617891 510.51671575 -46.76454865 510.53585544 -58.54300927 510.56405322 C-70.63314019 510.59276906 -82.72320874 510.60659423 -94.81337464 510.60486567 C-101.60266716 510.60420131 -108.39182566 510.60971357 -115.18108749 510.63122177 C-121.56520168 510.65131662 -127.9491057 510.65077315 -134.33323669 510.63618851 C-136.67902667 510.63409122 -139.02483408 510.63885566 -141.37059402 510.65090942 C-144.56792562 510.66627739 -147.76426903 510.65710915 -150.96157837 510.64164734 C-151.89435919 510.65193447 -152.82714 510.66222159 -153.78818691 510.67282045 C-157.99078201 510.62777227 -160.21004863 510.52172213 -163.83987617 508.23981667 C-167.02199291 504.85266459 -168.05109616 502.40219421 -168.00897217 497.77607727 C-168.02057373 496.95429993 -168.03217529 496.13252258 -168.04412842 495.2858429 C-168.05192315 493.57230115 -168.04418001 491.85861637 -168.02069092 490.1452179 C-167.99378125 485.50915746 -167.99378125 485.50915746 -170.15545654 481.61152649 C-171.69121199 480.43769191 -173.24791258 479.29140536 -174.80584717 478.14717102 C-175.49432373 475.50874329 -175.49432373 475.50874329 -175.80584717 473.14717102 C-176.36207323 473.1499364 -176.91829929 473.15270178 -177.49138069 473.15555096 C-191.03771403 473.22185999 -204.58401885 473.27128387 -218.13047981 473.30260754 C-224.68151013 473.3182647 -231.23242332 473.33950426 -237.78338623 473.37348938 C-244.10518419 473.40608047 -250.42686948 473.42402366 -256.74874496 473.43180275 C-259.1608851 473.43734666 -261.57301906 473.44817247 -263.98511124 473.46436119 C-267.36315499 473.48613162 -270.74073286 473.48913804 -274.11883545 473.48774719 C-275.61532372 473.50392593 -275.61532372 473.50392593 -277.14204407 473.52043152 C-282.4297763 473.4968668 -286.30088414 473.23810243 -290.80584717 470.14717102 C-293.56537866 467.11865522 -294.1823442 465.16536043 -294.19352722 461.09753418 C-294.20343185 460.07877197 -294.21333649 459.06000977 -294.22354126 458.01037598 C-294.21903961 456.89818192 -294.21453796 455.78598785 -294.2098999 454.64009094 C-294.21676315 453.46391205 -294.2236264 452.28773315 -294.23069763 451.07591248 C-294.24587004 447.84992471 -294.24745512 444.62429882 -294.24175525 441.3982904 C-294.23865958 438.69544668 -294.24476148 435.9926549 -294.25079399 433.28981858 C-294.26484922 426.89920782 -294.26327548 420.50873063 -294.25189209 414.11811829 C-294.24046649 407.5596201 -294.25438964 401.00153349 -294.28128856 394.44308966 C-294.30358913 388.79098765 -294.31004929 383.13901339 -294.30421215 377.48687059 C-294.30086842 374.12107615 -294.30482951 370.75575173 -294.32046318 367.38995934 C-294.415995 343.42931922 -292.28289042 324.35236064 -275.02069092 306.32295227 C-268.76041354 300.17308543 -262.48434799 295.44272578 -254.80584717 291.14717102 C-255.16936279 290.68568665 -255.53287842 290.22420227 -255.90740967 289.74873352 C-268.38896014 273.55472189 -273.281292 258.44961355 -271.80584717 238.14717102 C-269.1490221 223.29931438 -261.01173652 210.15211563 -248.80584717 201.33467102 C-242.52592897 197.1833754 -237.2691938 194.3268613 -229.80584717 193.14717102 C-229.81472961 191.8642366 -229.82361206 190.58130219 -229.83276367 189.25949097 C-229.91395828 177.15095643 -229.97386494 165.04247735 -230.01309586 152.93373203 C-230.03394312 146.7089456 -230.06220906 140.4843795 -230.10760498 134.25971985 C-230.15116391 128.24912293 -230.17500579 122.23873754 -230.18535614 116.22799492 C-230.19272941 113.93833526 -230.20712764 111.64868678 -230.2287674 109.35911751 C-230.25793417 106.14441817 -230.26179752 102.93058555 -230.25994873 99.71577454 C-230.28152039 98.30559555 -230.28152039 98.30559555 -230.30352783 96.8669281 C-230.2466536 87.68783269 -227.02631515 80.57300062 -220.79412842 73.87373352 C-213.45589442 67.50143603 -204.28272248 66.9880113 -194.94075012 67.0269165 C-194.17931196 67.02606208 -193.4178738 67.02520765 -192.63336176 67.02432734 C-190.09846593 67.02268873 -187.56363723 67.02816723 -185.02874756 67.03364563 C-183.20507814 67.03392788 -181.38140861 67.03376903 -179.55773926 67.03320312 C-174.61821867 67.03291662 -169.67872244 67.0387897 -164.73920751 67.04577708 C-159.57289965 67.05203499 -154.40659121 67.05261635 -149.24028015 67.05380249 C-139.46215932 67.05690862 -129.6840497 67.06511233 -119.9059338 67.07515198 C-108.77176475 67.08633542 -97.63759517 67.09182919 -86.5034219 67.09684741 C-63.60422412 67.10729553 -40.70503627 67.12488107 -17.80584717 67.14717102 C-17.81472961 66.45892242 -17.82361206 65.77067383 -17.83276367 65.06156921 C-17.92133012 57.89145725 -17.98162055 50.72150096 -18.02557373 43.55097961 C-18.04341542 40.87553727 -18.07295766 38.20095086 -18.10760498 35.52558899 C-18.15618223 31.67798531 -18.17883082 27.83096315 -18.19647217 23.98310852 C-18.21711731 22.78914459 -18.23776245 21.59518066 -18.2590332 20.36503601 C-18.26075274 13.98653934 -18.19010158 9.94663894 -13.80584717 5.14717102 C-8.91262652 0.83647664 -6.49296158 0.02178843 0 0 Z M-133.80584717 352.14717102 C-133.47584717 354.78717102 -133.14584717 357.42717102 -132.80584717 360.14717102 C-130.65207152 357.52518328 -129.40512543 355.5031293 -128.80584717 352.14717102 C-130.45584717 352.14717102 -132.10584717 352.14717102 -133.80584717 352.14717102 Z M51.19415283 352.14717102 C52.18415283 354.78717102 53.17415283 357.42717102 54.19415283 360.14717102 C56.34609653 356.91925547 56.39501726 355.86316293 56.19415283 352.14717102 C54.54415283 352.14717102 52.89415283 352.14717102 51.19415283 352.14717102 Z " fill="#010101" transform="translate(294.80584716796875,0.8528289794921875)"/>
<path d="M0 0 C0.77197997 -0.00256327 1.54395994 -0.00512655 2.33933324 -0.0077675 C4.92208896 -0.01270283 7.50425811 0.00378313 10.08695984 0.02018738 C11.9398904 0.02103371 13.79282197 0.0205584 15.64575195 0.01885986 C20.67430922 0.01799871 25.70265204 0.03564404 30.73115945 0.05658174 C35.98688945 0.07532841 41.24262429 0.07709739 46.49838257 0.08065796 C56.45015031 0.08998432 66.40181924 0.11460615 76.35354346 0.14470643 C87.68353876 0.178232 99.01353876 0.19473182 110.34357131 0.20979273 C133.64960912 0.24115515 156.95555922 0.29392719 180.26152039 0.36076355 C180.44654114 1.38375549 180.44654114 1.38375549 180.63529968 2.42741394 C180.8045697 3.32452087 180.97383972 4.22162781 181.14823914 5.1459198 C181.3128363 6.03416443 181.47743347 6.92240906 181.64701843 7.83757019 C182.73882137 12.32059893 184.92287073 15.21897414 188.38652039 18.17326355 C191.25335448 19.35739068 193.37557263 19.6641928 196.44120789 19.9349823 C197.3433905 20.01707947 198.24557312 20.09917664 199.1750946 20.1837616 C199.86361511 20.24217224 200.55213562 20.30058289 201.26152039 20.36076355 C201.28657654 20.97596863 201.31163269 21.59117371 201.33744812 22.22502136 C201.45370526 25.02046511 201.5762968 27.81559653 201.69902039 30.61076355 C201.73833679 31.57884949 201.7776532 32.54693542 201.81816101 33.5443573 C201.88100281 34.94621277 201.88100281 34.94621277 201.94511414 36.37638855 C201.98177185 37.23522644 202.01842957 38.09406433 202.05619812 38.97892761 C202.24855552 41.21036498 202.64998283 43.21058879 203.26152039 45.36076355 C207.05425298 46.25620136 210.60705012 47.03423677 214.3079071 45.52775574 C216.36989772 44.19787937 218.28126936 42.76618555 220.19902039 41.23576355 C222.28595157 39.65916413 224.37369949 38.09526444 226.49980164 36.57145691 C228.71635989 34.79715219 230.40063538 33.13708576 232.28886414 31.05827332 C243.39613678 19.96620219 255.59244487 20.09823906 270.39394951 20.08976555 C277.3963327 20.12921763 284.38448488 20.35669671 291.38652039 20.54826355 C312.11464539 20.95045105 312.11464539 20.95045105 333.26152039 21.36076355 C333.26152039 49.74076355 333.26152039 78.12076355 333.26152039 107.36076355 C326.33152039 108.35076355 326.33152039 108.35076355 319.26152039 109.36076355 C301.26353605 115.72368731 289.48142085 125.21307318 281.26152039 142.36076355 C275.14925851 156.22892075 275.45646406 171.01676699 280.77714539 185.0209198 C284.42483739 193.22822681 289.10769856 199.84281025 295.26152039 206.36076355 C292.85599752 209.96904785 290.63426092 210.89450952 286.84355164 212.7865448 C284.51898987 214.20378896 283.10731126 215.51351836 281.20935726 217.41111279 C276.84150191 221.16673853 273.10430326 221.20896266 267.51409912 221.12939453 C266.55004432 221.13946004 265.58598951 221.14952555 264.59272093 221.15989608 C261.37118108 221.18611264 258.15131587 221.16957228 254.92973328 221.15299988 C252.61657556 221.16276993 250.30342736 221.17507642 247.99029541 221.18972778 C241.71333526 221.22134751 235.43695046 221.21486295 229.15994954 221.19964814 C223.91875778 221.19049843 218.67767147 221.20019939 213.43648618 221.20998687 C200.36502106 221.23420651 187.29387448 221.22228693 174.22243106 221.19320407 C163.58497658 221.17048987 152.94800329 221.18216194 142.31059265 221.21842957 C129.94741643 221.26057671 117.58456056 221.27889151 105.22131342 221.26340503 C98.68061089 221.25535861 92.14030162 221.25715662 85.5996418 221.28426552 C79.44910231 221.30840048 73.29954025 221.29843066 67.14906883 221.2622776 C64.89323881 221.25462633 62.637332 221.25887328 60.38155365 221.27595139 C57.29855977 221.29736486 54.21875401 221.27553039 51.13592529 221.24291992 C49.80064595 221.26736568 49.80064595 221.26736568 48.43839127 221.29230529 C41.32467961 221.14180824 38.15150865 218.25776692 33.26152039 213.36076355 C30.64221506 211.60450223 30.64221506 211.60450223 28.26152039 210.42326355 C27.49839539 210.02236511 26.73527039 209.62146667 25.94902039 209.2084198 C25.39214539 208.92869324 24.83527039 208.64896667 24.26152039 208.36076355 C24.26152039 205.36076355 24.26152039 205.36076355 25.54667664 203.8099823 C26.13320007 203.22861511 26.71972351 202.64724792 27.32402039 202.04826355 C38.00368653 190.22047914 41.97914195 174.69894457 41.60917664 159.06388855 C40.23521629 144.42889521 32.98016283 131.25099357 22.26152039 121.36076355 C13.05719461 114.27094505 2.92792209 109.56721564 -8.62910461 108.2240448 C-9.31633606 108.13852356 -10.0035675 108.05300232 -10.71162415 107.96488953 C-12.38649053 107.75735174 -14.06238992 107.55817858 -15.73847961 107.36076355 C-15.80796958 94.53915509 -15.86128591 81.71759139 -15.89391613 68.89583302 C-15.90957646 62.94226241 -15.93082172 56.98882058 -15.96479797 51.0353241 C-15.9973779 45.29059265 -16.01532986 39.54598514 -16.02311134 33.80116844 C-16.02865727 31.60869585 -16.03948701 29.41623008 -16.05566978 27.2238102 C-16.07742555 24.15448437 -16.08044727 21.08567157 -16.07905579 18.01628113 C-16.08984161 17.10853439 -16.10062744 16.20078766 -16.11174011 15.26553345 C-16.0883765 10.50740093 -15.97559731 7.12706447 -12.73847961 3.36076355 C-8.59771062 0.23284719 -5.02444219 -0.06124163 0 0 Z " fill="#E4F6FD" transform="translate(96.73847961425781,84.63923645019531)"/>
<path d="M0 0 C9.71932248 7.62875123 15.63674506 19.02898838 18 31 C19.47430915 45.12321151 15.80264143 58.18491048 7.125 69.4296875 C2.64130435 74.67934783 2.64130435 74.67934783 0 76 C1.07636719 76.59425781 2.15273438 77.18851562 3.26171875 77.80078125 C26.1270134 90.67286158 42.11033337 107.37756736 50.08984375 132.72265625 C52.26141855 140.54218954 53.33309892 148.60861534 50.9375 156.5 C48.39011221 159.78695199 45.87955947 161.62073238 42 163 C37.31037486 163.58905273 32.63258947 163.54769343 27.9140625 163.51757812 C26.48597502 163.52300425 25.05789314 163.53012966 23.62982178 163.53881836 C19.76611254 163.55699665 15.90283229 163.5500072 12.03911591 163.53730202 C7.98781717 163.5271457 3.93655415 163.53657498 -0.11474609 163.54284668 C-6.91705898 163.55011545 -13.71919792 163.5405557 -20.52148438 163.52148438 C-28.37588377 163.49971701 -36.22986779 163.50676893 -44.08425713 163.52879 C-50.83862795 163.54696604 -57.59287404 163.54949158 -64.34726143 163.53903532 C-68.37665741 163.53281246 -72.4058584 163.53193132 -76.4352417 163.54518127 C-80.22425444 163.55677142 -84.01273378 163.54865707 -87.80168915 163.52560425 C-89.1887702 163.52033393 -90.57589647 163.52180218 -91.96295929 163.53065491 C-105.06653354 163.6065497 -105.06653354 163.6065497 -111 159 C-114.92249436 153.81218487 -114.65232533 148.21583561 -114 142 C-110.43254836 120.70747419 -99.29158201 101.1615063 -82 88 C-75.88786904 83.89397578 -69.62264103 80.23200745 -63 77 C-63.36351562 76.52691406 -63.72703125 76.05382812 -64.1015625 75.56640625 C-74.84572734 61.43369712 -81.42708139 49.28702866 -80 31 C-77.47579149 17.96839343 -70.65586853 5.91507656 -59.58203125 -1.65234375 C-39.95818078 -13.79478678 -19.04798787 -12.95047334 0 0 Z " fill="#040403" transform="translate(287,129)"/>
<path d="M0 0 C3.68787003 0.85262237 7.44096218 0.65211004 11.2097168 0.6550293 C12.0224707 0.66727539 12.83522461 0.67952148 13.67260742 0.69213867 C18.68427848 0.7040997 23.17095851 0.16710401 28.02001953 -1.11376953 C35.99757104 -2.78204179 45.19367795 1.1620604 51.8894043 5.1940918 C64.57198677 14.01217545 73.3509331 25.64082222 76.6125145 40.91226006 C77.33741803 45.43340552 77.28255797 49.9261502 77.24926758 54.49511719 C77.24955963 55.55957062 77.24985168 56.62402405 77.25015259 57.72073364 C77.2487683 61.21063623 77.23324958 64.70032063 77.2175293 68.19018555 C77.21379597 70.62112817 77.21095051 73.0520723 77.20895386 75.48301697 C77.20134263 81.85997726 77.18171574 88.23684545 77.1595459 94.61376953 C77.13542245 102.27642667 77.12629454 109.93911471 77.11463928 117.60179901 C77.0952899 129.22377302 77.05694961 140.84554524 77.0222168 152.4675293 C41.7122168 152.4675293 6.4022168 152.4675293 -29.9777832 152.4675293 C-44.9777832 116.4675293 -44.9777832 116.4675293 -44.9777832 113.4675293 C-44.3487207 113.38116211 -43.7196582 113.29479492 -43.0715332 113.20581055 C-34.4663208 111.79320791 -27.79007817 108.60280244 -22.37255859 101.58764648 C-16.34013929 92.41811572 -14.76710822 79.94702212 -12.2902832 69.4050293 C-11.68759977 66.85980453 -11.08306396 64.3150432 -10.47587585 61.77088928 C-10.10120316 60.19902608 -9.72935745 58.62648569 -9.360672 57.0532074 C-8.08882298 51.68960885 -8.08882298 51.68960885 -6.9777832 49.4675293 C-6.70399 47.13054254 -6.70399 47.13054254 -6.6652832 44.5300293 C-6.62790039 43.65475586 -6.59051758 42.77948242 -6.55200195 41.87768555 C-6.76080275 39.33289092 -6.76080275 39.33289092 -8.8059082 37.67456055 C-11.73016669 36.04938811 -13.68290857 36.046907 -16.9777832 36.4675293 C-20.6453797 39.42148702 -21.26288489 43.29384415 -22.3527832 47.6862793 C-22.56338379 48.49939575 -22.77398437 49.31251221 -22.9909668 50.15026855 C-23.66300993 52.75362616 -24.32069225 55.36036197 -24.9777832 57.9675293 C-25.41952218 59.69173627 -25.86222063 61.41569773 -26.3059082 63.1394043 C-27.15601493 66.44522056 -28.00256742 69.75191232 -28.84643555 73.05932617 C-33.92350325 92.90156805 -33.92350325 92.90156805 -38.11477661 96.09654236 C-41.72464714 97.82517454 -44.41151719 97.86861824 -48.41088867 97.90332031 C-49.14164612 97.91339615 -49.87240356 97.92347198 -50.62530518 97.93385315 C-53.03201758 97.96226211 -55.43810125 97.96820595 -57.8449707 97.97143555 C-59.52499648 97.98108156 -61.20501975 97.9911744 -62.88504028 98.00169373 C-66.40380696 98.01963735 -69.92235292 98.02521659 -73.44116211 98.0234375 C-77.93949955 98.02313273 -82.43641521 98.06408665 -86.93441582 98.11575413 C-90.40384356 98.14919053 -93.87293025 98.15519288 -97.34250259 98.15360832 C-99.00025458 98.15713733 -100.65801643 98.17034482 -102.31560898 98.19360542 C-116.88316257 98.37889552 -116.88316257 98.37889552 -121.48608398 94.61181641 C-124.21372798 91.70171019 -124.9137174 89.14662676 -125.2902832 85.1550293 C-124.91569174 80.73485009 -123.81392334 78.84023648 -120.9777832 75.4675293 C-117.26151372 72.78080086 -114.69156653 72.09203321 -110.13354492 72.08276367 C-108.98240204 72.07265259 -107.83125916 72.0625415 -106.64523315 72.05212402 C-105.41177155 72.05514526 -104.17830994 72.0581665 -102.9074707 72.0612793 C-100.99769943 72.04502502 -100.99769943 72.04502502 -99.04934692 72.02844238 C-94.29252366 71.98833826 -89.53588814 71.97439933 -84.77893066 71.96221924 C-80.11323749 71.94886981 -75.44802907 71.91354814 -70.7824707 71.8737793 C-68.9262056 71.87831116 -68.9262056 71.87831116 -67.03244019 71.88293457 C-65.88760162 71.87282349 -64.74276306 71.8627124 -63.56323242 71.85229492 C-62.05030106 71.84921326 -62.05030106 71.84921326 -60.50680542 71.84606934 C-57.59064475 71.40958303 -56.71952528 70.79757823 -54.9777832 68.4675293 C-54.19958923 66.46450204 -54.19958923 66.46450204 -53.7668457 64.21362305 C-53.57687012 63.36807861 -53.38689453 62.52253418 -53.19116211 61.65136719 C-52.99699707 60.74507568 -52.80283203 59.83878418 -52.6027832 58.9050293 C-52.16752951 56.99566168 -51.72998863 55.08681415 -51.2902832 53.1784668 C-51.07114258 52.21908203 -50.85200195 51.25969727 -50.6262207 50.27124023 C-42.87546279 16.75855051 -42.87546279 16.75855051 -27.9777832 6.4675293 C-18.61878071 1.00319367 -10.78059922 -2.90241784 0 0 Z " fill="#71D460" transform="translate(417.977783203125,304.532470703125)"/>
<path d="M0 0 C4.24142229 0.93323185 8.64006009 0.64439783 12.96435547 0.6472168 C13.94533203 0.65946289 14.92630859 0.67170898 15.93701172 0.68432617 C21.11594975 0.69480985 25.20642582 0.36156884 30.08935547 -1.5402832 C41.92241419 -1.33268568 52.75073749 4.31783572 61.08935547 12.4597168 C71.27809934 23.5947155 74.15225594 38.89277769 77.41357422 53.19018555 C77.63150635 54.14054687 77.84943848 55.0909082 78.07397461 56.07006836 C78.49415308 57.92506898 78.90386318 59.7824784 79.30200195 61.64233398 C79.49221924 62.48828125 79.68243652 63.33422852 79.87841797 64.20581055 C80.04035645 64.95531982 80.20229492 65.7048291 80.36914062 66.47705078 C81.24941454 68.90034044 82.05242202 69.87319746 84.08935547 71.4597168 C86.64127655 71.90575112 86.64127655 71.90575112 89.55126953 71.82861328 C91.22881317 71.83893837 91.22881317 71.83893837 92.94024658 71.84947205 C94.14960876 71.84331375 95.35897095 71.83715546 96.60498047 71.83081055 C99.16097136 71.84819761 101.71696091 71.86578194 104.27294922 71.88354492 C108.30631705 71.89661819 112.33966257 71.89722035 116.37304688 71.89550781 C120.26312685 71.89908194 124.15252238 71.92644864 128.04248047 71.95581055 C129.24374573 71.94762802 130.44501099 71.9394455 131.68267822 71.93101501 C138.36955547 71.99035032 142.68645134 72.39061348 148.08935547 76.4597168 C150.56929792 79.41964811 151.05128476 81.10439017 151.46435547 84.9597168 C150.9415426 89.83930359 149.39751583 92.16915868 145.94836426 95.57189941 C142.41607165 97.90428937 139.62531686 98.02503141 135.53271484 97.97729492 C134.78899124 97.9843042 134.04526764 97.99131348 133.27900696 97.99853516 C130.829989 98.0160853 128.38213439 98.0045039 125.93310547 97.9909668 C124.22586852 97.99366259 122.51863307 97.99754574 120.81140137 98.00256348 C117.23707429 98.00845445 113.66314764 97.99990872 110.08886719 97.98120117 C105.51212439 97.95841157 100.9363199 97.97153684 96.35961151 97.99549103 C92.83535723 98.00996 89.31132463 98.00533804 85.7870636 97.99497986 C84.09979643 97.9923156 82.412509 97.99557177 80.7252655 98.00489807 C78.36496845 98.01508219 76.00618099 97.99953866 73.64599609 97.97729492 C72.95182083 97.98539185 72.25764557 97.99348877 71.54243469 98.00183105 C66.80252042 97.91926764 64.41106956 96.81306444 61.08935547 93.4597168 C57.53478307 87.0528168 56.3495274 79.73189877 54.71435547 72.6472168 C54.10021521 70.04851972 53.47966955 67.45136532 52.85888672 64.85424805 C52.55805176 63.59306152 52.2572168 62.331875 51.94726562 61.0324707 C50.80798353 56.28794762 49.64562266 51.55295313 48.40185547 46.8347168 C48.22412598 46.11437256 48.04639648 45.39402832 47.86328125 44.65185547 C47.05607291 41.66621478 46.35357957 39.72182711 44.13623047 37.5222168 C41.27819344 36.03865559 39.25979658 36.05497963 36.08935547 36.4597168 C34.14194451 37.95595453 33.22886362 38.90982218 32.62060547 41.30737305 C32.52912232 47.79124109 34.0570059 53.62706457 35.88818359 59.79003906 C37.26746469 64.44416284 38.50017707 69.09753771 39.58154297 73.83081055 C39.83274902 74.9283667 40.08395508 76.02592285 40.34277344 77.15673828 C40.8280835 79.30381473 41.30419016 81.45299949 41.76953125 83.60449219 C44.22300054 94.34854973 47.77241486 103.06434074 57.08935547 109.4597168 C61.52172882 112.03182211 66.01071704 112.94148839 71.08935547 113.4597168 C68.79954254 127.19859436 61.52908538 139.6374963 56.08935547 152.4597168 C20.77935547 152.4597168 -14.53064453 152.4597168 -50.91064453 152.4597168 C-51.03097096 125.73833671 -51.03097096 125.73833671 -51.05712891 114.29956055 C-51.0750238 106.51124904 -51.09613547 98.72304391 -51.13696289 90.93481445 C-51.16969101 84.65189197 -51.18752593 78.36908365 -51.19527626 72.08608246 C-51.20079566 69.69564773 -51.21157339 67.30521886 -51.2278347 64.91483307 C-51.2497876 61.55238103 -51.25260399 58.19039366 -51.2512207 54.82788086 C-51.26200653 53.85179367 -51.27279236 52.87570648 -51.28390503 51.87004089 C-51.21381072 36.00125509 -45.49754271 23.39288016 -34.61376953 11.97143555 C-25.04985765 3.08473708 -13.10574429 -3.70598162 0 0 Z " fill="#63B4F5" transform="translate(67.91064453125,304.540283203125)"/>
<path d="M0 0 C47.52 0 95.04 0 144 0 C144.99 2.97 145.98 5.94 147 9 C146.10804932 9.0093457 145.21609863 9.01869141 144.29711914 9.02832031 C140.94740903 9.07266718 137.59891591 9.13442503 134.24975586 9.20751953 C132.80781528 9.23552463 131.36572702 9.25683968 129.92358398 9.27099609 C118.16730447 9.3932451 109.58984398 10.89139514 100.7265625 19.13671875 C97.03627535 23.11922321 94.50987741 27.5188178 94 33 C93.92523438 33.69609375 93.85046875 34.3921875 93.7734375 35.109375 C93.28060308 43.25411226 95.5545312 50.92021895 100.8671875 57.2109375 C109.01209651 64.72200145 116.41040877 65.45502306 127.15234375 65.51171875 C128.40761368 65.52966995 129.66288361 65.54762115 130.95619202 65.56611633 C134.27208993 65.61096047 137.58762313 65.64333777 140.90368652 65.66955566 C144.29595134 65.69948562 147.68798628 65.74597273 151.08007812 65.79101562 C157.71994544 65.87584907 164.35982832 65.94423805 171 66 C181.81673612 90.6972515 181.81673612 90.6972515 186.625 102.8125 C187.05683594 103.88435547 187.48867188 104.95621094 187.93359375 106.06054688 C191 113.74603175 191 113.74603175 191 116 C112.46 116 33.92 116 -47 116 C-45.00043936 109.33479786 -42.96006421 103.12414629 -40.2421875 96.78125 C-39.8936673 95.95669312 -39.54514709 95.13213623 -39.18606567 94.28259277 C-38.08723107 91.68630525 -36.9811789 89.09316555 -35.875 86.5 C-35.12583897 84.731967 -34.37713713 82.96373935 -33.62890625 81.1953125 C-28.24291043 68.48582086 -28.24291043 68.48582086 -27 66 C-26.30810577 65.99857498 -25.61621155 65.99714996 -24.90335083 65.99568176 C-18.3427499 65.9777592 -11.78277383 65.93587481 -5.22249031 65.86790943 C-1.8507126 65.83380008 1.52061981 65.80855488 4.89257812 65.80444336 C8.7805118 65.79511117 12.66704822 65.75402167 16.5546875 65.70703125 C18.34747635 65.71293022 18.34747635 65.71293022 20.17648315 65.71894836 C28.56362415 65.57448551 35.48031307 64.04458676 41.87472534 58.32234192 C47.40292622 52.52858813 50.20647869 45.91275732 50.4375 37.9375 C50.06586679 29.04082616 47.37758341 23.9638994 41.71875 17.17578125 C32.56748665 9.8521409 23.03586648 9.23029273 11.8125 9.1875 C10.36910374 9.16430053 8.92574077 9.13892411 7.48242188 9.11132812 C3.98830597 9.04917329 0.49466661 9.01628992 -3 9 C-2.01 6.03 -1.02 3.06 0 0 Z " fill="#C67428" transform="translate(184,352)"/>
<path d="M0 0 C54.12 0 108.24 0 164 0 C164 23.76 164 47.52 164 72 C163 73 163 73 161.09999943 73.10235214 C160.26150172 73.09192005 159.42300402 73.08148796 158.55909729 73.07073975 C157.59927948 73.06174149 156.63946167 73.05274323 155.65055847 73.04347229 C154.58839615 73.02880417 153.52623383 73.01413605 152.43188477 72.99902344 C150.12456278 72.97624433 147.81723513 72.95403468 145.50990295 72.93231201 C143.66187922 72.91313847 143.66187922 72.91313847 141.77652168 72.89357758 C134.5682641 72.82929242 127.35974085 72.81949522 120.15124047 72.80426168 C112.53037044 72.78752133 104.91100452 72.75038388 97.29077148 72.64697266 C90.58452019 72.55610998 83.8811303 72.53489022 77.17414665 72.55335236 C74.62945243 72.54907968 72.08468129 72.52208449 69.54049873 72.4708786 C52.73530095 72.14943331 42.46154183 74.06257776 29.82497978 85.47458649 C27.08848523 87.7618917 24.15207737 89.34521239 21 91 C20.96261719 90.02417969 20.92523438 89.04835938 20.88671875 88.04296875 C20.82097656 86.77066406 20.75523437 85.49835938 20.6875 84.1875 C20.62949219 82.92292969 20.57148438 81.65835938 20.51171875 80.35546875 C20.21494627 77.13940814 20.21494627 77.13940814 18.96484375 75.08984375 C15.79286705 73.33043719 12.41860078 73.46218877 8.875 73.375 C1.10472973 73.10472973 1.10472973 73.10472973 0 72 C0 48.24 0 24.48 0 0 Z " fill="#FCD72C" transform="translate(293,17)"/>
<path d="M0 0 C1.45792969 0.52787109 1.45792969 0.52787109 2.9453125 1.06640625 C21.46025319 8.24035386 34.23685435 20.34651777 42.5703125 38.40234375 C45.2540983 44.97378499 46.18505801 49.66552209 47 57 C2.78 57 -41.44 57 -87 57 C-84.87591286 37.88321576 -75.78833859 23.0775138 -61.1875 10.75 C-44.06947772 -2.31236777 -20.53431505 -7.77058427 0 0 Z " fill="#FDD92C" transform="translate(276,219)"/>
<path d="M0 0 C2.04597658 1.45085411 3.9233354 2.98686432 5.8046875 4.64453125 C6.73087891 5.43150391 6.73087891 5.43150391 7.67578125 6.234375 C14.44668754 12.42283774 19.19777605 21.50447908 20.10546875 30.6875 C20.15447702 43.83805264 17.2288376 55.20510419 7.9921875 64.89453125 C4.23331478 68.43519226 0.40905164 71.30242695 -4.1953125 73.64453125 C-4.81277344 73.96421875 -5.43023437 74.28390625 -6.06640625 74.61328125 C-15.19705137 78.45776341 -27.94914179 78.12802787 -37.2578125 75.08203125 C-48.92093781 69.99169325 -57.41345369 60.78400269 -62.26171875 49.1640625 C-63.35091402 46.22460245 -64.00306087 43.78464117 -64.1953125 40.64453125 C-64.2571875 39.773125 -64.3190625 38.90171875 -64.3828125 38.00390625 C-64.84402895 26.76175526 -61.34277599 17.32018293 -54.1953125 8.64453125 C-40.19317186 -6.2176257 -17.94649782 -11.08084474 0 0 Z " fill="#FDD4BB" transform="translate(103.1953125,213.35546875)"/>
<path d="M0 0 C7.66784877 6.04638668 13.31057925 15.37030175 15 25 C16.08817699 36.47686673 13.61850087 47.54180863 6.76171875 56.9375 C-0.54308388 65.48946405 -9.53937673 71.93325812 -20.97900391 73.22314453 C-34.2179839 73.95635105 -44.79614968 71.99065368 -55 63 C-55.61746094 62.47535156 -56.23492187 61.95070313 -56.87109375 61.41015625 C-64.89561818 54.07591349 -68.37326426 44.56903927 -69.25390625 33.93359375 C-69.66784313 22.62376986 -66.70120476 13.37012901 -59 5 C-42.17098376 -12.31353686 -19.51090597 -13.70949041 0 0 Z " fill="#FDD4BB" transform="translate(458,217)"/>
<path d="M0 0 C8.67511783 5.04285305 13.78919075 11.06044068 17.4375 20.4375 C20.03747606 31.08580961 17.86833559 39.18847804 12.6875 48.625 C6.19576166 56.73967292 -1.12458768 61.60049708 -11.6171875 62.78125 C-22.05583856 63.09998744 -29.80491951 60.42586892 -37.5625 53.4375 C-44.54052675 46.56998499 -47.59932811 39.07262461 -47.875 29.25 C-47.71324238 19.19406789 -43.64709095 12.71915962 -36.80078125 5.5703125 C-26.93226402 -3.83319607 -12.31172346 -5.82206343 0 0 Z " fill="#FDD4BB" transform="translate(270.5625,137.5625)"/>
<path d="M0 0 C69.3 0 138.6 0 210 0 C208.48554367 5.04818777 206.95740073 10.10649817 205 15 C139 15 73 15 5 15 C0 2 0 2 0 0 Z " fill="#00485F" transform="translate(151,321)"/>
<path d="M0 0 C75.9 0 151.8 0 230 0 C234 10 234 10 234 12 C155.46 12 76.92 12 -4 12 C-1 2 -1 2 0 0 Z " fill="#AF6227" transform="translate(141,456)"/>
<path d="M0 0 C74.58 0 149.16 0 226 0 C226 3.63 226 7.26 226 11 C151.42 11 76.84 11 0 11 C0 7.37 0 3.74 0 0 Z " fill="#D98B35" transform="translate(143,484)"/>
<path d="M0 0 C1.14362 -0.00700928 2.28723999 -0.01401855 3.46551514 -0.02124023 C7.24548631 -0.03884417 11.02470872 -0.02718808 14.8046875 -0.01367188 C17.43115381 -0.01636608 20.05761914 -0.02024789 22.68408203 -0.02526855 C28.18855907 -0.03253984 33.69282123 -0.02297112 39.19726562 -0.00390625 C45.55548638 0.0178618 51.91319404 0.01081004 58.27140236 -0.01121187 C64.39517633 -0.03157052 70.51872334 -0.02939098 76.64251709 -0.01768494 C79.24526033 -0.01501507 81.84801666 -0.01829648 84.45074463 -0.02760315 C88.08730849 -0.03775258 91.72288477 -0.02228815 95.359375 0 C96.97570831 -0.01214539 96.97570831 -0.01214539 98.62469482 -0.02453613 C103.09739415 0.02629309 105.89393488 0.06236136 109.81689453 2.33508301 C112.45915989 5.43082759 112.82159459 7.47322602 112.6796875 11.51757812 C110.89086914 14.19979858 110.89086914 14.19979858 107.6796875 16.51757812 C103.84910631 17.26563303 100.06856754 17.2004908 96.17578125 17.16455078 C95.01265411 17.17331238 93.84952698 17.18207397 92.65115356 17.19110107 C88.80611883 17.21310889 84.96223394 17.19853571 81.1171875 17.18164062 C78.4458676 17.18500833 75.77458264 17.18985285 73.10327148 17.19613647 C67.50459331 17.20522604 61.90624521 17.19326376 56.30761719 17.16943359 C49.84023938 17.14222307 43.37364972 17.15103777 36.90629101 17.17856562 C31.34770315 17.20127588 25.78935219 17.2044476 20.23073292 17.19137228 C16.91334248 17.18358801 13.5964025 17.1844782 10.27902222 17.19905472 C6.58000257 17.21174085 2.88250026 17.19241388 -0.81640625 17.16455078 C-1.91266327 17.17467194 -3.00892029 17.18479309 -4.13839722 17.19522095 C-11.52440846 17.09204893 -11.52440846 17.09204893 -15.53149414 14.19979858 C-17.3203125 11.51757812 -17.3203125 11.51757812 -17.4453125 7.95507812 C-14.60748603 -0.71605833 -7.84673535 -0.05896162 0 0 Z " fill="#040400" transform="translate(327.3203125,60.482421875)"/>
<path d="M0 0 C1.14362 -0.00700928 2.28723999 -0.01401855 3.46551514 -0.02124023 C7.24548631 -0.03884417 11.02470872 -0.02718808 14.8046875 -0.01367188 C17.43115381 -0.01636608 20.05761914 -0.02024789 22.68408203 -0.02526855 C28.18855907 -0.03253984 33.69282123 -0.02297112 39.19726562 -0.00390625 C45.55548638 0.0178618 51.91319404 0.01081004 58.27140236 -0.01121187 C64.39517633 -0.03157052 70.51872334 -0.02939098 76.64251709 -0.01768494 C79.24526033 -0.01501507 81.84801666 -0.01829648 84.45074463 -0.02760315 C88.08730849 -0.03775258 91.72288477 -0.02228815 95.359375 0 C96.97570831 -0.01214539 96.97570831 -0.01214539 98.62469482 -0.02453613 C103.09739415 0.02629309 105.89393488 0.06236136 109.81689453 2.33508301 C112.45915989 5.43082759 112.82159459 7.47322602 112.6796875 11.51757812 C110.89086914 14.19979858 110.89086914 14.19979858 107.6796875 16.51757812 C103.84910631 17.26563303 100.06856754 17.2004908 96.17578125 17.16455078 C95.01265411 17.17331238 93.84952698 17.18207397 92.65115356 17.19110107 C88.80611883 17.21310889 84.96223394 17.19853571 81.1171875 17.18164062 C78.4458676 17.18500833 75.77458264 17.18985285 73.10327148 17.19613647 C67.50459331 17.20522604 61.90624521 17.19326376 56.30761719 17.16943359 C49.84023938 17.14222307 43.37364972 17.15103777 36.90629101 17.17856562 C31.34770315 17.20127588 25.78935219 17.2044476 20.23073292 17.19137228 C16.91334248 17.18358801 13.5964025 17.1844782 10.27902222 17.19905472 C6.58000257 17.21174085 2.88250026 17.19241388 -0.81640625 17.16455078 C-1.91266327 17.17467194 -3.00892029 17.18479309 -4.13839722 17.19522095 C-11.52440846 17.09204893 -11.52440846 17.09204893 -15.53149414 14.19979858 C-17.3203125 11.51757812 -17.3203125 11.51757812 -17.4453125 7.95507812 C-14.60748603 -0.71605833 -7.84673535 -0.05896162 0 0 Z " fill="#040400" transform="translate(327.3203125,28.482421875)"/>
<path d="M0 0 C4.62 0 9.24 0 14 0 C14 28.38 14 56.76 14 86 C9.38 86.33 4.76 86.66 0 87 C0 58.29 0 29.58 0 0 Z " fill="#D0F1FE" transform="translate(416,106)"/>
<path d="M0 0 C1.00264893 0.00749268 2.00529785 0.01498535 3.03833008 0.02270508 C4.29798584 0.05001709 5.5576416 0.0773291 6.85546875 0.10546875 C10.87734375 0.16734375 14.89921875 0.22921875 19.04296875 0.29296875 C19.04296875 8.54296875 19.04296875 16.79296875 19.04296875 25.29296875 C14.85390242 25.45535897 10.6711634 25.57409719 6.48046875 25.66796875 C5.29904297 25.71824219 4.11761719 25.76851563 2.90039062 25.8203125 C-6.96434683 25.98610641 -6.96434683 25.98610641 -11.234375 22.45703125 C-14.14875469 19.5322025 -14.87824639 17.12808824 -15.26953125 12.98046875 C-14.89493979 8.56028954 -13.79317138 6.66567594 -10.95703125 3.29296875 C-7.19329204 0.55397598 -4.62444528 -0.07114531 0 0 Z " fill="#FDD4BB" transform="translate(307.95703125,376.70703125)"/>
<path d="M0 0 C5.7234375 -0.12375 5.7234375 -0.12375 11.5625 -0.25 C12.75174072 -0.28641602 13.94098145 -0.32283203 15.16625977 -0.36035156 C21.69937252 -0.42854804 25.72193117 0.04869847 31 4 C33.47994245 6.95993131 33.96192929 8.64467338 34.375 12.5 C33.84863776 17.41271422 32.31077816 19.75229666 28.77270508 23.12011719 C25.46854971 25.36032114 23.77552486 25.46848325 19.82421875 25.390625 C18.66728516 25.37773437 17.51035156 25.36484375 16.31835938 25.3515625 C15.12017578 25.31804687 13.92199219 25.28453125 12.6875 25.25 C10.8612207 25.22292969 10.8612207 25.22292969 8.99804688 25.1953125 C5.99836045 25.1482586 2.99907948 25.07651797 0 25 C0 16.75 0 8.5 0 0 Z " fill="#FDD4BB" transform="translate(185,377)"/>
<path d="M0 0 C0.33 0 0.66 0 1 0 C1.02312504 9.37035938 1.04091591 18.74070901 1.05181217 28.11109066 C1.05704065 32.46168459 1.06413765 36.81225907 1.07543945 41.1628418 C1.08626959 45.35790258 1.0922771 49.55294459 1.09487724 53.74801826 C1.09673126 55.35206968 1.10035144 56.95612003 1.10573006 58.5601635 C1.11294219 60.79916515 1.11399087 63.0380883 1.11352539 65.27709961 C1.115746 66.55395126 1.11796661 67.83080292 1.12025452 69.14634705 C1 72 1 72 0 73 C-1.50892414 73.10355565 -3.02265237 73.13795434 -4.53511047 73.14476013 C-6.00518555 73.15510788 -6.00518555 73.15510788 -7.50495911 73.16566467 C-8.58911606 73.16827805 -9.67327301 73.17089142 -10.7902832 73.17358398 C-11.92517181 73.180271 -13.06006042 73.18695801 -14.2293396 73.19384766 C-16.70334596 73.2079368 -19.17736562 73.21981841 -21.65139198 73.22979546 C-25.56339452 73.24614647 -29.47529862 73.26938201 -33.38725281 73.29469299 C-44.51324306 73.36596943 -55.63928054 73.42565439 -66.76538086 73.47680664 C-73.56170194 73.50813642 -80.35790578 73.54982941 -87.15413475 73.59700203 C-89.74931008 73.61304717 -92.34451122 73.62535706 -94.93972206 73.63390923 C-98.56710822 73.64603349 -102.19423049 73.67017227 -105.8215332 73.69702148 C-106.89961746 73.69761063 -107.97770172 73.69819977 -109.0884552 73.69880676 C-110.07696472 73.70852509 -111.06547424 73.71824341 -112.0839386 73.72825623 C-112.94175084 73.73248816 -113.79956308 73.7367201 -114.68336964 73.74108028 C-117.1893576 74.02116368 -118.83299976 74.74157391 -121 76 C-119.8012873 72.64360445 -117.95854949 70.75150106 -114.9659996 68.84192657 C-110.83972393 67.07487579 -106.35982322 67.4845702 -101.94580078 67.54589844 C-100.29125633 67.54502228 -100.29125633 67.54502228 -98.60328674 67.54412842 C-94.9669723 67.54690926 -91.33148329 67.57800292 -87.6953125 67.609375 C-85.17040454 67.61683735 -82.64549078 67.62253031 -80.12057495 67.62652588 C-74.16013447 67.64022414 -68.19995766 67.67173126 -62.23965251 67.71192384 C-53.59288325 67.76896101 -44.94601297 67.7898434 -36.29910278 67.81515503 C-24.19915772 67.85391549 -12.09998305 67.93057071 0 68 C0 45.56 0 23.12 0 0 Z " fill="#E3B306" transform="translate(456,17)"/>
<path d="M0 0 C2.47704501 2.47704501 3.04945734 4.75119815 4.12109375 8.02734375 C5.43761594 10.98220466 7.12759432 12.56379716 10 14 C11.63335192 14.11872573 13.27127354 14.17709092 14.90869141 14.20532227 C15.92959869 14.22526749 16.95050598 14.24521271 18.00234985 14.26576233 C19.10759003 14.28247482 20.2128302 14.29918732 21.3515625 14.31640625 C22.4807309 14.33718735 23.60989929 14.35796844 24.77328491 14.37937927 C28.39045972 14.44491335 32.00770881 14.50377774 35.625 14.5625 C38.07292444 14.60568154 40.52084128 14.64929571 42.96875 14.69335938 C48.9790875 14.80059867 54.98949935 14.90235787 61 15 C61 17.64 61 20.28 61 23 C53.82849213 23.10146163 46.65716951 23.17149156 39.48510742 23.21972656 C37.04558393 23.23983564 34.6061086 23.26712683 32.16674805 23.30175781 C28.65922152 23.35030489 25.15233257 23.37297632 21.64453125 23.390625 C20.55477493 23.41127014 19.46501862 23.43191528 18.34223938 23.45318604 C10.77411562 23.45542622 10.77411562 23.45542622 6.87768555 21.16308594 C1.63685898 15.12567554 1.06920284 7.66052388 0 0 Z " fill="#42A3F2" transform="translate(124,379)"/>
<path d="M0 0 C1.90716768 5.72150305 -1.23998756 12.06542289 -3.375 17.5 C-5.41645858 20.64070551 -6.53801245 21.48502404 -10 23 C-13.81098693 23.41349137 -17.59646111 23.34849231 -21.42578125 23.29296875 C-22.52850876 23.28872391 -23.63123627 23.28447906 -24.76737976 23.28010559 C-28.28267023 23.26333905 -31.79738336 23.22568951 -35.3125 23.1875 C-37.69855942 23.17245059 -40.08462784 23.15876264 -42.47070312 23.14648438 C-48.31399842 23.11344212 -54.15695796 23.06326236 -60 23 C-60 20.36 -60 17.72 -60 15 C-59.05492584 14.98786972 -59.05492584 14.98786972 -58.09075928 14.97549438 C-51.53702504 14.88948059 -44.98359437 14.78997815 -38.43017578 14.68261719 C-35.98393855 14.64431866 -33.53764484 14.60946736 -31.09130859 14.578125 C-27.57629194 14.53249395 -24.06166445 14.47449543 -20.546875 14.4140625 C-19.4519574 14.40251129 -18.35703979 14.39096008 -17.22894287 14.37905884 C-15.69780853 14.3492543 -15.69780853 14.3492543 -14.13574219 14.31884766 C-13.23861511 14.30552399 -12.34148804 14.29220032 -11.41717529 14.2784729 C-8.80723985 13.97779289 -7.20017462 13.42340506 -5 12 C-2.74099372 8.1770663 -1.3099767 4.2322324 0 0 Z " fill="#3EBD52" transform="translate(387,379)"/>
<path d="M0 0 C10.37217491 7.56304421 16.59769979 19.79260527 20 32 C20.33 34.97 20.66 37.94 21 41 C-23.22 41 -67.44 41 -113 41 C-113 39.35 -113 37.7 -113 36 C-112.67 37.32 -112.34 38.64 -112 40 C-69.76 40 -27.52 40 16 40 C11.02185766 20.25137179 11.02185766 20.25137179 0 3 C0 2.01 0 1.02 0 0 Z " fill="#CAA20C" transform="translate(302,235)"/>
<path d="M0 0 C8.25 0 16.5 0 25 0 C25 8.25 25 16.5 25 25 C20.81093367 25.16239022 16.62819465 25.28112844 12.4375 25.375 C11.25607422 25.42527344 10.07464844 25.47554688 8.85742188 25.52734375 C-1.00731558 25.69313766 -1.00731558 25.69313766 -5.27734375 22.1640625 C-8.35454831 19.0758251 -8.98759408 16.73194944 -9.0625 12.3125 C-9.041875 11.219375 -9.02125 10.12625 -9 9 C-7.046875 10.80664062 -7.046875 10.80664062 -5.09375 12.61328125 C1.25522202 16.81829071 7.59590324 17.48846514 15 17.6875 C15.87011719 17.72166016 16.74023438 17.75582031 17.63671875 17.79101562 C19.75738815 17.87257983 21.87866891 17.93798528 24 18 C24 12.39 24 6.78 24 1 C16.08 1 8.16 1 0 1 C0 0.67 0 0.34 0 0 Z " fill="#ECC1A3" transform="translate(302,377)"/>
<path d="M0 0 C7.92 0 15.84 0 24 0 C24 0.33 24 0.66 24 1 C16.41 1 8.82 1 1 1 C1 6.61 1 12.22 1 18 C17.92349619 18.108466 17.92349619 18.108466 32.625 10.75 C33.07875 10.1725 33.5325 9.595 34 9 C34.29506821 14.01615953 34.13763361 16.99681229 31 21 C27.23861436 24.58038725 24.99877791 25.49258676 19.82421875 25.390625 C18.66728516 25.37773437 17.51035156 25.36484375 16.31835938 25.3515625 C15.12017578 25.31804687 13.92199219 25.28453125 12.6875 25.25 C10.8612207 25.22292969 10.8612207 25.22292969 8.99804688 25.1953125 C5.99836045 25.1482586 2.99907948 25.07651797 0 25 C0 16.75 0 8.5 0 0 Z " fill="#ECC0A8" transform="translate(185,377)"/>
<path d="M0 0 C0.33 0.66 0.66 1.32 1 2 C0.23698949 4.20524998 -0.58716707 6.38942697 -1.4375 8.5625 C-6.02873664 21.39919091 -5.3698645 34.42841088 0 47 C0.56074219 47.90234375 1.12148438 48.8046875 1.69921875 49.734375 C2.34310547 50.85585938 2.34310547 50.85585938 3 52 C2.67 52.66 2.34 53.32 2 54 C-6.70870189 44.32366456 -9.54326535 34.22734254 -9.31640625 21.28125 C-8.51909331 13.01281953 -5.12230862 6.40288578 0 0 Z " fill="#EEBDA3" transform="translate(398,223)"/>
<path d="M0 0 C7.35643174 5.13239423 10.56913685 12.50818474 13 21 C14.21747314 33.31703345 11.50086047 43.59348423 5 54 C4.34 53.34 3.68 52.68 3 52 C3.41572266 50.98679687 3.41572266 50.98679687 3.83984375 49.953125 C4.20207031 49.06109375 4.56429687 48.1690625 4.9375 47.25 C5.47697266 45.92742187 5.47697266 45.92742187 6.02734375 44.578125 C10.01176081 34.01701953 9.18859396 20.82737441 5.15625 10.4296875 C3.69533196 7.35978541 2.01430088 4.73369405 0 2 C0 1.34 0 0.68 0 0 Z " fill="#EEBDA2" transform="translate(110,220)"/>
<path d="M0 0 C0.33 0 0.66 0 1 0 C1 22.44 1 44.88 1 68 C4.96 68 8.92 68 13 68 C13 69.32 13 70.64 13 72 C13.66 72.33 14.32 72.66 15 73 C12.68756208 73.02685412 10.3750373 73.04632841 8.0625 73.0625 C6.77472656 73.07410156 5.48695313 73.08570312 4.16015625 73.09765625 C1 73 1 73 0 72 C-0.09436529 69.76070114 -0.11742327 67.5183825 -0.11352539 65.27709961 C-0.11367142 64.5746965 -0.11381744 63.8722934 -0.1139679 63.14860535 C-0.11326872 60.81648722 -0.10547617 58.484448 -0.09765625 56.15234375 C-0.09579208 54.53951562 -0.09436818 52.92668693 -0.09336853 51.31385803 C-0.08954323 47.06084643 -0.07971285 42.80786876 -0.06866455 38.55487061 C-0.05845069 34.2182257 -0.05387096 29.88157533 -0.04882812 25.54492188 C-0.03809059 17.02993231 -0.02101403 8.51497037 0 0 Z " fill="#BEA120" transform="translate(293,17)"/>
<path d="M0 0 C3.96 0 7.92 0 12 0 C12 3.63 12 7.26 12 11 C8.04 11 4.08 11 0 11 C0 7.37 0 3.74 0 0 Z " fill="#C17127" transform="translate(357,484)"/>
<path d="M0 0 C6.00555974 5.35631004 8.48781141 11.28397535 9.1953125 19.1796875 C9.59713977 27.77879113 6.74457311 34.88314034 2 42 C0.78051913 38.34155738 1.68868409 37.18862018 3.23046875 33.81640625 C7.9328095 22.71697249 3.75149922 10.67734392 0 0 Z " fill="#E3B59B" transform="translate(280,146)"/>
<path d="M0 0 C3.5 0.5 3.5 0.5 6 2.25 C7.5 4.5 7.5 4.5 7.25 6.75 C7.0025 7.3275 6.755 7.905 6.5 8.5 C5.96375 8.005 5.4275 7.51 4.875 7 C1.83326715 5.07890557 0.03950857 5.04814784 -3.5 5.5 C-7.08761109 7.99139659 -7.60910392 11.63421818 -8.6875 15.6875 C-9.03167969 16.95980469 -9.37585938 18.23210937 -9.73046875 19.54296875 C-9.98441406 20.51878906 -10.23835938 21.49460937 -10.5 22.5 C-11.79325763 18.6202271 -10.83941046 15.87412849 -9.8125 12.0625 C-9.65072266 11.39412109 -9.48894531 10.72574219 -9.32226562 10.03710938 C-7.80220918 4.29277621 -6.1016576 0.87166537 0 0 Z " fill="#3AB34D" transform="translate(404.5,335.5)"/>
<path d="M0 0 C4.14067471 2.79775318 4.99769448 6.23904879 6 11 C6.125 13.9375 6.125 13.9375 6 16 C4.86573208 13.81248331 3.89290482 11.7001335 3.0625 9.375 C2.11541176 6.69200398 2.11541176 6.69200398 -1 5 C-4.52295483 4.62521757 -6.34881863 4.58872755 -9.375 6.5 C-9.91125 6.995 -10.4475 7.49 -11 8 C-10.6875 5.125 -10.6875 5.125 -10 2 C-6.2794164 -0.48038907 -4.40203429 -0.46337203 0 0 Z " fill="#3F9DE9" transform="translate(111,336)"/>
<path d="M0 0 C3.96 0 7.92 0 12 0 C12 1.32 12 2.64 12 4 C12.66 4.33 13.32 4.66 14 5 C9.38 5 4.76 5 0 5 C0 3.35 0 1.7 0 0 Z " fill="#E4B404" transform="translate(294,85)"/>
<path d="M0 0 C-2.18449406 1.5876212 -4.37241595 3.17012174 -6.5625 4.75 C-7.17158203 5.1934375 -7.78066406 5.636875 -8.40820312 6.09375 C-12.47420202 9.01954815 -16.61179721 11.58281751 -21 14 C-21 10.37 -21 6.74 -21 3 C-20.67 3 -20.34 3 -20 3 C-19.67 5.31 -19.34 7.62 -19 10 C-18.53102295 9.66154053 -18.0620459 9.32308105 -17.57885742 8.97436523 C-15.45590467 7.45129174 -13.32201344 5.94432333 -11.1875 4.4375 C-10.44951172 3.90447266 -9.71152344 3.37144531 -8.95117188 2.82226562 C-8.23896484 2.32275391 -7.52675781 1.82324219 -6.79296875 1.30859375 C-6.1383667 0.84251709 -5.48376465 0.37644043 -4.80932617 -0.10375977 C-3 -1 -3 -1 0 0 Z " fill="#E9B908" transform="translate(335,94)"/>
<path d="M0 0 C1 3 1 3 0.22265625 4.82421875 C-0.8515625 6.54947917 -1.92578125 8.27473958 -3 10 C-4 7 -4 7 -2.625 3.875 C-1 1 -1 1 0 0 Z " fill="#EDBDA2" transform="translate(285,178)"/>
</svg>
