<svg width="79" height="65" viewBox="0 0 79 65" fill="none" xmlns="http://www.w3.org/2000/svg">
<path d="M59.2898 63.8276H6.10476C3.37231 63.8276 1.15723 61.5834 1.15723 58.8151V28.7407C1.15723 25.9724 3.37231 23.7282 6.10476 23.7282H59.29C62.0224 23.7282 64.2375 25.9724 64.2375 28.7407V58.8152C64.2373 61.5834 62.0223 63.8276 59.2898 63.8276Z" fill="#E5646E"/>
<path d="M74.1322 1.17242H51.8687C49.8194 1.17242 48.1582 2.85555 48.1582 4.93167V18.7158C48.1582 20.792 49.8195 22.475 51.8687 22.475H53.1056V27.8647C53.1056 28.6504 54.0431 29.0439 54.5915 28.4883L60.5268 22.475H74.1322C76.1816 22.475 77.8428 20.7919 77.8428 18.7158V4.93167C77.8428 2.85555 76.1815 1.17242 74.1322 1.17242Z" fill="#FFE6E7"/>
<path d="M11.0521 60.0683C7.64217 60.0683 4.86776 57.2576 4.86776 53.8027V23.9055C2.73769 24.4644 1.15723 26.4078 1.15723 28.7407V58.8151C1.15723 61.5834 3.37231 63.8276 6.10476 63.8276L59.29 63.8277C61.5927 63.8277 63.5108 62.2265 64.0625 60.0685L11.0521 60.0683Z" fill="#DB4655"/>
<path d="M77.6155 18.7159H55.5793C53.5333 18.7159 51.8687 17.0295 51.8687 14.9567V1.17242C49.8194 1.17242 48.1582 2.85555 48.1582 4.93167V18.7156C48.1582 20.7919 49.8195 22.475 51.8687 22.475H53.1056V27.8647C53.1056 28.6504 54.0433 29.0437 54.5915 28.488L60.5268 22.4747H74.1322C76.1816 22.4747 77.8428 20.7916 77.8428 18.7154H77.6155V18.7159Z" fill="#FFCCCF"/>
<path d="M64.2373 26.3152C63.5982 26.3152 63.0801 26.8402 63.0801 27.4877V58.8152C63.0801 60.9326 61.3798 62.6552 59.29 62.6552H6.1046C4.0148 62.6552 2.31445 60.9326 2.31445 58.8152V28.7407C2.31445 26.6234 4.0148 24.9008 6.1046 24.9008H44.4474C45.0865 24.9008 45.6046 24.3759 45.6046 23.7284C45.6046 23.0809 45.0865 22.556 44.4474 22.556H6.1046C2.73862 22.5558 0 25.3304 0 28.7407V58.8152C0 62.2256 2.73862 65 6.1046 65H59.2898C62.6559 65 65.3944 62.2254 65.3944 58.8152V27.4877C65.3946 26.84 64.8764 26.3152 64.2373 26.3152Z" fill="black"/>
<path d="M74.1322 0H51.8686C49.1844 0 47.0008 2.21228 47.0008 4.93183V18.7159C47.0008 21.4353 49.1844 23.6477 51.8686 23.6477H51.9482V27.865C51.9482 28.6989 52.4395 29.4439 53.1999 29.7629C53.4523 29.8688 53.7163 29.9204 53.9778 29.9204C54.5044 29.9204 55.0207 29.7117 55.4095 29.3177L61.0061 23.6479H74.1322C76.8164 23.6479 79 21.4355 79 18.7161V4.93183C79 2.21228 76.8164 0 74.1322 0ZM76.6855 18.7158C76.6855 20.1422 75.5402 21.3027 74.1322 21.3027H60.5268C60.2199 21.3027 59.9255 21.4262 59.7086 21.646L54.2628 27.1633V22.4752C54.2628 21.8275 53.7447 21.3027 53.1056 21.3027H51.8687C50.4608 21.3027 49.3154 20.1422 49.3154 18.7158V4.93183C49.3154 3.50539 50.4608 2.34484 51.8687 2.34484H74.1324C75.5404 2.34484 76.6857 3.50539 76.6857 4.93183V18.7158H76.6855Z" fill="black"/>
<path d="M10.6113 33.8337C9.97221 33.8337 9.45408 34.3587 9.45408 35.0062V52.5348C9.45408 53.1059 9.86019 53.5939 10.4157 53.6904C10.4984 53.7047 10.6011 53.7227 12.4669 53.7227C13.3806 53.7227 14.7175 53.7183 16.6812 53.7072C17.3203 53.7036 17.8355 53.1757 17.8319 52.5282C17.8284 51.8808 17.3038 51.3547 16.6682 51.3624C15.1918 51.3707 13.0503 51.3793 11.7684 51.3768V35.0062C11.7685 34.3587 11.2504 33.8337 10.6113 33.8337Z" fill="black"/>
<path d="M21.9004 35.0062V52.5497C21.9004 53.1973 22.4186 53.7221 23.0577 53.7221C23.6968 53.7221 24.2149 53.1973 24.2149 52.5497V35.0062C24.2149 34.3587 23.6968 33.8337 23.0577 33.8337C22.4186 33.8337 21.9004 34.3587 21.9004 35.0062Z" fill="black"/>
<path d="M56.0446 36.2586C56.6837 36.2586 57.2019 35.7337 57.2019 35.0862C57.2019 34.4387 56.6837 33.9138 56.0446 33.9138H48.8149C48.1758 33.9138 47.6577 34.4387 47.6577 35.0862V52.4696C47.6577 53.1171 48.1758 53.642 48.8149 53.642H56.0445C56.6836 53.642 57.2017 53.1171 57.2017 52.4696C57.2017 51.822 56.6836 51.2972 56.0445 51.2972H49.9721V44.9503H55.5115C56.1506 44.9503 56.6688 44.4254 56.6688 43.7779C56.6688 43.1303 56.1506 42.6055 55.5115 42.6055H49.9721V36.2586H56.0446Z" fill="black"/>
<path d="M40.8146 34.6688L35.8731 49.7393L30.6937 34.6216C30.484 34.0098 29.8245 33.686 29.2209 33.8986C28.6171 34.1109 28.2976 34.7789 28.5071 35.3906L34.4303 52.6785C34.6494 53.3038 35.2348 53.7219 35.889 53.7219H35.8995C36.558 53.7174 37.1428 53.29 37.3573 52.6506L43.0112 35.4079C43.2127 34.7934 42.8843 34.1298 42.2778 33.9257C41.6708 33.7215 41.0161 34.0543 40.8146 34.6688Z" fill="black"/>
<path d="M54.3423 9.86335H64.2372C64.8763 9.86335 65.3944 9.33857 65.3944 8.69093C65.3944 8.04344 64.8763 7.51851 64.2372 7.51851H54.3423C53.7032 7.51851 53.1851 8.04344 53.1851 8.69093C53.1851 9.33857 53.7032 9.86335 54.3423 9.86335Z" fill="black"/>
<path d="M71.6584 13.7841H54.3423C53.7032 13.7841 53.1851 14.3089 53.1851 14.9565C53.1851 15.604 53.7032 16.1289 54.3423 16.1289H71.6584C72.2975 16.1289 72.8156 15.604 72.8156 14.9565C72.8156 14.309 72.2977 13.7841 71.6584 13.7841Z" fill="black"/>
</svg>
