<svg width="76" height="76" viewBox="0 0 76 76" fill="none" xmlns="http://www.w3.org/2000/svg">
<path d="M67.1344 21.5336V46.3606C62.4287 43.6537 56.6373 43.6593 51.9369 46.3751C47.2364 49.0909 44.3391 54.1055 44.334 59.5341C44.3303 60.817 44.4965 62.0948 44.828 63.3341H5.06674C2.96803 63.3341 1.26669 61.6328 1.26669 59.5341V21.5336H67.1344Z" fill="#DDE5EB"/>
<path d="M67.1344 11.4001V21.5336H1.26669V11.4001C1.26669 9.30144 2.96803 7.6001 5.06674 7.6001H11.4002V11.4001C11.4043 12.7976 12.5361 13.9293 13.9335 13.9335H15.2002C16.5976 13.9293 17.7294 12.7976 17.7336 11.4001V7.6001H30.4005V11.4001C30.4046 12.7976 31.5364 13.9293 32.9338 13.9335H34.2005C35.5979 13.9293 36.7297 12.7976 36.7339 11.4001V7.6001H50.6674V11.4001C50.6716 12.7976 51.8034 13.9293 53.2008 13.9335H54.4675C55.8649 13.9293 56.9967 12.7976 57.0009 11.4001V7.6001H63.3343C65.433 7.6001 67.1344 9.30144 67.1344 11.4001Z" fill="#EB0017"/>
<path d="M15.2002 1.26668H13.9335C12.5344 1.26668 11.4002 2.40091 11.4002 3.80005V11.4001C11.4002 12.7993 12.5344 13.9335 13.9335 13.9335H15.2002C16.5994 13.9335 17.7336 12.7993 17.7336 11.4001V3.80005C17.7336 2.40091 16.5994 1.26668 15.2002 1.26668Z" fill="#DDE5EB"/>
<path d="M34.2005 1.26668H32.9338C31.5347 1.26668 30.4005 2.40091 30.4005 3.80005V11.4001C30.4005 12.7993 31.5347 13.9335 32.9338 13.9335H34.2005C35.5997 13.9335 36.7339 12.7993 36.7339 11.4001V3.80005C36.7339 2.40091 35.5997 1.26668 34.2005 1.26668Z" fill="#DDE5EB"/>
<path d="M54.4675 1.26668H53.2008C51.8017 1.26668 50.6674 2.40091 50.6674 3.80005V11.4001C50.6674 12.7993 51.8017 13.9335 53.2008 13.9335H54.4675C55.8666 13.9335 57.0009 12.7993 57.0009 11.4001V3.80005C57.0009 2.40091 55.8666 1.26668 54.4675 1.26668Z" fill="#DDE5EB"/>
<path d="M74.7345 59.5341C74.7372 67.0177 69.2924 73.3899 61.9 74.5546C54.5075 75.7194 47.3672 71.3301 45.0687 64.2082C44.98 63.9168 44.8913 63.6255 44.828 63.3341C44.4965 62.0948 44.3303 60.817 44.334 59.5341C44.334 54.1036 47.2312 49.0856 51.9341 46.3703C56.6371 43.6551 62.4314 43.6551 67.1344 46.3703C71.8373 49.0856 74.7345 54.1036 74.7345 59.5341Z" fill="#6AD202"/>
<path d="M20.267 27.867H12.6669C11.9673 27.867 11.4002 28.4341 11.4002 29.1337V36.7338C11.4002 37.4334 11.9673 38.0005 12.6669 38.0005H20.267C20.9665 38.0005 21.5337 37.4334 21.5337 36.7338V29.1337C21.5337 28.4341 20.9665 27.867 20.267 27.867Z" fill="#1274AA"/>
<path d="M38.0006 27.867H30.4005C29.7009 27.867 29.1338 28.4341 29.1338 29.1337V36.7338C29.1338 37.4334 29.7009 38.0005 30.4005 38.0005H38.0006C38.7002 38.0005 39.2673 37.4334 39.2673 36.7338V29.1337C39.2673 28.4341 38.7002 27.867 38.0006 27.867Z" fill="#1274AA"/>
<path d="M20.267 43.0672H12.6669C11.9673 43.0672 11.4002 43.6343 11.4002 44.3339V51.934C11.4002 52.6336 11.9673 53.2007 12.6669 53.2007H20.267C20.9665 53.2007 21.5337 52.6336 21.5337 51.934V44.3339C21.5337 43.6343 20.9665 43.0672 20.267 43.0672Z" fill="#1274AA"/>
<path d="M38.0006 43.0672H30.4005C29.7009 43.0672 29.1338 43.6343 29.1338 44.3339V51.934C29.1338 52.6336 29.7009 53.2007 30.4005 53.2007H38.0006C38.7002 53.2007 39.2673 52.6336 39.2673 51.934V44.3339C39.2673 43.6343 38.7002 43.0672 38.0006 43.0672Z" fill="#1274AA"/>
<path d="M55.7342 27.867H48.1341C47.4345 27.867 46.8674 28.4341 46.8674 29.1337V36.7338C46.8674 37.4334 47.4345 38.0005 48.1341 38.0005H55.7342C56.4338 38.0005 57.0009 37.4334 57.0009 36.7338V29.1337C57.0009 28.4341 56.4338 27.867 55.7342 27.867Z" fill="#1274AA"/>
<path d="M6.33343 48.1339C5.63386 48.1339 5.06674 47.5668 5.06674 46.8673V45.6006C5.06674 44.901 5.63386 44.3339 6.33343 44.3339C7.033 44.3339 7.60012 44.901 7.60012 45.6006V46.8673C7.60012 47.5668 7.033 48.1339 6.33343 48.1339Z" fill="white"/>
<path d="M11.4002 59.5341H7.60012C6.20097 59.5341 5.06674 58.3999 5.06674 57.0007V51.934C5.06674 51.2344 5.63386 50.6673 6.33343 50.6673C7.033 50.6673 7.60012 51.2344 7.60012 51.934V57.0007H11.4002C12.0997 57.0007 12.6669 57.5678 12.6669 58.2674C12.6669 58.967 12.0997 59.5341 11.4002 59.5341Z" fill="white"/>
<path d="M17.7336 59.5341H16.4669C15.7673 59.5341 15.2002 58.967 15.2002 58.2674C15.2002 57.5678 15.7673 57.0007 16.4669 57.0007H17.7336C18.4332 57.0007 19.0003 57.5678 19.0003 58.2674C19.0003 58.967 18.4332 59.5341 17.7336 59.5341Z" fill="white"/>
<path d="M68.401 45.6589V11.4001C68.401 8.60187 66.1326 6.33341 63.3343 6.33341H58.2676V3.80005C58.2676 1.70134 56.5662 0 54.4675 0H53.2008C51.1021 0 49.4008 1.70134 49.4008 3.80005V6.33341H38.0006V3.80005C38.0006 1.70134 36.2992 0 34.2005 0H32.9338C30.8351 0 29.1338 1.70134 29.1338 3.80005V6.33341H19.0003V3.80005C19.0003 1.70134 17.2989 0 15.2002 0H13.9335C11.8348 0 10.1335 1.70134 10.1335 3.80005V6.33341H5.06674C2.26846 6.33341 0 8.60187 0 11.4001V59.5341C0 62.3324 2.26846 64.6008 5.06674 64.6008H43.8641C46.0975 71.5058 52.588 76.1346 59.8439 75.997C67.0999 75.8594 73.4103 70.988 75.3803 64.0033C77.3504 57.0186 74.5156 49.5677 68.401 45.6589ZM51.9341 3.80005C51.9341 3.10048 52.5012 2.53337 53.2008 2.53337H54.4675C55.1671 2.53337 55.7342 3.10048 55.7342 3.80005V11.4001C55.7342 12.0997 55.1671 12.6668 54.4675 12.6668H53.2008C52.5012 12.6668 51.9341 12.0997 51.9341 11.4001V3.80005ZM31.6671 3.80005C31.6671 3.10048 32.2343 2.53337 32.9338 2.53337H34.2005C34.9001 2.53337 35.4672 3.10048 35.4672 3.80005V11.4001C35.4672 12.0997 34.9001 12.6668 34.2005 12.6668H32.9338C32.2343 12.6668 31.6671 12.0997 31.6671 11.4001V3.80005ZM12.6669 3.80005C12.6669 3.10048 13.234 2.53337 13.9335 2.53337H15.2002C15.8998 2.53337 16.4669 3.10048 16.4669 3.80005V11.4001C16.4669 12.0997 15.8998 12.6668 15.2002 12.6668H13.9335C13.234 12.6668 12.6669 12.0997 12.6669 11.4001V3.80005ZM2.53337 11.4001C2.53337 10.001 3.6676 8.86678 5.06674 8.86678H10.1335V11.4001C10.1335 13.4989 11.8348 15.2002 13.9335 15.2002H15.2002C17.2989 15.2002 19.0003 13.4989 19.0003 11.4001V8.86678H29.1338V11.4001C29.1338 13.4989 30.8351 15.2002 32.9338 15.2002H34.2005C36.2992 15.2002 38.0006 13.4989 38.0006 11.4001V8.86678H49.4008V11.4001C49.4008 13.4989 51.1021 15.2002 53.2008 15.2002H54.4675C56.5662 15.2002 58.2676 13.4989 58.2676 11.4001V8.86678H63.3343C64.7334 8.86678 65.8677 10.001 65.8677 11.4001V20.2669H2.53337V11.4001ZM5.06674 62.0675C3.6676 62.0675 2.53337 60.9332 2.53337 59.5341V22.8003H65.8677V44.325C65.8271 44.3086 65.7841 44.2959 65.741 44.2794C65.4775 44.1718 65.209 44.0768 64.9405 43.9843C64.8138 43.9387 64.6871 43.888 64.5516 43.8462C64.1488 43.7196 63.7422 43.603 63.3318 43.5068C58.4323 42.3526 53.2739 43.5002 49.3259 46.6227C45.3779 49.7453 43.0728 54.5005 43.0673 59.5341C43.0711 60.1595 43.1109 60.7842 43.1864 61.405C43.2003 61.5317 43.213 61.6583 43.2307 61.785C43.2434 61.8787 43.2497 61.975 43.2637 62.0675H5.06674ZM59.5342 73.4676C53.491 73.4875 48.13 69.5938 46.2796 63.8408C46.2011 63.5811 46.1213 63.324 46.0491 63.0061C45.7475 61.8735 45.5968 60.7061 45.6007 59.5341C45.6057 55.274 47.557 51.2497 50.8988 48.6076C54.2406 45.9654 58.6065 44.9951 62.7529 45.973C63.1329 46.0617 63.5053 46.1706 63.8752 46.2922C64.7894 46.5887 65.6703 46.9797 66.5035 47.4588C71.9744 50.6085 74.6442 57.0428 73.0103 63.1405C71.3764 69.2381 65.847 73.4755 59.5342 73.4676Z" fill="black"/>
<path d="M20.267 26.6003H12.6669C11.2677 26.6003 10.1335 27.7346 10.1335 29.1337V36.7338C10.1335 38.1329 11.2677 39.2672 12.6669 39.2672H20.267C21.6661 39.2672 22.8003 38.1329 22.8003 36.7338V29.1337C22.8003 27.7346 21.6661 26.6003 20.267 26.6003ZM12.6669 36.7338V29.1337H20.267V36.7338H12.6669Z" fill="black"/>
<path d="M38.0006 26.6003H30.4005C29.0013 26.6003 27.8671 27.7346 27.8671 29.1337V36.7338C27.8671 38.1329 29.0013 39.2672 30.4005 39.2672H38.0006C39.3997 39.2672 40.534 38.1329 40.534 36.7338V29.1337C40.534 27.7346 39.3997 26.6003 38.0006 26.6003ZM30.4005 36.7338V29.1337H38.0006V36.7338H30.4005Z" fill="black"/>
<path d="M20.267 41.8005H12.6669C11.2677 41.8005 10.1335 42.9348 10.1335 44.3339V51.934C10.1335 53.3331 11.2677 54.4674 12.6669 54.4674H20.267C21.6661 54.4674 22.8003 53.3331 22.8003 51.934V44.3339C22.8003 42.9348 21.6661 41.8005 20.267 41.8005ZM12.6669 51.934V44.3339H20.267V51.934H12.6669Z" fill="black"/>
<path d="M38.0006 41.8005H30.4005C29.0013 41.8005 27.8671 42.9348 27.8671 44.3339V51.934C27.8671 53.3331 29.0013 54.4674 30.4005 54.4674H38.0006C39.3997 54.4674 40.534 53.3331 40.534 51.934V44.3339C40.534 42.9348 39.3997 41.8005 38.0006 41.8005ZM30.4005 51.934V44.3339H38.0006V51.934H30.4005Z" fill="black"/>
<path d="M48.1341 39.2672H55.7342C57.1333 39.2672 58.2676 38.1329 58.2676 36.7338V29.1337C58.2676 27.7346 57.1333 26.6003 55.7342 26.6003H48.1341C46.7349 26.6003 45.6007 27.7346 45.6007 29.1337V36.7338C45.6007 38.1329 46.7349 39.2672 48.1341 39.2672ZM48.1341 29.1337H55.7342V36.7338H48.1341V29.1337Z" fill="black"/>
<path d="M64.9303 53.6149L56.6563 62.7185L54.1382 59.9483C53.6673 59.4306 52.866 59.3926 52.3483 59.8634C51.8306 60.3342 51.7926 61.1356 52.2635 61.6533L55.7177 65.4533C55.9578 65.7178 56.2984 65.8687 56.6557 65.8687C57.0129 65.8687 57.3536 65.7178 57.5937 65.4533L66.805 55.3198C67.1096 54.985 67.2123 54.513 67.0746 54.0818C66.9369 53.6506 66.5796 53.3257 66.1373 53.2294C65.695 53.133 65.2349 53.28 64.9303 53.6149Z" fill="black"/>
</svg>
