<svg width="62" height="76" viewBox="0 0 62 76" fill="none" xmlns="http://www.w3.org/2000/svg">
<path d="M55.0274 29.3209H45.9738V30.8391C45.9738 34.0117 43.3484 36.3107 40.1393 36.3107H17.5627C16.841 36.3107 16.3518 37.0244 16.6037 37.6929C16.9205 38.5335 17.3267 39.6412 17.8203 40.4084L20.8428 45.1062C21.3803 45.9417 20.7909 46.6607 19.8777 46.2538L16.2341 44.6311C16.0539 44.5509 15.8772 44.466 15.7016 44.3796V59.0627C15.7016 62.2353 18.327 64.8312 21.5361 64.8312H44.1129C44.8345 64.8312 45.3238 65.5449 45.0719 66.2134C44.7551 67.0539 44.3489 67.8649 43.8553 68.632L40.8328 73.3299C40.2952 74.1654 41.185 75.1813 42.0982 74.7745L45.7418 73.1517C49.1226 71.6459 51.736 69.0457 53.2736 65.9167C53.6 65.2526 54.2808 64.8314 55.0275 64.8314C58.2365 64.8314 60.862 62.2356 60.862 59.0628V35.0895C60.8619 31.9168 58.2363 29.3209 55.0274 29.3209Z" fill="#FFD301"/>
<path d="M23.8083 59.0627V36.3107H17.5627C16.841 36.3107 16.3518 37.0244 16.6037 37.6929C16.9205 38.5335 17.3267 39.6412 17.8203 40.4084L20.8428 45.1062C21.3803 45.9417 20.7909 46.6607 19.8777 46.2538L16.2341 44.6311C16.0539 44.5509 15.8772 44.466 15.7016 44.3796V59.0627C15.7016 62.2353 18.327 64.8312 21.5361 64.8312H29.6429C26.4337 64.8311 23.8083 62.2353 23.8083 59.0627Z" fill="#FFC20C"/>
<path d="M6.94816 1.09748H40.4397C43.6487 1.09748 46.2742 3.69321 46.2742 6.86602V30.8391C46.2742 34.0117 43.6488 36.6076 40.4397 36.6076H17.863C17.1413 36.6076 16.652 37.3213 16.9039 37.9898C17.2207 38.8303 17.627 39.6412 18.1206 40.4084L21.1429 45.1063C21.6805 45.9419 20.7907 46.9577 19.8775 46.5509L16.2339 44.9281C12.8531 43.4223 10.2397 40.8221 8.70208 37.6931C8.37571 37.0288 7.69489 36.6078 6.94816 36.6078C3.7392 36.6078 1.11364 34.012 1.11364 30.8392V6.86602C1.11379 3.69321 3.7392 1.09748 6.94816 1.09748Z" fill="#60B8FE"/>
<path d="M18.1206 40.4084C17.627 39.6412 17.2207 38.8303 16.9039 37.9898C16.8763 37.9166 16.8592 37.843 16.8487 37.7697C16.8358 37.7438 16.8217 37.7187 16.8089 37.6929C16.4825 37.0288 15.8017 36.6076 15.055 36.6076C11.846 36.6076 9.22047 34.0119 9.22047 30.8391V6.86602C9.22047 3.69336 11.846 1.09748 15.055 1.09748H6.94816C3.7392 1.09748 1.11379 3.69321 1.11364 6.86602V30.8392C1.11364 34.012 3.7392 36.6078 6.94816 36.6078C7.69489 36.6078 8.37586 37.0288 8.70208 37.6929C10.2395 40.8219 12.8531 43.4223 16.2339 44.9279L19.8777 46.5507C20.7909 46.9575 21.6807 45.9417 21.1431 45.1062L18.1206 40.4084Z" fill="#23A8FE"/>
<path d="M26.7964 49.4265C28.1094 49.4265 29.1738 48.3741 29.1738 47.076C29.1738 45.7778 28.1094 44.7255 26.7964 44.7255C25.4834 44.7255 24.419 45.7778 24.419 47.076C24.419 48.3741 25.4834 49.4265 26.7964 49.4265Z" fill="#DFEBFA"/>
<path d="M34.9649 49.4265C36.2779 49.4265 37.3423 48.3741 37.3423 47.076C37.3423 45.7778 36.2779 44.7255 34.9649 44.7255C33.6519 44.7255 32.5875 45.7778 32.5875 47.076C32.5875 48.3741 33.6519 49.4265 34.9649 49.4265Z" fill="#DFEBFA"/>
<path d="M43.1336 49.4265C44.4466 49.4265 45.511 48.3741 45.511 47.076C45.511 45.7778 44.4466 44.7255 43.1336 44.7255C41.8206 44.7255 40.7562 45.7778 40.7562 47.076C40.7562 48.3741 41.8206 49.4265 43.1336 49.4265Z" fill="#DFEBFA"/>
<path d="M51.3021 49.4265C52.6151 49.4265 53.6795 48.3741 53.6795 47.076C53.6795 45.7778 52.6151 44.7255 51.3021 44.7255C49.9891 44.7255 48.9247 45.7778 48.9247 47.076C48.9247 48.3741 49.9891 49.4265 51.3021 49.4265Z" fill="#DFEBFA"/>
<path d="M23.3053 47.0919C23.3053 49.0019 24.877 50.5556 26.8087 50.5556C28.7404 50.5556 30.312 49.0019 30.312 47.0919C30.312 45.1819 28.7404 43.6281 26.8087 43.6281C24.877 43.6281 23.3053 45.1819 23.3053 47.0919ZM28.06 47.0919C28.06 47.7742 27.4987 48.3292 26.8085 48.3292C26.1184 48.3292 25.5571 47.7742 25.5571 47.0919C25.5571 46.4096 26.1184 45.8546 26.8085 45.8546C27.4987 45.8546 28.06 46.4096 28.06 47.0919Z" fill="black"/>
<path d="M31.4739 47.0919C31.4739 49.0019 33.0456 50.5556 34.9772 50.5556C36.9089 50.5556 38.4806 49.0019 38.4806 47.0919C38.4806 45.1819 36.9089 43.6281 34.9772 43.6281C33.0456 43.6281 31.4739 45.1819 31.4739 47.0919ZM36.2287 47.0919C36.2287 47.7742 35.6674 48.3292 34.9772 48.3292C34.2871 48.3292 33.7258 47.7742 33.7258 47.0919C33.7258 46.4096 34.2871 45.8546 34.9772 45.8546C35.6674 45.8546 36.2287 46.4096 36.2287 47.0919Z" fill="black"/>
<path d="M39.6424 47.0919C39.6424 49.0019 41.2141 50.5556 43.1458 50.5556C45.0774 50.5556 46.6491 49.0019 46.6491 47.0919C46.6491 45.1819 45.0774 43.6281 43.1458 43.6281C41.2141 43.6281 39.6424 45.1819 39.6424 47.0919ZM44.3972 47.0919C44.3972 47.7742 43.8359 48.3292 43.1458 48.3292C42.4556 48.3292 41.8943 47.7742 41.8943 47.0919C41.8943 46.4096 42.4556 45.8546 43.1458 45.8546C43.8359 45.8546 44.3972 46.4096 44.3972 47.0919Z" fill="black"/>
<path d="M47.8109 47.0919C47.8109 49.0019 49.3826 50.5556 51.3143 50.5556C53.246 50.5556 54.8177 49.0019 54.8177 47.0919C54.8177 45.1819 53.246 43.6281 51.3143 43.6281C49.3826 43.6281 47.8109 45.1819 47.8109 47.0919ZM52.5658 47.0919C52.5658 47.7742 52.0044 48.3292 51.3143 48.3292C50.6242 48.3292 50.0628 47.7742 50.0628 47.0919C50.0628 46.4096 50.6242 45.8546 51.3143 45.8546C52.0044 45.8546 52.5658 46.4096 52.5658 47.0919Z" fill="black"/>
<path d="M38.7795 8.12856H8.63288C8.0109 8.12856 7.50693 8.62698 7.50693 9.24178C7.50693 9.85657 8.0109 10.355 8.63288 10.355H38.7795C39.4015 10.355 39.9054 9.85657 39.9054 9.24178C39.9054 8.62698 39.4013 8.12856 38.7795 8.12856Z" fill="black"/>
<path d="M38.7795 12.8907H8.63288C8.0109 12.8907 7.50693 13.3892 7.50693 14.004C7.50693 14.6188 8.0109 15.1172 8.63288 15.1172H38.7795C39.4015 15.1172 39.9054 14.6188 39.9054 14.004C39.9054 13.3892 39.4013 12.8907 38.7795 12.8907Z" fill="black"/>
<path d="M38.7795 17.6528H8.63288C8.0109 17.6528 7.50693 18.1512 7.50693 18.766C7.50693 19.3808 8.0109 19.8792 8.63288 19.8792H38.7795C39.4015 19.8792 39.9054 19.3808 39.9054 18.766C39.9054 18.1512 39.4013 17.6528 38.7795 17.6528Z" fill="black"/>
<path d="M38.7795 22.415H8.63288C8.0109 22.415 7.50693 22.9134 7.50693 23.5282C7.50693 24.143 8.0109 24.6414 8.63288 24.6414H38.7795C39.4015 24.6414 39.9054 24.143 39.9054 23.5282C39.9054 22.9134 39.4013 22.415 38.7795 22.415Z" fill="black"/>
<path d="M38.7795 27.1772H8.63288C8.0109 27.1772 7.50693 27.6756 7.50693 28.2904C7.50693 28.9052 8.0109 29.4036 8.63288 29.4036H38.7795C39.4015 29.4036 39.9054 28.9052 39.9054 28.2904C39.9054 27.6756 39.4013 27.1772 38.7795 27.1772Z" fill="black"/>
<path d="M60.8741 45.8546C61.496 45.8546 62 45.3562 62 44.7414V35.1054C62 31.3108 58.8775 28.2236 55.0397 28.2236H47.4124V6.88176C47.4124 3.08717 44.2899 0 40.4519 0H26.3332C25.7113 0 25.2073 0.498424 25.2073 1.11322C25.2073 1.72801 25.7113 2.22643 26.3332 2.22643H40.4519C43.0482 2.22643 45.1603 4.31483 45.1603 6.88176V30.8549C45.1603 33.4219 43.0482 35.5101 40.4519 35.5101H17.8753C16.3716 35.5101 15.3351 36.9984 15.8612 38.3941C16.516 40.1319 16.9825 40.7103 19.9948 45.3924L16.7085 43.9287C13.6656 42.5736 11.1862 40.1917 9.727 37.2222C9.21627 36.1821 8.1301 35.51 6.96032 35.51C4.36403 35.51 2.2519 33.4217 2.2519 30.8548V6.88176C2.2519 4.31483 4.36418 2.22643 6.96047 2.22643H21.079C21.7009 2.22643 22.2049 1.72801 22.2049 1.11322C22.2049 0.498424 21.7009 0 21.079 0H6.96047C3.12248 0 0 3.08717 0 6.88176V30.8549C0 34.6495 3.12248 37.7366 6.96032 37.7366C7.27378 37.7366 7.56458 37.9165 7.70149 38.1951C9.1951 41.2344 11.6129 43.7402 14.5876 45.3648V59.0782C14.5876 62.8728 17.7101 65.9599 21.548 65.9599H43.9827C43.4435 67.3444 43.1955 67.6172 39.8946 72.748C38.7591 74.5131 40.6441 76.6638 42.5726 75.8049L46.2163 74.1821C49.739 72.6132 52.6093 69.856 54.2985 66.4182C54.4353 66.1398 54.7262 65.9599 55.0397 65.9599C58.8775 65.9599 62 62.8728 62 59.0782V49.9362C62 49.3214 61.496 48.823 60.8741 48.823C60.2521 48.823 59.7481 49.3214 59.7481 49.9362V59.0782C59.7481 61.6452 57.636 63.7334 55.0397 63.7334C53.8699 63.7334 52.7839 64.4055 52.273 65.4456C49.716 70.6493 45.5918 72.0184 42.0052 73.6157C45.0093 68.9465 45.4826 68.3592 46.1387 66.6175C46.665 65.2219 45.6286 63.7334 44.1247 63.7334H21.5481C18.9518 63.7334 16.8397 61.6452 16.8397 59.0782V46.4288L19.4273 47.5813C20.2946 47.9676 21.2954 47.7491 21.9176 47.0389C22.5401 46.3282 22.6157 45.3177 22.1054 44.5244C18.873 39.5002 18.5675 39.1496 18.0174 37.7364H40.452C44.2899 37.7364 47.4124 34.6494 47.4124 30.8548V30.4499H55.0397C57.636 30.4499 59.7481 32.5383 59.7481 35.1052V44.7412C59.7481 45.3562 60.2521 45.8546 60.8741 45.8546Z" fill="black"/>
</svg>
