<svg width="62" height="60" viewBox="0 0 62 60" fill="none" xmlns="http://www.w3.org/2000/svg">
<path d="M60.7061 2.80893L38.0357 19.3901L34.3157 22.1173C32.3451 23.5899 29.6549 23.5899 27.6844 22.1173L23.9644 19.3901L1.26705 2.83624C2.5286 1.04995 4.56927 -0.00816067 6.73927 4.74062e-05H55.261C57.4148 4.74062e-05 59.4392 1.04456 60.7061 2.80893Z" fill="#FFD54F"/>
<path d="M1.26705 2.83624L23.9644 19.3901L1.96794 41.6436C0.703602 40.3619 -0.00261646 38.6246 4.75979e-05 36.8165V6.8179C-0.00528052 5.38614 0.436832 3.9926 1.26705 2.83624Z" fill="#FFC107"/>
<path d="M62 6.8179V36.8166C62.0027 38.6247 61.2964 40.3619 60.0322 41.6437L38.0357 19.3901L60.7061 2.80893C61.5472 3.9708 62 5.37524 62 6.8179Z" fill="#FFC107"/>
<path d="M40.4348 49.0886C38.6449 49.0886 37.7391 47.7251 37.7391 44.998C37.7822 41.1882 34.7658 38.0629 31 38.0191C27.2342 37.9754 24.145 41.0272 24.1018 44.837C24.0587 48.6468 27.0751 51.7721 30.8409 51.8158C32.8599 51.8403 34.7847 50.9568 36.0975 49.4078C36.9925 50.9595 38.661 51.8867 40.4348 51.8158C45.8261 51.8158 45.8261 46.6833 45.8261 44.998C45.8261 36.7128 39.1895 29.9986 31 29.9986C22.8106 29.9986 16.1739 36.7128 16.1739 44.9953C16.1739 53.2777 22.8107 59.9946 31 59.9946C34.8467 59.9946 38.5425 58.481 41.3082 55.7757C41.8447 55.2494 41.8555 54.3821 41.3352 53.8421C40.815 53.2994 39.9578 53.2885 39.4214 53.8148C34.5988 58.5191 26.9189 58.3801 22.2689 53.5012C17.6189 48.6223 17.7564 40.8526 22.5789 36.1483C27.4015 31.444 35.0814 31.583 39.7314 36.4619C41.9148 38.7527 43.1332 41.8126 43.1306 44.9951C43.1305 48.0552 42.4512 49.0886 40.4348 49.0886ZM31 49.0886C28.768 49.0886 26.9566 47.256 26.9566 44.998C26.9566 42.7399 28.768 40.9073 31 40.9073C33.232 40.9073 35.0435 42.7372 35.0435 44.998C35.0436 47.2587 33.232 49.0886 31 49.0886Z" fill="#455A64"/>
<path d="M38.0357 19.3901L34.3157 22.1173C32.3451 23.5899 29.6549 23.5899 27.6844 22.1173L23.9644 19.3901L1.96794 41.6436C3.23494 42.9225 4.95205 43.6371 6.73927 43.6343H13.5458C14.2764 33.882 22.6814 26.576 32.3184 27.3124C40.9445 27.9723 47.7995 34.9075 48.4518 43.6343H55.261C57.0482 43.637 58.7653 42.9225 60.0323 41.6436L38.0357 19.3901Z" fill="#FFA000"/>
<path d="M55.2609 43.6344H49.8696C49.1256 43.6344 48.5218 43.0236 48.5218 42.2709C48.5218 41.5182 49.1256 40.9074 49.8696 40.9074H55.2609C57.4902 40.9074 59.3043 39.072 59.3043 36.8167V6.8179C59.3043 4.56251 57.4901 2.72721 55.2609 2.72721H6.73927C4.50994 2.72721 2.69583 4.55982 2.69583 6.8179V36.8166C2.69583 39.072 4.51006 40.9073 6.73927 40.9073H12.1306C12.8746 40.9073 13.4784 41.5154 13.4784 42.2708C13.4784 43.0262 12.8746 43.6343 12.1306 43.6343H6.73927C3.0246 43.6344 4.75979e-05 40.5745 4.75979e-05 36.8165V6.8179C4.75979e-05 3.05982 3.0246 4.74062e-05 6.73927 4.74062e-05H55.261C58.9782 4.74062e-05 62 3.05713 62 6.8179V36.8166C62 40.5745 58.9782 43.6344 55.2609 43.6344Z" fill="black"/>
<path d="M31.0028 24.5852C29.5606 24.5852 28.1185 24.1297 26.8866 23.2189L5.95204 7.92244C5.34548 7.48067 5.21071 6.62972 5.64749 6.0189C6.08149 5.40525 6.92249 5.2689 7.52904 5.71079L28.4742 21.0127C29.9919 22.1336 32.0164 22.1336 33.5232 21.0182L54.4711 5.71079C55.0749 5.27172 55.916 5.40537 56.3527 6.0162C56.7893 6.62703 56.6519 7.48067 56.0508 7.91974L35.1056 23.2217C33.8817 24.1298 32.4422 24.5852 31.0028 24.5852Z" fill="black"/>
<path d="M6.73927 38.1801C6.39428 38.1801 6.04916 38.0465 5.78505 37.782C5.25939 37.2501 5.25939 36.3856 5.78505 35.8539L19.2633 22.2182C19.7889 21.6864 20.6435 21.6864 21.169 22.2182C21.6947 22.75 21.6947 23.6146 21.169 24.1463L7.69083 37.782C7.42926 38.0465 7.08427 38.1801 6.73927 38.1801Z" fill="black"/>
<path d="M55.2609 38.1801C54.9159 38.1801 54.5708 38.0465 54.3067 37.782L40.8285 24.1461C40.3028 23.6143 40.3028 22.7498 40.8285 22.2181C41.3541 21.6863 42.2087 21.6863 42.7342 22.2181L56.2124 35.8538C56.7381 36.3856 56.7381 37.2501 56.2124 37.7818C55.951 38.0465 55.606 38.1801 55.2609 38.1801Z" fill="black"/>
<path d="M31.0081 60C30.9246 60 30.841 60 30.7575 59.9973C26.7976 59.9319 23.1018 58.3093 20.3469 55.4293C14.6618 49.4841 14.8182 39.9718 20.6919 34.223C23.5385 31.4358 27.3501 29.9359 31.2454 30.004C35.2026 30.0694 38.901 31.6921 41.6559 34.5693C44.3434 37.381 45.8261 41.0844 45.8261 44.998C45.8261 45.7507 45.2223 46.3615 44.4783 46.3615C43.7343 46.3615 43.1306 45.7507 43.1306 44.998C43.1306 41.7963 41.9176 38.7664 39.7151 36.4647C37.4616 34.1112 34.437 32.7831 31.1969 32.7286C28.0215 32.7286 24.8918 33.9039 22.5627 36.184C17.7564 40.8883 17.6297 48.6716 22.2824 53.5341C24.5359 55.8903 27.5605 57.2184 30.8006 57.2703C34.0516 57.3848 37.103 56.0976 39.4348 53.8177C39.9686 53.2968 40.823 53.3077 41.3406 53.8504C41.8581 54.3931 41.8447 55.2549 41.3082 55.7785C38.5236 58.5055 34.8765 60 31.0081 60Z" fill="black"/>
<path d="M31 51.8158C27.2855 51.8158 24.2609 48.7559 24.2609 44.998C24.2609 41.24 27.2855 38.1801 31 38.1801C34.7146 38.1801 37.7391 41.2372 37.7391 44.998C37.7391 48.7587 34.7147 51.8158 31 51.8158ZM31 40.9073C28.7707 40.9073 26.9566 42.7427 26.9566 44.998C26.9566 47.2533 28.7708 49.0886 31 49.0886C33.2292 49.0886 35.0435 47.2532 35.0435 44.998C35.0436 42.7426 33.2294 40.9073 31 40.9073Z" fill="black"/>
<path d="M40.4348 51.8158C37.0598 51.8158 35.0435 49.2659 35.0435 44.998C35.0435 44.2453 35.6472 43.6344 36.3912 43.6344C37.1352 43.6344 37.739 44.2426 37.739 44.998C37.739 47.7115 38.6474 49.0886 40.4347 49.0886C42.451 49.0886 43.1303 48.055 43.1303 44.998C43.1303 44.2453 43.7341 43.6344 44.4781 43.6344C45.2221 43.6344 45.8259 44.2426 45.8259 44.998C45.8261 46.6833 45.8261 51.8158 40.4348 51.8158Z" fill="black"/>
</svg>
