<svg width="77" height="77" viewBox="0 0 77 77" fill="none" xmlns="http://www.w3.org/2000/svg">
<g clip-path="url(#clip0_683_977)">
<path d="M66.0192 1.73682H24.4031C18.9749 1.73682 14.5337 6.178 14.5337 11.6062V14.9644H52.179C57.6072 14.9644 62.0484 19.4056 62.0484 24.8338V49.4391H66.0193C71.4475 49.4391 75.8887 44.9979 75.8887 39.5697V11.6062C75.8887 6.178 71.4474 1.73682 66.0192 1.73682Z" fill="#6C7ED6"/>
<path d="M59.0216 14.5133H17.4056C16.4076 14.5133 15.4434 14.6646 14.5337 14.9434V14.9645H52.179C57.6072 14.9645 62.0484 19.4057 62.0484 24.8339V49.4391H66.0193C67.0173 49.4391 67.9815 49.2878 68.8912 49.009V24.3828C68.8912 18.9546 64.4498 14.5133 59.0216 14.5133Z" fill="#4F67D2"/>
<path d="M52.63 14.5133H11.0139C5.58572 14.5133 1.14453 18.9545 1.14453 24.3827V52.3462C1.14453 57.7744 5.58572 62.2156 11.0139 62.2156H35.9912C37.062 62.2156 37.8613 63.212 37.6165 64.2544C36.9542 67.0744 35.9406 70.0566 34.4422 73.1136C33.7694 74.4865 35.3 75.8823 36.6002 75.0777C40.3595 72.7512 45.7081 68.8573 50.2123 63.3527C50.8044 62.6291 51.6949 62.2156 52.6299 62.2156C58.0581 62.2156 62.4992 57.7744 62.4992 52.3462V24.3828C62.4995 18.9546 58.0582 14.5133 52.63 14.5133Z" fill="#60B8FE"/>
<path d="M44.0078 64.2544C44.2526 63.2119 43.4533 62.2156 42.3825 62.2156H35.9909C37.0617 62.2156 37.861 63.2119 37.6162 64.2544C36.9539 67.0744 35.9403 70.0566 34.4419 73.1136C33.7691 74.4865 35.2997 75.8823 36.5999 75.0777C38.0423 74.185 39.719 73.0608 41.4916 71.7043C42.635 69.1403 43.4478 66.6393 44.0078 64.2544Z" fill="#23A8FE"/>
<path d="M7.53613 52.3461V24.3828C7.53613 18.9546 11.9773 14.5134 17.4055 14.5134H11.0139C5.58572 14.5134 1.14453 18.9546 1.14453 24.3828V52.3461C1.14453 57.7743 5.58572 62.2155 11.0139 62.2155H17.4055C11.9773 62.2155 7.53613 57.7743 7.53613 52.3461Z" fill="#23A8FE"/>
<path d="M14.8249 42.4427C16.6336 42.4427 18.0999 40.9764 18.0999 39.1676C18.0999 37.3589 16.6336 35.8926 14.8249 35.8926C13.0161 35.8926 11.5498 37.3589 11.5498 39.1676C11.5498 40.9764 13.0161 42.4427 14.8249 42.4427Z" fill="#DFEBFA"/>
<path d="M25.403 42.4427C27.2118 42.4427 28.678 40.9764 28.678 39.1676C28.678 37.3589 27.2118 35.8926 25.403 35.8926C23.5942 35.8926 22.1279 37.3589 22.1279 39.1676C22.1279 40.9764 23.5942 42.4427 25.403 42.4427Z" fill="#DFEBFA"/>
<path d="M35.9811 42.4427C37.7899 42.4427 39.2562 40.9764 39.2562 39.1676C39.2562 37.3589 37.7899 35.8926 35.9811 35.8926C34.1723 35.8926 32.7061 37.3589 32.7061 39.1676C32.7061 40.9764 34.1723 42.4427 35.9811 42.4427Z" fill="#DFEBFA"/>
<path d="M46.5587 42.4427C48.3675 42.4427 49.8338 40.9764 49.8338 39.1676C49.8338 37.3589 48.3675 35.8926 46.5587 35.8926C44.75 35.8926 43.2837 37.3589 43.2837 39.1676C43.2837 40.9764 44.75 42.4427 46.5587 42.4427Z" fill="#DFEBFA"/>
<path d="M14.8249 39.1676C14.8249 37.9556 15.4837 36.8981 16.4623 36.3319C15.9805 36.053 15.4216 35.8926 14.8249 35.8926C13.0161 35.8926 11.5498 37.3589 11.5498 39.1676C11.5498 40.9764 13.0161 42.4427 14.8249 42.4427C15.4216 42.4427 15.9806 42.2824 16.4623 42.0035C15.4837 41.437 14.8249 40.3796 14.8249 39.1676Z" fill="#B1DBFC"/>
<path d="M25.403 39.1676C25.403 37.9556 26.0618 36.8981 27.0404 36.3319C26.5586 36.053 25.9997 35.8926 25.403 35.8926C23.5942 35.8926 22.1279 37.3589 22.1279 39.1676C22.1279 40.9764 23.5942 42.4427 25.403 42.4427C25.9997 42.4427 26.5587 42.2824 27.0404 42.0035C26.0618 41.437 25.403 40.3796 25.403 39.1676Z" fill="#B1DBFC"/>
<path d="M35.9811 39.1676C35.9811 37.9556 36.64 36.8981 37.6186 36.3319C37.1367 36.053 36.5777 35.8926 35.9811 35.8926C34.1724 35.8926 32.7061 37.3589 32.7061 39.1676C32.7061 40.9764 34.1724 42.4427 35.9811 42.4427C36.5779 42.4427 37.1369 42.2824 37.6186 42.0035C36.64 41.437 35.9811 40.3796 35.9811 39.1676Z" fill="#B1DBFC"/>
<path d="M46.5592 39.1676C46.5592 37.9556 47.2181 36.8981 48.1967 36.3319C47.7148 36.053 47.1558 35.8926 46.5592 35.8926C44.7505 35.8926 43.2842 37.3589 43.2842 39.1676C43.2842 40.9764 44.7505 42.4427 46.5592 42.4427C47.156 42.4427 47.715 42.2824 48.1967 42.0035C47.2181 41.437 46.5592 40.3796 46.5592 39.1676Z" fill="#B1DBFC"/>
<path d="M10.4058 39.1397C10.4058 41.5676 12.381 43.5426 14.8086 43.5426C17.2365 43.5426 19.2116 41.5676 19.2116 39.1397C19.2116 36.7119 17.2364 34.7368 14.8086 34.7368C12.381 34.7368 10.4058 36.7119 10.4058 39.1397ZM16.9559 39.1397C16.9559 40.3235 15.9926 41.2868 14.8087 41.2868C13.6249 41.2868 12.6618 40.3235 12.6618 39.1397C12.6618 37.9558 13.6249 36.9927 14.8087 36.9927C15.9926 36.9927 16.9559 37.9558 16.9559 39.1397Z" fill="black"/>
<path d="M29.7897 39.1397C29.7897 36.7119 27.8145 34.7368 25.3867 34.7368C22.959 34.7368 20.9839 36.7119 20.9839 39.1397C20.9839 41.5676 22.9591 43.5426 25.3867 43.5426C27.8145 43.5426 29.7897 41.5676 29.7897 39.1397ZM23.2396 39.1397C23.2396 37.9558 24.2027 36.9927 25.3866 36.9927C26.5704 36.9927 27.5337 37.9558 27.5337 39.1397C27.5337 40.3235 26.5704 41.2868 25.3866 41.2868C24.2027 41.2868 23.2396 40.3235 23.2396 39.1397Z" fill="black"/>
<path d="M40.3678 39.1397C40.3678 36.7119 38.3926 34.7368 35.9648 34.7368C33.5371 34.7368 31.562 36.7119 31.562 39.1397C31.562 41.5676 33.5372 43.5426 35.9648 43.5426C38.3926 43.5426 40.3678 41.5676 40.3678 39.1397ZM33.8177 39.1397C33.8177 37.9558 34.7808 36.9927 35.9647 36.9927C37.1486 36.9927 38.1118 37.9558 38.1118 39.1397C38.1118 40.3235 37.1486 41.2868 35.9647 41.2868C34.7808 41.2868 33.8177 40.3235 33.8177 39.1397Z" fill="black"/>
<path d="M50.946 39.1397C50.946 36.7119 48.9707 34.7368 46.543 34.7368C44.1152 34.7368 42.1401 36.7119 42.1401 39.1397C42.1401 41.5676 44.1154 43.5426 46.543 43.5426C48.9707 43.5426 50.946 41.5676 50.946 39.1397ZM44.3958 39.1397C44.3958 37.9558 45.3589 36.9927 46.5428 36.9927C47.7267 36.9927 48.69 37.9558 48.69 39.1397C48.69 40.3235 47.7267 41.2868 46.5428 41.2868C45.3589 41.2868 44.3958 40.3235 44.3958 39.1397Z" fill="black"/>
<path d="M66.0025 0.580933H24.3864C18.3225 0.580933 13.389 5.51435 13.389 11.5782V13.3574H10.9973C4.93341 13.3575 0 18.2909 0 24.3548V52.3182C0 58.3822 4.93341 63.3155 10.9973 63.3155H22.7549C23.3779 63.3155 23.8828 62.8105 23.8828 62.1875C23.8828 61.5646 23.3779 61.0596 22.7549 61.0596H10.9973C6.1773 61.0596 2.25586 57.1382 2.25586 52.3182V24.3548C2.25586 19.5348 6.1773 15.6134 10.9973 15.6134H52.6136C57.4336 15.6134 61.355 19.5348 61.355 24.3548V52.3182C61.355 57.1382 57.4336 61.0596 52.6136 61.0596C51.3288 61.0596 50.1294 61.6248 49.3229 62.6104C44.8988 68.017 39.6306 71.8377 35.9903 74.0907C35.6508 74.3002 35.2601 73.9463 35.4385 73.582C36.869 70.6633 37.9658 67.6024 38.6982 64.4843C39.1085 62.7371 37.7765 61.0596 35.9748 61.0596H28.0187C27.3956 61.0596 26.8907 61.5646 26.8907 62.1875C26.8907 62.8105 27.3956 63.3155 28.0187 63.3155H35.9748C36.3208 63.3155 36.5804 63.6355 36.5021 63.9685C35.8085 66.9218 34.7691 69.8223 33.4129 72.5893C32.2434 74.9763 34.9206 77.4056 37.1775 76.0089C40.964 73.6654 46.4478 69.6865 51.0687 64.0392C51.4452 63.5793 52.0082 63.3155 52.6136 63.3155C58.6775 63.3155 63.6109 58.3821 63.6109 52.3182V50.539H66.0025C72.0666 50.539 77 45.6056 77 39.5417V28.1919C77 27.569 76.4951 27.064 75.8721 27.064C75.249 27.064 74.7441 27.569 74.7441 28.1919V39.5417C74.7441 44.3617 70.8227 48.2832 66.0025 48.2832H63.6109V24.3548C63.6109 18.2909 58.6775 13.3575 52.6136 13.3575H15.6448V11.5784C15.6448 6.75838 19.5663 2.83694 24.3864 2.83694H66.0025C70.8227 2.83694 74.7441 6.75838 74.7441 11.5784V22.9282C74.7441 23.5511 75.249 24.0562 75.8721 24.0562C76.4951 24.0562 77 23.5511 77 22.9282V11.5784C77 5.51435 72.0666 0.580933 66.0025 0.580933Z" fill="black"/>
</g>
<defs>
<clipPath id="clip0_683_977">
<rect width="77" height="77" fill="white"/>
</clipPath>
</defs>
</svg>
