<svg width="77" height="75" viewBox="0 0 77 75" fill="none" xmlns="http://www.w3.org/2000/svg">
<path d="M45.8738 60.9557L28.8915 44.0258C27.827 42.9647 27.8258 41.2481 28.8879 40.1893C29.308 39.7705 29.8326 39.517 30.3783 39.4315C31.2096 39.2973 32.0937 39.5509 32.737 40.1922L28.3639 35.8333C27.8323 35.3027 27.565 34.6087 27.5655 33.9153C27.5655 33.7712 27.5773 33.626 27.6002 33.4813C27.6877 32.9367 27.9409 32.4148 28.361 31.9961C28.7769 31.5815 29.2921 31.3302 29.8302 31.2412C30.5634 31.1194 31.3353 31.2974 31.951 31.7759L30.2867 30.1168C29.755 29.5868 29.4877 28.8899 29.4877 28.1965C29.4871 28.0495 29.4995 27.9007 29.5241 27.7555C29.6111 27.2149 29.8643 26.6954 30.2826 26.2785C30.7026 25.8597 31.2266 25.6067 31.7747 25.5206C32.606 25.3871 33.4901 25.6407 34.1334 26.282L36.0391 28.1818C35.3964 27.5411 35.1415 26.6591 35.2754 25.8304C35.3618 25.2864 35.6144 24.7646 36.0356 24.3447C37.0971 23.287 38.8208 23.2876 39.8847 24.3482L50.9207 35.3507L50.9519 35.3068C51.5111 34.7492 52.1703 34.3527 52.8735 34.1161C54.6094 33.5334 56.6062 33.9317 57.9909 35.312L63.137 40.4423C64.1263 41.4285 64.6809 42.7644 64.6832 44.157L64.6862 47.3664C64.6874 48.8662 65.286 50.3051 66.3516 51.3675L67.4995 52.5112L54.3738 65.5957L52.9075 64.1339C51.9324 63.1618 50.6352 62.5761 49.26 62.4865C47.9822 62.4028 46.7797 61.8593 45.8738 60.9557Z" fill="#FECBAA"/>
<path d="M53.5209 66.4455L68.4183 51.5941C68.9095 51.1045 69.7055 51.1045 70.196 51.5941L75.502 56.8831C75.9925 57.3727 75.9925 58.1656 75.502 58.6552L60.6039 73.5072C60.1128 73.9962 59.3174 73.9962 58.8262 73.5072L53.5209 68.2176C53.0297 67.7286 53.0297 66.9351 53.5209 66.4455Z" fill="#FDD559"/>
<path d="M31.1238 60.9574L48.1062 44.0276C49.1707 42.9664 49.1713 41.2499 48.1091 40.191C47.6891 39.7717 47.1645 39.5187 46.6193 39.4326C45.7875 39.2991 44.9039 39.5527 44.2601 40.194L48.6332 35.8344C49.1648 35.3044 49.4321 34.6098 49.4315 33.9164C49.4315 33.7724 49.4204 33.6271 49.3969 33.4831C49.3093 32.9384 49.0561 32.4166 48.6361 31.9979C48.2208 31.5832 47.705 31.332 47.1668 31.243C46.4337 31.1212 45.6618 31.2992 45.0461 31.7771L46.7104 30.1179C47.242 29.5879 47.5093 28.8916 47.5093 28.1982C47.5099 28.0506 47.4976 27.9025 47.4729 27.7572C47.386 27.2167 47.1328 26.6966 46.7145 26.2802C46.2945 25.8615 45.7704 25.6079 45.2229 25.5224C44.3911 25.3889 43.5075 25.6419 42.8637 26.2831L40.9579 28.183C41.6006 27.5429 41.8556 26.6609 41.7216 25.8316C41.6359 25.2881 41.3827 24.7663 40.9615 24.3464C39.8999 23.2882 38.1763 23.2893 37.113 24.3493L26.0763 35.3519L26.0452 35.3085C25.4859 34.751 24.8268 34.3545 24.1236 34.1179C22.3882 33.5346 20.3909 33.9334 19.0062 35.3138L13.8606 40.444C12.8713 41.4303 12.3162 42.7661 12.3144 44.1588L12.3109 47.3681C12.3103 48.8685 11.7117 50.3069 10.646 51.3692L9.49811 52.513L22.6232 65.5975L24.0901 64.1357C25.0653 63.1635 26.3624 62.5779 27.7377 62.4883C29.0148 62.4045 30.2174 61.8605 31.1238 60.9574Z" fill="#FECBAA"/>
<path d="M23.4768 66.4472L8.57873 51.5953C8.08761 51.1057 7.2916 51.1057 6.80106 51.5953L1.49509 56.8848C1.00456 57.3739 1.00456 58.1674 1.49509 58.657L16.3932 73.5084C16.8843 73.998 17.6797 73.998 18.1708 73.5084L23.4768 68.2194C23.9673 67.7298 23.9673 66.9363 23.4768 66.4472Z" fill="#FF84A7"/>
<path d="M49.3604 20.3834V44.3257C49.3604 45.8267 48.1438 47.0407 46.6411 47.0407C46.0471 47.0407 45.4967 46.8504 45.0496 46.5265C44.367 46.0346 43.9217 45.2329 43.9217 44.3257V50.4908C43.9217 51.2404 43.618 51.9197 43.1263 52.4099C43.0241 52.5118 42.913 52.6061 42.7938 52.6916C42.3455 53.0155 41.7968 53.2058 41.2029 53.2058C40.6149 53.2058 40.0721 53.0202 39.6279 52.7039C39.0234 52.2735 38.604 51.6035 38.5076 50.831V53.1777C38.5076 53.9273 38.2022 54.6079 37.7104 55.098C37.6071 55.2029 37.4925 55.2989 37.3721 55.3844C36.9268 55.7053 36.3798 55.8945 35.7883 55.8945C35.1943 55.8945 34.6439 55.7036 34.1957 55.3786C33.513 54.8866 33.0677 54.0849 33.0677 53.1777V50.4908C33.0677 51.3962 32.6224 52.2003 31.9398 52.6916C31.4933 53.0155 30.944 53.2058 30.3489 53.2058C28.848 53.2058 27.6296 51.99 27.6296 50.4908V34.9308L27.5767 34.9401C26.786 34.9401 26.0381 34.7557 25.3737 34.4271C23.7329 33.616 22.6032 31.9264 22.6032 29.9745V22.7195C22.6032 21.3251 23.1584 19.9892 24.1447 19.0024L26.4188 16.7313C27.4821 15.6695 28.079 14.23 28.079 12.7278V11.1103H46.6411V13.1776C46.6411 14.5527 47.1433 15.8809 48.0516 16.914C48.8958 17.8733 49.3604 19.1061 49.3604 20.3834Z" fill="#FEDFC5"/>
<path d="M48.1091 40.191C47.6891 39.7717 47.1645 39.5187 46.6193 39.4326C45.7875 39.2991 44.9039 39.5527 44.2607 40.194L48.6337 35.8344C49.1654 35.3044 49.4321 34.6098 49.4321 33.9164C49.4321 33.7724 49.4204 33.6271 49.3969 33.4831C49.3099 32.9378 49.0567 32.4166 48.6367 31.9979C48.2208 31.5832 47.705 31.332 47.1668 31.243C46.4343 31.1212 45.6624 31.2992 45.0467 31.7771L46.711 30.1179C47.2426 29.5879 47.5093 28.8916 47.5093 28.1982C47.5105 28.0506 47.4976 27.9025 47.4729 27.7572C47.386 27.2167 47.1328 26.6966 46.7151 26.2802C46.2951 25.8615 45.7704 25.6079 45.2229 25.5224C44.3911 25.3889 43.5075 25.6419 42.8643 26.2831L40.9585 28.183C41.6006 27.5429 41.8562 26.6609 41.7216 25.8316C41.6359 25.2881 41.3827 24.7663 40.9615 24.3464C39.8999 23.2882 38.1763 23.2893 37.113 24.3493L26.0763 35.3519L26.0452 35.3085C25.4859 34.751 24.8268 34.3545 24.1236 34.1179C23.2912 33.838 22.3982 33.787 21.5417 33.9592C22.232 34.9987 23.196 35.8608 24.3721 36.4423C24.6981 36.6034 25.0324 36.7387 25.3731 36.8482V50.4908C25.3731 53.2281 27.6049 55.4547 30.3484 55.4547C30.6779 55.4547 31.0034 55.4231 31.32 55.3604C31.6743 56.0819 32.2018 56.7168 32.8674 57.1964C33.2804 57.4963 33.731 57.7258 34.2051 57.8851L48.1056 44.027C49.1707 42.9664 49.1719 41.2499 48.1091 40.191Z" fill="#FFAE85"/>
<path d="M51.6145 44.3257V34.751C51.3813 34.9138 51.1587 35.0994 50.9501 35.3073L50.9196 35.3507L39.8829 24.3482C38.8196 23.2882 37.0954 23.287 36.0344 24.3452C35.6132 24.7652 35.36 25.2864 35.2737 25.8304C35.1397 26.6597 35.3953 27.5417 36.0374 28.1818L34.1316 26.282C33.4884 25.6407 32.6048 25.3877 31.773 25.5212C31.2254 25.6067 30.7008 25.8603 30.2808 26.279C29.8631 26.6954 29.6099 27.2155 29.5224 27.756C29.4983 27.9013 29.4854 28.0495 29.4866 28.197C29.4866 28.8904 29.7533 29.5868 30.2855 30.1168L31.9498 31.7759C31.3335 31.298 30.5616 31.12 29.829 31.2418C29.2909 31.3308 28.7751 31.5821 28.3592 31.9967C27.9392 32.4154 27.686 32.9367 27.599 33.4819C27.5755 33.626 27.5638 33.7712 27.5638 33.9153C27.5638 34.6087 27.8305 35.3032 28.3621 35.8333L32.7352 40.1928C32.092 39.5515 31.2084 39.2979 30.3766 39.4315C29.8314 39.5175 29.3068 39.7705 28.8868 40.1893C27.8246 41.2487 27.8258 42.9652 28.8903 44.0264L40.2671 55.368C40.5726 55.426 40.8851 55.4553 41.2017 55.4553C42.2557 55.4553 43.2637 55.1297 44.112 54.5165C44.3288 54.3607 44.5333 54.1868 44.7201 54.0005C45.6594 53.0647 46.1764 51.8184 46.1764 50.4914V49.2691C46.3297 49.2832 46.4842 49.2902 46.6399 49.2902C49.3828 49.2896 51.6145 47.063 51.6145 44.3257Z" fill="#FFAE85"/>
<path d="M49.3604 20.3834V44.3257C49.3604 45.8267 48.1438 47.0407 46.6411 47.0407C46.6005 47.0407 46.5571 47.0407 46.513 47.0378C45.9702 47.0126 45.4667 46.8281 45.0532 46.5283C45.0514 46.5283 45.0514 46.5265 45.0496 46.5265C44.367 46.0346 43.9217 45.2329 43.9217 44.3257V50.4908C43.9217 51.2404 43.618 51.9197 43.1263 52.4099C43.0241 52.5118 42.913 52.6061 42.7938 52.6916C42.3455 53.0155 41.7968 53.2058 41.2029 53.2058C40.6149 53.2058 40.0721 53.0202 39.6279 52.7039C39.0234 52.2735 38.604 51.6035 38.5076 50.831V53.1777C38.5076 53.9273 38.2022 54.6079 37.7104 55.098C37.6071 55.2029 37.4925 55.2989 37.3721 55.3844C36.9268 55.7053 36.3798 55.8945 35.7883 55.8945C35.1943 55.8945 34.6439 55.7036 34.1957 55.3786C33.513 54.8866 33.0677 54.0849 33.0677 53.1777V50.4908C33.0677 51.3962 32.6224 52.2003 31.9398 52.6916C31.4933 53.0155 30.944 53.2058 30.3489 53.2058C28.848 53.2058 27.6296 51.99 27.6296 50.4908V34.9308L27.5767 34.9401C26.786 34.9401 26.0381 34.7557 25.3737 34.4271C23.7329 33.616 22.6032 31.9264 22.6032 29.9745V22.7195C22.6032 21.3251 23.1584 19.9892 24.1447 19.0024L26.4188 16.7313C27.0762 16.0742 27.5561 15.2736 27.8252 14.401C27.9938 13.8616 28.079 13.293 28.079 12.7278V11.1103H46.6411V13.1776C46.6411 13.6408 46.6904 14.1298 46.8202 14.5767C47.0364 15.4358 47.4576 16.2376 48.0516 16.914C48.8881 17.8663 49.3604 19.1149 49.3604 20.3834Z" fill="#FEDFC5"/>
<path d="M49.3604 20.3834V44.3257C49.3604 45.8267 48.1438 47.0407 46.6411 47.0407C46.6005 47.0407 46.5571 47.0407 46.513 47.0378C45.9702 47.0126 45.4667 46.8281 45.0532 46.5283L45.0996 23.4568C45.0996 23.3174 45.0678 23.0972 45.0091 22.8167C43.9716 17.7778 39.7049 14.401 34.5446 14.401H27.8252C27.9938 13.8616 28.079 13.293 28.079 12.7278V11.1103H46.6411V13.1776C46.6411 13.6408 46.6904 14.1298 46.8202 14.5767C47.0364 15.4358 47.4576 16.2376 48.0516 16.914C48.8881 17.8663 49.3604 19.1149 49.3604 20.3834Z" fill="#FECBAA"/>
<path d="M47.8471 11.1109H26.7778C26.084 11.1109 25.5212 10.5498 25.5212 9.85757V2.37772C25.5212 1.68549 26.084 1.12444 26.7778 1.12444H47.8471C48.5409 1.12444 49.1037 1.68549 49.1037 2.37772V9.85757C49.1037 10.5498 48.5409 11.1109 47.8471 11.1109Z" fill="#83D9FF"/>
<path d="M31.6361 67.1494L31.4099 68.251L31.6279 67.1483C31.0169 67.0282 30.4236 67.4247 30.3031 68.0338C30.1827 68.6434 30.5804 69.2343 31.192 69.3544C31.1937 69.355 31.2108 69.3579 31.2125 69.3585C31.2842 69.372 31.3553 69.379 31.4258 69.379C31.9562 69.379 32.4292 69.0042 32.532 68.4654C32.6495 67.8551 32.2482 67.266 31.6361 67.1494Z" fill="black"/>
<path d="M40.26 67.5108L40.3722 68.6294L40.2565 67.5114C39.6367 67.5746 39.1862 68.1269 39.2502 68.7447C39.3095 69.3233 39.7995 69.7544 40.3705 69.7544C40.4093 69.7544 40.4486 69.752 40.4874 69.7485L40.5185 69.745C41.1354 69.673 41.573 69.1184 41.5043 68.5034C41.435 67.8891 40.8769 67.4464 40.26 67.5108Z" fill="black"/>
<path d="M35.9422 67.6525C35.9422 67.6525 35.9263 67.6519 35.9257 67.6519C35.3042 67.6238 34.7849 68.1052 34.7567 68.7254C34.7291 69.3456 35.2178 69.8709 35.84 69.899C35.8576 69.9002 35.8746 69.9002 35.8922 69.9002C36.4915 69.9002 36.9908 69.4299 37.0178 68.8267C37.046 68.2065 36.5649 67.6806 35.9422 67.6525Z" fill="black"/>
<path d="M27.4698 66.0068L27.4557 66.0016C26.8694 65.7919 26.2302 66.0976 26.0199 66.6821C25.809 67.2666 26.1204 67.9131 26.7067 68.1234C26.833 68.1685 26.9616 68.1895 27.0879 68.1895C27.5503 68.1895 27.9844 67.9043 28.1495 67.4452C28.3604 66.8607 28.0561 66.2165 27.4698 66.0068Z" fill="black"/>
<path d="M44.5168 66.7237L44.7947 67.8136L44.5133 66.7248C43.91 66.8795 43.5469 67.4926 43.702 68.0941C43.833 68.6012 44.2912 68.9386 44.7935 68.9386C44.8869 68.9386 44.9815 68.9269 45.0761 68.9023C45.0808 68.9011 45.1007 68.8958 45.106 68.8947C45.7047 68.7318 46.0548 68.1187 45.895 67.5207C45.7352 66.9234 45.1178 66.5679 44.5168 66.7237Z" fill="black"/>
<path d="M48.5944 65.3058L49.0414 66.3377L48.5909 65.307C48.0198 65.5553 47.7584 66.2177 48.0069 66.7869C48.192 67.2103 48.6067 67.4628 49.042 67.4628C49.1918 67.4628 49.3452 67.4323 49.4914 67.369C49.4961 67.3667 49.5144 67.3591 49.5191 67.3567C50.0848 67.102 50.3345 66.4414 50.0818 65.8762C49.8292 65.3105 49.1631 65.0569 48.5944 65.3058Z" fill="black"/>
<path d="M23.1613 14.0479C23.3423 14.0479 23.5261 14.0045 23.6959 13.9143C24.2458 13.6221 24.4532 12.941 24.16 12.3928C23.8669 11.8452 23.1842 11.6373 22.6344 11.9302L22.6209 11.9372C22.0716 12.2294 21.8701 12.907 22.1632 13.4552C22.3653 13.8335 22.7577 14.0479 23.1613 14.0479Z" fill="black"/>
<path d="M10.1144 26.607C10.2818 26.6943 10.461 26.7359 10.6378 26.7359C11.0437 26.7359 11.4362 26.5168 11.6376 26.1332L11.6576 26.094C11.9326 25.5365 11.7023 24.8624 11.143 24.5889C10.5879 24.316 9.91697 24.5409 9.63851 25.0908C9.35065 25.6401 9.56332 26.3189 10.1144 26.607Z" fill="black"/>
<path d="M8.52644 30.8371C8.64629 30.8775 8.76789 30.8969 8.88832 30.8969C9.35829 30.8969 9.79713 30.6011 9.95633 30.1326L9.97102 30.0881C10.1543 29.4948 9.82004 28.8653 9.22435 28.6831C8.63395 28.5016 8.00713 28.8284 7.81855 29.414C7.62058 30.0014 7.93722 30.6386 8.52644 30.8371Z" fill="black"/>
<path d="M12.3397 22.6732C12.54 22.8185 12.772 22.8888 13.0023 22.8888C13.3507 22.8888 13.6949 22.7277 13.9152 22.4255L13.9299 22.4056C14.2918 21.9008 14.1737 21.2003 13.6685 20.8396C13.1627 20.4782 12.4577 20.5942 12.0947 21.0979L13.0035 21.7643L12.0912 21.1025C11.7246 21.605 11.8362 22.3084 12.3397 22.6732Z" fill="black"/>
<path d="M19.3322 16.4765C19.569 16.4765 19.8075 16.4022 20.0114 16.2475C20.5142 15.8809 20.6229 15.1776 20.2552 14.6763C19.8868 14.1749 19.1813 14.0666 18.679 14.4332L18.6508 14.4537C18.155 14.8291 18.0563 15.536 18.4328 16.0309C18.6549 16.3225 18.9915 16.4765 19.3322 16.4765Z" fill="black"/>
<path d="M7.51953 47.8899C7.66875 48.3731 8.11404 48.6829 8.59576 48.6829C8.70562 48.6829 8.81783 48.6665 8.92827 48.6325C9.52043 48.4516 9.8547 47.8261 9.67728 47.2346C9.50751 46.6443 8.89361 46.2976 8.29616 46.4598C7.69518 46.6232 7.34094 47.2416 7.50484 47.8407C7.50837 47.8524 7.51601 47.8782 7.51953 47.8899Z" fill="black"/>
<path d="M15.925 19.4399C16.2181 19.4399 16.5112 19.3269 16.7327 19.102C17.1727 18.6627 17.1727 17.9506 16.7327 17.5119C16.2921 17.0727 15.5778 17.0727 15.1372 17.5119L15.1184 17.5307C14.6825 17.974 14.6913 18.685 15.136 19.1195C15.3551 19.3339 15.64 19.4399 15.925 19.4399Z" fill="black"/>
<path d="M8.76613 42.9875C8.68682 42.3767 8.12697 41.9433 7.51366 42.0159C6.89564 42.0897 6.45387 42.649 6.52731 43.2657L6.53377 43.3108C6.61601 43.8695 7.09715 44.2701 7.6476 44.2701C7.70165 44.2701 7.75687 44.266 7.81268 44.2578C8.42657 44.1687 8.85249 43.5995 8.76613 42.9875Z" fill="black"/>
<path d="M7.34917 39.767C7.36092 39.767 7.37208 39.7676 7.38324 39.7676C7.99068 39.7676 8.49237 39.2856 8.50999 38.676L8.51117 38.628C8.51117 38.0066 8.00595 37.5035 7.38324 37.5035C6.76464 37.5035 6.26295 37.999 6.25531 38.6133C6.23886 39.2329 6.72822 39.7489 7.34917 39.767Z" fill="black"/>
<path d="M7.59649 35.2576C7.66405 35.2693 7.73043 35.2751 7.79681 35.2751C8.33258 35.2751 8.80784 34.8927 8.90594 34.3486C8.90888 34.3322 8.91123 34.3158 8.91358 34.2995C9.00464 33.6851 8.57873 33.1135 7.96189 33.0233C7.35269 32.9331 6.78226 33.3507 6.68416 33.9563C6.57724 34.5665 6.98494 35.1481 7.59649 35.2576Z" fill="black"/>
<path d="M60.803 23.0281C61.0216 23.3444 61.3729 23.5136 61.7312 23.5136C61.9515 23.5136 62.1748 23.4492 62.3698 23.3151C62.8827 22.9637 63.0125 22.2633 62.66 21.7514L61.7224 22.3769L62.6565 21.7462C62.3064 21.232 61.6049 21.0979 61.0897 21.4463C60.5739 21.7948 60.4394 22.494 60.7889 23.0082L60.803 23.0281Z" fill="black"/>
<path d="M66.5631 34.3434C65.9439 34.4125 65.4986 34.9694 65.5685 35.5867L65.5744 35.6353C65.6549 36.1958 66.1378 36.6004 66.69 36.6004C66.7429 36.6004 66.7969 36.5969 66.851 36.5893C67.4625 36.5021 67.889 35.9404 67.8097 35.3314C67.7386 34.7158 67.1782 34.2743 66.5631 34.3434Z" fill="black"/>
<path d="M64.6597 31.1704L64.6644 31.185C64.809 31.6752 65.2584 31.9926 65.746 31.9926C65.8511 31.9926 65.958 31.978 66.0644 31.9463C66.6624 31.7712 67.0043 31.1463 66.8287 30.5502L66.824 30.5355C66.6483 29.9393 66.0215 29.5985 65.4235 29.7742C64.826 29.9493 64.4841 30.5742 64.6597 31.1704Z" fill="black"/>
<path d="M63.0665 26.966C63.2633 27.3648 63.6658 27.5973 64.084 27.5973C64.2503 27.5973 64.4195 27.5604 64.5787 27.482C65.1374 27.2079 65.3694 26.5379 65.0939 25.9804L64.0717 26.4553L65.0927 25.978C64.8283 25.4158 64.1569 25.1739 63.5929 25.4375C63.0289 25.701 62.7857 26.3704 63.0501 26.9326L63.0665 26.966Z" fill="black"/>
<path d="M57.9621 19.5166C58.183 19.7415 58.4749 19.8539 58.7675 19.8539C59.0524 19.8539 59.3373 19.7474 59.557 19.5324C59.9988 19.1014 60.0088 18.3969 59.5829 17.9529C59.1605 17.4991 58.4485 17.4715 57.9914 17.892C57.5338 18.3131 57.5056 19.0247 57.928 19.4809L57.9621 19.5166Z" fill="black"/>
<path d="M66.9297 39.0385C66.3099 39.0227 65.7912 39.507 65.7695 40.1249C65.7413 40.7404 66.2153 41.2645 66.8334 41.2991C66.8551 41.3003 66.8757 41.3008 66.8974 41.3008C67.4913 41.3008 67.9889 40.8376 68.0224 40.2385L68.0241 40.1922C68.0418 39.572 67.5518 39.0566 66.9297 39.0385Z" fill="black"/>
<path d="M50.7492 13.9952L50.7762 14.0098C50.9442 14.0988 51.1246 14.141 51.302 14.141C51.7032 14.141 52.0916 13.9255 52.2954 13.5477C52.5891 13.0025 52.3823 12.3208 51.8372 12.0256L51.2914 13.0095L51.8337 12.0233C51.2873 11.7246 50.6017 11.9243 50.3021 12.469C50.0031 13.013 50.2029 13.6971 50.7492 13.9952Z" fill="black"/>
<path d="M54.5642 16.4613L54.5818 16.4748C54.7857 16.6288 55.0248 16.7032 55.2627 16.7032C55.6034 16.7032 55.94 16.5497 56.1621 16.2581C56.5387 15.7632 56.4411 15.0581 55.9453 14.6827L55.9377 14.6774C55.4436 14.2991 54.7357 14.3916 54.3562 14.8842C53.9767 15.3767 54.0701 16.083 54.5642 16.4613Z" fill="black"/>
<path d="M76.3039 56.0614L71.009 50.7736C70.5585 50.3239 69.9598 50.0761 69.3224 50.0761C68.6856 50.0761 68.0864 50.3239 67.6364 50.7736L67.5136 50.896L67.1659 50.5493C66.7364 50.1201 66.4039 49.6205 66.1783 49.0764C66.1584 49.0044 66.1319 48.9341 66.0979 48.868C65.9251 48.3842 65.8353 47.8694 65.8353 47.3406V45.8449C65.9381 45.8987 66.0503 45.938 66.1707 45.9585C66.2353 45.9696 66.2994 45.9749 66.3628 45.9749C66.898 45.9749 67.3715 45.5942 67.4708 45.0531C67.5912 44.4452 67.1958 43.8542 66.5854 43.7324C66.317 43.6791 66.0514 43.7254 65.8282 43.846C65.7589 42.2484 65.1039 40.7562 63.9642 39.6177L58.8274 34.488C57.6748 33.3372 56.1421 32.7036 54.5119 32.7036C53.25 32.7036 52.0481 33.0848 51.0341 33.7905L50.489 33.2441V20.3834C50.489 18.8332 49.9244 17.3374 48.8999 16.1726C48.1708 15.3445 47.7696 14.2809 47.7696 13.1776V12.2353H47.8471C49.1619 12.2353 50.2316 11.1688 50.2316 9.85757V2.37772C50.2316 1.06646 49.1619 0 47.8471 0H26.7778C25.463 0 24.3932 1.06646 24.3932 2.37772V9.85757C24.3932 11.1688 25.463 12.2353 26.7778 12.2353H26.9516V12.7284C26.9516 13.9407 26.4787 15.0804 25.6205 15.9371L23.3464 18.2083C22.1397 19.4135 21.4753 21.0153 21.4753 22.7195V29.9739C21.4753 30.9595 21.7126 31.8901 22.1303 32.7147C20.6347 32.8008 19.2406 33.4222 18.1726 34.488L13.0358 39.6177C11.8292 40.8229 11.1647 42.4253 11.1647 44.1289V47.3406C11.1647 48.5529 10.6924 49.6925 9.83414 50.5493L9.49047 50.8925C9.48871 50.8937 9.48753 50.8949 9.48636 50.896L9.36417 50.7736C8.91358 50.3239 8.31496 50.0761 7.67756 50.0761C7.04075 50.0761 6.44154 50.3239 5.99154 50.7736L0.696144 56.0614C-0.232048 56.9885 -0.232048 58.4971 0.696144 59.4242L2.50964 61.2344C2.94965 61.6742 3.66401 61.6748 4.10461 61.2362C4.5452 60.7969 4.54638 60.0854 4.10578 59.6456L2.29287 57.8348C2.24176 57.7838 2.24176 57.7012 2.29287 57.6503L7.58826 52.3625C7.63761 52.3133 7.71809 52.3127 7.76744 52.3625L8.688 53.282H8.68858L22.6667 67.2414C22.7178 67.2923 22.7178 67.3749 22.6667 67.4259L17.3719 72.7136C17.3219 72.7634 17.2415 72.7634 17.1921 72.7136L7.29923 62.8344C6.85922 62.3946 6.14487 62.394 5.70427 62.8326C5.26308 63.2719 5.2625 63.9834 5.70251 64.4233L15.596 74.3025C16.046 74.7523 16.6452 75 17.2826 75C17.9194 75 18.518 74.7523 18.9686 74.3025L24.2634 69.0147C25.1916 68.0882 25.1916 66.5796 24.2634 65.6525L24.2058 65.5951L24.8738 64.9281C25.6539 64.1486 26.6902 63.6801 27.7917 63.6092C29.342 63.5091 30.8007 62.8496 31.8987 61.7527L36.7629 56.893C38.1657 56.5258 39.2578 55.3868 39.5545 53.9601C40.0544 54.1973 40.6131 54.3308 41.2029 54.3308C43.3243 54.3308 45.0502 52.6085 45.0502 50.4908V47.8208C45.5355 48.0416 46.0742 48.1658 46.6417 48.1658C48.763 48.1658 50.4884 46.4434 50.4884 44.3257V36.4324L53.9579 39.9082C54.1782 40.129 54.4678 40.2391 54.7575 40.2391C55.0453 40.2391 55.3332 40.1301 55.5535 39.9117C55.9947 39.4736 55.9964 38.7621 55.557 38.3217L52.6643 35.4239C53.2242 35.1164 53.8551 34.9524 54.5119 34.9524C55.5388 34.9524 56.5046 35.3519 57.2307 36.0775L62.3675 41.2065C63.1488 41.9872 63.5794 43.025 63.5794 44.1289V47.3406C63.5794 49.1532 64.2861 50.8568 65.5691 52.1382L65.9193 52.4878L54.3879 64.0034L53.8363 63.4523C53.8304 63.447 53.8252 63.4411 53.8193 63.4359L53.7224 63.3386C52.5545 62.1726 51.003 61.4716 49.3546 61.365C48.3518 61.3 47.4083 60.8737 46.6945 60.1615L42.9882 56.4866C42.5464 56.0485 41.8321 56.0503 41.3927 56.4907C40.9538 56.9311 40.9556 57.6432 41.3974 58.0807L45.1013 61.7527C46.1993 62.8496 47.658 63.5091 49.2089 63.6092C50.3098 63.6801 51.3461 64.1486 52.1262 64.9275L52.1808 64.982C52.2102 65.0153 52.2414 65.0464 52.2743 65.0757L52.7942 65.5945L52.7366 65.6525C51.8084 66.5796 51.8084 68.0876 52.7366 69.0147L58.0314 74.3025C58.482 74.7523 59.0806 75 59.718 75C60.3548 75 60.954 74.7523 61.4046 74.3025L76.3039 59.4236C77.232 58.4965 77.232 56.9885 76.3039 56.0614ZM66.5913 44.8803L66.5702 44.8768L66.3646 44.8352L66.5913 44.8803ZM30.3019 60.1639C29.5917 60.8737 28.6482 61.3 27.646 61.365C25.997 61.4716 24.4455 62.1726 23.2776 63.3386L22.6121 64.0034L22.0128 63.4048C22.0052 63.3972 21.9976 63.389 21.9899 63.382L11.0807 52.4878L11.4309 52.1382C12.7139 50.8568 13.4206 49.1532 13.4206 47.3406V44.1289C13.4206 43.025 13.8506 41.9872 14.6325 41.2065L19.7693 36.0775C20.4954 35.3519 21.4612 34.9524 22.4881 34.9524C23.1466 34.9524 23.7799 35.1176 24.3415 35.4274L21.4442 38.3205C21.0042 38.7597 21.0048 39.4719 21.4454 39.9105C21.6656 40.1295 21.9541 40.2391 22.2425 40.2391C22.5316 40.2391 22.8206 40.129 23.0409 39.9093L26.5016 36.4529V50.4908C26.5016 52.6085 28.2276 54.3308 30.3489 54.3308C30.947 54.3308 31.5133 54.1938 32.0185 53.9502C32.2476 55.0647 32.962 56.004 33.9301 56.5393L30.3019 60.1639ZM48.2331 44.3263C48.2331 45.2036 47.5187 45.9175 46.6417 45.9175C45.764 45.9175 45.0502 45.2036 45.0502 44.3263V31.7835C45.0502 31.1627 44.5456 30.6591 43.9223 30.6591C43.299 30.6591 42.7944 31.1627 42.7944 31.7835V50.4914C42.7944 51.3687 42.0806 52.082 41.2029 52.082C40.4151 52.082 39.7613 51.5069 39.635 50.7543V31.7706C39.635 31.1493 39.1303 30.6462 38.5071 30.6462C38.3067 30.6462 38.1182 30.6989 37.9548 30.7903C37.5982 30.9794 37.3556 31.3531 37.3556 31.7835V50.4908C37.3556 50.6337 37.3638 50.7736 37.3791 50.9124V53.1783C37.3791 54.0556 36.6654 54.7695 35.7877 54.7695C34.9106 54.7695 34.1968 54.0556 34.1968 53.1783V31.7572C34.1968 31.1364 33.6916 30.6327 33.0689 30.6327C32.4456 30.6327 31.9404 31.1364 31.9404 31.7572V50.4908C31.9404 51.3681 31.2266 52.082 30.3495 52.082C29.4719 52.082 28.7581 51.3681 28.7581 50.4908V29.5745C28.7581 28.9531 28.2529 28.4494 27.6302 28.4494C27.0069 28.4494 26.5022 28.9531 26.5022 29.5745V33.4432C26.4077 33.4737 26.316 33.5164 26.2308 33.5727C24.7722 33.0263 23.7312 31.6195 23.7312 29.9739V22.7195C23.7312 21.6156 24.1618 20.5778 24.9431 19.7971L27.2172 17.526C28.5008 16.2446 29.2075 14.541 29.2075 12.7284V12.2353H31.4751C32.0984 12.2353 32.603 11.7316 32.603 11.1109C32.603 10.4895 32.0984 9.98641 31.4751 9.98641H26.7778C26.7067 9.98641 26.6491 9.92843 26.6491 9.85757V2.37772C26.6491 2.30685 26.7067 2.24888 26.7778 2.24888H47.8465C47.9182 2.24888 47.9758 2.30685 47.9758 2.37772V9.85757C47.9758 9.92902 47.9182 9.98641 47.8465 9.98641H36.7705C36.1478 9.98641 35.6426 10.4895 35.6426 11.1109C35.6426 11.7316 36.1478 12.2353 36.7705 12.2353H45.5137V13.1776C45.5137 14.8268 46.1135 16.4168 47.2033 17.656C47.8671 18.4103 48.2331 19.379 48.2331 20.3834V44.3263ZM74.7071 57.8348L59.8079 72.7136C59.7832 72.7388 59.7532 72.7511 59.718 72.7511C59.6833 72.7511 59.6534 72.7388 59.6281 72.7136L54.3333 67.4259C54.2822 67.3749 54.2822 67.2923 54.3333 67.2414L55.1857 66.3898L69.2326 52.3625C69.2819 52.3127 69.3624 52.3127 69.4117 52.3625L74.7071 57.6503C74.7582 57.7012 74.7582 57.7838 74.7071 57.8348Z" fill="black"/>
<path d="M30.3489 4.91824C29.6869 4.91824 29.1482 5.45645 29.1482 6.11764C29.1482 6.77942 29.6869 7.31704 30.3489 7.31704C31.0116 7.31704 31.5503 6.77942 31.5503 6.11764C31.5503 5.45645 31.0116 4.91824 30.3489 4.91824Z" fill="black"/>
<path d="M69.6914 56.175C69.0287 56.175 68.49 56.7132 68.49 57.3744C68.49 58.0356 69.0287 58.5738 69.6914 58.5738C70.3534 58.5738 70.8921 58.0356 70.8921 57.3744C70.8921 56.7132 70.3534 56.175 69.6914 56.175Z" fill="black"/>
<path d="M18.7965 67.6467C18.7965 66.9855 18.2578 66.4472 17.5957 66.4472C16.933 66.4472 16.3943 66.9855 16.3943 67.6467C16.3943 68.3078 16.933 68.846 17.5957 68.846C18.2578 68.846 18.7965 68.3078 18.7965 67.6467Z" fill="black"/>
</svg>
