<svg width="11" height="11" viewBox="0 0 11 11" fill="none" xmlns="http://www.w3.org/2000/svg">
<path d="M4.69044 1.74792V1.93931H6.6431V1.74792C6.6431 1.49412 6.54023 1.25071 6.35714 1.07125C6.17404 0.891781 5.92571 0.790958 5.66677 0.790958C5.40783 0.790958 5.15949 0.891781 4.9764 1.07125C4.7933 1.25071 4.69044 1.49412 4.69044 1.74792ZM3.90937 1.93931V1.74792C3.90937 1.29108 4.09452 0.852944 4.4241 0.529907C4.75368 0.206871 5.20068 0.0253906 5.66677 0.0253906C6.13286 0.0253906 6.57986 0.206871 6.90943 0.529907C7.23901 0.852944 7.42416 1.29108 7.42416 1.74792V1.93931H10.3532C10.4567 1.93931 10.5561 1.97964 10.6293 2.05142C10.7025 2.12321 10.7437 2.22057 10.7437 2.32209C10.7437 2.42361 10.7025 2.52098 10.6293 2.59276C10.5561 2.66455 10.4567 2.70488 10.3532 2.70488H9.76423L9.02535 9.04684C8.97086 9.51391 8.7429 9.94498 8.38493 10.2579C8.02696 10.5708 7.56403 10.7436 7.0844 10.7433H4.24913C3.76951 10.7436 3.30657 10.5708 2.9486 10.2579C2.59063 9.94498 2.36267 9.51391 2.30819 9.04684L1.5693 2.70488H0.980376C0.876801 2.70488 0.777467 2.66455 0.704228 2.59276C0.630989 2.52098 0.589844 2.42361 0.589844 2.32209C0.589844 2.22057 0.630989 2.12321 0.704228 2.05142C0.777467 1.97964 0.876801 1.93931 0.980376 1.93931H3.90937ZM3.08457 8.95957C3.11717 9.23973 3.2538 9.49834 3.46843 9.68612C3.68305 9.8739 3.96066 9.97771 4.24835 9.97777H7.08479C7.37248 9.97771 7.65009 9.8739 7.86471 9.68612C8.07934 9.49834 8.21597 9.23973 8.24858 8.95957L8.97848 2.70488H2.35544L3.08457 8.95957ZM4.49517 4.04462C4.59874 4.04462 4.69808 4.08495 4.77132 4.15674C4.84456 4.22852 4.8857 4.32588 4.8857 4.42741V8.25524C4.8857 8.35676 4.84456 8.45413 4.77132 8.52591C4.69808 8.5977 4.59874 8.63803 4.49517 8.63803C4.39159 8.63803 4.29226 8.5977 4.21902 8.52591C4.14578 8.45413 4.10464 8.35676 4.10464 8.25524V4.42741C4.10464 4.32588 4.14578 4.22852 4.21902 4.15674C4.29226 4.08495 4.39159 4.04462 4.49517 4.04462ZM7.2289 4.42741C7.2289 4.32588 7.18775 4.22852 7.11451 4.15674C7.04127 4.08495 6.94194 4.04462 6.83836 4.04462C6.73479 4.04462 6.63545 4.08495 6.56222 4.15674C6.48898 4.22852 6.44783 4.32588 6.44783 4.42741V8.25524C6.44783 8.35676 6.48898 8.45413 6.56222 8.52591C6.63545 8.5977 6.73479 8.63803 6.83836 8.63803C6.94194 8.63803 7.04127 8.5977 7.11451 8.52591C7.18775 8.45413 7.2289 8.35676 7.2289 8.25524V4.42741Z" fill="white"/>
</svg>
