<svg width="13" height="14" viewBox="0 0 13 14" fill="none" xmlns="http://www.w3.org/2000/svg">
<path d="M11.5484 7.46812C11.5484 7.32885 11.6037 7.19528 11.7021 7.09681C11.8006 6.99833 11.9341 6.943 12.0733 6.943C12.2125 6.943 12.3461 6.99833 12.4445 7.09681C12.5429 7.19528 12.5982 7.32885 12.5982 7.46812V13.2444C12.5982 13.3837 12.5429 13.5172 12.4445 13.6157C12.3461 13.7142 12.2125 13.7695 12.0733 13.7695H0.524927C0.385707 13.7695 0.25219 13.7142 0.153748 13.6157C0.0553047 13.5172 0 13.3837 0 13.2444V1.69183C0 1.55256 0.0553047 1.41899 0.153748 1.32051C0.25219 1.22203 0.385707 1.16671 0.524927 1.16671H6.29912C6.43834 1.16671 6.57186 1.22203 6.6703 1.32051C6.76874 1.41899 6.82405 1.55256 6.82405 1.69183C6.82405 1.8311 6.76874 1.96466 6.6703 2.06314C6.57186 2.16162 6.43834 2.21694 6.29912 2.21694H1.04985V12.7193H11.5484V7.46812Z" fill="white"/>
<path d="M5.60937 8.16127L6.4755 8.03735L11.7962 2.71581C11.8463 2.66737 11.8863 2.60942 11.9138 2.54535C11.9413 2.48129 11.9558 2.41238 11.9564 2.34266C11.957 2.27293 11.9437 2.20379 11.9173 2.13925C11.8909 2.07472 11.8519 2.01609 11.8027 1.96678C11.7534 1.91748 11.6948 1.87848 11.6303 1.85208C11.5657 1.82568 11.4966 1.81239 11.4269 1.813C11.3572 1.8136 11.2883 1.82809 11.2243 1.85561C11.1603 1.88313 11.1023 1.92314 11.0539 1.97329L5.7322 7.29483L5.60832 8.16127H5.60937ZM12.5384 1.22972C12.6847 1.37602 12.8008 1.54973 12.88 1.74093C12.9592 1.93212 13 2.13706 13 2.34402C13 2.55099 12.9592 2.75592 12.88 2.94712C12.8008 3.13831 12.6847 3.31202 12.5384 3.45832L7.09491 8.90379C7.01464 8.98439 6.91037 9.03672 6.7978 9.05292L5.06554 9.30078C4.98481 9.31238 4.90249 9.305 4.82511 9.27923C4.74773 9.25346 4.67741 9.21 4.61974 9.15231C4.56207 9.09462 4.51863 9.02428 4.49287 8.94687C4.46711 8.86946 4.45973 8.78711 4.47133 8.70635L4.71909 6.97346C4.735 6.86098 4.78694 6.75669 4.86712 6.67624L10.3117 1.23077C10.607 0.93544 11.0075 0.769531 11.425 0.769531C11.8426 0.769531 12.2431 0.93544 12.5384 1.23077V1.22972Z" fill="white"/>
</svg>
