<svg width="71" height="71" viewBox="0 0 71 71" fill="none" xmlns="http://www.w3.org/2000/svg">
<path d="M58.3093 59.8729H12.7547C12.1961 59.8729 11.7441 59.4204 11.7441 58.8624V24.712C11.7441 24.1539 12.1961 23.7014 12.7547 23.7014C13.3133 23.7014 13.7652 24.1539 13.7652 24.712V57.8518H57.2987V24.712C57.2987 24.1539 57.7507 23.7014 58.3093 23.7014C58.8678 23.7014 59.3198 24.1539 59.3198 24.712V58.8624C59.3198 59.4204 58.8678 59.8729 58.3093 59.8729Z" fill="black"/>
<path d="M58.3093 13.0143H12.7547C12.1961 13.0143 11.7441 12.5618 11.7441 12.0037C11.7441 11.4456 12.1961 10.9932 12.7547 10.9932H58.3093C58.8678 10.9932 59.3198 11.4456 59.3198 12.0037C59.3198 12.5618 58.8678 13.0143 58.3093 13.0143Z" fill="black"/>
<path d="M58.309 58.8629H12.7539V62.7852C12.7539 65.5757 15.016 67.8377 17.8063 67.8377H53.2574C56.0477 67.8377 58.3098 65.5757 58.3098 62.7852L58.309 58.8629Z" fill="#FD8D65"/>
<path d="M58.3029 8.21525V12.0036H12.7539V8.21525C12.7539 5.43243 15.011 3.1626 17.8066 3.1626H53.2502C56.0459 3.1626 58.3029 5.43243 58.3029 8.21525Z" fill="#FD8D65"/>
<path d="M53.2575 68.8479H17.8065C14.463 68.8479 11.7432 66.1281 11.7432 62.7851V58.8628C11.7432 58.3048 12.1951 57.8523 12.7537 57.8523H58.3093C58.8678 57.8523 59.3198 58.3048 59.3198 58.8628V62.7851C59.3198 66.1281 56.6 68.8479 53.2575 68.8479ZM13.7643 59.8734V62.7851C13.7643 65.014 15.5771 66.8268 17.8065 66.8268H53.2575C55.4859 66.8268 57.2987 65.014 57.2987 62.7851V59.8734H13.7643Z" fill="black"/>
<path d="M40.3918 64.3607H30.6722C30.1136 64.3607 29.6616 63.9082 29.6616 63.3501C29.6616 62.7921 30.1136 62.3396 30.6722 62.3396H40.3918C40.9503 62.3396 41.4023 62.7921 41.4023 63.3501C41.4023 63.9082 40.9503 64.3607 40.3918 64.3607Z" fill="black"/>
<path d="M58.3024 13.0143H12.7537C12.1951 13.0143 11.7432 12.5618 11.7432 12.0037V8.21514C11.7432 4.87165 14.463 2.15186 17.8065 2.15186H53.2496C56.5931 2.15186 59.3129 4.87165 59.3129 8.21514V12.0037C59.3129 12.5618 58.8609 13.0143 58.3024 13.0143ZM13.7643 10.9932H57.2918V8.21514C57.2918 5.98631 55.479 4.17295 53.2496 4.17295H17.8065C15.5771 4.17295 13.7643 5.98631 13.7643 8.21514V10.9932Z" fill="black"/>
<path d="M35.7715 8.59361H28.9681C28.4095 8.59361 27.9575 8.14113 27.9575 7.58306C27.9575 7.02499 28.4095 6.57251 28.9681 6.57251H35.7715C36.3301 6.57251 36.782 7.02499 36.782 7.58306C36.782 8.14113 36.3301 8.59361 35.7715 8.59361Z" fill="black"/>
<path d="M42.0895 8.59361H40.1819C39.6234 8.59361 39.1714 8.14113 39.1714 7.58306C39.1714 7.02499 39.6234 6.57251 40.1819 6.57251H42.0895C42.6481 6.57251 43.1001 7.02499 43.1001 7.58306C43.1001 8.14113 42.6481 8.59361 42.0895 8.59361Z" fill="black"/>
<path d="M12.6362 25.7226C11.152 25.7226 9.82762 25.0505 9.0026 23.8791C8.16377 22.689 7.97627 21.187 8.48746 19.758L11.6257 11.6396C11.7757 11.2497 12.1507 10.9932 12.5681 10.9932H18.9522C19.264 10.9932 19.5591 11.1372 19.7505 11.384C19.942 11.6302 20.0081 11.9514 19.9311 12.2539L17.4492 21.9745C16.8945 24.1461 14.8705 25.7226 12.6362 25.7226ZM13.2609 13.0143L10.3813 20.4626C10.1039 21.2403 10.2007 22.0697 10.6546 22.7151C11.0967 23.3418 11.8181 23.7015 12.6362 23.7015C13.9606 23.7015 15.1616 22.765 15.4912 21.4741L17.6515 13.0143H13.2609Z" fill="black"/>
<path d="M20.3117 24.7122H20.2044C17.8709 24.7122 16.2459 22.6002 16.8193 20.3548L18.952 12.0034H25.5717L24.1237 21.454C23.8405 23.3024 22.1996 24.7122 20.3117 24.7122Z" fill="#FFCC2E"/>
<path d="M35.5985 24.7122H35.4042C33.2958 24.7122 31.6315 22.9691 31.7372 20.8986L32.1915 12.0034H38.8113L39.2656 20.8986C39.3713 22.9691 37.7069 24.7122 35.5985 24.7122Z" fill="#FFCC2E"/>
<path d="M50.7985 24.7122H50.6911C48.8032 24.7122 47.1624 23.3024 46.8792 21.454L45.4312 12.0034H52.0509L54.1835 20.3548C54.7569 22.6002 53.132 24.7122 50.7985 24.7122Z" fill="#FFCC2E"/>
<path d="M20.312 25.7226H20.2044C18.7814 25.7226 17.4777 25.0944 16.6271 23.9995C15.7754 22.9026 15.4882 21.4835 15.8405 20.1049L17.9732 11.7535C18.0876 11.306 18.4903 10.9932 18.9521 10.9932H25.572C25.8671 10.9932 26.1464 11.1219 26.3388 11.3455C26.5312 11.569 26.6151 11.8656 26.5707 12.1567L25.122 21.6069C24.7628 23.9531 22.6943 25.7226 20.312 25.7226ZM19.7367 13.0143L17.7985 20.6052C17.6021 21.3745 17.757 22.1595 18.2228 22.7595C18.6876 23.3581 19.41 23.7015 20.2044 23.7015H20.312C21.7055 23.7015 22.9144 22.6692 23.1246 21.3009L24.3947 13.0143H19.7367Z" fill="black"/>
<path d="M27.9663 25.7226H27.7936C26.4366 25.7226 25.1596 25.1413 24.2902 24.1283C23.4287 23.1237 23.0497 21.7899 23.253 20.4695L24.5734 11.8507C24.6484 11.3573 25.0728 10.9932 25.5721 10.9932H32.192C32.4693 10.9932 32.7338 11.1067 32.9243 11.3075C33.1157 11.5083 33.2154 11.7787 33.2016 12.0555L32.7328 21.2294C32.6035 23.7489 30.5094 25.7226 27.9663 25.7226ZM26.4396 13.0143L25.2504 20.7759C25.1359 21.524 25.3392 22.2473 25.8238 22.8123C26.3162 23.3857 27.0159 23.7015 27.7936 23.7015H27.9663C29.409 23.7015 30.6416 22.5459 30.7137 21.1258L31.1282 13.0143H26.4396Z" fill="black"/>
<path d="M35.5985 25.7226H35.4041C34.0995 25.7226 32.8886 25.205 31.9955 24.265C31.1132 23.3364 30.6622 22.1225 30.7274 20.8475L31.1823 11.9519C31.21 11.4146 31.654 10.9932 32.1919 10.9932H38.8118C39.3496 10.9932 39.7937 11.415 39.8213 11.9524L40.2753 20.8475C40.3404 22.1225 39.8894 23.3364 39.0072 24.265C38.114 25.205 36.9032 25.7226 35.5985 25.7226ZM33.1521 13.0143L32.7465 20.9506C32.71 21.6666 32.9636 22.3495 33.461 22.8725C33.9682 23.4069 34.659 23.7015 35.4041 23.7015H35.5985C36.3436 23.7015 37.0344 23.4069 37.5417 22.8725C38.039 22.3495 38.2927 21.6666 38.2562 20.9501L37.8515 13.0143H33.1521Z" fill="black"/>
<path d="M43.2091 25.7226H43.0364C40.4932 25.7226 38.3991 23.7489 38.2698 21.2294L37.802 12.055C37.7882 11.7787 37.8879 11.5083 38.0794 11.3075C38.2698 11.1067 38.5343 10.9932 38.8116 10.9932H45.4305C45.9299 10.9932 46.3542 11.3573 46.4292 11.8507L47.7506 20.47C47.9529 21.7909 47.575 23.1247 46.7124 24.1293C45.843 25.1418 44.566 25.7226 43.2091 25.7226ZM39.8754 13.0143L40.2889 21.1263C40.361 22.5459 41.5936 23.7015 43.0364 23.7015H43.2091C43.9867 23.7015 44.6864 23.3857 45.1789 22.8128C45.6634 22.2473 45.8677 21.5245 45.7532 20.7759L44.563 13.0143H39.8754Z" fill="black"/>
<path d="M50.7983 25.7226H50.6907C48.3084 25.7226 46.24 23.9531 45.8808 21.6069L44.432 12.1567C44.3876 11.8656 44.4715 11.569 44.664 11.3455C44.8564 11.1219 45.1357 10.9932 45.4307 10.9932H52.0506C52.5125 10.9932 52.9151 11.306 53.0296 11.7535L55.1622 20.1049C55.5145 21.4835 55.2273 22.9026 54.3757 23.9995C53.525 25.0944 52.2214 25.7226 50.7983 25.7226ZM46.6081 13.0143L47.8782 21.3009C48.0884 22.6692 49.2973 23.7015 50.6907 23.7015H50.7983C51.5927 23.7015 52.3151 23.3581 52.7799 22.7595C53.2457 22.1595 53.4007 21.3745 53.2043 20.6052L51.2661 13.0143H46.6081Z" fill="black"/>
<path d="M58.3663 25.7226C56.1331 25.7226 54.109 24.1461 53.5544 21.9745L51.0714 12.2539C50.9945 11.9514 51.0606 11.6302 51.252 11.384C51.4435 11.1372 51.7386 10.9932 52.0504 10.9932H58.3841C58.7996 10.9932 59.1726 11.2473 59.3246 11.6341L62.5052 19.7289C63.0263 21.1875 62.8388 22.6895 62 23.8796C61.175 25.0505 59.8506 25.7226 58.3663 25.7226ZM53.3511 13.0143L55.5123 21.4741C55.8419 22.765 57.042 23.7015 58.3663 23.7015C59.1835 23.7015 59.9058 23.3418 60.348 22.7151C60.8029 22.0697 60.8996 21.2398 60.6134 20.4384L57.6953 13.0143H53.3511Z" fill="black"/>
<path d="M42.872 54.4783H28.1924C27.2696 54.4783 26.3854 54.0855 25.7667 53.4006C25.1489 52.7157 24.8479 51.7965 24.9416 50.8782L26.8749 31.9704C26.9677 31.0669 27.7216 30.3865 28.6286 30.3865H42.4348C43.3417 30.3865 44.0966 31.0669 44.1894 31.9699L46.1227 50.8787C46.2164 51.7965 45.9154 52.7157 45.2977 53.4006C44.6789 54.0855 43.7947 54.4783 42.872 54.4783ZM28.8624 32.4076L26.9529 51.084C26.9163 51.4392 27.0279 51.7812 27.2677 52.0461C27.5065 52.3111 27.8351 52.4572 28.1924 52.4572H42.872C43.2292 52.4572 43.5578 52.3111 43.7966 52.0461C44.0365 51.7812 44.148 51.4392 44.1115 51.0844L42.2019 32.4076H28.8624Z" fill="black"/>
<path d="M35.5319 41.9948C32.9956 41.9948 30.9331 39.9318 30.9331 37.396V34.8233C30.9331 34.2652 31.3851 33.8127 31.9437 33.8127C32.5022 33.8127 32.9542 34.2652 32.9542 34.8233V37.396C32.9542 38.8176 34.1108 39.9737 35.5319 39.9737C36.953 39.9737 38.1096 38.8176 38.1096 37.396V34.8233C38.1096 34.2652 38.5616 33.8127 39.1201 33.8127C39.6787 33.8127 40.1307 34.2652 40.1307 34.8233V37.396C40.1307 39.9318 38.0681 41.9948 35.5319 41.9948Z" fill="black"/>
</svg>
