<?xml version="1.0" encoding="UTF-8"?>
<svg version="1.1" xmlns="http://www.w3.org/2000/svg" width="512" height="512">
<path d="M0 0 C1.92580934 -0.00935994 1.92580934 -0.00935994 3.89052391 -0.01890898 C7.42467358 -0.03549024 10.95838699 -0.02740772 14.4925375 -0.0149641 C18.31538676 -0.00586955 22.13816387 -0.01990505 25.96099854 -0.03088379 C33.43828261 -0.04862685 40.91540564 -0.04484789 48.3926959 -0.03323323 C54.47215815 -0.02418253 60.55157542 -0.02298196 66.63104248 -0.02732849 C67.49783957 -0.02794142 68.36463666 -0.02855436 69.25770032 -0.02918586 C71.01883842 -0.03046482 72.7799765 -0.03176168 74.54111457 -0.03307623 C91.03726004 -0.04446968 107.53331645 -0.03138773 124.02944732 -0.00987476 C138.16957847 0.0079951 152.30957825 0.00489065 166.44970703 -0.0135498 C182.88869958 -0.03497836 199.32761416 -0.04337116 215.76661873 -0.03110075 C217.52110925 -0.02982662 219.27559979 -0.02856913 221.03009033 -0.02732849 C222.32479722 -0.02640284 222.32479722 -0.02640284 223.6456598 -0.02545848 C229.71453694 -0.02201154 235.78336444 -0.02781977 241.85223389 -0.0372467 C249.25288919 -0.04849015 256.65337488 -0.0453775 264.05401087 -0.02412373 C267.82659134 -0.01364473 271.5988895 -0.00943723 275.37146759 -0.02272034 C279.46826613 -0.03692636 283.56435806 -0.01991141 287.66113281 0 C288.843346 -0.00892289 290.0255592 -0.01784577 291.24359703 -0.02703905 C302.96577973 0.08322654 312.29178804 3.3565488 320.83056641 11.50793457 C332.65314658 23.89237995 332.39998923 37.25841485 332.28466797 53.41101074 C332.28353843 55.62935363 332.28417542 57.84769802 332.28643799 60.06604004 C332.28758192 66.06326361 332.26412439 72.06016478 332.23614216 78.05731368 C332.21107502 84.33399413 332.20878231 90.61068261 332.20404053 96.8874054 C332.19303532 107.41436947 332.16807945 117.9412343 332.13232422 128.46813965 C332.09555124 139.30602433 332.06726545 150.14387696 332.05029297 160.98181152 C332.04924207 161.65099557 332.04819118 162.32017962 332.04710844 163.00964197 C332.04188791 166.36708082 332.03683317 169.7245199 332.03186083 173.08195913 C331.99009187 200.89069951 331.9197701 228.69930874 331.83056641 256.50793457 C332.39948829 256.5042474 332.96841017 256.50056023 333.55457211 256.49676132 C347.42739616 256.40824518 361.30017042 256.3424007 375.17321682 256.30068588 C381.88226429 256.28010123 388.59112273 256.25205978 395.30004883 256.20617676 C401.77748172 256.16263837 408.25471849 256.13878021 414.73228645 256.1284256 C417.20057321 256.12104867 419.66884952 256.1066433 422.13705254 256.08501434 C425.60079823 256.05587522 429.06373887 256.05198311 432.52758789 256.05383301 C433.54251312 256.0394519 434.55743835 256.0250708 435.6031189 256.01025391 C444.74307431 256.06289292 453.11076092 259.14180306 459.83056641 265.50793457 C465.70256888 272.81411276 468.13648382 279.37697853 468.09799194 288.78617859 C468.10252306 289.60433794 468.10705417 290.42249729 468.11172259 291.26544935 C468.12435294 293.99892354 468.12274709 296.73219815 468.12109375 299.46569824 C468.12707995 301.42900854 468.1338857 303.39231648 468.14144897 305.35562134 C468.15910925 310.68435968 468.16380444 316.01303377 468.16508055 321.34179854 C468.16650296 324.67369169 468.17077433 328.00556856 468.17607498 331.33745766 C468.19457704 342.969245 468.20274558 354.60098652 468.20117188 366.23278809 C468.19997121 377.06183954 468.2210585 387.89069144 468.2526592 398.71969241 C468.27884767 408.02692416 468.28953805 417.33409085 468.28826106 426.64135915 C468.28775208 432.1956158 468.29339963 437.74969519 468.31461716 443.30391502 C468.33404214 448.53166111 468.33409479 453.75906164 468.31958389 458.98682022 C468.31749982 460.89954066 468.3221726 462.81228296 468.33430481 464.72496605 C468.41977848 479.140365 467.25580544 490.58723863 456.83056641 501.50793457 C445.53796263 512.2882085 433.3633693 513.0964156 418.49804688 513.01586914 C416.64022776 513.02048292 414.7824123 513.02683903 412.92460442 513.03477812 C407.83988565 513.05142898 402.75546836 513.04324434 397.67074871 513.03083324 C392.17918067 513.02176771 386.68766378 513.03575995 381.19610596 513.04675293 C370.44620604 513.06452665 359.69641793 513.06070324 348.94651365 513.04910237 C340.20877891 513.04006383 331.47107548 513.03884587 322.7333374 513.04319763 C321.48909119 513.04381056 320.24484497 513.0444235 318.96289432 513.045055 C316.43512423 513.04633392 313.90735415 513.04763077 311.37958407 513.04894537 C288.35957038 513.06002285 265.33960617 513.0485408 242.31960461 513.02757498 C221.31866862 513.00859347 200.31782967 513.01029202 179.31689453 513.02941895 C155.70558486 513.05085159 132.09431649 513.0592492 108.48299599 513.04696989 C105.9645958 513.04569571 103.44619561 513.04443823 100.92779541 513.04319763 C99.68873849 513.04258053 98.44968157 513.04196343 97.17307746 513.04132763 C88.44721986 513.03787591 79.7213967 513.04369925 70.99554443 513.05311584 C60.35966255 513.06434151 49.72389872 513.06128372 39.08803034 513.03999287 C33.66286122 513.02949022 28.23788886 513.0253474 22.81272125 513.03858948 C17.84344464 513.05053523 12.87454661 513.04391465 7.90530419 513.02267927 C6.11070193 513.01822249 4.31606749 513.02045864 2.52148604 513.03018242 C-11.46776344 513.10014922 -22.66459623 511.53618196 -33.16943359 501.50793457 C-43.94970752 490.21533079 -44.75791463 478.04073747 -44.67736816 463.17541504 C-44.68198194 461.31759592 -44.68833805 459.45978046 -44.69627714 457.60197258 C-44.712928 452.51725381 -44.70474336 447.43283653 -44.69233227 442.34811687 C-44.68326674 436.85654883 -44.69725897 431.36503194 -44.70825195 425.87347412 C-44.72602568 415.1235742 -44.72220226 404.37378609 -44.71060139 393.62388182 C-44.70156285 384.88614708 -44.7003449 376.14844364 -44.70469666 367.41070557 C-44.70530959 366.16645935 -44.70592252 364.92221313 -44.70655403 363.64026248 C-44.70783294 361.11249239 -44.7091298 358.58472231 -44.71044439 356.05695224 C-44.72152187 333.03693854 -44.71003983 310.01697433 -44.689074 286.99697277 C-44.67009249 265.99603679 -44.67179104 244.99519783 -44.69091797 223.9942627 C-44.71235061 200.38295302 -44.72074823 176.77168465 -44.70846891 153.16036415 C-44.70719474 150.64196397 -44.70593725 148.12356377 -44.70469666 145.60516357 C-44.70407955 144.36610665 -44.70346245 143.12704973 -44.70282665 141.85044563 C-44.69937493 133.12458802 -44.70519827 124.39876487 -44.71461487 115.6729126 C-44.72584054 105.03703071 -44.72278274 94.40126689 -44.70149189 83.7653985 C-44.69098925 78.34022938 -44.68684642 72.91525702 -44.7000885 67.49008942 C-44.71203425 62.5208128 -44.70541367 57.55191478 -44.68417829 52.58267236 C-44.67972151 50.7880701 -44.68195766 48.99343566 -44.69168144 47.19885421 C-44.76164824 33.20960472 -43.19768098 22.01277193 -33.16943359 11.50793457 C-23.46398182 2.24280575 -13.12005494 -0.09902509 0 0 Z " fill="#F0F1F5" transform="translate(44.16943359375,-0.5079345703125)"/>
<path d="M0 0 C1.92580934 -0.00935994 1.92580934 -0.00935994 3.89052391 -0.01890898 C7.42467358 -0.03549024 10.95838699 -0.02740772 14.4925375 -0.0149641 C18.31538676 -0.00586955 22.13816387 -0.01990505 25.96099854 -0.03088379 C33.43828261 -0.04862685 40.91540564 -0.04484789 48.3926959 -0.03323323 C54.47215815 -0.02418253 60.55157542 -0.02298196 66.63104248 -0.02732849 C67.49783957 -0.02794142 68.36463666 -0.02855436 69.25770032 -0.02918586 C71.01883842 -0.03046482 72.7799765 -0.03176168 74.54111457 -0.03307623 C91.03726004 -0.04446968 107.53331645 -0.03138773 124.02944732 -0.00987476 C138.16957847 0.0079951 152.30957825 0.00489065 166.44970703 -0.0135498 C182.88869958 -0.03497836 199.32761416 -0.04337116 215.76661873 -0.03110075 C217.52110925 -0.02982662 219.27559979 -0.02856913 221.03009033 -0.02732849 C222.32479722 -0.02640284 222.32479722 -0.02640284 223.6456598 -0.02545848 C229.71453694 -0.02201154 235.78336444 -0.02781977 241.85223389 -0.0372467 C249.25288919 -0.04849015 256.65337488 -0.0453775 264.05401087 -0.02412373 C267.82659134 -0.01364473 271.5988895 -0.00943723 275.37146759 -0.02272034 C279.46826613 -0.03692636 283.56435806 -0.01991141 287.66113281 0 C288.843346 -0.00892289 290.0255592 -0.01784577 291.24359703 -0.02703905 C302.96577973 0.08322654 312.29178804 3.3565488 320.83056641 11.50793457 C332.65314658 23.89237995 332.39998923 37.25841485 332.28466797 53.41101074 C332.28353843 55.62935363 332.28417542 57.84769802 332.28643799 60.06604004 C332.28758192 66.06326361 332.26412439 72.06016478 332.23614216 78.05731368 C332.21107502 84.33399413 332.20878231 90.61068261 332.20404053 96.8874054 C332.19303532 107.41436947 332.16807945 117.9412343 332.13232422 128.46813965 C332.09555124 139.30602433 332.06726545 150.14387696 332.05029297 160.98181152 C332.04924207 161.65099557 332.04819118 162.32017962 332.04710844 163.00964197 C332.04188791 166.36708082 332.03683317 169.7245199 332.03186083 173.08195913 C331.99009187 200.89069951 331.9197701 228.69930874 331.83056641 256.50793457 C332.39948829 256.5042474 332.96841017 256.50056023 333.55457211 256.49676132 C347.42739616 256.40824518 361.30017042 256.3424007 375.17321682 256.30068588 C381.88226429 256.28010123 388.59112273 256.25205978 395.30004883 256.20617676 C401.77748172 256.16263837 408.25471849 256.13878021 414.73228645 256.1284256 C417.20057321 256.12104867 419.66884952 256.1066433 422.13705254 256.08501434 C425.60079823 256.05587522 429.06373887 256.05198311 432.52758789 256.05383301 C433.54251312 256.0394519 434.55743835 256.0250708 435.6031189 256.01025391 C444.74307431 256.06289292 453.11076092 259.14180306 459.83056641 265.50793457 C465.70256888 272.81411276 468.13648382 279.37697853 468.09799194 288.78617859 C468.10252306 289.60433794 468.10705417 290.42249729 468.11172259 291.26544935 C468.12435294 293.99892354 468.12274709 296.73219815 468.12109375 299.46569824 C468.12707995 301.42900854 468.1338857 303.39231648 468.14144897 305.35562134 C468.15910925 310.68435968 468.16380444 316.01303377 468.16508055 321.34179854 C468.16650296 324.67369169 468.17077433 328.00556856 468.17607498 331.33745766 C468.19457704 342.969245 468.20274558 354.60098652 468.20117188 366.23278809 C468.19997121 377.06183954 468.2210585 387.89069144 468.2526592 398.71969241 C468.27884767 408.02692416 468.28953805 417.33409085 468.28826106 426.64135915 C468.28775208 432.1956158 468.29339963 437.74969519 468.31461716 443.30391502 C468.33404214 448.53166111 468.33409479 453.75906164 468.31958389 458.98682022 C468.31749982 460.89954066 468.3221726 462.81228296 468.33430481 464.72496605 C468.41977848 479.140365 467.25580544 490.58723863 456.83056641 501.50793457 C445.53796263 512.2882085 433.3633693 513.0964156 418.49804688 513.01586914 C416.64022776 513.02048292 414.7824123 513.02683903 412.92460442 513.03477812 C407.83988565 513.05142898 402.75546836 513.04324434 397.67074871 513.03083324 C392.17918067 513.02176771 386.68766378 513.03575995 381.19610596 513.04675293 C370.44620604 513.06452665 359.69641793 513.06070324 348.94651365 513.04910237 C340.20877891 513.04006383 331.47107548 513.03884587 322.7333374 513.04319763 C321.48909119 513.04381056 320.24484497 513.0444235 318.96289432 513.045055 C316.43512423 513.04633392 313.90735415 513.04763077 311.37958407 513.04894537 C288.35957038 513.06002285 265.33960617 513.0485408 242.31960461 513.02757498 C221.31866862 513.00859347 200.31782967 513.01029202 179.31689453 513.02941895 C155.70558486 513.05085159 132.09431649 513.0592492 108.48299599 513.04696989 C105.9645958 513.04569571 103.44619561 513.04443823 100.92779541 513.04319763 C99.68873849 513.04258053 98.44968157 513.04196343 97.17307746 513.04132763 C88.44721986 513.03787591 79.7213967 513.04369925 70.99554443 513.05311584 C60.35966255 513.06434151 49.72389872 513.06128372 39.08803034 513.03999287 C33.66286122 513.02949022 28.23788886 513.0253474 22.81272125 513.03858948 C17.84344464 513.05053523 12.87454661 513.04391465 7.90530419 513.02267927 C6.11070193 513.01822249 4.31606749 513.02045864 2.52148604 513.03018242 C-11.46776344 513.10014922 -22.66459623 511.53618196 -33.16943359 501.50793457 C-43.94970752 490.21533079 -44.75791463 478.04073747 -44.67736816 463.17541504 C-44.68198194 461.31759592 -44.68833805 459.45978046 -44.69627714 457.60197258 C-44.712928 452.51725381 -44.70474336 447.43283653 -44.69233227 442.34811687 C-44.68326674 436.85654883 -44.69725897 431.36503194 -44.70825195 425.87347412 C-44.72602568 415.1235742 -44.72220226 404.37378609 -44.71060139 393.62388182 C-44.70156285 384.88614708 -44.7003449 376.14844364 -44.70469666 367.41070557 C-44.70530959 366.16645935 -44.70592252 364.92221313 -44.70655403 363.64026248 C-44.70783294 361.11249239 -44.7091298 358.58472231 -44.71044439 356.05695224 C-44.72152187 333.03693854 -44.71003983 310.01697433 -44.689074 286.99697277 C-44.67009249 265.99603679 -44.67179104 244.99519783 -44.69091797 223.9942627 C-44.71235061 200.38295302 -44.72074823 176.77168465 -44.70846891 153.16036415 C-44.70719474 150.64196397 -44.70593725 148.12356377 -44.70469666 145.60516357 C-44.70407955 144.36610665 -44.70346245 143.12704973 -44.70282665 141.85044563 C-44.69937493 133.12458802 -44.70519827 124.39876487 -44.71461487 115.6729126 C-44.72584054 105.03703071 -44.72278274 94.40126689 -44.70149189 83.7653985 C-44.69098925 78.34022938 -44.68684642 72.91525702 -44.7000885 67.49008942 C-44.71203425 62.5208128 -44.70541367 57.55191478 -44.68417829 52.58267236 C-44.67972151 50.7880701 -44.68195766 48.99343566 -44.69168144 47.19885421 C-44.76164824 33.20960472 -43.19768098 22.01277193 -33.16943359 11.50793457 C-23.46398182 2.24280575 -13.12005494 -0.09902509 0 0 Z M-21.98193359 23.82043457 C-22.52462891 24.35281738 -23.06732422 24.8852002 -23.62646484 25.43371582 C-27.56592934 30.72955291 -28.61310483 35.77674258 -28.54975033 42.26262474 C-28.55441025 43.01595482 -28.55907017 43.76928491 -28.56387129 44.54544318 C-28.57580873 47.06618981 -28.56643086 49.58639621 -28.55711365 52.10714722 C-28.56128712 53.93406426 -28.5667647 55.76097872 -28.57343346 57.58788836 C-28.58790511 62.60564621 -28.58363794 67.62324005 -28.57626665 72.64100695 C-28.57154153 78.05352864 -28.58403903 83.46601452 -28.59428406 88.87852478 C-28.61149041 99.48122779 -28.61230824 110.08387159 -28.60707115 120.68658493 C-28.60303156 129.30381527 -28.60447052 137.9210281 -28.60981941 146.5382576 C-28.61056783 147.76419569 -28.61131626 148.99013379 -28.61208736 150.25322152 C-28.61361882 152.7436302 -28.61515717 155.23403889 -28.61670233 157.72444756 C-28.63043407 181.08536641 -28.62498499 204.44625178 -28.61351711 227.80716987 C-28.60337462 249.18224957 -28.61652465 270.55723641 -28.6404513 291.93230371 C-28.66482986 313.8762886 -28.6744532 335.82023316 -28.66779858 357.76423132 C-28.66430353 370.08568884 -28.66655726 382.40707978 -28.68404961 394.72852707 C-28.69875603 405.21780064 -28.69942741 415.70696076 -28.6819787 426.19623207 C-28.67345343 431.54822099 -28.67135648 436.90000709 -28.68663025 442.25198555 C-28.70044173 447.15223014 -28.69575967 452.05209748 -28.67639101 456.95232005 C-28.67261982 458.7241289 -28.67558512 460.49596771 -28.68600266 462.26774995 C-28.74046027 472.2395491 -28.5595215 480.47028453 -22.49365234 488.81262207 C-21.68347656 489.58992676 -21.68347656 489.58992676 -20.85693359 490.38293457 C-20.32455078 490.91660645 -19.79216797 491.45027832 -19.24365234 492.00012207 C-13.69223921 496.0356126 -8.55759873 496.94730559 -1.81080627 496.86869812 C-0.99628193 496.87126139 -0.18175759 496.87382467 0.65744931 496.87646562 C3.37217949 496.88138598 6.0863469 496.86493969 8.80102539 496.84851074 C10.75277188 496.84766409 12.70451932 496.84814035 14.65626526 496.84983826 C19.94502229 496.85069815 25.23357474 496.83307322 30.52228427 496.81211638 C36.05293662 496.79334868 41.58359379 496.79159906 47.11427307 496.78804016 C57.58304506 496.77871999 68.05172294 496.75410652 78.52045351 496.72399169 C90.44056927 496.69044687 102.36068954 496.67396145 114.28084075 496.65890539 C138.79746812 496.62755699 163.31401199 496.57479697 187.83056641 496.50793457 C187.49283203 495.86727051 187.15509766 495.22660645 186.80712891 494.56652832 C186.36111328 493.70156738 185.91509766 492.83660645 185.45556641 491.94543457 C185.01470703 491.09852051 184.57384766 490.25160645 184.11962891 489.37902832 C181.40524442 483.33335378 180.53573733 477.79227655 180.56314087 471.21659851 C180.55860976 470.40912983 180.55407864 469.60166114 180.54941022 468.76972371 C180.53680411 466.07847907 180.53838413 463.38743779 180.54003906 460.69616699 C180.53405146 458.76064292 180.52724537 456.82512123 180.51968384 454.88960266 C180.50204054 449.64156641 180.49732916 444.39359541 180.49605227 439.14553237 C180.49462919 435.86406195 180.49035663 432.58260805 180.48505783 429.30114174 C180.46656325 417.84556655 180.45838653 406.39003786 180.45996094 394.93444824 C180.46116226 384.26838153 180.44006024 373.60251719 180.40847361 362.93650168 C180.38229412 353.76854223 180.37159434 344.60064882 180.37287176 335.43265229 C180.37338088 329.96171945 180.36772471 324.49096653 180.34651566 319.02007103 C180.32710512 313.87274905 180.32702817 308.72577813 180.34154892 303.57844353 C180.34363459 301.69432816 180.33895059 299.81019065 180.326828 297.92611313 C180.25432996 285.87351874 180.42705246 275.35475253 189.12744141 266.03918457 C197.14303019 258.83250841 205.19361033 257.21150071 215.70117188 257.18908691 C216.80214769 257.17893366 217.90312351 257.1687804 219.03746223 257.15831947 C222.59088959 257.12775563 226.14423709 257.11054755 229.69775391 257.09387207 C231.89575893 257.07693235 234.09375738 257.05911514 236.29174805 257.04040527 C241.19949628 257.00087761 246.10724968 256.96815781 251.01507568 256.94024658 C262.80257345 256.87301859 274.58996401 256.7896266 286.37737298 256.70854306 C292.53894354 256.66623071 298.70051739 256.62440554 304.86209106 256.58255005 C306.9955044 256.56803941 309.12891771 256.55352664 311.26233101 256.539011 C312.78507614 256.52865219 314.30782127 256.51829338 315.83056641 256.50793457 C315.92400471 227.70092744 315.99454325 198.89394302 316.03781509 170.08681488 C316.04192108 167.42412811 316.04605976 164.76144144 316.05029297 162.09875488 C316.05134221 161.43693689 316.05239145 160.77511889 316.05347249 160.0932458 C316.06978718 150.04881644 316.09795918 140.0044657 316.13232422 129.96008301 C316.17219109 118.30204089 316.19799906 106.64406697 316.20692039 94.98595858 C316.21213532 88.81297648 316.22439319 82.64018947 316.25348663 76.4672699 C316.28065311 70.65607948 316.28900877 64.84516436 316.28299713 59.03391647 C316.2840968 56.9022357 316.29204314 54.77054565 316.30738831 52.63891983 C316.32733515 49.72492623 316.32248814 46.81196754 316.31158447 43.89794922 C316.32323584 43.05746143 316.3348872 42.21697364 316.34689164 41.35101652 C316.27445108 34.17224256 314.09458288 29.0549531 309.33056641 23.69543457 C308.09306641 22.61262207 308.09306641 22.61262207 306.83056641 21.50793457 C306.21181641 20.95105957 305.59306641 20.39418457 304.95556641 19.82043457 C299.94825456 16.72768314 294.55741838 16.25941743 288.79370117 16.28088379 C287.7973037 16.28044571 287.7973037 16.28044571 286.78077698 16.27999878 C284.61103708 16.28137894 282.44165167 16.29687708 280.27197266 16.31262207 C278.75740242 16.31635689 277.24282975 16.31920165 275.72825623 16.32119751 C271.76133435 16.32879706 267.79456126 16.34841351 263.82769775 16.37060547 C259.77203381 16.39114356 255.7163456 16.40021619 251.66064453 16.41027832 C243.71721723 16.43166325 235.77391038 16.46575422 227.83056641 16.50793457 C227.81654785 17.8755896 227.81654785 17.8755896 227.80224609 19.27087402 C227.75780793 22.70633651 227.69601049 26.14063024 227.62304688 29.57556152 C227.59510137 31.05233672 227.57375768 32.52925414 227.55957031 34.00622559 C227.42242197 47.48790809 225.45212417 58.42911465 215.83056641 68.50793457 C207.0384822 76.90113405 197.22251489 80.13174212 185.20947266 80.0255127 C183.71201004 80.03602661 183.71201004 80.03602661 182.18429565 80.04675293 C178.92026034 80.06420045 175.65710884 80.05275712 172.39306641 80.03918457 C170.10343257 80.04188328 167.81379986 80.04576885 165.52416992 80.05078125 C160.73979719 80.0566584 155.95572442 80.04817073 151.17138672 80.02941895 C145.06195697 80.00663092 138.9532303 80.01976354 132.84382629 80.0437088 C128.12010473 80.05821489 123.39654777 80.0535387 118.67282104 80.04319763 C116.42113154 80.04054365 114.16942673 80.04375294 111.91775513 80.05311584 C108.76199172 80.06336078 105.60734141 80.04766922 102.45166016 80.0255127 C101.53601288 80.03360962 100.6203656 80.04170654 99.67697144 80.05004883 C88.7816335 79.90948811 79.69430269 76.01490399 71.83056641 68.50793457 C61.57777306 57.76787976 60.21710473 46.03470886 60.08056641 31.82043457 C60.05234094 30.32886452 60.02240459 28.83732583 59.99072266 27.3458252 C59.91764744 23.73334194 59.86760045 20.12098845 59.83056641 16.50793457 C50.84193544 16.41500977 41.85347136 16.3440562 32.86446381 16.30068588 C28.6899054 16.27986395 24.51567707 16.25164606 20.34130859 16.20617676 C16.30828128 16.16252491 12.27557027 16.13875694 8.24232483 16.1284256 C6.70820643 16.12106872 5.17410418 16.10670265 3.64012146 16.08501434 C-6.44290273 15.94820173 -14.50283597 16.19575841 -21.98193359 23.82043457 Z " fill="#000000" transform="translate(44.16943359375,-0.5079345703125)"/>
<path d="M0 0 C23.76 0 47.52 0 72 0 C72.33 10.23 72.66 20.46 73 31 C76.84897476 38.88394901 76.84897476 38.88394901 83 44 C88.65989291 45.88663097 94.25285857 46.14211267 99.828125 43.82421875 C104.45385946 41.17642812 108.76835087 38.1725615 113.10546875 35.0859375 C113.81292236 34.58682861 114.52037598 34.08771973 115.24926758 33.57348633 C116.64179942 32.5836644 118.02373125 31.57871771 119.39331055 30.55737305 C122.26143833 28.49449818 124.45912266 27.12332003 127.9296875 26.33203125 C132.58734325 27.34533804 135.90803412 29.88631631 139.75 32.625 C141.3600759 33.72744102 142.97074801 34.82901183 144.58203125 35.9296875 C147.06821504 37.65125349 149.54377686 39.38508711 152.01171875 41.1328125 C157.90344913 45.06063275 162.94335682 46.4028902 170 45 C175.67475119 42.74720933 179.07419739 39.3834768 182 34 C185.59010987 23.22967039 183.63396703 11.34702202 184 0 C207.76 0 231.52 0 256 0 C256 42.24 256 84.48 256 128 C171.52 128 87.04 128 0 128 C0 85.76 0 43.52 0 0 Z " fill="#FE9833" transform="translate(240,320)"/>
<path d="M0 0 C84.48 0 168.96 0 256 0 C256 12.80045962 255.61159622 18.74885865 247.26953125 27.4921875 C240.99198466 31.66281226 234.0566466 32.44186055 226.69541931 32.38768005 C225.8031596 32.39306559 224.91089989 32.39845113 223.991602 32.40399987 C221.0254264 32.41821699 218.05970101 32.41119126 215.09350586 32.40405273 C212.95739892 32.40975946 210.82129503 32.41672489 208.68519592 32.42485046 C202.9002081 32.44276077 197.11537214 32.44161777 191.33036494 32.43590808 C186.49669289 32.432814 181.66304991 32.43891094 176.829382 32.44494683 C165.42651318 32.45898267 154.02371929 32.45743779 142.62084961 32.44604492 C130.86293236 32.43455684 119.10524302 32.44865326 107.34735578 32.4754414 C97.24350725 32.49759793 87.13973027 32.50423609 77.03585917 32.49836498 C71.00500532 32.49499507 64.97429766 32.49741336 58.94346428 32.51461601 C53.27410432 32.53008281 47.6050823 32.52613224 41.9357357 32.50731087 C39.85727757 32.50362469 37.77879441 32.50673425 35.70035934 32.51719666 C32.85904965 32.53040568 30.01885899 32.51885973 27.17759705 32.50120544 C26.35881213 32.51081045 25.54002721 32.52041546 24.69643062 32.53031152 C17.84946755 32.44301389 12.70365752 30.36033593 7.5390625 25.8515625 C6.90742188 25.11679687 6.27578125 24.38203125 5.625 23.625 C4.97789062 22.89539063 4.33078125 22.16578125 3.6640625 21.4140625 C-1.20240065 14.35426385 0 8.80349345 0 0 Z " fill="#FEBA32" transform="translate(240,464)"/>
<path d="M0 0 C44.88 0 89.76 0 136 0 C136 33.4 136 33.4 129.5 40.875 C128.675 41.57625 127.85 42.2775 127 43 C126.38125 43.556875 125.7625 44.11375 125.125 44.6875 C119.27676677 48.29964405 112.99620374 48.2973976 106.33618164 48.29052734 C105.39215988 48.29724457 104.44813812 48.30396179 103.47550964 48.31088257 C100.37033759 48.32980328 97.26538228 48.33378347 94.16015625 48.3359375 C91.99214083 48.34236844 89.82412628 48.34909702 87.65611267 48.35610962 C83.1178079 48.36806676 78.57957917 48.37179194 74.04125977 48.37060547 C68.23637362 48.37040212 62.43197615 48.39772811 56.62720585 48.43214989 C52.15154291 48.45442272 47.67599764 48.45844292 43.20028496 48.45738602 C41.06053416 48.45974047 38.92078004 48.46855515 36.78108406 48.48405075 C33.78478145 48.50372248 30.78953374 48.4978682 27.79321289 48.48583984 C26.47829361 48.50269836 26.47829361 48.50269836 25.1368103 48.51989746 C18.0683392 48.44806279 12.88148684 46.51558375 7.5390625 41.8515625 C6.59160156 40.74941406 6.59160156 40.74941406 5.625 39.625 C4.97789063 38.89539062 4.33078125 38.16578125 3.6640625 37.4140625 C-3.81388767 26.56576859 0 12.31001736 0 0 Z " fill="#F35457" transform="translate(120,16)"/>
<path d="M0 0 C26.4 0 52.8 0 80 0 C80 25.41 80 50.82 80 77 C75 78 75 78 72.32446289 76.67651367 C71.3833667 76.01369385 70.44227051 75.35087402 69.47265625 74.66796875 C68.43302734 73.95189453 67.39339844 73.23582031 66.32226562 72.49804688 C65.24654297 71.73556641 64.17082031 70.97308594 63.0625 70.1875 C60.93277374 68.69553903 58.79878899 67.20963455 56.66015625 65.73046875 C55.71793213 65.06426514 54.77570801 64.39806152 53.80493164 63.71166992 C49.40677815 61.02775887 45.20634179 59.71251058 40.0625 59.6875 C39.26972656 59.67074219 38.47695313 59.65398437 37.66015625 59.63671875 C28.40634741 60.90045476 20.71887809 67.73554556 13.2734375 72.90234375 C12.2834375 73.56878906 11.2934375 74.23523438 10.2734375 74.921875 C8.93418213 75.84371582 8.93418213 75.84371582 7.56787109 76.78417969 C5 78 5 78 0 77 C0 51.59 0 26.18 0 0 Z " fill="#F0F1F5" transform="translate(328,272)"/>
<path d="M0 0 C1.22111481 0.00007553 2.44222961 0.00015106 3.7003479 0.00022888 C5.03769979 0.00533587 6.37505127 0.01055187 7.71240234 0.01586914 C9.07717843 0.01773399 10.44195518 0.01915758 11.80673218 0.02015686 C15.40049077 0.02397676 18.99420902 0.03380256 22.58795166 0.04486084 C26.25442957 0.05508628 29.92091418 0.05971166 33.58740234 0.06469727 C40.78275049 0.07489475 47.9779878 0.09446766 55.17333984 0.11352539 C55.17333984 10.67352539 55.17333984 21.23352539 55.17333984 32.11352539 C31.41333984 32.11352539 7.65333984 32.11352539 -16.82666016 32.11352539 C-16.82666016 11.11352539 -16.82666016 11.11352539 -12.82666016 5.11352539 C-8.29540518 1.12170553 -5.99199387 -0.01232921 0 0 Z " fill="#FEBA32" transform="translate(256.82666015625,271.886474609375)"/>
<path d="M0 0 C7.71265748 -0.06298904 15.42437819 -0.12308424 23.1370697 -0.15525055 C26.72902482 -0.17106295 30.32076601 -0.19217781 33.91259766 -0.22631836 C37.37502525 -0.25902129 40.83724596 -0.27687586 44.29981613 -0.28463173 C46.2573708 -0.29283593 48.21484276 -0.31623793 50.17227173 -0.33988953 C51.97345963 -0.34022942 51.97345963 -0.34022942 53.81103516 -0.34057617 C54.86360504 -0.34723801 55.91617493 -0.35389984 57.00064087 -0.36076355 C61.18369545 0.14237514 64.55387695 1.65005615 67.64453125 4.53515625 C75.23185807 14.45704517 72 13.45816079 72 32 C48.24 32 24.48 32 0 32 C0 21.44 0 10.88 0 0 Z " fill="#FEBA32" transform="translate(424,272)"/>
<path d="M0 0 C1.21350128 -0.00394272 2.42700256 -0.00788544 3.67727661 -0.01194763 C6.99797934 -0.0175047 10.31712135 -0.00077929 13.63762021 0.02653241 C17.11508075 0.05039515 20.59252527 0.04741771 24.0700531 0.0478363 C29.90834002 0.05246158 35.74630042 0.07608521 41.58447266 0.11230469 C48.33226904 0.15405621 55.07977157 0.17162083 61.82768971 0.17492443 C69.01594886 0.1785253 76.20410246 0.19740013 83.39231753 0.22204471 C85.46209745 0.22826983 87.53186932 0.23190832 89.60165596 0.23507881 C93.45849557 0.24208108 97.31511775 0.26647664 101.171875 0.29296875 C102.89178398 0.29396576 102.89178398 0.29396576 104.6464386 0.29498291 C105.69648071 0.30495804 106.74652283 0.31493317 107.8283844 0.32521057 C109.19580198 0.33218633 109.19580198 0.33218633 110.59084415 0.33930302 C113.2272845 0.62141281 114.80419031 1.1581903 117.02124023 2.59936523 C119.02124023 5.59936523 119.02124023 5.59936523 118.83374023 9.09936523 C118.04964864 12.47699058 117.75299044 13.63250509 115.02124023 15.59936523 C112.53054626 16.84471222 110.84972296 16.73351354 108.06216431 16.74653625 C107.01342636 16.75369156 105.96468842 16.76084686 104.88417053 16.76821899 C103.15111916 16.77225235 103.15111916 16.77225235 101.38305664 16.77636719 C100.16999344 16.78293839 98.95693024 16.78950958 97.70710754 16.79627991 C94.37440626 16.81263453 91.04176849 16.8242415 87.70904207 16.83248544 C85.62752184 16.83763481 83.54600607 16.84371053 81.46448898 16.84999657 C74.95367601 16.86904768 68.44287439 16.88327974 61.9320389 16.89160854 C54.41283891 16.9013858 46.89393293 16.92771801 39.37483656 16.96810943 C33.56501279 16.99824963 27.7552734 17.01307534 21.94537294 17.01638955 C18.47428943 17.0187422 15.00352004 17.02772993 11.53252029 17.05285072 C7.66098823 17.08041787 3.78984453 17.07630671 -0.08178711 17.06933594 C-1.23310623 17.082146 -2.38442535 17.09495605 -3.57063293 17.1081543 C-4.62501053 17.10121048 -5.67938812 17.09426666 -6.76571655 17.08711243 C-7.68122473 17.08950078 -8.5967329 17.09188913 -9.53998375 17.09434986 C-12.77460173 16.43783767 -13.9458174 15.15061188 -15.97875977 12.59936523 C-17.04125977 9.16186523 -17.04125977 9.16186523 -16.97875977 5.59936523 C-12.70642182 -0.93655304 -7.06666415 -0.09158712 0 0 Z " fill="#57606F" transform="translate(184.978759765625,143.400634765625)"/>
<path d="M0 0 C2.5 1.625 2.5 1.625 4 4 C4.07471046 8.10907532 3.69946762 10.20976177 0.953125 13.3125 C-2.65943887 16.60012426 -6.43967378 19.58941711 -10.3125 22.5625 C-11.10285645 23.17311279 -11.89321289 23.78372559 -12.70751953 24.4128418 C-19.19264049 29.41041304 -25.72418519 34.34484426 -32.296875 39.2265625 C-34.70979631 41.02184612 -37.09262391 42.84731236 -39.453125 44.7109375 C-39.99146973 45.13076904 -40.52981445 45.55060059 -41.08447266 45.9831543 C-42.51274485 47.09974173 -43.93253353 48.22715775 -45.3515625 49.35546875 C-48.46769748 51.29041392 -50.31596476 52.06155843 -54 52 C-60.34864769 48.20283859 -63.87698139 41.7221742 -67.8125 35.625 C-68.49248047 34.60921875 -69.17246094 33.5934375 -69.87304688 32.546875 C-76.15588492 22.9002443 -76.15588492 22.9002443 -76 17 C-73.59686932 13.57735933 -72.11289267 12.23185264 -68 11.375 C-61.906519 12.64447521 -58.52414934 18.78523483 -55.1875 23.6875 C-54.57745117 24.55858398 -54.57745117 24.55858398 -53.95507812 25.44726562 C-51 29.74330357 -51 29.74330357 -51 32 C-44.51417216 27.36326347 -38.13883368 22.60083756 -31.8125 17.75 C-31.09408936 17.20303467 -30.37567871 16.65606934 -29.63549805 16.0925293 C-25.91869484 13.25928592 -22.23555737 10.39496442 -18.59765625 7.4609375 C-17.88826904 6.90051758 -17.17888184 6.34009766 -16.44799805 5.76269531 C-15.09943143 4.69731022 -13.76280402 3.61657521 -12.44067383 2.51855469 C-8.06599788 -0.8973434 -5.59911949 -1.61539389 0 0 Z " fill="#596270" transform="translate(148,353)"/>
<path d="M0 0 C2.5 1.625 2.5 1.625 4 4 C4.07471046 8.10907532 3.69946762 10.20976177 0.953125 13.3125 C-2.65943887 16.60012426 -6.43967378 19.58941711 -10.3125 22.5625 C-11.10285645 23.17311279 -11.89321289 23.78372559 -12.70751953 24.4128418 C-19.19264049 29.41041304 -25.72418519 34.34484426 -32.296875 39.2265625 C-34.70979631 41.02184612 -37.09262391 42.84731236 -39.453125 44.7109375 C-39.99146973 45.13076904 -40.52981445 45.55060059 -41.08447266 45.9831543 C-42.51274485 47.09974173 -43.93253353 48.22715775 -45.3515625 49.35546875 C-48.46769748 51.29041392 -50.31596476 52.06155843 -54 52 C-60.34864769 48.20283859 -63.87698139 41.7221742 -67.8125 35.625 C-68.49248047 34.60921875 -69.17246094 33.5934375 -69.87304688 32.546875 C-76.15588492 22.9002443 -76.15588492 22.9002443 -76 17 C-73.59686932 13.57735933 -72.11289267 12.23185264 -68 11.375 C-61.906519 12.64447521 -58.52414934 18.78523483 -55.1875 23.6875 C-54.57745117 24.55858398 -54.57745117 24.55858398 -53.95507812 25.44726562 C-51 29.74330357 -51 29.74330357 -51 32 C-44.51417216 27.36326347 -38.13883368 22.60083756 -31.8125 17.75 C-31.09408936 17.20303467 -30.37567871 16.65606934 -29.63549805 16.0925293 C-25.91869484 13.25928592 -22.23555737 10.39496442 -18.59765625 7.4609375 C-17.88826904 6.90051758 -17.17888184 6.34009766 -16.44799805 5.76269531 C-15.09943143 4.69731022 -13.76280402 3.61657521 -12.44067383 2.51855469 C-8.06599788 -0.8973434 -5.59911949 -1.61539389 0 0 Z " fill="#596270" transform="translate(148,241)"/>
<path d="M0 0 C2.5 1.625 2.5 1.625 4 4 C4.07471046 8.10907532 3.69946762 10.20976177 0.953125 13.3125 C-2.65943887 16.60012426 -6.43967378 19.58941711 -10.3125 22.5625 C-11.10285645 23.17311279 -11.89321289 23.78372559 -12.70751953 24.4128418 C-19.19264049 29.41041304 -25.72418519 34.34484426 -32.296875 39.2265625 C-34.70979631 41.02184612 -37.09262391 42.84731236 -39.453125 44.7109375 C-39.99146973 45.13076904 -40.52981445 45.55060059 -41.08447266 45.9831543 C-42.51274485 47.09974173 -43.93253353 48.22715775 -45.3515625 49.35546875 C-48.46769748 51.29041392 -50.31596476 52.06155843 -54 52 C-60.34864769 48.20283859 -63.87698139 41.7221742 -67.8125 35.625 C-68.49248047 34.60921875 -69.17246094 33.5934375 -69.87304688 32.546875 C-76.15588492 22.9002443 -76.15588492 22.9002443 -76 17 C-73.59686932 13.57735933 -72.11289267 12.23185264 -68 11.375 C-61.906519 12.64447521 -58.52414934 18.78523483 -55.1875 23.6875 C-54.57745117 24.55858398 -54.57745117 24.55858398 -53.95507812 25.44726562 C-51 29.74330357 -51 29.74330357 -51 32 C-44.51417216 27.36326347 -38.13883368 22.60083756 -31.8125 17.75 C-31.09408936 17.20303467 -30.37567871 16.65606934 -29.63549805 16.0925293 C-25.91869484 13.25928592 -22.23555737 10.39496442 -18.59765625 7.4609375 C-17.88826904 6.90051758 -17.17888184 6.34009766 -16.44799805 5.76269531 C-15.09943143 4.69731022 -13.76280402 3.61657521 -12.44067383 2.51855469 C-8.06599788 -0.8973434 -5.59911949 -1.61539389 0 0 Z " fill="#596270" transform="translate(148,129)"/>
<path d="M0 0 C1.47339088 0.00349709 1.47339088 0.00349709 2.97654724 0.00706482 C5.04849967 0.0167894 7.12042601 0.03854671 9.19213867 0.0715332 C12.3635188 0.12097566 15.5333472 0.13301729 18.70507812 0.13867188 C20.72006859 0.15275726 22.73504559 0.16896144 24.75 0.1875 C26.17198448 0.19554405 26.17198448 0.19554405 27.62269592 0.20375061 C28.50718918 0.21973801 29.39168243 0.2357254 30.30297852 0.25219727 C31.46616356 0.26815697 31.46616356 0.26815697 32.65284729 0.28443909 C35.12823587 0.59924388 36.7034748 1.2243649 38.80859375 2.55859375 C40.80859375 5.55859375 40.80859375 5.55859375 40.62109375 9.05859375 C39.83700215 12.43621909 39.54034396 13.5917336 36.80859375 15.55859375 C34.48801103 16.71888511 33.09880601 16.70309688 30.51416016 16.7355957 C29.62628815 16.74843094 28.73841614 16.76126617 27.82363892 16.77449036 C26.86218964 16.78187729 25.90074036 16.78926422 24.91015625 16.796875 C23.92365082 16.80494675 22.93714539 16.81301849 21.92074585 16.82133484 C19.83097087 16.83517913 17.74117324 16.84589973 15.65136719 16.85375977 C12.45334159 16.87098737 9.2563457 16.91487235 6.05859375 16.95898438 C4.02995553 16.96910984 2.00130851 16.9776264 -0.02734375 16.984375 C-1.46344498 17.01063713 -1.46344498 17.01063713 -2.92855835 17.03742981 C-9.54316487 17.01578813 -9.54316487 17.01578813 -12.76025391 14.74682617 C-14.83443784 11.57539823 -15.25777782 9.34177301 -15.19140625 5.55859375 C-11.0263144 -0.43767879 -6.70313086 -0.13840642 0 0 Z " fill="#F1F1F4" transform="translate(279.19140625,407.44140625)"/>
<path d="M0 0 C1.27423828 0.00708984 2.54847656 0.01417969 3.86132812 0.02148438 C4.51963623 0.03800049 5.17794434 0.0545166 5.85620117 0.0715332 C7.86895741 0.1210412 9.87926716 0.13302272 11.89257812 0.13867188 C22.95009683 0.27864047 22.95009683 0.27864047 26.30859375 2.55859375 C28.30859375 5.55859375 28.30859375 5.55859375 28.12109375 9.05859375 C27.33700215 12.43621909 27.04034396 13.5917336 24.30859375 15.55859375 C20.09393801 17.66592162 14.62371177 16.82646712 9.98730469 16.85375977 C7.94788383 16.87097314 5.91008492 16.9148621 3.87109375 16.95898438 C1.94136719 16.97155273 1.94136719 16.97155273 -0.02734375 16.984375 C-1.79924072 17.00624878 -1.79924072 17.00624878 -3.60693359 17.02856445 C-7.32806955 16.46158751 -8.45155433 15.52926447 -10.69140625 12.55859375 C-11.75390625 9.12109375 -11.75390625 9.12109375 -11.69140625 5.55859375 C-8.1159981 0.95111765 -5.76424888 -0.06666871 0 0 Z " fill="#586170" transform="translate(179.69140625,367.44140625)"/>
<path d="M0 0 C1.27423828 0.00708984 2.54847656 0.01417969 3.86132812 0.02148438 C4.51963623 0.03800049 5.17794434 0.0545166 5.85620117 0.0715332 C7.86895741 0.1210412 9.87926716 0.13302272 11.89257812 0.13867188 C22.95009683 0.27864047 22.95009683 0.27864047 26.30859375 2.55859375 C28.30859375 5.55859375 28.30859375 5.55859375 28.12109375 9.05859375 C27.33700215 12.43621909 27.04034396 13.5917336 24.30859375 15.55859375 C20.09393801 17.66592162 14.62371177 16.82646712 9.98730469 16.85375977 C7.94788383 16.87097314 5.91008492 16.9148621 3.87109375 16.95898438 C1.94136719 16.97155273 1.94136719 16.97155273 -0.02734375 16.984375 C-1.79924072 17.00624878 -1.79924072 17.00624878 -3.60693359 17.02856445 C-7.32806955 16.46158751 -8.45155433 15.52926447 -10.69140625 12.55859375 C-11.75390625 9.12109375 -11.75390625 9.12109375 -11.69140625 5.55859375 C-8.1159981 0.95111765 -5.76424888 -0.06666871 0 0 Z " fill="#586170" transform="translate(179.69140625,255.44140625)"/>
<path d="M0 0 C0.66 0.33 1.32 0.66 2 1 C-1.96 4.96 -5.92 8.92 -10 13 C-10 9.28115772 -9.1259934 8.63852271 -6.6875 5.9375 C-5.76517578 4.89916016 -5.76517578 4.89916016 -4.82421875 3.83984375 C-3 2 -3 2 0 0 Z " fill="#39393B" transform="translate(17,6)"/>
</svg>
