<svg width="62" height="68" viewBox="0 0 62 68" fill="none" xmlns="http://www.w3.org/2000/svg">
<path d="M30.0996 1.44295L1.55421 15.6104C1.19637 15.7879 0.968879 16.1606 0.968879 16.5691V51.4305C0.968879 51.8391 1.19637 52.2116 1.55421 52.3893L30.0996 66.5571C30.6685 66.8395 31.3315 66.8395 31.9004 66.5571L60.4458 52.3894C60.8036 52.2119 61.0311 51.8392 61.0311 51.4307V16.5693C61.0311 16.1607 60.8036 15.7882 60.4458 15.6105L31.9004 1.44295C31.3315 1.16059 30.6685 1.16059 30.0996 1.44295Z" fill="#FFE17D"/>
<path d="M1.14108 15.9864C1.03218 16.1568 0.968879 16.3573 0.968879 16.5691V51.4305C0.968879 51.8391 1.19637 52.2116 1.55421 52.3893L30.0996 66.5571C30.3841 66.6983 30.692 66.769 31 66.769V30.806L1.14108 15.9864Z" fill="#FFC350"/>
<path d="M60.8589 15.9864C60.9678 16.1568 61.0311 16.3573 61.0311 16.5691V51.4305C61.0311 51.8392 60.8036 52.2116 60.4458 52.3893L31.9004 66.5571C31.616 66.6983 31.308 66.769 31 66.769V30.806L60.8589 15.9864Z" fill="#FFD164"/>
<path d="M50.7402 20.9913L20.7764 6.10933L12.8778 10.0454L42.9088 24.9506L50.7402 20.9913Z" fill="#FF8087"/>
<path d="M42.9088 24.9506V36.4973C42.9088 36.8898 43.3079 37.1473 43.6518 36.9766L50.1549 33.749C50.5128 33.5714 50.7402 33.1988 50.7402 32.7902V20.9913L42.9088 24.9506Z" fill="#E6646E"/>
<path d="M61.4524 15.0038L31.4213 0.099012C31.155 -0.033004 30.845 -0.033004 30.5789 0.099012L0.547611 15.0038C0.212766 15.17 0 15.5186 0 15.9008V52.0988C0 52.4811 0.212766 52.8297 0.547611 52.9959L30.5787 67.9009C30.7118 67.9669 30.856 68 31 68C31.144 68 31.2881 67.9669 31.4213 67.9009L61.4524 52.9959C61.7872 52.8297 62 52.4811 62 52.0988V15.901C62 15.5186 61.7871 15.1701 61.4524 15.0038ZM31 2.1021L58.8026 15.901L50.7432 19.901C50.6921 19.861 50.6383 19.8241 50.5791 19.7948L22.9654 6.0898L31 2.1021ZM20.7773 7.21606L48.5394 20.9949L42.8534 23.817L15.1028 10.0436L20.7773 7.21606ZM43.8778 25.5207L49.189 22.8847V33.3166L43.8778 35.9526V25.5207ZM31.9689 65.4171V31.4312L38.67 28.1053C39.1519 27.8661 39.3539 27.2707 39.1213 26.7751C38.8886 26.2799 38.3095 26.0719 37.8275 26.3112L31 29.6999L28.3135 28.3665C27.8315 28.127 27.2524 28.335 27.0197 28.8304C26.7871 29.3258 26.9891 29.9213 27.471 30.1605L30.0311 31.4312V65.4169L1.93776 51.4737V17.4878L23.3306 28.1055C23.4664 28.173 23.6099 28.2049 23.7511 28.2049C24.1113 28.2049 24.4572 27.9974 24.6243 27.6416C24.8569 27.1462 24.6549 26.5507 24.173 26.3115L3.19743 15.9008L12.8223 11.1238L41.9266 25.5691C41.9309 25.5752 41.9357 25.5806 41.9401 25.5866V37.5396C41.9401 37.8824 42.1115 38.201 42.3939 38.3834C42.5507 38.4846 42.7296 38.5357 42.9091 38.5357C43.0527 38.5357 43.1968 38.5029 43.3302 38.4366L50.5791 34.8389C50.914 34.6727 51.1267 34.3242 51.1267 33.9419V21.923L60.0622 17.4881V51.474L31.9689 65.4171Z" fill="black"/>
<path d="M9.93347 47.6107L5.52636 45.4234C5.04424 45.1839 4.46524 45.3919 4.23258 45.8873C3.99992 46.3827 4.20196 46.9782 4.68382 47.2174L9.09093 49.4047C9.2267 49.4722 9.37023 49.5041 9.51142 49.5041C9.87159 49.5041 10.2175 49.2966 10.3846 48.9408C10.6174 48.4453 10.4153 47.8499 9.93347 47.6107Z" fill="black"/>
<path d="M13.9895 44.8963L5.53243 40.6988C5.05045 40.4597 4.47131 40.6674 4.23865 41.1629C4.00612 41.6583 4.20817 42.2538 4.69002 42.493L13.147 46.6904C13.2828 46.7578 13.4263 46.7898 13.5675 46.7898C13.9277 46.7898 14.2737 46.5823 14.4407 46.2265C14.6734 45.731 14.4713 45.1353 13.9895 44.8963Z" fill="black"/>
</svg>
