<svg width="58" height="58" viewBox="0 0 58 58" fill="none" xmlns="http://www.w3.org/2000/svg">
<path d="M14.0323 23.3871C19.1988 23.3871 23.3871 19.1988 23.3871 14.0323C23.3871 8.86572 19.1988 4.67742 14.0323 4.67742C8.86572 4.67742 4.67742 8.86572 4.67742 14.0323C4.67742 19.1988 8.86572 23.3871 14.0323 23.3871Z" fill="#57A4FF"/>
<path d="M14.0323 23.3871C19.1988 23.3871 23.3871 19.1988 23.3871 14.0323C23.3871 8.86572 19.1988 4.67742 14.0323 4.67742C8.86572 4.67742 4.67742 8.86572 4.67742 14.0323C4.67742 19.1988 8.86572 23.3871 14.0323 23.3871Z" fill="#57A4FF"/>
<path d="M54.7258 0.935484H33.2097C31.918 0.935484 30.871 1.98256 30.871 3.27419V24.7903C30.871 26.082 31.918 27.129 33.2097 27.129H54.7258C56.0174 27.129 57.0645 26.082 57.0645 24.7903V3.27419C57.0645 1.98256 56.0174 0.935484 54.7258 0.935484Z" fill="#57A4FF"/>
<path d="M24.7903 30.871H3.27419C1.98256 30.871 0.935484 31.918 0.935484 33.2097V54.7258C0.935484 56.0174 1.98256 57.0645 3.27419 57.0645H24.7903C26.082 57.0645 27.129 56.0174 27.129 54.7258V33.2097C27.129 31.918 26.082 30.871 24.7903 30.871Z" fill="#57A4FF"/>
<path d="M50.5161 52.3871H37.4194L38.3548 41.1613H49.5806L50.5161 52.3871Z" fill="#57A4FF"/>
<path d="M50.5161 52.3871H37.4194L38.3548 41.1613H49.5806L50.5161 52.3871Z" fill="#57A4FF"/>
<path d="M14.0323 3.74194C11.997 3.74194 10.0075 4.34545 8.31526 5.47617C6.62303 6.60688 5.30409 8.21401 4.52524 10.0943C3.74639 11.9746 3.54261 14.0437 3.93966 16.0398C4.33672 18.0359 5.31677 19.8695 6.7559 21.3086C8.19503 22.7477 10.0286 23.7278 12.0247 24.1249C14.0208 24.5219 16.0899 24.3181 17.9702 23.5393C19.8505 22.7604 21.4576 21.4415 22.5884 19.7493C23.7191 18.057 24.3226 16.0675 24.3226 14.0323C24.3195 11.304 23.2343 8.68846 21.3052 6.75932C19.3761 4.83018 16.7605 3.74503 14.0323 3.74194ZM14.0323 22.4516C12.3671 22.4516 10.7393 21.9578 9.35471 21.0327C7.97016 20.1076 6.89103 18.7926 6.25379 17.2542C5.61655 15.7158 5.44982 14.0229 5.77468 12.3897C6.09954 10.7565 6.90141 9.25634 8.07888 8.07888C9.25634 6.90141 10.7565 6.09954 12.3897 5.77468C14.0229 5.44982 15.7158 5.61655 17.2542 6.25379C18.7926 6.89103 20.1076 7.97016 21.0327 9.35471C21.9578 10.7393 22.4516 12.3671 22.4516 14.0323C22.4491 16.2644 21.5613 18.4045 19.9829 19.9829C18.4045 21.5613 16.2644 22.4491 14.0323 22.4516Z" fill="#004FAC"/>
<path d="M15.9032 12.1613C16.1513 12.1613 16.3893 12.0627 16.5647 11.8873C16.7402 11.7119 16.8387 11.4739 16.8387 11.2258C16.8387 10.9777 16.7402 10.7398 16.5647 10.5643C16.3893 10.3889 16.1513 10.2903 15.9032 10.2903H14.9677C14.9677 10.0422 14.8692 9.80427 14.6937 9.62884C14.5183 9.4534 14.2804 9.35484 14.0323 9.35484C13.7842 9.35484 13.5462 9.4534 13.3708 9.62884C13.1953 9.80427 13.0968 10.0422 13.0968 10.2903H12.1613C11.9132 10.2903 11.6752 10.3889 11.4998 10.5643C11.3244 10.7398 11.2258 10.9777 11.2258 11.2258V14.0323C11.2258 14.2804 11.3244 14.5183 11.4998 14.6937C11.6752 14.8692 11.9132 14.9677 12.1613 14.9677H14.9677V15.9032H12.1613C11.9132 15.9032 11.6752 16.0018 11.4998 16.1772C11.3244 16.3527 11.2258 16.5906 11.2258 16.8387C11.2258 17.0868 11.3244 17.3248 11.4998 17.5002C11.6752 17.6756 11.9132 17.7742 12.1613 17.7742H13.0968C13.0968 18.0223 13.1953 18.2602 13.3708 18.4357C13.5462 18.6111 13.7842 18.7097 14.0323 18.7097C14.2804 18.7097 14.5183 18.6111 14.6937 18.4357C14.8692 18.2602 14.9677 18.0223 14.9677 17.7742H15.9032C16.1513 17.7742 16.3893 17.6756 16.5647 17.5002C16.7402 17.3248 16.8387 17.0868 16.8387 16.8387V14.0323C16.8387 13.7842 16.7402 13.5462 16.5647 13.3708C16.3893 13.1953 16.1513 13.0968 15.9032 13.0968H13.0968V12.1613H15.9032Z" fill="#004FAC"/>
<path d="M24.7903 0H3.27419C2.40613 0.000990379 1.5739 0.346267 0.960083 0.960083C0.346267 1.5739 0.000990379 2.40613 0 3.27419V24.7903C0.000990379 25.6584 0.346267 26.4906 0.960083 27.1044C1.5739 27.7182 2.40613 28.0635 3.27419 28.0645H24.7903C25.6584 28.0635 26.4906 27.7182 27.1044 27.1044C27.7182 26.4906 28.0635 25.6584 28.0645 24.7903V3.27419C28.0635 2.40613 27.7182 1.5739 27.1044 0.960083C26.4906 0.346267 25.6584 0.000990379 24.7903 0ZM26.1935 24.7903C26.1931 25.1624 26.0452 25.519 25.7821 25.7821C25.519 26.0452 25.1624 26.1931 24.7903 26.1935H3.27419C2.90216 26.1931 2.54548 26.0452 2.28241 25.7821C2.01934 25.519 1.87137 25.1624 1.87097 24.7903V3.27419C1.87137 2.90216 2.01934 2.54548 2.28241 2.28241C2.54548 2.01934 2.90216 1.87137 3.27419 1.87097H24.7903C25.1624 1.87137 25.519 2.01934 25.7821 2.28241C26.0452 2.54548 26.1931 2.90216 26.1935 3.27419V24.7903Z" fill="#004FAC"/>
<path d="M54.7258 0H33.2097C32.3416 0.000990379 31.5094 0.346267 30.8956 0.960083C30.2818 1.5739 29.9365 2.40613 29.9355 3.27419V24.7903C29.9365 25.6584 30.2818 26.4906 30.8956 27.1044C31.5094 27.7182 32.3416 28.0635 33.2097 28.0645H54.7258C55.5939 28.0635 56.4261 27.7182 57.0399 27.1044C57.6537 26.4906 57.999 25.6584 58 24.7903V3.27419C57.999 2.40613 57.6537 1.5739 57.0399 0.960083C56.4261 0.346267 55.5939 0.000990379 54.7258 0ZM56.129 24.7903C56.1286 25.1624 55.9807 25.519 55.7176 25.7821C55.4545 26.0452 55.0978 26.1931 54.7258 26.1935H33.2097C32.8376 26.1931 32.481 26.0452 32.2179 25.7821C31.9548 25.519 31.8069 25.1624 31.8065 24.7903V3.27419C31.8069 2.90216 31.9548 2.54548 32.2179 2.28241C32.481 2.01934 32.8376 1.87137 33.2097 1.87097H54.7258C55.0978 1.87137 55.4545 2.01934 55.7176 2.28241C55.9807 2.54548 56.1286 2.90216 56.129 3.27419V24.7903Z" fill="#004FAC"/>
<path d="M24.7903 29.9355H3.27419C2.40613 29.9365 1.5739 30.2818 0.960083 30.8956C0.346267 31.5094 0.000990379 32.3416 0 33.2097V54.7258C0.000990379 55.5939 0.346267 56.4261 0.960083 57.0399C1.5739 57.6537 2.40613 57.999 3.27419 58H24.7903C25.6584 57.999 26.4906 57.6537 27.1044 57.0399C27.7182 56.4261 28.0635 55.5939 28.0645 54.7258V33.2097C28.0635 32.3416 27.7182 31.5094 27.1044 30.8956C26.4906 30.2818 25.6584 29.9365 24.7903 29.9355ZM26.1935 54.7258C26.1931 55.0978 26.0452 55.4545 25.7821 55.7176C25.519 55.9807 25.1624 56.1286 24.7903 56.129H3.27419C2.90216 56.1286 2.54548 55.9807 2.28241 55.7176C2.01934 55.4545 1.87137 55.0978 1.87097 54.7258V33.2097C1.87137 32.8376 2.01934 32.481 2.28241 32.2179C2.54548 31.9548 2.90216 31.8069 3.27419 31.8065H24.7903C25.1624 31.8069 25.519 31.9548 25.7821 32.2179C26.0452 32.481 26.1931 32.8376 26.1935 33.2097V54.7258Z" fill="#004FAC"/>
<path d="M54.7258 29.9355H33.2097C32.3416 29.9364 31.5094 30.2817 30.8955 30.8955C30.2817 31.5094 29.9364 32.3416 29.9355 33.2097V54.7258C29.9364 55.5939 30.2817 56.4261 30.8955 57.04C31.5094 57.6538 32.3416 57.999 33.2097 58H54.7258C55.5939 57.999 56.4261 57.6538 57.04 57.04C57.6538 56.4261 57.999 55.5939 58 54.7258V33.2097C57.999 32.3416 57.6538 31.5094 57.04 30.8955C56.4261 30.2817 55.5939 29.9364 54.7258 29.9355ZM56.129 54.7258C56.1287 55.0979 55.9808 55.4546 55.7177 55.7177C55.4546 55.9808 55.0979 56.1287 54.7258 56.129H33.2097C32.8376 56.1287 32.4809 55.9808 32.2178 55.7177C31.9547 55.4546 31.8068 55.0979 31.8065 54.7258V33.2097C31.8068 32.8376 31.9547 32.4809 32.2178 32.2178C32.4809 31.9547 32.8376 31.8068 33.2097 31.8065H54.7258C55.0979 31.8068 55.4546 31.9547 55.7177 32.2178C55.9808 32.4809 56.1287 32.8376 56.129 33.2097V54.7258Z" fill="#004FAC"/>
<path d="M50.5129 41.0835C50.4933 40.8497 50.3867 40.6317 50.214 40.4729C50.0414 40.314 49.8153 40.2258 49.5806 40.2258H47.7097V38.8226C47.7087 37.9545 47.3634 37.1223 46.7496 36.5085C46.1358 35.8947 45.3036 35.5494 44.4355 35.5484H43.5C42.6319 35.5494 41.7997 35.8947 41.1859 36.5085C40.5721 37.1223 40.2268 37.9545 40.2258 38.8226V40.2258H38.3548C38.1202 40.2258 37.8941 40.314 37.7215 40.4729C37.5488 40.6317 37.4421 40.8497 37.4226 41.0835L36.4871 52.3093C36.4764 52.4383 36.4925 52.5681 36.5345 52.6905C36.5764 52.8129 36.6433 52.9253 36.7309 53.0205C36.8186 53.1157 36.925 53.1917 37.0435 53.2437C37.162 53.2957 37.29 53.3226 37.4194 53.3226H50.5161C50.6455 53.3226 50.7735 53.2957 50.892 53.2437C51.0105 53.1917 51.1169 53.1157 51.2045 53.0205C51.2921 52.9253 51.3591 52.8129 51.401 52.6905C51.443 52.5681 51.4591 52.4383 51.4483 52.3093L50.5129 41.0835ZM42.0968 38.8226C42.0972 38.4505 42.2451 38.0939 42.5082 37.8308C42.7713 37.5677 43.128 37.4198 43.5 37.4194H44.4355C44.8075 37.4198 45.1642 37.5677 45.4273 37.8308C45.6903 38.0939 45.8383 38.4505 45.8387 38.8226V40.2258H42.0968V38.8226ZM38.436 51.4516L39.2156 42.0968H40.2258V43.0323C40.2258 43.2804 40.3244 43.5183 40.4998 43.6937C40.6752 43.8692 40.9132 43.9677 41.1613 43.9677C41.4094 43.9677 41.6473 43.8692 41.8228 43.6937C41.9982 43.5183 42.0968 43.2804 42.0968 43.0323V42.0968H45.8387V43.0323C45.8387 43.2804 45.9373 43.5183 46.1127 43.6937C46.2881 43.8692 46.5261 43.9677 46.7742 43.9677C47.0223 43.9677 47.2602 43.8692 47.4357 43.6937C47.6111 43.5183 47.7097 43.2804 47.7097 43.0323V42.0968H48.7199L49.4995 51.4516H38.436Z" fill="#004FAC"/>
</svg>
