<?xml version="1.0" encoding="UTF-8"?>
<svg version="1.1" xmlns="http://www.w3.org/2000/svg" width="512" height="512">
<path d="M0 0 C1.69189453 -0.0151062 1.69189453 -0.0151062 3.41796875 -0.03051758 C23.83545704 0.17967999 41.92598305 8.75451475 56.671875 22.63671875 C71.25509097 38.10441971 78.01435262 57.59207494 77.78271484 78.64453125 C77.29343669 92.98273602 72.66351947 104.73546107 66.3125 117.4375 C72.5825 117.7675 78.8525 118.0975 85.3125 118.4375 C85.3125 115.7975 85.3125 113.1575 85.3125 110.4375 C124.9125 110.4375 164.5125 110.4375 205.3125 110.4375 C205.6425 123.9675 205.9725 137.4975 206.3125 151.4375 C209.58128573 161.11480793 209.58128573 161.11480793 214.19568634 169.62365532 C215.69142525 171.99640576 217.06262817 174.41607341 218.42449951 176.86793518 C220.36462383 180.34578462 222.3376874 183.80058448 224.34463501 187.24029541 C244.12356471 221.33427459 257.22756407 251.33920707 248.3125 291.4375 C246.88420094 296.79895406 245.45507547 301.90987535 242.5625 306.6875 C242.11390625 307.45578125 241.6653125 308.2240625 241.203125 309.015625 C239.3125 311.4375 239.3125 311.4375 232.3125 317.4375 C231.9825 381.7875 231.6525 446.1375 231.3125 512.4375 C78.5225 512.4375 -74.2675 512.4375 -231.6875 512.4375 C-232.1825 415.9125 -232.1825 415.9125 -232.6875 317.4375 C-234.9975 315.4575 -237.3075 313.4775 -239.6875 311.4375 C-241.578125 309.05078125 -241.578125 309.05078125 -242.9375 306.75 C-243.39640625 306.00363281 -243.8553125 305.25726563 -244.328125 304.48828125 C-253.35814233 284.22263892 -255.28616345 254.94507962 -247.82180786 234.00945282 C-241.17349973 217.31667971 -232.25334648 201.33885443 -223.21073723 185.84419727 C-221.22324478 182.41315231 -219.29846893 178.94862605 -217.37685394 175.48035622 C-216.04852136 173.14878794 -214.63518653 170.89249525 -213.20367432 168.62345886 C-202.38280353 149.23525509 -206.27521007 135.12132309 -205.6875 110.4375 C-165.7575 110.4375 -125.8275 110.4375 -84.6875 110.4375 C-84.6875 113.0775 -84.6875 115.7175 -84.6875 118.4375 C-78.7475 118.1075 -72.8075 117.7775 -66.6875 117.4375 C-67.780625 115.354375 -68.87375 113.27125 -70 111.125 C-79.29642733 92.8733769 -79.9660684 72.02376694 -74.6875 52.4375 C-71.63485825 43.52933634 -67.54344743 35.79818767 -61.6875 28.4375 C-61.11644531 27.69113281 -60.54539063 26.94476562 -59.95703125 26.17578125 C-51.90935784 16.34354912 -40.60108684 8.73554299 -28.6875 4.4375 C-27.67558594 4.04691406 -26.66367188 3.65632812 -25.62109375 3.25390625 C-17.0762828 0.44452017 -8.94475125 0.05176361 0 0 Z " fill="#000101" transform="translate(255.6875,-0.4375)"/>
<path d="M0 0 C1.69189453 -0.0151062 1.69189453 -0.0151062 3.41796875 -0.03051758 C23.83545704 0.17967999 41.92598305 8.75451475 56.671875 22.63671875 C71.25509097 38.10441971 78.01435262 57.59207494 77.78271484 78.64453125 C77.29343669 92.98273602 72.66351947 104.73546107 66.3125 117.4375 C72.5825 117.7675 78.8525 118.0975 85.3125 118.4375 C85.3125 121.4075 85.3125 124.3775 85.3125 127.4375 C119.3025 127.4375 153.2925 127.4375 188.3125 127.4375 C188.3125 133.3775 188.3125 139.3175 188.3125 145.4375 C148.7125 145.4375 109.1125 145.4375 68.3125 145.4375 C68.3125 151.0475 68.3125 156.6575 68.3125 162.4375 C109.2325 162.4375 150.1525 162.4375 192.3125 162.4375 C198.5825 174.791875 204.8525 187.14625 211.3125 199.875 C213.29636719 203.76079834 215.28023438 207.64659668 217.32421875 211.65014648 C219.73632812 216.43371582 219.73632812 216.43371582 220.86352539 218.68055725 C221.64855465 220.2368609 222.44068181 221.78959732 223.23852539 223.33937073 C224.4508759 225.69775836 225.63969465 228.06674928 226.82421875 230.43920898 C227.18021652 231.11882155 227.53621429 231.79843412 227.90299988 232.49864101 C230.67071752 238.14161664 230.3125 240.45942694 230.3125 247.4375 C78.1825 247.4375 -73.9475 247.4375 -230.6875 247.4375 C-230.6875 238.4375 -230.6875 238.4375 -229.20690918 235.51428223 C-228.8794445 234.8483329 -228.55197983 234.18238358 -228.21459198 233.49625397 C-227.84922585 232.79430656 -227.48385971 232.09235916 -227.10742188 231.36914062 C-226.52755901 230.20796848 -226.52755901 230.20796848 -225.93598175 229.02333832 C-224.69086059 226.53902946 -223.42420714 224.06646734 -222.15625 221.59375 C-221.38038342 220.05379085 -220.60596221 218.51310262 -219.83300781 216.97167969 C-216.96865461 211.28478042 -214.07640299 205.61196756 -211.1875 199.9375 C-204.7525 187.2325 -198.3175 174.5275 -191.6875 161.4375 C-151.0975 161.4375 -110.5075 161.4375 -68.6875 161.4375 C-68.6875 155.8275 -68.6875 150.2175 -68.6875 144.4375 C-108.2875 144.4375 -147.8875 144.4375 -188.6875 144.4375 C-188.6875 138.8275 -188.6875 133.2175 -188.6875 127.4375 C-154.6975 127.4375 -120.7075 127.4375 -85.6875 127.4375 C-85.6875 124.4675 -85.6875 121.4975 -85.6875 118.4375 C-79.4175 118.1075 -73.1475 117.7775 -66.6875 117.4375 C-67.780625 115.354375 -68.87375 113.27125 -70 111.125 C-79.29642733 92.8733769 -79.9660684 72.02376694 -74.6875 52.4375 C-71.63485825 43.52933634 -67.54344743 35.79818767 -61.6875 28.4375 C-61.11644531 27.69113281 -60.54539063 26.94476562 -59.95703125 26.17578125 C-51.90935784 16.34354912 -40.60108684 8.73554299 -28.6875 4.4375 C-27.67558594 4.04691406 -26.66367188 3.65632812 -25.62109375 3.25390625 C-17.0762828 0.44452017 -8.94475125 0.05176361 0 0 Z " fill="#5BC3A5" transform="translate(255.6875,-0.4375)"/>
<path d="M0 0 C3.12693125 1.41306513 5.46278824 3.14945236 8.0625 5.375 C16.24726655 11.79153548 24.70349293 13.99742617 35 13 C45.00037852 11.78125604 53.34298925 7.53293322 60 0 C63.12693125 1.41306513 65.46278824 3.14945236 68.0625 5.375 C76.18061565 11.73928379 84.76642136 14.14650051 95 13 C105.05033294 11.43890849 113.18067561 7.70880149 120 0 C122.85552763 1.2979671 124.88108294 2.69873873 127.125 4.875 C134.15934546 11.1023751 143.42350224 13.38446491 152.60546875 13.2734375 C161.74934815 12.53687644 169.21568083 9.63573547 176.09765625 3.5859375 C177.98132061 2.01557255 179.77143752 1.00260495 182 0 C183.5 1.375 183.5 1.375 185 3 C185 3.66 185 4.32 185 5 C185.680625 5.2475 186.36125 5.495 187.0625 5.75 C190 7 190 7 193.375 9 C201.91465871 13.9007035 211.68168651 14.38825981 221.125 11.875 C228.04722911 9.51540332 234.85097125 6.17684988 239 0 C242.21571022 1.48247192 244.90801491 3.33316391 247.75 5.4375 C252.09331424 8.52067741 255.94650865 10.37260448 261 12 C262.65 12.66 264.3 13.32 266 14 C266 59.21 266 104.42 266 151 C167.33 151 68.66 151 -33 151 C-33 105.46 -33 59.92 -33 13 C-30.36 13 -27.72 13 -25 13 C-14.67557342 11.41261941 -7.01837694 7.67634978 0 0 Z " fill="#658594" transform="translate(75,310)"/>
<path d="M0 0 C1.69189453 -0.0151062 1.69189453 -0.0151062 3.41796875 -0.03051758 C23.83545704 0.17967999 41.92598305 8.75451475 56.671875 22.63671875 C71.24941609 38.09840065 78.02899983 57.59781602 77.78051758 78.64672852 C77.1233938 97.5618899 69.20027746 112.20783349 59.41357422 127.99975586 C56.05359188 133.4609567 52.91095917 139.04711852 49.75 144.625 C48.34484523 147.09567597 46.93798727 149.56538106 45.53125 152.03515625 C45.00186073 152.96530548 45.00186073 152.96530548 44.46177673 153.91424561 C39.08266249 163.36133092 33.63255791 172.7676112 28.19335938 182.18017578 C25.60270353 186.66674514 23.01786482 191.15665664 20.43286133 195.64648438 C18.55131671 198.91096548 16.66481024 202.17253389 14.77734375 205.43359375 C12.58244337 209.2270921 10.40773278 213.03070353 8.25390625 216.84765625 C7.35686532 218.41932477 6.45973686 219.99094333 5.5625 221.5625 C4.97118286 222.6289978 4.97118286 222.6289978 4.36791992 223.71704102 C3.265625 225.6328125 3.265625 225.6328125 1.3125 228.4375 C0.3225 228.4375 -0.6675 228.4375 -1.6875 228.4375 C-3.21102827 225.79671766 -4.734552 223.15593269 -6.25805664 220.51513672 C-7.60482423 218.18078358 -8.95165607 215.84646765 -10.29858398 213.51220703 C-13.71127298 207.59771511 -17.12289406 201.68261559 -20.53125 195.765625 C-27.1225018 184.3260627 -33.73739332 172.90115379 -40.40283203 161.50463867 C-43.50542055 156.1951311 -46.59086417 150.87628447 -49.65234375 145.54296875 C-49.98489166 144.96418976 -50.31743958 144.38541077 -50.6600647 143.78909302 C-52.26026434 141.00376608 -53.85798906 138.21708225 -55.45117188 135.42773438 C-58.87740563 129.45933383 -62.45182945 123.62250745 -66.17211914 117.83325195 C-77.92628326 99.25042409 -80.49868479 77.57483935 -75.7265625 56.29296875 C-72.92209356 45.88691294 -68.38303855 36.85351955 -61.6875 28.4375 C-61.11644531 27.69113281 -60.54539063 26.94476562 -59.95703125 26.17578125 C-51.90935784 16.34354912 -40.60108684 8.73554299 -28.6875 4.4375 C-27.67558594 4.04691406 -26.66367188 3.65632812 -25.62109375 3.25390625 C-17.0762828 0.44452017 -8.94475125 0.05176361 0 0 Z " fill="#EC4747" transform="translate(255.6875,-0.4375)"/>
<path d="M0 0 C76.23 0 152.46 0 231 0 C231 19.8 231 39.6 231 60 C154.77 60 78.54 60 0 60 C0 40.2 0 20.4 0 0 Z " fill="#E0E3E6" transform="translate(76,358)"/>
<path d="M0 0 C28.38 0 56.76 0 86 0 C86 51.15 86 102.3 86 155 C57.62 155 29.24 155 0 155 C0 126.62 0 98.24 0 69 C5.61 69 11.22 69 17 69 C17 63.39 17 57.78 17 52 C11.39 52 5.78 52 0 52 C0 34.84 0 17.68 0 0 Z " fill="#E0E4E7" transform="translate(375,332)"/>
<path d="M0 0 C87.45 0 174.9 0 265 0 C265 31.02 265 62.04 265 94 C177.55 94 90.1 94 0 94 C0 62.98 0 31.96 0 0 Z M17 17 C17 36.8 17 56.6 17 77 C93.23 77 169.46 77 248 77 C248 57.2 248 37.4 248 17 C171.77 17 95.54 17 17 17 Z " fill="#000000" transform="translate(59,341)"/>
<path d="M0 0 C1.69189453 -0.0151062 1.69189453 -0.0151062 3.41796875 -0.03051758 C23.83545704 0.17967999 41.92598305 8.75451475 56.671875 22.63671875 C71.24941609 38.09840065 78.02899983 57.59781602 77.78051758 78.64672852 C77.1233938 97.5618899 69.20027746 112.20783349 59.41357422 127.99975586 C56.05359188 133.4609567 52.91095917 139.04711852 49.75 144.625 C48.34484523 147.09567597 46.93798727 149.56538106 45.53125 152.03515625 C45.00186073 152.96530548 45.00186073 152.96530548 44.46177673 153.91424561 C39.08266249 163.36133092 33.63255791 172.7676112 28.19335938 182.18017578 C25.60270353 186.66674514 23.01786482 191.15665664 20.43286133 195.64648438 C18.55131671 198.91096548 16.66481024 202.17253389 14.77734375 205.43359375 C12.58244337 209.2270921 10.40773278 213.03070353 8.25390625 216.84765625 C7.35686532 218.41932477 6.45973686 219.99094333 5.5625 221.5625 C4.97118286 222.6289978 4.97118286 222.6289978 4.36791992 223.71704102 C3.265625 225.6328125 3.265625 225.6328125 1.3125 228.4375 C0.3225 228.4375 -0.6675 228.4375 -1.6875 228.4375 C-3.21102827 225.79671766 -4.734552 223.15593269 -6.25805664 220.51513672 C-7.60482423 218.18078358 -8.95165607 215.84646765 -10.29858398 213.51220703 C-13.71127298 207.59771511 -17.12289406 201.68261559 -20.53125 195.765625 C-27.1225018 184.3260627 -33.73739332 172.90115379 -40.40283203 161.50463867 C-43.50542055 156.1951311 -46.59086417 150.87628447 -49.65234375 145.54296875 C-49.98489166 144.96418976 -50.31743958 144.38541077 -50.6600647 143.78909302 C-52.26026434 141.00376608 -53.85798906 138.21708225 -55.45117188 135.42773438 C-58.87740563 129.45933383 -62.45182945 123.62250745 -66.17211914 117.83325195 C-77.92628326 99.25042409 -80.49868479 77.57483935 -75.7265625 56.29296875 C-72.92209356 45.88691294 -68.38303855 36.85351955 -61.6875 28.4375 C-61.11644531 27.69113281 -60.54539063 26.94476562 -59.95703125 26.17578125 C-51.90935784 16.34354912 -40.60108684 8.73554299 -28.6875 4.4375 C-27.67558594 4.04691406 -26.66367188 3.65632812 -25.62109375 3.25390625 C-17.0762828 0.44452017 -8.94475125 0.05176361 0 0 Z M-45.6875 35.4375 C-55.16030959 46.79781541 -60.29604595 59.43092245 -60.0625 74.25 C-60.04872314 75.21921387 -60.03494629 76.18842773 -60.02075195 77.18701172 C-59.62030455 93.52471897 -53.80386165 104.60196298 -45.6875 118.4375 C-44.58392591 120.33943224 -43.48107411 122.24178375 -42.37890625 124.14453125 C-40.04754115 128.15943729 -37.70507977 132.16762176 -35.35546875 136.171875 C-31.62424032 142.5352103 -27.93271256 148.92099156 -24.25 155.3125 C-23.63858154 156.37339844 -23.02716309 157.43429688 -22.3972168 158.52734375 C-21.14616364 160.69847669 -19.89527023 162.86970168 -18.64453125 165.04101562 C-15.52101705 170.46196492 -12.39395884 175.88086866 -9.26705933 181.29986572 C-7.65836318 184.08784759 -6.04989358 186.87596015 -4.44140625 189.6640625 C-3.64198608 191.04972412 -3.64198608 191.04972412 -2.82641602 192.46337891 C-2.45057373 193.11483887 -2.07473145 193.76629883 -1.6875 194.4375 C-0.6975 194.4375 0.2925 194.4375 1.3125 194.4375 C1.68834229 193.78604004 2.06418457 193.13458008 2.45141602 192.46337891 C3.25083618 191.07771729 3.25083618 191.07771729 4.06640625 189.6640625 C4.66590088 188.62491699 5.26539551 187.58577148 5.88305664 186.51513672 C7.22982423 184.18078358 8.57665607 181.84646765 9.92358398 179.51220703 C13.33627298 173.59771511 16.74789406 167.68261559 20.15625 161.765625 C21.3957343 159.61452627 22.63531689 157.46348416 23.875 155.3125 C24.49149414 154.24273926 25.10798828 153.17297852 25.74316406 152.07080078 C29.4193036 145.69863322 33.11859678 139.3406021 36.83642578 132.99267578 C41.61052482 124.83773783 46.36812099 116.67426072 51 108.4375 C51.39807861 107.73818359 51.79615723 107.03886719 52.20629883 106.31835938 C60.13955414 92.08389209 62.3140347 74.04858996 58.44140625 58.1015625 C55.94660639 50.69077995 52.18641221 44.51349818 47.3125 38.4375 C46.84070313 37.80328125 46.36890625 37.1690625 45.8828125 36.515625 C37.67353082 26.03371732 23.85899681 19.20536978 10.9375 16.8125 C-10.99824626 14.54328487 -29.52667935 19.61282442 -45.6875 35.4375 Z " fill="#010100" transform="translate(255.6875,-0.4375)"/>
<path d="M0 0 C3.12693125 1.41306513 5.46278824 3.14945236 8.0625 5.375 C17.43198301 12.6725323 27.27318274 14.39340731 39 13 C47.65730245 10.78201342 53.80176518 6.30779958 60 0 C62.85629596 1.30113265 64.92210213 2.71588005 67.1875 4.875 C75.62384812 12.29535781 84.03612851 13 95 13 C95 69.76 95 126.52 95 185 C58.37 185 21.74 185 -16 185 C-16 127.58 -16 70.16 -16 11 C-12.37 9.02 -8.74 7.04 -5 5 C-1.93110535 2.3575406 -1.93110535 2.3575406 0 0 Z M1 22 C1 39.16 1 56.32 1 74 C6.61 74 12.22 74 18 74 C18 79.61 18 85.22 18 91 C12.39 91 6.78 91 1 91 C1 119.38 1 147.76 1 177 C29.38 177 57.76 177 87 177 C87 125.85 87 74.7 87 22 C58.62 22 30.24 22 1 22 Z " fill="#658594" transform="translate(374,310)"/>
<path d="M0 0 C98.67 0 197.34 0 299 0 C299 5.61 299 11.22 299 17 C200.33 17 101.66 17 0 17 C0 11.39 0 5.78 0 0 Z " fill="#4C6776" transform="translate(42,478)"/>
<path d="M0 0 C27.72 0 55.44 0 84 0 C84 20.05315545 84 20.05315545 78.74382019 25.5068512 C77.96927994 26.21824753 77.19473969 26.92964386 76.39672852 27.66259766 C75.18481842 28.88085991 75.18481842 28.88085991 73.94842529 30.12373352 C71.29915326 32.76563405 68.59220415 35.3381057 65.87890625 37.9140625 C64.01657723 39.74531555 62.15814557 41.58053978 60.30345154 43.41952515 C55.9343514 47.73813109 51.52110788 52.00846503 47.08978647 56.26309812 C42.04371868 61.11285322 37.0528614 66.01789062 32.06434357 70.92670751 C24.3214902 78.54202894 16.55105038 86.12871591 8.73266602 93.66650391 C7.96014999 94.4143364 7.18763397 95.16216888 6.39170837 95.93266296 C5.69195892 96.60502487 4.99220947 97.27738678 4.27125549 97.97012329 C3.66010674 98.5588151 3.048958 99.1475069 2.41928959 99.75403786 C1 101 1 101 0 101 C0 90.11 0 79.22 0 68 C5.28 68 10.56 68 16 68 C16 62.06 16 56.12 16 50 C10.72 50 5.44 50 0 50 C0 33.5 0 17 0 0 Z " fill="#FEFEFE" transform="translate(376,333)"/>
<path d="M0 0 C0.67740234 -0.00773437 1.35480469 -0.01546875 2.05273438 -0.0234375 C12.01340271 0.01476257 18.81882995 3.68708602 26.0625 10.25 C32.02542892 17.57345459 35.69291424 25.30512148 35.37109375 34.921875 C33.97180437 45.4785392 30.0917482 54.0641627 21.99609375 61.02734375 C14.40206291 66.58362034 5.41914081 69.14110865 -3.9375 68.25 C-13.06213051 66.68840216 -21.19902638 62.09285306 -26.89453125 54.71484375 C-32.83102996 45.13844801 -33.82585604 36.26122792 -32.9375 25.25 C-32.06524728 21.87414622 -30.78931904 19.18968632 -28.9375 16.25 C-28.59847656 15.64027344 -28.25945312 15.03054687 -27.91015625 14.40234375 C-21.79753307 4.50467989 -11.28154359 -0.12807807 0 0 Z " fill="#040202" transform="translate(254.9375,33.75)"/>
<path d="M0 0 C19.125 0 19.125 0 25.87890625 0.21875 C26.58732162 0.24094604 27.295737 0.26314209 28.02561951 0.28601074 C30.20466885 0.3548389 32.3835764 0.4273123 34.5625 0.5 C36.0748619 0.54842418 37.58723171 0.59660207 39.09960938 0.64453125 C42.73316784 0.76020257 46.36661018 0.87913345 50 1 C45.11844006 6.9256506 39.78058445 12.22459575 34.26171875 17.5546875 C32.37068148 19.40387947 30.48061964 21.25401975 28.59179688 23.10546875 C25.63531255 26.0019959 22.67359799 28.89241976 19.69018555 31.76123047 C17.73280323 33.64421469 15.78660641 35.53749883 13.85176086 37.44363403 C12.03777746 39.23052164 10.20868912 41.002239 8.36296082 42.75631714 C3.00606447 48.06229184 3.00606447 48.06229184 0.93286133 55.11376953 C0.95501709 56.39622559 0.97717285 57.67868164 1 59 C9.916477 60.65930134 20.69554098 61.86695403 28.77618408 56.91054535 C33.24639092 53.55551312 37.04436966 49.54183781 40.8125 45.43359375 C41.39138977 44.8075185 41.97027954 44.18144325 42.56671143 43.53639603 C48.02733661 37.58277941 53.28612444 31.45911495 58.51025391 25.2980957 C61.95833094 21.25705675 65.48751023 17.30510907 69.125 13.43359375 C69.70693115 12.8134074 70.2888623 12.19322105 70.88842773 11.55424118 C78.42880163 3.77067293 84.78685092 -0.32719199 95.77026367 -0.90148449 C103.25006836 -1.0128888 110.63173325 -0.2496358 118 1 C113.06702559 7.0053831 107.6483271 12.47021097 102.13638878 17.93877602 C100.48236395 19.57990722 98.83159769 21.22425624 97.18159485 22.86943054 C93.68638301 26.35329202 90.18722226 29.83317029 86.6875 33.3125 C82.61263269 37.36375294 78.53940727 41.41662923 74.47034645 45.47371483 C72.84315556 47.09441992 71.21298694 48.71208903 69.58268738 50.32966614 C68.5910297 51.31769341 67.59951096 52.30586015 66.6081543 53.29418945 C65.30626411 54.58822441 65.30626411 54.58822441 63.97807312 55.90840149 C61.95850154 57.84162098 61.95850154 57.84162098 61 60 C40.87 60 20.74 60 0 60 C0 40.2 0 20.4 0 0 Z " fill="#E3E6E9" transform="translate(76,358)"/>
<path d="M0 0 C4.28016551 14.0757273 6.10392454 29.20164178 0 43 C-6.62391063 54.21173307 -16.22619887 63.59216645 -25.39698029 72.71152496 C-27.36429933 74.6768104 -29.30483359 76.6657295 -31.24237061 78.66033936 C-54.24066869 102.1337241 -54.24066869 102.1337241 -69.39248657 102.7804718 C-74.35601178 102.58886885 -79.14761417 102.06598541 -84 101 C-85.36746422 94.05095895 -86.26250675 86.93709436 -82.59721756 80.55895233 C-77.70729246 74.11067027 -71.73170515 68.64248073 -65.87890625 63.0859375 C-64.01657723 61.25468445 -62.15814557 59.41946022 -60.30345154 57.58047485 C-55.9343514 53.26186891 -51.52110788 48.99153497 -47.08978647 44.73690188 C-42.04371868 39.88714678 -37.0528614 34.98210938 -32.06434357 30.07329249 C-24.3214902 22.45797106 -16.55105038 14.87128409 -8.73266602 7.33349609 C-7.96014999 6.5856636 -7.18763397 5.83783112 -6.39170837 5.06733704 C-5.69195892 4.39497513 -4.99220947 3.72261322 -4.27125549 3.02987671 C-3.66010674 2.4411849 -3.048958 1.8524931 -2.41928959 1.24596214 C-1 0 -1 0 0 0 Z " fill="#FEFEFE" transform="translate(460,385)"/>
<path d="M0 0 C7.05886217 -1.6621158 14.15658477 -3.03820439 21 0 C28.34532928 7.40557217 32.62095166 17.67022599 37 27 C38.98 30.96 38.98 30.96 41 35 C33.41 35 25.82 35 18 35 C18 37.97 18 40.94 18 44 C-22.92 44 -63.84 44 -106 44 C-106 43.67 -106 43.34 -106 43 C-65.41 43 -24.82 43 17 43 C17 37.39 17 31.78 17 26 C-22.6 26 -62.2 26 -103 26 C-103 20.39 -103 14.78 -103 9 C-69.01 9 -35.02 9 0 9 C0 6.03 0 3.06 0 0 Z " fill="#228B6E" transform="translate(170,118)"/>
<path d="M0 0 C0.87454834 0.00523682 1.74909668 0.01047363 2.65014648 0.01586914 C3.59438477 0.0190918 4.53862305 0.02231445 5.51147461 0.02563477 C6.50469727 0.03401367 7.49791992 0.04239258 8.52124023 0.05102539 C9.51833008 0.05553711 10.51541992 0.06004883 11.54272461 0.06469727 C14.01478872 0.07652532 16.48673541 0.0930069 18.95874023 0.11352539 C18.95874023 3.08352539 18.95874023 6.05352539 18.95874023 9.11352539 C52.94874023 9.11352539 86.93874023 9.11352539 121.95874023 9.11352539 C121.95874023 15.05352539 121.95874023 20.99352539 121.95874023 27.11352539 C82.35874023 27.11352539 42.75874023 27.11352539 1.95874023 27.11352539 C1.95874023 29.75352539 1.95874023 32.39352539 1.95874023 35.11352539 C-5.96125977 35.11352539 -13.88125977 35.11352539 -22.04125977 35.11352539 C-18.17935844 26.9483626 -13.8277054 19.19611686 -9.22875977 11.42602539 C-8.6413501 10.43328613 -8.05394043 9.44054687 -7.44873047 8.41772461 C-2.51904251 0.14009745 -2.51904251 0.14009745 0 0 Z " fill="#218B6D" transform="translate(322.041259765625,117.886474609375)"/>
<path d="M0 0 C-8.09148275 9.54900225 -16.46448844 18.8292338 -25.07104874 27.91479397 C-27.94800691 30.95693492 -30.78465174 34.02159364 -33.54785156 37.16772461 C-53.20426372 59.47347429 -53.20426372 59.47347429 -67.31835938 60.59423828 C-75.59804299 60.98658175 -83.81683012 60.23830042 -92 59 C-90.39241294 55.22357441 -88.0056934 52.54117591 -85.27954102 49.49707031 C-84.79902283 48.96003983 -84.31850464 48.42300934 -83.82342529 47.8697052 C-79.34159938 42.89063482 -74.7549933 38.00974782 -70.13583469 33.1581459 C-67.046254 29.90966494 -63.99818157 26.63806835 -61.02905273 23.27880859 C-42.23798225 2.08329361 -28.40979649 -4.47756657 0 0 Z " fill="#FEFEFE" transform="translate(229,359)"/>
<path d="M0 0 C-8.09148275 9.54900225 -16.46448844 18.8292338 -25.07104874 27.91479397 C-27.94800691 30.95693492 -30.78465174 34.02159364 -33.54785156 37.16772461 C-53.20426372 59.47347429 -53.20426372 59.47347429 -67.31835938 60.59423828 C-75.59804299 60.98658175 -83.81683012 60.23830042 -92 59 C-83.90851725 49.45099775 -75.53551156 40.1707662 -66.92895126 31.08520603 C-64.05199309 28.04306508 -61.21534826 24.97840636 -58.45214844 21.83227539 C-40.51269875 1.47490443 -27.1138703 -4.10294758 0 0 Z " fill="#FEFEFE" transform="translate(297,359)"/>
<path d="M0 0 C-8.09148275 9.54900225 -16.46448844 18.8292338 -25.07104874 27.91479397 C-27.94800691 30.95693492 -30.78465174 34.02159364 -33.54785156 37.16772461 C-53.20426372 59.47347429 -53.20426372 59.47347429 -67.31835938 60.59423828 C-75.59804299 60.98658175 -83.81683012 60.23830042 -92 59 C-83.90851725 49.45099775 -75.53551156 40.1707662 -66.92895126 31.08520603 C-64.05199309 28.04306508 -61.21534826 24.97840636 -58.45214844 21.83227539 C-40.51269875 1.47490443 -27.1138703 -4.10294758 0 0 Z " fill="#E4E7EA" transform="translate(263,359)"/>
<path d="M0 0 C-8.00066462 9.50478284 -16.49467767 18.56221574 -25.09439468 27.52364254 C-27.96099519 30.51429494 -30.7979173 33.52409999 -33.57861328 36.5949707 C-53.08060766 58.07828064 -53.08060766 58.07828064 -64.47070312 59.56298828 C-70.75506477 59.80745239 -76.84053752 59.24845555 -83 58 C-83.75102235 53.23664536 -83.90213094 50.46327757 -81.33135986 46.29342651 C-78.82598637 43.2154506 -76.20373387 40.28241667 -73.4765625 37.40234375 C-72.97840405 36.87000185 -72.48024559 36.33765995 -71.96699142 35.78918648 C-69.31530044 32.96176775 -66.63604174 30.16393991 -63.93261719 27.38598633 C-61.73287537 25.11602369 -59.5956223 22.80703193 -57.5 20.44067383 C-39.94164646 0.66213537 -26.23520908 -3.69302097 0 0 Z " fill="#FEFEFE" transform="translate(160,359)"/>
<path d="M0 0 C0 19.47 0 38.94 0 59 C-19.47 59 -38.94 59 -59 59 C-55.23627948 54.60899273 -51.61976149 50.49392523 -47.5612793 46.43188477 C-47.05482376 45.92367691 -46.54836823 45.41546906 -46.02656555 44.89186096 C-44.37826243 43.23921205 -42.72639561 41.59018182 -41.07421875 39.94140625 C-39.91919096 38.78570396 -38.76431157 37.62985333 -37.60957336 36.47386169 C-35.20316815 34.06598994 -32.79498261 31.65991717 -30.38549805 29.25512695 C-27.2905724 26.16593664 -24.20020968 23.07222644 -21.11113262 19.97718906 C-18.7341454 17.59660076 -16.35479717 15.21838382 -13.97471046 12.8408947 C-12.83323491 11.70008769 -11.69250575 10.55853336 -10.55252647 9.41623116 C-8.96799923 7.82918069 -7.38033081 6.24534308 -5.79174805 4.66235352 C-4.88829147 3.75969254 -3.9848349 2.85703156 -3.05400085 1.92701721 C-1 0 -1 0 0 0 Z " fill="#E3E6E9" transform="translate(461,427)"/>
<path d="M0 0 C14.19 0 28.38 0 43 0 C43.0825 3.939375 43.165 7.87875 43.25 11.9375 C43.28641602 13.16073975 43.32283203 14.38397949 43.36035156 15.64428711 C43.44214626 23.77164523 42.34971288 30.01097811 37.03515625 36.33984375 C30.87579165 41.32831924 26.60978024 43.51196696 18.55859375 43.30859375 C11.8439288 42.4987334 7.49654429 39.00989299 3.2265625 33.9765625 C0.40872717 29.43571958 -0.24744014 24.99145423 -0.1953125 19.7265625 C-0.19031738 18.68580566 -0.18532227 17.64504883 -0.18017578 16.57275391 C-0.16196777 15.26999512 -0.14375977 13.96723633 -0.125 12.625 C-0.08375 8.45875 -0.0425 4.2925 0 0 Z " fill="#29B390" transform="translate(384,264)"/>
<path d="M0 0 C14.19 0 28.38 0 43 0 C43.0825 4.125 43.165 8.25 43.25 12.5 C43.28641602 13.78455078 43.32283203 15.06910156 43.36035156 16.39257812 C43.4427344 24.9338184 42.24346441 30.03576572 36.75 36.75 C31.07437114 41.39369634 25.9757489 43.77447376 18.52734375 43.453125 C12.92526948 42.44873456 8.59959409 39.59959409 4.625 35.625 C-0.22399758 27.79200391 -0.37992967 21.67708156 -0.1875 12.5625 C-0.125625 8.416875 -0.06375 4.27125 0 0 Z " fill="#F3CE86" transform="translate(324,264)"/>
<path d="M0 0 C14.19 0 28.38 0 43 0 C43.1546875 6.125625 43.1546875 6.125625 43.3125 12.375 C43.35802002 13.64134277 43.40354004 14.90768555 43.45043945 16.21240234 C43.55737148 25.03877889 41.91193366 31.98512072 35.625 38.4375 C29.43903616 42.11962133 24.18250258 44.11260797 17 43 C10.1726366 40.7201264 5.73788372 36.7218326 1.875 30.671875 C-0.96666814 24.85852776 -0.4293269 18.82563735 -0.25 12.5 C-0.1675 8.375 -0.085 4.25 0 0 Z " fill="#F3CE87" transform="translate(204,264)"/>
<path d="M0 0 C14.19 0 28.38 0 43 0 C43.061875 4.125 43.12375 8.25 43.1875 12.5 C43.22846802 14.42682617 43.22846802 14.42682617 43.27026367 16.39257812 C43.32332525 23.72762811 43.20290221 30.05259752 38.38671875 35.98828125 C32.26928491 40.75566073 27.48130412 43.63826102 19.51953125 43.33984375 C12.36235889 42.37445771 8.06230686 38.49948741 3.4453125 33.1953125 C0.47961786 28.6906628 -0.25011454 24.26111061 -0.1953125 18.9453125 C-0.19031738 17.94516113 -0.18532227 16.94500977 -0.18017578 15.91455078 C-0.16196777 14.66399902 -0.14375977 13.41344727 -0.125 12.125 C-0.08375 8.12375 -0.0425 4.1225 0 0 Z " fill="#29B490" transform="translate(144,264)"/>
<path d="M0 0 C14.19 0 28.38 0 43 0 C43.061875 3.609375 43.12375 7.21875 43.1875 10.9375 C43.22846802 12.61573853 43.22846802 12.61573853 43.27026367 14.32788086 C43.34975155 23.99719659 41.65245876 31.23714134 34.87890625 38.3359375 C29.98244957 42.67250828 24.82028011 43.5743539 18.48828125 43.34375 C11.81270284 42.42153509 7.49173779 39.00422722 3.2265625 33.9765625 C0.40872717 29.43571958 -0.24744014 24.99145423 -0.1953125 19.7265625 C-0.19031738 18.68580566 -0.18532227 17.64504883 -0.18017578 16.57275391 C-0.16196777 15.26999512 -0.14375977 13.96723633 -0.125 12.625 C-0.08375 8.45875 -0.0425 4.2925 0 0 Z " fill="#29B490" transform="translate(25,264)"/>
<path d="M0 0 C14.19 0 28.38 0 43 0 C43.1546875 6.125625 43.1546875 6.125625 43.3125 12.375 C43.35802002 13.64134277 43.40354004 14.90768555 43.45043945 16.21240234 C43.54290774 23.84491408 42.48816196 29.69426705 38 36 C33.9249765 39.82674029 29.08891844 42.86148348 23.38671875 43.1171875 C16.55105024 42.5038569 10.33227303 41.57879323 5.46875 36.35546875 C1.5419433 31.11592143 -0.26042881 26.43352433 -0.1953125 19.82421875 C-0.19031738 18.78096436 -0.18532227 17.73770996 -0.18017578 16.6628418 C-0.16196777 15.350979 -0.14375977 14.03911621 -0.125 12.6875 C-0.08375 8.500625 -0.0425 4.31375 0 0 Z " fill="#29B491" transform="translate(264,264)"/>
<path d="M0 0 C13.86 0 27.72 0 42 0 C42.0825 4.29 42.165 8.58 42.25 13 C42.28641602 14.33675781 42.32283203 15.67351562 42.36035156 17.05078125 C42.43627057 25.23044176 41.74149238 30.66422136 36.25390625 37.0234375 C30.43678468 41.67176097 26.1061543 43.49924535 18.55859375 43.30859375 C11.79951723 42.49337689 7.47134707 38.98924745 3.2265625 33.87890625 C0.37486506 29.51054169 -0.24435929 25.77990482 -0.1953125 20.60546875 C-0.19031738 19.52160889 -0.18532227 18.43774902 -0.18017578 17.32104492 C-0.16196777 15.9569751 -0.14375977 14.59290527 -0.125 13.1875 C-0.08375 8.835625 -0.0425 4.48375 0 0 Z " fill="#F4D087" transform="translate(444,264)"/>
<path d="M0 0 C13.86 0 27.72 0 42 0 C42.0825 4.29 42.165 8.58 42.25 13 C42.28641602 14.33675781 42.32283203 15.67351562 42.36035156 17.05078125 C42.43627057 25.23044176 41.74149238 30.66422136 36.25390625 37.0234375 C30.43678468 41.67176097 26.1061543 43.49924535 18.55859375 43.30859375 C11.79951723 42.49337689 7.47134707 38.98924745 3.2265625 33.87890625 C0.37486506 29.51054169 -0.24435929 25.77990482 -0.1953125 20.60546875 C-0.19031738 19.52160889 -0.18532227 18.43774902 -0.18017578 17.32104492 C-0.16196777 15.9569751 -0.14375977 14.59290527 -0.125 13.1875 C-0.08375 8.835625 -0.0425 4.48375 0 0 Z " fill="#F4D087" transform="translate(85,264)"/>
<path d="M0 0 C4.8903544 1.7357984 7.96745955 4.35511878 10.5 8.875 C12.40721022 13.42165292 12.9454864 17.3152231 11.26953125 22.07421875 C9.27750704 26.47293344 7.14307215 29.34418452 3 32 C-3.01366298 34.00455433 -9.71377996 34.02063395 -15.5 31.4375 C-20.13046082 26.9228007 -22.21554494 23.35489641 -22.4375 16.9375 C-22.14505908 10.89676723 -20.21601569 6.98112621 -16.0625 2.625 C-11.21895191 -1.26420493 -5.90440815 -1.02719451 0 0 Z " fill="#FBFBFB" transform="translate(261,51)"/>
<path d="M0 0 C0 10.89 0 21.78 0 33 C-10.89 33 -21.78 33 -33 33 C-29.02127355 28.35815247 -25.07566392 23.92651734 -20.76171875 19.62890625 C-20.19548294 19.06171371 -19.62924713 18.49452118 -19.04585266 17.91014099 C-17.86309421 16.72670827 -16.67909712 15.54451227 -15.49389648 14.36352539 C-13.67117911 12.54622764 -11.85394191 10.72356975 -10.03710938 8.90039062 C-8.88313353 7.74707453 -7.7288481 6.59406809 -6.57421875 5.44140625 C-6.0294841 4.89464737 -5.48474945 4.34788849 -4.92350769 3.78456116 C-1.11498901 0 -1.11498901 0 0 0 Z " fill="#FEFEFE" transform="translate(306,385)"/>
<path d="M0 0 C0 7.92 0 15.84 0 24 C-7.92 24 -15.84 24 -24 24 C-17.23832509 16.11137927 -17.23832509 16.11137927 -13.73046875 12.59765625 C-12.61575195 11.48100586 -12.61575195 11.48100586 -11.47851562 10.34179688 C-10.72248047 9.58962891 -9.96644531 8.83746094 -9.1875 8.0625 C-8.41212891 7.28326172 -7.63675781 6.50402344 -6.83789062 5.70117188 C-5.7328418 4.59805664 -5.7328418 4.59805664 -4.60546875 3.47265625 C-3.93668701 2.80500244 -3.26790527 2.13734863 -2.57885742 1.44946289 C-1 0 -1 0 0 0 Z " fill="#FEFEFE" transform="translate(460,462)"/>
<path d="M0 0 C5.61 0 11.22 0 17 0 C17 5.61 17 11.22 17 17 C11.39 17 5.78 17 0 17 C0 11.39 0 5.78 0 0 Z " fill="#020303" transform="translate(375,384)"/>
<path d="M0 0 C4.95 0 9.9 0 15 0 C10.60831493 5.27002208 6.0573621 10.35302051 1 15 C0.67 15 0.34 15 0 15 C0 10.05 0 5.1 0 0 Z " fill="#FEFEFE" transform="translate(77,359)"/>
</svg>
