<svg width="75" height="75" viewBox="0 0 75 75" fill="none" xmlns="http://www.w3.org/2000/svg">
<path d="M6.34717 15.0234H68.6528V68.3511H6.34717V15.0234Z" fill="#E9EAEB"/>
<path d="M6.34717 15.0234H14.2573V68.3511H6.34717V15.0234Z" fill="#B9BBC1"/>
<path d="M6.12998 15.0232H68.8701V6.26904C68.8701 5.56958 68.3032 5.00269 67.6038 5.00269H7.39634C6.69687 5.00269 6.12998 5.56958 6.12998 6.26904V15.0232Z" fill="#FDC74F"/>
<path d="M7.39624 5.00269H14.04V11.5929H6.12988V6.26904C6.12988 5.56958 6.69693 5.00269 7.39624 5.00269Z" fill="#FCA629"/>
<path d="M68.6526 30.8978C71.5202 30.8978 73.8447 28.5732 73.8447 25.7056V21.4756H63.4606V25.7056C63.4606 28.5732 65.7852 30.8978 68.6526 30.8978Z" fill="#E60D28"/>
<path d="M58.2683 30.8978C61.1359 30.8978 63.4604 28.5732 63.4604 25.7056V21.4756H53.0763V25.7056C53.0762 28.5732 55.4007 30.8978 58.2683 30.8978Z" fill="#F2F2F2"/>
<path d="M47.884 30.8978C50.7516 30.8978 53.0762 28.5732 53.0762 25.7056V21.4756H42.692V25.7056C42.692 28.5732 45.0166 30.8978 47.884 30.8978Z" fill="#E60D28"/>
<path d="M37.5002 30.8978C40.3678 30.8978 42.6924 28.5732 42.6924 25.7056V21.4756H32.3083V25.7056C32.3081 28.5732 34.6327 30.8978 37.5002 30.8978Z" fill="#F2F2F2"/>
<path d="M27.1155 30.8978C29.9831 30.8978 32.3076 28.5732 32.3076 25.7056V21.4756H21.9235V25.7056C21.9235 28.5732 24.248 30.8978 27.1155 30.8978Z" fill="#E60D28"/>
<path d="M16.7317 30.8978C19.5993 30.8978 21.9238 28.5732 21.9238 25.7056V21.4756H11.5397V25.7056C11.5396 28.5732 13.8641 30.8978 16.7317 30.8978Z" fill="#F2F2F2"/>
<path d="M6.34741 30.8978C9.21499 30.8978 11.5396 28.5732 11.5396 25.7056V21.4756H1.15542V25.7056C1.15527 28.5732 3.47983 30.8978 6.34741 30.8978Z" fill="#E60D28"/>
<path d="M63.4606 21.4758H73.8447L68.8754 11.5928H59.911L63.4606 21.4758Z" fill="#FC502A"/>
<path d="M53.0762 21.4758H63.4604L59.9108 11.5928H50.9464L53.0762 21.4758Z" fill="white"/>
<path d="M42.692 21.4758H53.0762L50.9464 11.5928H41.982L42.692 21.4758Z" fill="#FC502A"/>
<path d="M32.3081 21.4758H42.6924L41.9824 11.5928H33.0181L32.3081 21.4758Z" fill="white"/>
<path d="M21.9239 21.4758H32.3081L33.0181 11.5928H24.0537L21.9239 21.4758Z" fill="#FC502A"/>
<path d="M11.5392 21.4758H21.9235L24.0532 11.5928H15.0888L11.5392 21.4758Z" fill="white"/>
<path d="M1.15513 21.4758H11.5393L15.0889 11.5928H6.12446L1.15513 21.4758Z" fill="#FC502A"/>
<path d="M3.47007 63.4788H71.5301C72.8398 63.4788 73.9014 64.5405 73.9014 65.8502V69.3252C73.9014 69.6964 73.6003 69.9975 73.2292 69.9975H1.77085C1.39966 69.9975 1.09863 69.6964 1.09863 69.3252V65.8502C1.09863 64.5405 2.16035 63.4788 3.47007 63.4788Z" fill="#8B8996"/>
<path d="M3.47002 63.4788H9.0332V69.9973H1.7708C1.39961 69.9973 1.09859 69.6964 1.09859 69.3251V65.85C1.09873 64.5405 2.16045 63.4788 3.47002 63.4788Z" fill="#706F7F"/>
<path d="M12.4843 56.5093H44.4653C44.9871 56.5093 45.4102 56.0862 45.4102 55.5645V37.9666C45.4102 37.4448 44.9871 37.0217 44.4653 37.0217H12.4843C11.9625 37.0217 11.5395 37.4448 11.5395 37.9666V55.5645C11.5395 56.0864 11.9625 56.5093 12.4843 56.5093Z" fill="#00C6C8"/>
<path d="M12.4843 37.0217H19.4741V56.5093H12.4843C11.9626 56.5093 11.5395 56.0862 11.5395 55.5645V37.9666C11.5395 37.4446 11.9626 37.0217 12.4843 37.0217Z" fill="#0FB0C0"/>
<path d="M49.902 63.4789H64.4932V37.9666C64.4932 37.4448 64.0701 37.0217 63.5483 37.0217H50.8468C50.325 37.0217 49.902 37.4448 49.902 37.9666V63.4789Z" fill="#00C6C8"/>
<path d="M50.8466 37.0217H57.8364V63.479H49.9018V37.9666C49.9018 37.4446 50.3249 37.0217 50.8466 37.0217Z" fill="#0FB0C0"/>
<path d="M53.9795 51.9661C53.3728 51.9661 52.8809 51.4742 52.8809 50.8674V48.8899C52.8809 48.2832 53.3728 47.7913 53.9795 47.7913C54.5862 47.7913 55.0781 48.2832 55.0781 48.8899V50.8674C55.0781 51.4742 54.5862 51.9661 53.9795 51.9661Z" fill="black"/>
<path d="M3.46992 62.3803H5.24868V31.8985C2.30215 31.377 0.056541 28.7997 0.056541 25.7058V21.4759C0.056541 21.4543 0.0585922 21.4333 0.0597641 21.412C0.0604965 21.4001 0.0605 21.3883 0.0615254 21.3764C0.0654805 21.3331 0.071485 21.2904 0.080274 21.2488C0.0807135 21.2463 0.0815925 21.244 0.0821784 21.2417C0.090821 21.2017 0.1021 21.1627 0.114991 21.1245C0.118213 21.1148 0.122021 21.1051 0.125536 21.0956C0.137695 21.0628 0.151173 21.0309 0.166261 20.9997C0.169044 20.9939 0.1708 20.9879 0.173584 20.9824L5.0313 11.3219V6.26904C5.0313 4.96504 6.09229 3.90405 7.39629 3.90405H57.3551C57.9618 3.90405 58.4537 4.39595 58.4537 5.00269C58.4537 5.60942 57.9618 6.10132 57.3551 6.10132H7.39629C7.30386 6.10132 7.22856 6.17661 7.22856 6.26904V10.4942H67.7714V6.26904C67.7714 6.17661 67.6961 6.10132 67.6037 6.10132H62.4668C61.8601 6.10132 61.3682 5.60942 61.3682 5.00269C61.3682 4.39595 61.8601 3.90405 62.4668 3.90405H67.6037C68.9077 3.90405 69.9687 4.96504 69.9687 6.26904V11.3219L74.8263 20.9824C74.8291 20.9881 74.831 20.9941 74.8336 20.9997C74.8487 21.0309 74.8622 21.0628 74.8743 21.0956C74.8778 21.1053 74.8816 21.1148 74.8849 21.1245C74.8978 21.1627 74.909 21.2017 74.9177 21.2417C74.9183 21.244 74.919 21.2463 74.9196 21.2488C74.9284 21.2906 74.9345 21.3331 74.9383 21.3764C74.9394 21.3883 74.9394 21.4001 74.9401 21.412C74.9413 21.4333 74.9433 21.4543 74.9433 21.4759V25.7058C74.9433 28.7995 72.6977 31.377 69.7512 31.8985V62.3803H71.5301C73.4435 62.3803 75 63.937 75 65.8504V69.3253C75 70.3018 74.2056 71.0961 73.2292 71.0961H1.77085C0.794383 71.0961 0 70.3018 0 69.3253V65.8504C0 63.937 1.55654 62.3803 3.46992 62.3803ZM2.25395 25.7059C2.25395 27.9631 4.09028 29.7994 6.34746 29.7994C8.60464 29.7994 10.441 27.9631 10.441 25.7059V22.5747H2.25395V25.7059ZM6.802 12.6915L2.93745 20.3772H10.7667L13.5271 12.6915H6.802ZM15.8619 12.6915L13.1016 20.3772H21.0366L22.6929 12.6915H15.8619ZM12.6381 22.5745V25.7058C12.6381 27.9629 14.4744 29.7993 16.7316 29.7993C18.9888 29.7993 20.8251 27.9629 20.8251 25.7058V22.5745H12.6381ZM24.9406 12.6915L23.2843 20.3772H31.2853L31.8374 12.6915H24.9406ZM23.0224 22.5745V25.7058C23.0224 27.9629 24.8587 29.7993 27.1157 29.7993C29.3728 29.7993 31.2092 27.9629 31.2092 25.7058V22.5745H23.0224ZM40.9597 12.6915H34.0405L33.4884 20.3772H41.5118L40.9597 12.6915ZM41.5935 22.5745H33.4065V25.7058C33.4065 27.9629 35.2428 29.7993 37.5 29.7993C39.7572 29.7993 41.5935 27.9629 41.5935 25.7058V22.5745ZM37.5 31.9965C35.3461 31.9965 33.4422 30.908 32.3079 29.2526C31.1735 30.908 29.2696 31.9965 27.1157 31.9965C24.9618 31.9965 23.058 30.908 21.9237 29.2526C20.7894 30.908 18.8855 31.9965 16.7316 31.9965C14.5777 31.9965 12.6738 30.908 11.5395 29.2526C10.6025 30.6199 9.14018 31.5987 7.44595 31.8985V62.3803H48.8033V37.9666C48.8033 36.8399 49.72 35.9232 50.8468 35.9232H63.5483C64.675 35.9232 65.5917 36.8399 65.5917 37.9666V62.3803H67.5539V31.8985C65.8597 31.5987 64.3973 30.6199 63.4604 29.2526C62.326 30.908 60.4222 31.9965 58.2683 31.9965C56.1144 31.9965 54.2105 30.908 53.0761 29.2526C51.9417 30.908 50.0379 31.9965 47.8841 31.9965C45.7304 31.9965 43.8264 30.908 42.692 29.2526C41.5578 30.908 39.6539 31.9965 37.5 31.9965ZM51.0006 38.1205V62.3803H63.3945V38.1205H51.0006ZM62.3619 25.7059V22.5747H54.1749V25.7059C54.1749 27.9631 56.0112 29.7994 58.2684 29.7994C60.5256 29.7994 62.3619 27.9629 62.3619 25.7059ZM50.0594 12.6915H43.1626L43.7147 20.3772H51.7157L50.0594 12.6915ZM51.9776 22.5745H43.7908V25.7058C43.7908 27.9629 45.6271 29.7993 47.8843 29.7993C50.1415 29.7993 51.9776 27.9629 51.9776 25.7058V22.5745ZM52.3072 12.6915L53.9635 20.3772H61.8986L59.1382 12.6915H52.3072ZM68.198 12.6915H61.4729L64.2333 20.3772H72.0625L68.198 12.6915ZM72.746 25.7059V22.5747H64.559V25.7059C64.559 27.9631 66.3954 29.7994 68.6525 29.7994C70.9097 29.7994 72.746 27.9629 72.746 25.7059ZM2.19727 68.8989H72.8027V65.8502C72.8027 65.1484 72.2319 64.5776 71.5301 64.5776H3.47007C2.76826 64.5776 2.19741 65.1484 2.19741 65.8502V68.8989H2.19727Z" fill="black"/>
<path d="M46.5088 37.9666V55.5646C46.5088 56.6914 45.5921 57.6081 44.4653 57.6081H12.4844C11.3577 57.6081 10.441 56.6914 10.441 55.5646V37.9666C10.441 36.8398 11.3577 35.9231 12.4844 35.9231H25.9189C26.5257 35.9231 27.0176 36.415 27.0176 37.0217C27.0176 37.6285 26.5257 38.1204 25.9189 38.1204H12.6381V55.4106H44.3115V38.1204H31.0913C30.4846 38.1204 29.9927 37.6285 29.9927 37.0217C29.9927 36.415 30.4846 35.9231 31.0913 35.9231H44.4653C45.5921 35.9231 46.5088 36.8396 46.5088 37.9666Z" fill="black"/>
</svg>
