<svg width="75" height="75" viewBox="0 0 75 75" fill="none" xmlns="http://www.w3.org/2000/svg">
<g clip-path="url(#clip0_683_1082)">
<path d="M40.6073 23.1465L48.2286 25.6547C50.6564 26.4538 52.2972 28.7211 52.2972 31.277V39.5715H37.4999H22.7026V31.277C22.7026 28.7209 24.3434 26.4538 26.7712 25.6547L34.3925 23.1465H40.6073Z" fill="#9BD069"/>
<path d="M25.958 37.648V32.9129C25.958 30.8349 25.3247 28.9021 24.2412 27.2971C23.2741 28.3619 22.7026 29.7692 22.7026 31.2772V39.5718H25.7715C25.8926 38.9486 25.958 38.306 25.958 37.648Z" fill="#7DBE3B"/>
<path d="M49.042 37.648V32.9129C49.042 30.8349 49.6752 28.9021 50.7588 27.2971C51.7259 28.3619 52.2973 29.7692 52.2973 31.2772V39.5718H49.2285C49.1073 38.9486 49.042 38.306 49.042 37.648Z" fill="#7DBE3B"/>
<path d="M37.5001 39.5716H47.5623V38.8317C47.5623 33.2834 43.0484 28.7695 37.5001 28.7695C31.9519 28.7695 27.438 33.2834 27.438 38.8317V39.5716H37.5001Z" fill="#7DBE3B"/>
<path d="M37.5 26.2541C35.7837 26.2541 34.3926 24.8628 34.3926 23.1467V19.2993H40.6075V23.1466C40.6073 24.8628 39.2162 26.2541 37.5 26.2541Z" fill="#AA7A63"/>
<path d="M44.6024 8.20137C44.6024 4.27866 41.4224 1.09863 37.4997 1.09863C33.577 1.09863 30.397 4.27866 30.397 8.20137V12.9365C30.397 16.8592 33.577 20.0392 37.4997 20.0392C41.4224 20.0392 44.6024 16.8592 44.6024 12.9365V8.20137Z" fill="#B78B7A"/>
<path d="M37.4998 1.09863C36.9395 1.09863 36.395 1.16558 35.8721 1.28818C39.0099 2.02427 41.3471 4.83896 41.3471 8.20122V12.9363C41.3471 16.2987 39.0099 19.1133 35.8721 19.8494C36.395 19.972 36.9394 20.0389 37.4998 20.0389C41.4225 20.0389 44.6025 16.8589 44.6025 12.9362V8.20137C44.6025 4.27866 41.4225 1.09863 37.4998 1.09863Z" fill="#AA7A63"/>
<path d="M62.2114 47.8579L69.8327 50.3662C72.2605 51.1652 73.9013 53.4325 73.9013 55.9884V64.2829H59.1041H44.3066V55.9884C44.3066 53.4324 45.9474 51.1652 48.3752 50.3662L55.9965 47.8579H62.2114Z" fill="#CBE2FF"/>
<path d="M55.2566 61.9075C55.2566 58.0646 52.8041 54.6756 49.1538 53.4741L45.5951 52.303C44.7807 53.3265 44.3066 54.6157 44.3066 55.9887V64.2832H55.2566V61.9075Z" fill="#BED8FB"/>
<path d="M69.8325 50.3664L69.4619 50.2444V64.2832H73.9011V55.9886C73.9011 53.4326 72.2604 51.1653 69.8325 50.3664Z" fill="#BED8FB"/>
<path d="M59.104 50.9656C57.3877 50.9656 55.9966 49.5743 55.9966 47.8583V44.011H62.2115V47.8583C62.2113 49.5743 60.8202 50.9656 59.104 50.9656Z" fill="#F1B986"/>
<path d="M66.2069 32.9128C66.2069 28.9901 63.0269 25.8101 59.1042 25.8101C55.1815 25.8101 52.0015 28.9901 52.0015 32.9128V37.6479C52.0015 41.5706 55.1815 44.7506 59.1042 44.7506C63.0269 44.7506 66.2069 41.5706 66.2069 37.6479V32.9128Z" fill="#F1D0A5"/>
<path d="M59.1038 25.8101C58.5435 25.8101 57.999 25.877 57.4761 25.9996C60.6139 26.7357 62.9511 29.5504 62.9511 32.9126V37.6478C62.9511 41.0102 60.6139 43.8247 57.4761 44.5608C57.999 44.6834 58.5434 44.7503 59.1038 44.7503C63.0265 44.7503 66.2065 41.5703 66.2065 37.6476V32.9125C66.2065 28.9901 63.0265 25.8101 59.1038 25.8101Z" fill="#F1B986"/>
<path d="M19.0034 47.8579L26.6247 50.3662C29.0525 51.1652 30.6933 53.4325 30.6933 55.9884V64.2829H15.8959H1.09863V55.9884C1.09863 53.4324 2.73926 51.1652 5.16724 50.3662L12.7885 47.8579H19.0034Z" fill="#FFE07D"/>
<path d="M26.6244 50.3663L26.254 50.2444V52.9105C26.254 53.1667 26.0895 53.3939 25.8461 53.4741C22.2042 54.6726 19.7432 58.0735 19.7432 61.9076V64.2832H30.6932V55.9886C30.6932 53.4326 29.0524 51.1653 26.6244 50.3663Z" fill="#FFD064"/>
<path d="M15.8959 50.9656C14.1797 50.9656 12.7886 49.5743 12.7886 47.8583V44.011H19.0035V47.8583C19.0035 49.5743 17.6122 50.9656 15.8959 50.9656Z" fill="#F1B986"/>
<path d="M22.9984 32.9128C22.9984 28.9901 19.8184 25.8101 15.8957 25.8101C11.973 25.8101 8.79297 28.9901 8.79297 32.9128V37.6479C8.79297 41.5706 11.973 44.7506 15.8957 44.7506C19.8184 44.7506 22.9984 41.5706 22.9984 37.6479V32.9128Z" fill="#F1D0A5"/>
<path d="M15.8958 25.8101C15.3355 25.8101 14.791 25.877 14.2681 25.9996C17.4059 26.7357 19.7431 29.5504 19.7431 32.9126V37.6478C19.7431 41.0102 17.4059 43.8247 14.2681 44.5608C14.791 44.6834 15.3354 44.7503 15.8958 44.7503C19.8185 44.7503 22.9985 41.5703 22.9985 37.6476V32.9125C22.9985 28.9901 19.8185 25.8101 15.8958 25.8101Z" fill="#F1B986"/>
<path d="M40.6073 53.7771L48.2286 56.2853C50.6564 57.0844 52.2972 59.3517 52.2972 61.9076V73.9014H37.4999H22.7026V61.9076C22.7026 59.3516 24.3434 57.0844 26.7712 56.2853L34.3925 53.7771H40.6073Z" fill="#E28086"/>
<path d="M48.2285 56.2854L47.8579 56.1633V73.9014H52.2971V61.9076C52.297 59.3517 50.6563 57.0844 48.2285 56.2854Z" fill="#DD636E"/>
<path d="M37.5 56.8846C35.7837 56.8846 34.3926 55.4933 34.3926 53.7772V49.9299H40.6075V53.7772C40.6073 55.4934 39.2162 56.8846 37.5 56.8846Z" fill="#AA7A63"/>
<path d="M44.6024 38.8317C44.6024 34.909 41.4224 31.729 37.4997 31.729C33.577 31.729 30.397 34.909 30.397 38.8317V43.5668C30.397 47.4895 33.577 50.6696 37.4997 50.6696C41.4224 50.6696 44.6024 47.4895 44.6024 43.5668V38.8317Z" fill="#B78B7A"/>
<path d="M37.4998 31.7292C36.9395 31.7292 36.395 31.7962 35.8721 31.9188C39.0099 32.6549 41.3471 35.4696 41.3471 38.8318V43.5669C41.3471 46.9293 39.0099 49.7439 35.8721 50.48C36.395 50.6026 36.9394 50.6695 37.4998 50.6695C41.4225 50.6695 44.6025 47.4895 44.6025 43.5668V38.8317C44.6025 34.9091 41.4225 31.7292 37.4998 31.7292Z" fill="#AA7A63"/>
<path d="M73.9014 58.7716C74.5083 58.7716 75 58.2797 75 57.6729V55.9893C75 52.9521 73.062 50.2729 70.1769 49.3222L63.3101 47.0628V44.6854C65.7012 43.2508 67.3053 40.6336 67.3053 37.6481V32.913C67.3053 28.3907 63.6262 24.7116 59.104 24.7116C56.4403 24.7116 54.07 25.989 52.5709 27.9623C51.7411 26.405 50.3338 25.1905 48.572 24.6119L41.706 22.3513V19.9739C44.0971 18.5394 45.7012 15.9221 45.7012 12.9366V8.20137C45.7014 3.6791 42.0223 0 37.5 0C32.9777 0 29.2986 3.6791 29.2986 8.20137V12.9365C29.2986 15.922 30.9028 18.5392 33.2938 19.9737V22.3512L26.4286 24.6116C24.6664 25.1905 23.2589 26.405 22.4291 27.9623C20.93 25.9888 18.5597 24.7116 15.896 24.7116C11.3738 24.7116 7.69468 28.3907 7.69468 32.913V37.6481C7.69468 40.6336 9.29883 43.2508 11.6899 44.6854V47.0628L4.82256 49.3223C1.93799 50.2729 0 52.9521 0 55.9893V57.6729C0 58.2797 0.491748 58.7716 1.09863 58.7716C1.70552 58.7716 2.19727 58.2797 2.19727 57.6729V55.9893C2.19727 53.9027 3.52866 52.0622 5.50972 51.4093L11.942 49.2927C12.5298 50.9077 14.0802 52.0641 15.8959 52.0641C17.7114 52.0641 19.2618 50.9076 19.8497 49.2927L26.2811 51.409C27.6908 51.8736 28.7832 52.9438 29.2884 54.3001L26.4278 55.2416C23.5425 56.1911 21.604 58.87 21.604 61.9074V63.1843H8.41216V60.4355C8.41216 59.8288 7.92041 59.3369 7.31353 59.3369C6.70664 59.3369 6.21489 59.8288 6.21489 60.4355V63.1843H2.19727V62.8049C2.19727 62.1981 1.70552 61.7062 1.09863 61.7062C0.491748 61.7062 0 62.1981 0 62.8049V64.2829C0 64.8897 0.491748 65.3815 1.09863 65.3815H21.604V73.9011C21.604 74.5078 22.0957 74.9997 22.7026 74.9997H52.2973C52.9041 74.9997 53.3959 74.5078 53.3959 73.9011V72.4336C53.3959 71.8269 52.9041 71.335 52.2973 71.335C51.6904 71.335 51.1986 71.8269 51.1986 72.4336V72.8027H47.1812V66.3548C47.1812 65.748 46.6894 65.2562 46.0825 65.2562C45.4756 65.2562 44.9839 65.748 44.9839 66.3548V72.8027H30.0161V66.3548C30.0161 65.748 29.5244 65.2562 28.9175 65.2562C28.3106 65.2562 27.8188 65.748 27.8188 66.3548V72.8027H23.8012V61.9077C23.8012 59.8213 25.1328 57.9812 27.1147 57.329L33.5462 55.2123C34.1342 56.827 35.6845 57.9834 37.5 57.9834C39.3155 57.9834 40.8658 56.8271 41.4538 55.2123L47.8853 57.329C49.8672 57.9813 51.1988 59.8213 51.1988 61.9077V67.3044C51.1988 67.9112 51.6905 68.4031 52.2974 68.4031C52.9043 68.4031 53.396 67.9112 53.396 67.3044V65.3818H73.9014C74.5083 65.3818 75 64.8899 75 64.2832V62.8052C75 62.1984 74.5083 61.7065 73.9014 61.7065C73.2945 61.7065 72.8027 62.1984 72.8027 62.8052V63.1846H68.7851V60.4358C68.7851 59.8291 68.2934 59.3372 67.6865 59.3372C67.0796 59.3372 66.5878 59.8291 66.5878 60.4358V63.1846H53.3959V61.9077C53.3959 58.8702 51.4573 56.1914 48.572 55.2419L45.7115 54.3004C46.2167 52.9443 47.3089 51.8741 48.7182 51.4094L55.1502 49.293C55.738 50.9079 57.2884 52.0644 59.104 52.0644C60.9196 52.0644 62.47 50.9079 63.0579 49.293L69.4895 51.4094C71.4713 52.0622 72.8027 53.9027 72.8027 55.9893V57.6729C72.8027 58.2797 73.2945 58.7716 73.9014 58.7716ZM59.104 26.9087C62.4146 26.9087 65.1081 29.6021 65.1081 32.9128V37.648C65.1081 40.9586 62.4145 43.652 59.104 43.652C55.7934 43.652 53.1 40.9586 53.1 37.648V32.9128C53.1 29.6021 55.7934 26.9087 59.104 26.9087ZM31.4959 12.9365V8.20137C31.4959 4.89067 34.1893 2.19727 37.5 2.19727C40.8107 2.19727 43.5041 4.89067 43.5041 8.20137V12.9365C43.5041 16.2472 40.8105 18.9406 37.5 18.9406C34.1895 18.9406 31.4959 16.2472 31.4959 12.9365ZM37.5 21.1378C38.1929 21.1378 38.8657 21.0507 39.5089 20.8881V23.1171C39.5086 23.1275 39.5087 23.1378 39.5089 23.148C39.508 24.255 38.6073 25.1553 37.5001 25.1553C36.393 25.1553 35.4921 24.255 35.4914 23.148C35.4914 23.1376 35.4916 23.1274 35.4914 23.1171V20.8881C36.1343 21.0505 36.8071 21.1378 37.5 21.1378ZM27.115 26.6988L33.5461 24.5814C34.1339 26.1962 35.6843 27.3526 37.4999 27.3526C39.3154 27.3526 40.8658 26.1962 41.4536 24.5814L47.8855 26.699C49.7219 27.3022 50.9955 28.9104 51.1734 30.8224C50.9972 31.49 50.9024 32.1905 50.9024 32.9128V37.648C50.9024 37.9263 50.9167 38.2014 50.9439 38.4727H45.692C45.5033 34.1165 41.9016 30.6303 37.4997 30.6303C33.0979 30.6303 29.4961 34.1165 29.3074 38.4727H24.0555C24.0828 38.2014 24.097 37.9263 24.097 37.648V32.9128C24.097 32.1905 24.0022 31.4902 23.826 30.8224C24.0042 28.9106 25.2779 27.3023 27.115 26.6988ZM37.5 49.5709C34.1893 49.5709 31.4959 46.8775 31.4959 43.5668V38.8317C31.4959 35.521 34.1895 32.8276 37.5 32.8276C40.8105 32.8276 43.5041 35.521 43.5041 38.8317V43.5668C43.5041 46.8775 40.8107 49.5709 37.5 49.5709ZM9.8918 37.648V32.9128C9.8918 29.6021 12.5854 26.9087 15.8959 26.9087C19.2064 26.9087 21.8999 29.6021 21.8999 32.9128V37.648C21.8999 40.9586 19.2064 43.652 15.8959 43.652C12.5854 43.652 9.8918 40.9586 9.8918 37.648ZM17.9046 47.8581C17.9046 48.9658 17.0036 49.8668 15.8959 49.8668C14.7882 49.8668 13.887 48.9656 13.887 47.8581V45.5996C14.5301 45.7622 15.2029 45.8493 15.8959 45.8493C16.5888 45.8493 17.2616 45.7622 17.9046 45.5996V47.8581ZM26.9684 49.3222L20.1021 47.0628V44.6852C21.6385 43.7634 22.8483 42.3526 23.5179 40.6699H29.2986V43.5668C29.2986 46.5523 30.9028 49.1695 33.2938 50.6041V52.9819L31.375 53.6134C30.6533 51.6003 29.0492 50.008 26.9684 49.3222ZM37.5 55.7859C36.3923 55.7859 35.4911 54.8848 35.4911 53.7771V53.7637C35.4911 53.7615 35.4911 53.7593 35.4911 53.7573V51.5186C36.1342 51.6812 36.807 51.7683 37.5 51.7683C38.193 51.7683 38.8657 51.6812 39.5089 51.5186V53.7573V53.7637V53.7771C39.5089 54.8848 38.6077 55.7859 37.5 55.7859ZM48.0312 49.3223C45.9508 50.008 44.3467 51.6003 43.6251 53.6136L41.7062 52.9821V50.6042C44.0972 49.1697 45.7014 46.5524 45.7014 43.5669V40.6699H51.4821C52.1517 42.3527 53.3615 43.7635 54.8979 44.6852V47.0628L48.0312 49.3223ZM59.104 49.8669C57.9962 49.8669 57.0952 48.9658 57.0952 47.8582V45.5997C57.7383 45.7623 58.4111 45.8495 59.104 45.8495C59.7968 45.8495 60.4696 45.7623 61.1128 45.5997V47.8582C61.1128 48.9658 60.2117 49.8669 59.104 49.8669Z" fill="black"/>
</g>
<defs>
<clipPath id="clip0_683_1082">
<rect width="75" height="75" fill="white"/>
</clipPath>
</defs>
</svg>
