<svg width="76" height="76" viewBox="0 0 76 76" fill="none" xmlns="http://www.w3.org/2000/svg">
<g clip-path="url(#clip0_683_1138)">
<path d="M57.1728 10.8057H55.813L53.1782 13.4584L52.8071 14.8314V20.6205L53.4387 21.6992H57.7027C58.4593 20.0492 59.5308 19.4961 61.4647 19.4961V16.0719C61.4649 13.486 59.6148 11.3112 57.1728 10.8057Z" fill="#BCED6B"/>
<path d="M41.5299 10.8057H39.9302L37.2583 13.6439V20.6947L37.7958 21.6992H42.0598C42.8164 20.0492 43.8878 19.4961 45.8218 19.4961V16.0719C45.822 13.486 43.9718 11.3112 41.5299 10.8057Z" fill="#FFE02F"/>
<path d="M25.8868 10.8057H24.4926L21.4248 13.4673V19.9525L22.1527 21.6992H26.4168C27.1733 20.0492 28.2448 19.4961 30.1788 19.4961V16.0719C30.1789 13.486 28.3288 11.3112 25.8868 10.8057Z" fill="#00D2FC"/>
<path d="M65.3756 28.6899H64.3235L61.4649 31.0483L61.1567 32.31V39.3359H69.2864V33.8611C69.2865 31.4115 67.6261 29.3325 65.3756 28.6899Z" fill="#B48ACA"/>
<path d="M22.1524 15.9233C22.1524 13.5383 23.7263 11.5042 25.8865 10.8055C25.5358 10.7329 25.1728 10.6946 24.8013 10.6946H19.9129C16.9555 10.6946 14.5356 13.1144 14.5356 16.0719V19.496C16.4696 19.496 17.3926 20.0491 18.1492 21.6991H22.1524V15.9233Z" fill="#00C2FB"/>
<path d="M37.7955 15.9233C37.7955 13.5383 39.3695 11.5042 41.5296 10.8055C41.1788 10.7329 40.8159 10.6946 40.4444 10.6946H35.556C32.5985 10.6946 30.1787 13.1144 30.1787 16.0719V19.496C32.1127 19.496 33.0357 20.0491 33.7923 21.6991H37.7955V15.9233Z" fill="#FBC700"/>
<path d="M53.4385 15.9233C53.4385 13.5383 55.0124 11.5042 57.1726 10.8055C56.8219 10.7329 56.459 10.6946 56.0874 10.6946H51.1991C48.2416 10.6946 45.8218 13.1144 45.8218 16.0719V19.496C47.7558 19.496 48.6789 20.0491 49.4353 21.6991H53.4384L53.4385 15.9233Z" fill="#98D829"/>
<path d="M30.1789 28.4837C32.8247 28.4837 34.9695 26.3388 34.9695 23.693C34.9695 21.0472 32.8247 18.9023 30.1789 18.9023C27.533 18.9023 25.3882 21.0472 25.3882 23.693C25.3882 26.3388 27.533 28.4837 30.1789 28.4837Z" fill="#FFCEBE"/>
<path d="M14.5358 28.4837C17.1816 28.4837 19.3265 26.3388 19.3265 23.693C19.3265 21.0472 17.1816 18.9023 14.5358 18.9023C11.89 18.9023 9.74512 21.0472 9.74512 23.693C9.74512 26.3388 11.89 28.4837 14.5358 28.4837Z" fill="#FFCEBE"/>
<path d="M61.465 28.4837C64.1108 28.4837 66.2557 26.3388 66.2557 23.693C66.2557 21.0472 64.1108 18.9023 61.465 18.9023C58.8192 18.9023 56.6743 21.0472 56.6743 23.693C56.6743 26.3388 58.8192 28.4837 61.465 28.4837Z" fill="#FFCEBE"/>
<path d="M45.8219 28.4837C48.4677 28.4837 50.6126 26.3388 50.6126 23.693C50.6126 21.0472 48.4677 18.9023 45.8219 18.9023C43.1761 18.9023 41.0312 21.0472 41.0312 23.693C41.0312 26.3388 43.1761 28.4837 45.8219 28.4837Z" fill="#FFCEBE"/>
<path d="M34.0898 28.6899H32.2114L29.5767 31.4936V39.3359H38.0005V33.8609C38.0005 31.4117 36.3401 29.3327 34.0898 28.6899Z" fill="#FF94D5"/>
<path d="M34.0896 28.69C33.6228 28.5567 33.1312 28.4836 32.6231 28.4836H27.7347C24.7772 28.4836 22.3574 30.9035 22.3574 33.8609V39.3359H30.1789V33.8609C30.1789 31.4117 31.8393 29.3327 34.0896 28.69Z" fill="#FF72C7"/>
<path d="M16.98 28.4836H12.0915C9.13403 28.4836 6.71436 30.9033 6.71436 33.8609V39.3358H22.3573V33.8609C22.3573 30.9033 19.9375 28.4836 16.98 28.4836Z" fill="#FFE02F"/>
<path d="M18.4466 28.69C17.9797 28.5567 17.4881 28.4836 16.98 28.4836H12.0915C9.13403 28.4836 6.71436 30.9035 6.71436 33.8609V39.3358H14.5358V33.8609C14.5358 31.4116 16.1962 29.3326 18.4466 28.69Z" fill="#FBC700"/>
<path d="M65.3756 28.69C64.9088 28.5567 64.4172 28.4836 63.909 28.4836H59.0207C56.0632 28.4836 53.6436 30.9035 53.6436 33.8609V39.3358H61.465V33.8609C61.465 31.4116 63.1253 29.3326 65.3756 28.69Z" fill="#A374C0"/>
<path d="M49.7326 28.6899H47.6489L45.6172 31.8276V39.3359H53.6433V33.8609C53.6432 31.4117 51.9829 29.3327 49.7326 28.6899Z" fill="#5291D9"/>
<path d="M49.7327 28.69C49.2659 28.5567 48.7742 28.4836 48.2661 28.4836H43.3778C40.4203 28.4836 38.0005 30.9035 38.0005 33.8609V39.3359H45.822V33.8609C45.822 31.4117 47.4824 29.3327 49.7327 28.69Z" fill="#0972D0"/>
<path d="M22.3571 10.6946C25.0029 10.6946 27.1477 8.54977 27.1477 5.90395C27.1477 3.25814 25.0029 1.11328 22.3571 1.11328C19.7113 1.11328 17.5664 3.25814 17.5664 5.90395C17.5664 8.54977 19.7113 10.6946 22.3571 10.6946Z" fill="#FFCEBE"/>
<path d="M53.6432 10.6946C56.289 10.6946 58.4339 8.54977 58.4339 5.90395C58.4339 3.25814 56.289 1.11328 53.6432 1.11328C50.9974 1.11328 48.8525 3.25814 48.8525 5.90395C48.8525 8.54977 50.9974 10.6946 53.6432 10.6946Z" fill="#FFCEBE"/>
<path d="M38.0001 10.6946C40.646 10.6946 42.7908 8.54977 42.7908 5.90395C42.7908 3.25814 40.646 1.11328 38.0001 1.11328C35.3543 1.11328 33.2095 3.25814 33.2095 5.90395C33.2095 8.54977 35.3543 10.6946 38.0001 10.6946Z" fill="#FFCEBE"/>
<path d="M73.7436 38.0002H69.7418L66.6482 38.9421H35.2534L32.8708 38.0002H17.2711L16.7358 38.5355L16.3647 40.3168L16.7358 43.2113L17.7062 44.6559L17.5894 46.3657L19.7046 53.4907L23.9351 61.3951L25.5679 62.6939L26.6756 62.8548L28.3141 66.0338L35.7731 71.9342L41.822 73.4928L44.8078 74.2558C61.5156 71.1334 74.3299 56.7357 74.8686 39.1535C74.8879 38.5214 74.3758 38.0002 73.7436 38.0002Z" fill="#00D2FC"/>
<path d="M17.1244 39.1532C17.105 38.5213 17.6171 38 18.2493 38H11.0058L6.90163 39.7599L1.93502 42.6544V45.7684H1.93457C5.50215 62.4096 20.2927 74.8866 37.9994 74.8866C40.7425 74.8866 43.4174 74.5848 45.9934 74.0148C29.8299 70.4405 17.6501 56.2645 17.1244 39.1532Z" fill="#00C2FB"/>
<path d="M17.5894 46.3655L19.7046 53.4905L23.9351 61.3948L25.5679 62.6937L26.6755 62.8546C26.9712 57.1388 32.0956 55.9562 30.2232 49.6493C28.7719 44.7608 22.703 44.5494 17.7062 44.6557L17.5894 46.3655Z" fill="#BCED6B"/>
<path d="M26.6758 62.8547C26.677 62.8323 26.6789 62.8105 26.6801 62.7881C22.149 57.7983 18.9652 51.5633 17.7064 44.6557C16.2564 44.6866 14.8964 44.744 13.7661 44.7219C8.77261 44.6239 10.9774 41.9967 11.0062 38H2.25526C1.61742 38 1.1114 38.5299 1.13143 39.1675C1.20224 41.4249 1.47715 43.6307 1.93553 45.7684C5.31147 47.7115 6.96686 45.7114 8.34615 48.5651C10.2514 52.5071 12.3538 54.2151 16.9526 56.449C21.5515 58.6827 19.4492 65.384 21.7487 68.8003C22.5143 69.9378 23.5714 71.2571 24.702 72.4143C26.6736 73.1767 28.7268 73.7742 30.8453 74.1905C31.6389 71.6197 26.3969 68.2454 26.6758 62.8547Z" fill="#98D829"/>
<path d="M41.8984 38.0002L41.2656 39.2654L42.7748 41.8879L45.6173 43.1744L55.3556 43.7187L57.0001 46.2916L57.4454 55.6432L58.633 58.6614L60.0715 59.331C61.2786 57.6636 62.1506 55.8668 62.6547 54.767C63.8475 52.1649 63.0885 45.3343 66.8833 43.3826C69.0265 42.2805 69.7513 40.0371 69.7422 38.0002H41.8984Z" fill="#BCED6B"/>
<path d="M58.2531 45.8918C57.6025 41.7718 53.8078 42.6391 48.1698 42.5307C44.4224 42.4586 42.6406 41.2331 41.8981 38.0002H32.8711C33.1214 43.9397 34.6641 45.999 39.5605 46.0933C45.1985 46.2016 48.9932 45.3343 49.6438 49.4544C50.2942 53.5744 48.4511 62.7902 53.3301 63.3323C56.2552 63.6573 58.5954 61.4491 60.2579 59.0677C57.5285 56.7426 58.8124 49.4339 58.2531 45.8918Z" fill="#98D829"/>
<path d="M73.7438 36.8869H70.3992V33.8609C70.3992 30.9514 68.4748 28.483 65.832 27.6614C66.786 26.6124 67.3684 25.2194 67.3684 23.693C67.3684 20.8182 65.3025 18.4181 62.5777 17.8958V16.0719C62.5777 13.1624 60.6533 10.694 58.0106 9.87236C58.9647 8.82334 59.5468 7.43039 59.5468 5.904C59.5468 2.64859 56.8984 0 53.6428 0C50.3873 0 47.739 2.64859 47.739 5.904C47.739 7.43039 48.3212 8.82334 49.2752 9.87236C47.8533 10.3144 46.6395 11.2331 45.8213 12.4409C45.0031 11.2332 43.7895 10.3146 42.3676 9.87251C43.3216 8.82349 43.9038 7.43054 43.9038 5.90415C43.9038 2.64859 41.2553 0 37.9999 0C34.7445 0 32.0959 2.64859 32.0959 5.904C32.0959 7.43039 32.6781 8.82334 33.6323 9.87236C32.2104 10.3144 30.9966 11.2332 30.1784 12.4409C29.3602 11.2332 28.1466 10.3146 26.7247 9.87251C27.6787 8.82349 28.2609 7.43054 28.2609 5.90415C28.2607 2.64859 25.6123 0 22.3569 0C19.1015 0 16.4527 2.64859 16.4527 5.904C16.4527 7.43039 17.0349 8.82334 17.9891 9.87236C15.3463 10.694 13.4219 13.1624 13.4219 16.0719V17.8958C10.697 18.418 8.63134 20.8181 8.63134 23.693C8.63134 25.2194 9.21351 26.6124 10.1675 27.6614C7.52488 28.483 5.60052 30.9514 5.60052 33.8609V36.8869H2.25575H2.2553C1.02059 36.8869 -0.0214486 37.9034 0.0181845 39.1875C0.0183329 39.1921 0.0186298 39.1969 0.0187783 39.2015V39.2024C0.658846 59.6335 17.3877 75.9999 37.9999 75.9999C45.4659 75.9999 52.6967 73.8321 58.9105 69.7308C59.4236 69.3921 59.5649 68.7014 59.2264 68.1883C58.8876 67.6751 58.1969 67.534 57.6838 67.8724C51.8352 71.7328 45.0285 73.7733 37.9999 73.7733C35.9611 73.7733 33.9642 73.6039 32.0208 73.2822C31.8866 72.0555 31.0904 70.829 30.2596 69.5492C29.6114 68.5508 28.8769 67.4192 28.3847 66.1984C28.155 65.6283 27.5066 65.3522 26.9359 65.5821C26.3656 65.8121 26.0897 66.4606 26.3196 67.0309C26.892 68.4513 27.6889 69.6787 28.3919 70.7617C28.8617 71.4854 29.3166 72.186 29.5805 72.7746C28.1378 72.4263 26.7143 71.9873 25.3304 71.4633C24.3667 70.4557 23.4062 69.2699 22.672 68.1789C21.9071 67.0423 21.7092 65.3286 21.4999 63.5144C21.1505 60.4882 20.7546 57.0583 17.4389 55.4478C12.7919 53.1906 11.053 51.6071 9.34844 48.0808C8.29646 45.9044 6.86091 45.7862 5.59428 45.682C4.79509 45.6162 3.97185 45.5486 2.92001 45.0326C2.55426 43.1962 2.31765 41.1699 2.25575 39.1134L9.82657 39.114C9.76971 39.6576 9.68481 40.1743 9.60628 40.6527C9.36284 42.1348 9.13306 43.5347 10.0154 44.5947C10.6986 45.4153 11.8486 45.7978 13.7442 45.835C14.579 45.8508 15.5247 45.8258 16.5255 45.7988C21.5618 45.6637 27.8285 45.4939 29.1562 49.9662C30.0821 53.0851 29.0954 54.657 27.8461 56.6473C27.0645 57.8927 26.1786 59.3042 25.7753 61.1861C25.6466 61.7874 26.0295 62.3791 26.6307 62.508C27.2326 62.637 27.8236 62.2538 27.9526 61.6525C28.2733 60.1549 28.982 59.0262 29.732 57.831C31.0309 55.7616 32.5031 53.4161 31.2906 49.3324C30.4814 46.6065 28.3519 44.8277 24.9614 44.0461C22.2343 43.4174 19.1694 43.5001 16.4655 43.573C15.4916 43.5994 14.5722 43.6243 13.7878 43.6086C12.1881 43.5773 11.8056 43.265 11.7266 43.17C11.4949 42.8916 11.6518 41.9367 11.8035 41.0135C11.8988 40.4337 12.0013 39.8015 12.0631 39.1142L31.8221 39.1158C32.0318 41.8971 32.5821 43.6733 33.609 44.9398C34.8351 46.4519 36.664 47.1509 39.5391 47.2063C40.4983 47.2246 41.3834 47.2155 42.2392 47.2068C46.9543 47.1593 48.1907 47.3898 48.5443 49.6279C48.7059 50.6516 48.7 52.0983 48.6936 53.6297C48.6845 55.7859 48.6746 58.2301 49.1431 60.1992C49.7578 62.7811 51.125 64.2076 53.2073 64.4389C58.1282 64.9863 61.6179 59.7005 63.6666 55.2309C64.1244 54.2321 64.3116 52.8883 64.5283 51.3323C64.9142 48.5622 65.3514 45.4222 67.3923 44.3726C69.3129 43.3848 70.516 41.5033 70.7927 39.1191L73.756 39.1194C73.4554 48.9322 69.0557 58.2959 61.6851 64.8086C61.2243 65.2156 61.1809 65.9192 61.588 66.38C61.995 66.8407 62.6986 66.8842 63.1594 66.4771C70.9647 59.58 75.6563 49.811 75.9815 39.1875C76.0002 38.5802 75.7771 38.0052 75.3532 37.568C74.9332 37.1352 74.3468 36.8869 73.7438 36.8869ZM5.4117 47.901C6.54177 47.9941 6.84547 48.019 7.34363 49.0496C9.47595 53.4614 11.9843 55.2737 16.4662 57.4505C18.683 58.5273 18.9633 60.9566 19.288 63.7695C19.5242 65.8153 19.7613 67.8522 20.8474 69.4543C12.4504 64.9009 6.11723 57.0815 3.52505 47.6176C4.25507 47.8047 4.88578 47.8578 5.4117 47.901ZM68.1726 33.8609V36.8867H54.7561V33.8609C54.7561 31.5098 56.6689 29.5969 59.02 29.5969H63.9086C66.2597 29.597 68.1726 31.5098 68.1726 33.8609ZM36.0162 22.8125H39.9834C39.9402 23.0999 39.9175 23.3939 39.9175 23.6932C39.9175 25.2196 40.4996 26.6125 41.4536 27.6615C40.0318 28.1036 38.818 29.0224 37.9998 30.2301C37.1817 29.0224 35.968 28.1037 34.5461 27.6615C35.5001 26.6125 36.0822 25.2196 36.0822 23.6932C36.0822 23.3938 36.0594 23.0999 36.0162 22.8125ZM39.1131 33.8609C39.1131 31.5098 41.026 29.5969 43.3773 29.5969H48.2656C50.6168 29.5969 52.5297 31.5098 52.5297 33.8609V36.8867H39.1132V33.8609H39.1131ZM50.189 27.6614C51.143 26.6124 51.7252 25.2194 51.7252 23.693C51.7252 23.3938 51.7024 23.0999 51.6593 22.8125H55.6264C55.5832 23.0999 55.5605 23.3938 55.5605 23.693C55.5605 25.2194 56.1427 26.6124 57.0967 27.6614C55.6748 28.1034 54.461 29.0223 53.6428 30.23C52.8248 29.0223 51.6109 28.1034 50.189 27.6614ZM61.4515 20.0161C61.4558 20.0161 61.4601 20.0158 61.4644 20.0158C63.4922 20.0158 65.1418 21.6654 65.1418 23.693C65.1418 25.7207 63.4922 27.3703 61.4644 27.3703C59.4367 27.3703 57.7871 25.7207 57.7871 23.693C57.7869 21.6596 59.4438 20.0227 61.4515 20.0161ZM53.6428 2.22658C55.6705 2.22658 57.3201 3.87618 57.3201 5.904C57.3201 7.93167 55.6705 9.58127 53.6428 9.58127C51.6152 9.58127 49.9656 7.93167 49.9656 5.904C49.9656 3.87618 51.6152 2.22658 53.6428 2.22658ZM46.9346 16.0719C46.9346 13.7208 48.8475 11.8078 51.1986 11.8078H56.0872C58.4383 11.8078 60.3512 13.7208 60.3512 16.0719V17.8956C60.3499 17.8959 60.3486 17.8962 60.3472 17.8965C58.6871 18.2159 57.2826 19.2357 56.4451 20.5859H50.8408C50.0062 19.2403 48.6197 18.2232 46.9347 17.8956V16.0719H46.9346ZM45.8084 20.0161C45.8127 20.0161 45.817 20.0158 45.8213 20.0158C45.8255 20.0158 45.8295 20.0161 45.8336 20.0161C47.8695 20.0233 49.4986 21.6841 49.4986 23.693C49.4986 25.7207 47.849 27.3703 45.8213 27.3703C43.7936 27.3703 42.144 25.7207 42.144 23.693C42.144 21.6608 43.8005 20.0227 45.8084 20.0161ZM37.9999 2.22658C40.0276 2.22658 41.6772 3.87618 41.6772 5.904C41.6772 7.93167 40.0276 9.58127 37.9999 9.58127C35.9721 9.58127 34.3225 7.93167 34.3225 5.904C34.3224 3.87618 35.972 2.22658 37.9999 2.22658ZM31.2915 16.0719C31.2915 13.7208 33.2045 11.8078 35.5556 11.8078H40.4441C42.7952 11.8078 44.7082 13.7208 44.7082 16.0719V17.8956C43.0225 18.2234 41.6321 19.2482 40.8022 20.5858H35.1976C34.3562 19.2311 32.968 18.2216 31.2917 17.8956V16.0719H31.2915ZM30.1653 20.0161C30.1696 20.0161 30.1739 20.0158 30.1782 20.0158C30.1824 20.0158 30.1864 20.0161 30.1906 20.0161C32.2019 20.0232 33.8555 21.6614 33.8555 23.693C33.8555 25.7207 32.2059 27.3703 30.1782 27.3703C28.1506 27.3703 26.501 25.7207 26.501 23.693C26.501 21.6594 28.1573 20.0227 30.1653 20.0161ZM22.3569 2.22658C24.3845 2.22658 26.0341 3.87618 26.0341 5.904C26.0341 7.93167 24.3845 9.58127 22.3569 9.58127C20.329 9.58127 18.6794 7.93167 18.6794 5.904C18.6793 3.87618 20.329 2.22658 22.3569 2.22658ZM15.6485 16.0719C15.6485 13.7208 17.5614 11.8078 19.9125 11.8078H24.8011C27.1522 11.8078 29.0651 13.7208 29.0651 16.0719V17.8956C27.383 18.2226 25.9933 19.2412 25.1591 20.5858H19.5546C18.7186 19.2399 17.3223 18.2177 15.6526 17.8965C15.6513 17.8962 15.65 17.8959 15.6486 17.8956L15.6485 16.0719ZM14.5352 20.0158C14.5393 20.0158 14.5434 20.0161 14.5475 20.0161C16.5652 20.0233 18.2125 21.667 18.2125 23.693C18.2125 25.7207 16.5629 27.3703 14.5352 27.3703C12.5075 27.3703 10.8579 25.7207 10.8579 23.693C10.8579 21.6654 12.5075 20.0158 14.5352 20.0158ZM21.2434 33.8609V36.8867H7.8271V33.8609C7.8271 31.5098 9.73988 29.5969 12.091 29.5969H16.9795C19.3299 29.5969 21.2421 31.5082 21.2436 33.858C21.2434 33.8592 21.2434 33.86 21.2434 33.8609ZM22.3567 30.2298C21.5385 29.0221 20.3247 28.1034 18.9028 27.6614C19.8569 26.6124 20.439 25.2194 20.439 23.693C20.439 23.3938 20.4163 23.0999 20.3731 22.8124H24.3403C24.2971 23.0997 24.2744 23.3938 24.2744 23.693C24.2744 25.2194 24.8566 26.6124 25.8106 27.6614C24.3887 28.1034 23.1749 29.0221 22.3567 30.2298ZM23.4702 36.8867V33.8609C23.4702 33.86 23.4702 33.859 23.4702 33.8581C23.4716 31.5083 25.384 29.597 27.7342 29.597H32.6226C34.9737 29.597 36.8866 31.51 36.8866 33.8611V36.8869L23.4702 36.8867ZM66.3741 42.3924C63.3056 43.9705 62.7608 47.882 62.3231 51.025C62.1386 52.3499 61.9643 53.6011 61.6425 54.303C59.1223 59.8015 56.2883 62.5399 53.4533 62.2258C51.075 61.9616 50.9007 58.3425 50.9203 53.6386C50.927 52.015 50.9334 50.4812 50.7438 49.2804C50.425 47.2606 49.4088 45.9958 47.6375 45.4135C45.6423 44.7575 42.8853 45.045 39.5821 44.9799C36.0977 44.9129 34.466 44.0478 34.055 39.116L68.5467 39.1188C68.366 40.2713 67.8278 41.6449 66.3741 42.3924Z" fill="black"/>
</g>
<defs>
<clipPath id="clip0_683_1138">
<rect width="76" height="76" fill="white"/>
</clipPath>
</defs>
</svg>
