<svg width="76" height="76" viewBox="0 0 76 76" fill="none" xmlns="http://www.w3.org/2000/svg">
<path d="M38 76C58.9868 76 76 58.9868 76 38C76 17.0132 58.9868 0 38 0C17.0132 0 1.71734e-05 17.0132 1.71734e-05 38C1.71734e-05 58.9868 17.0132 76 38 76Z" fill="#FAC1C9"/>
<path d="M38 0C30.4843 0 23.1374 2.22866 16.8883 6.40415C10.6393 10.5796 5.76872 16.5144 2.89259 23.458C0.0164648 30.4016 -0.736062 38.0421 0.730176 45.4134C2.19641 52.7847 5.81556 59.5556 11.13 64.87C16.4444 70.1844 23.2153 73.8036 30.5866 75.2698C37.9579 76.7361 45.5984 75.9835 52.542 73.1074C59.4856 70.2313 65.4204 65.3607 69.5958 59.1117C73.7713 52.8626 76 45.5157 76 38C76 27.9218 71.9964 18.2563 64.8701 11.1299C57.7437 4.00356 48.0782 0 38 0ZM38 70.5714C31.558 70.5714 25.2606 68.6611 19.9043 65.0821C14.548 61.5031 10.3732 56.4162 7.90794 50.4645C5.44269 44.5129 4.79766 37.9639 6.05444 31.6456C7.31121 25.3274 10.4133 19.5237 14.9685 14.9685C19.5237 10.4133 25.3274 7.3112 31.6456 6.05442C37.9639 4.79765 44.5129 5.44267 50.4646 7.90792C56.4162 10.3732 61.5032 14.5479 65.0822 19.9043C68.6611 25.2606 70.5714 31.558 70.5714 38C70.5714 46.6385 67.1398 54.9231 61.0315 61.0315C54.9232 67.1398 46.6385 70.5714 38 70.5714ZM51.5714 28.5C51.5714 30.6069 51.0809 32.6849 50.1387 34.5693C49.1964 36.4538 47.8284 38.093 46.1429 39.3571L41.8 42.6143C41.4629 42.8671 41.1893 43.1949 41.0009 43.5718C40.8124 43.9487 40.7143 44.3643 40.7143 44.7857V50.2143C40.7143 50.9341 40.4283 51.6245 39.9193 52.1336C39.4103 52.6426 38.7199 52.9286 38 52.9286C37.2801 52.9286 36.5897 52.6426 36.0807 52.1336C35.5717 51.6245 35.2857 50.9341 35.2857 50.2143V44.7857C35.2857 43.5216 35.58 42.2748 36.1454 41.1441C36.7107 40.0134 37.5316 39.0299 38.5429 38.2714L42.8857 35.0143C43.9961 34.1815 44.8752 33.0787 45.4395 31.8105C46.0038 30.5424 46.2346 29.1511 46.11 27.7687C45.9853 26.3863 45.5094 25.0587 44.7273 23.912C43.9453 22.7653 42.8831 21.8375 41.6416 21.2168C40.4001 20.5961 39.0206 20.303 37.634 20.3654C36.2474 20.4278 34.8998 20.8436 33.7191 21.5733C32.5384 22.303 31.5638 23.3224 30.8879 24.5347C30.212 25.747 29.8572 27.112 29.8572 28.5C29.8572 29.2199 29.5712 29.9103 29.0622 30.4193C28.5531 30.9283 27.8627 31.2143 27.1429 31.2143C26.423 31.2143 25.7326 30.9283 25.2236 30.4193C24.7146 29.9103 24.4286 29.2199 24.4286 28.5C24.4286 24.9006 25.8584 21.4487 28.4036 18.9035C30.9487 16.3584 34.4006 14.9286 38 14.9286C41.5994 14.9286 45.0513 16.3584 47.5965 18.9035C50.1416 21.4487 51.5714 24.9006 51.5714 28.5ZM40.7143 58.3571C40.7143 58.894 40.5551 59.4187 40.2569 59.8651C39.9586 60.3115 39.5347 60.6594 39.0387 60.8648C38.5427 61.0702 37.997 61.124 37.4705 61.0193C36.944 60.9145 36.4603 60.656 36.0807 60.2764C35.7011 59.8968 35.4426 59.4132 35.3379 58.8867C35.2331 58.3601 35.2869 57.8144 35.4923 57.3184C35.6978 56.8224 36.0457 56.3985 36.492 56.1003C36.9384 55.802 37.4632 55.6428 38 55.6428C38.7199 55.6428 39.4103 55.9288 39.9193 56.4378C40.4283 56.9469 40.7143 57.6373 40.7143 58.3571Z" fill="#EF314C"/>
</svg>
