<svg width="75" height="75" viewBox="0 0 75 75" fill="none" xmlns="http://www.w3.org/2000/svg">
<g clip-path="url(#clip0_683_1053)">
<path d="M35.1563 59.7656C37.8797 59.7654 40.4974 58.7116 42.4613 56.8249C44.4252 54.9381 45.5831 52.3647 45.6925 49.6436L45.2839 49.5693C44.7438 49.4711 44.2553 49.1864 43.9036 48.7649C43.5519 48.3433 43.3593 47.8117 43.3594 47.2627V39.8438H26.9532V47.2627C26.9532 47.8116 26.7605 48.3431 26.4088 48.7645C26.0571 49.1859 25.5687 49.4705 25.0287 49.5687L24.6201 49.643C24.7293 52.3643 25.8871 54.9378 27.8511 56.8246C29.815 58.7115 32.4328 59.7654 35.1563 59.7656Z" fill="#FAC7B7"/>
<path d="M60.4805 52.3317L45.6924 49.6436C45.5831 52.3647 44.4252 54.9381 42.4613 56.8249C40.4973 58.7116 37.8796 59.7654 35.1562 59.7656C32.4329 59.7654 29.8152 58.7116 27.8512 56.8249C25.8873 54.9381 24.7294 52.3647 24.6201 49.6436L9.83203 52.3317C7.40194 52.7735 5.20399 54.0542 3.62138 55.9505C2.03878 57.8468 1.1719 60.2384 1.17188 62.7083V75H69.1406V62.7083C69.1406 60.2384 68.2737 57.8468 66.6911 55.9505C65.1085 54.0542 62.9106 52.7735 60.4805 52.3317Z" fill="#5FC4B8"/>
<path d="M60.4805 52.3318L58.3059 51.9363C49.1417 64.4944 34.3146 72.6563 17.5781 72.6563C11.9955 72.6612 6.45097 71.7368 1.17188 69.921V75.0001H69.1406V62.7084C69.1406 60.2385 68.2737 57.8469 66.6911 55.9506C65.1085 54.0543 62.9106 52.7736 60.4805 52.3318Z" fill="#50B5A6"/>
<path d="M24.6092 15.2344L28.7153 17.9717C30.6226 19.2433 32.8637 19.9219 35.156 19.9219C37.4484 19.9219 39.6895 19.2433 41.5968 17.9717L45.7029 15.2344C45.7029 15.2344 50.7685 16.0794 52.3 19.9187C53.2104 9.9977 45.3938 1.17188 35.156 1.17188C24.9182 1.17188 17.1017 9.9977 18.0121 19.9187C19.5436 16.0794 24.6092 15.2344 24.6092 15.2344Z" fill="#525252"/>
<path d="M51.4489 24.6094L52.017 21.8366C52.1466 21.203 52.2411 20.5627 52.3 19.9187C50.7685 16.0794 45.7029 15.2344 45.7029 15.2344L41.5968 17.9717C39.6895 19.2433 37.4484 19.9219 35.1561 19.9219C32.8637 19.9219 30.6226 19.2433 28.7153 17.9717L24.6092 15.2344C24.6092 15.2344 19.5436 16.0794 18.0121 19.9187C18.071 20.5627 18.1655 21.203 18.2951 21.8366L18.8632 24.6094C18.4326 24.6094 18.0077 24.7075 17.6207 24.8963C17.2337 25.0851 16.8948 25.3596 16.6299 25.699C16.3649 26.0384 16.1807 26.4338 16.0914 26.855C16.0021 27.2762 16.01 27.7123 16.1144 28.13L16.7824 30.8019C17.0096 31.7109 17.5342 32.5178 18.2727 33.0945C19.0112 33.6711 19.9213 33.9844 20.8583 33.9844C21.8025 37.0389 23.7001 39.7109 26.273 41.6088C28.8458 43.5067 31.9589 44.5309 35.1561 44.5312C38.3532 44.5309 41.4663 43.5067 44.0392 41.6088C46.6121 39.7109 48.5096 37.0389 49.4538 33.9844C50.3908 33.9844 51.3009 33.6711 52.0394 33.0945C52.7779 32.5178 53.3025 31.7109 53.5297 30.8019L54.1977 28.13C54.3022 27.7123 54.31 27.2762 54.2207 26.855C54.1314 26.4338 53.9473 26.0384 53.6823 25.699C53.4173 25.3596 53.0784 25.0851 52.6914 24.8963C52.3045 24.7075 51.8795 24.6094 51.4489 24.6094Z" fill="#FFE7DE"/>
<path d="M28.7109 10.5469C30.0054 10.5469 31.0547 9.49754 31.0547 8.20312C31.0547 6.90871 30.0054 5.85938 28.7109 5.85938C27.4165 5.85938 26.3672 6.90871 26.3672 8.20312C26.3672 9.49754 27.4165 10.5469 28.7109 10.5469Z" fill="#848484"/>
<path d="M34.5703 12.3047C35.5411 12.3047 36.3281 11.5177 36.3281 10.5469C36.3281 9.57606 35.5411 8.78906 34.5703 8.78906C33.5995 8.78906 32.8125 9.57606 32.8125 10.5469C32.8125 11.5177 33.5995 12.3047 34.5703 12.3047Z" fill="#848484"/>
<path d="M12.3047 60.3516C13.5991 60.3516 14.6484 59.3022 14.6484 58.0078C14.6484 56.7134 13.5991 55.6641 12.3047 55.6641C11.0103 55.6641 9.96094 56.7134 9.96094 58.0078C9.96094 59.3022 11.0103 60.3516 12.3047 60.3516Z" fill="#97E5DE"/>
<path d="M18.1641 62.1094C19.1349 62.1094 19.9219 61.3224 19.9219 60.3516C19.9219 59.3807 19.1349 58.5938 18.1641 58.5938C17.1932 58.5938 16.4062 59.3807 16.4062 60.3516C16.4062 61.3224 17.1932 62.1094 18.1641 62.1094Z" fill="#97E5DE"/>
<path d="M25.7812 26.3672C27.0757 26.3672 28.125 25.3179 28.125 24.0234C28.125 22.729 27.0757 21.6797 25.7812 21.6797C24.4868 21.6797 23.4375 22.729 23.4375 24.0234C23.4375 25.3179 24.4868 26.3672 25.7812 26.3672Z" fill="#FFF5F2"/>
<path d="M31.6406 28.125C32.6114 28.125 33.3984 27.338 33.3984 26.3672C33.3984 25.3964 32.6114 24.6094 31.6406 24.6094C30.6698 24.6094 29.8828 25.3964 29.8828 26.3672C29.8828 27.338 30.6698 28.125 31.6406 28.125Z" fill="#FFF5F2"/>
<path d="M26.0962 41.4733C28.6992 43.4584 31.8825 44.5329 35.1561 44.5313C38.3533 44.5309 41.4663 43.5068 44.0392 41.6089C46.6121 39.7109 48.5096 37.039 49.4539 33.9844C50.3908 33.9844 51.3009 33.6712 52.0394 33.0945C52.778 32.5179 53.3025 31.7109 53.5298 30.8019L54.1978 28.13C54.3022 27.7123 54.3101 27.2763 54.2208 26.855C54.1314 26.4338 53.9473 26.0385 53.6823 25.6991C53.4173 25.3597 53.0785 25.0852 52.6915 24.8963C52.3045 24.7075 51.8796 24.6094 51.449 24.6094L51.6891 23.4375H51.5624C51.5624 21.3333 51.1416 19.6499 50.4694 18.3015C48.9295 24.0312 45.8398 29.2254 41.5399 33.3133C37.24 37.4013 31.8963 40.2247 26.0962 41.4733Z" fill="#F9D8CD"/>
<path d="M44.6621 4.02832C43.4449 7.62663 41.2252 10.8024 38.2642 13.1819C35.3032 15.5614 31.7242 17.0456 27.9482 17.4599L28.7154 17.9713C30.6227 19.2429 32.8638 19.9214 35.1562 19.9214C37.4485 19.9214 39.6896 19.2429 41.5969 17.9713L45.7033 15.2344C45.7033 15.2344 50.7689 16.0794 52.3004 19.9187C52.5776 16.8275 52.0141 13.7188 50.6695 10.9216C49.325 8.12439 47.2493 5.74263 44.6621 4.02832Z" fill="#3F3F3F"/>
<path d="M71.4844 55.0781H48.0469C46.7525 55.0781 45.7031 56.1275 45.7031 57.4219V71.4844C45.7031 72.7788 46.7525 73.8281 48.0469 73.8281H71.4844C72.7788 73.8281 73.8281 72.7788 73.8281 71.4844V57.4219C73.8281 56.1275 72.7788 55.0781 71.4844 55.0781Z" fill="#FFD740"/>
<path d="M66.7969 55.0781V49.2188C66.7969 47.3539 66.0561 45.5655 64.7375 44.2469C63.4189 42.9283 61.6304 42.1875 59.7656 42.1875C57.9008 42.1875 56.1124 42.9283 54.7938 44.2469C53.4752 45.5655 52.7344 47.3539 52.7344 49.2188V55.0781H48.0469V49.2188C48.0469 46.1107 49.2815 43.13 51.4792 40.9323C53.6769 38.7347 56.6576 37.5 59.7656 37.5C62.8736 37.5 65.8543 38.7347 68.052 40.9323C70.2497 43.13 71.4844 46.1107 71.4844 49.2188V55.0781H66.7969Z" fill="#EDEDED"/>
<path d="M59.7656 65.625C61.3836 65.625 62.6953 64.3133 62.6953 62.6953C62.6953 61.0773 61.3836 59.7656 59.7656 59.7656C58.1476 59.7656 56.8359 61.0773 56.8359 62.6953C56.8359 64.3133 58.1476 65.625 59.7656 65.625Z" fill="#C97E67"/>
<path d="M10.5469 64.4531C10.2361 64.4531 9.938 64.5766 9.71823 64.7964C9.49847 65.0161 9.375 65.3142 9.375 65.625V73.8281C9.375 74.1389 9.49847 74.437 9.71823 74.6568C9.938 74.8765 10.2361 75 10.5469 75C10.8577 75 11.1557 74.8765 11.3755 74.6568C11.5953 74.437 11.7188 74.1389 11.7188 73.8281V65.625C11.7188 65.3142 11.5953 65.0161 11.3755 64.7964C11.1557 64.5766 10.8577 64.4531 10.5469 64.4531Z" fill="black"/>
<path d="M24.6197 5.94141C24.8846 5.94128 25.1415 5.85144 25.3488 5.68655C25.556 5.52166 25.7013 5.29144 25.7609 5.03341C25.8206 4.77538 25.791 4.50476 25.6772 4.26566C25.5633 4.02656 25.3718 3.83308 25.1339 3.71675C24.896 3.60043 24.6257 3.56812 24.367 3.6251C24.1084 3.68208 23.8767 3.82498 23.7097 4.03051C23.5427 4.23604 23.4502 4.49208 23.4473 4.75689C23.4445 5.02171 23.5314 5.27969 23.6939 5.48877C23.8029 5.63052 23.9431 5.74515 24.1037 5.82367C24.2644 5.9022 24.441 5.94249 24.6197 5.94141Z" fill="black"/>
<path d="M47.9517 39.3982C48.9577 38.0907 49.7566 36.6362 50.3203 35.0857C51.3567 34.9173 52.3209 34.4485 53.0934 33.7374C53.8659 33.0263 54.4128 32.1042 54.6664 31.0852L55.3345 28.4134C55.5013 27.7476 55.494 27.0502 55.3134 26.3881C55.1328 25.726 54.785 25.1214 54.3032 24.6326C53.89 24.2117 53.3887 23.8876 52.8353 23.6834L53.1649 22.0721C53.3008 21.4059 53.4004 20.7328 53.4631 20.0559C53.4631 20.0537 53.4631 20.0513 53.4631 20.0491C53.516 19.4808 53.5439 18.9118 53.5439 18.3455C53.5462 15.9268 53.0645 13.5322 52.1272 11.3025C50.7334 7.95137 48.377 5.08882 45.3562 3.07693C42.3353 1.06504 38.7857 -0.00581329 35.1563 -0.000203031H35.1533C32.7772 -0.00523926 30.4228 0.452499 28.2217 1.34745C27.9354 1.46566 27.7075 1.69243 27.5879 1.97817C27.4683 2.26391 27.4667 2.58538 27.5834 2.8723C27.7002 3.15922 27.9258 3.38825 28.2109 3.50931C28.496 3.63038 28.8175 3.63363 29.105 3.51835C31.3881 2.59224 33.8536 2.20366 36.3108 2.38267C38.7681 2.56167 41.1513 3.30347 43.276 4.55069C45.4008 5.79791 47.2102 7.51713 48.5643 9.57539C49.9185 11.6336 50.7811 13.9758 51.0854 16.4207C48.8424 14.594 46.0603 14.1051 45.8956 14.0769L45.4386 14.0009L40.9471 16.9958C39.2321 18.1387 37.2172 18.7486 35.1563 18.7486C33.0953 18.7486 31.0804 18.1387 29.3654 16.9958L24.8739 14.0021L24.4169 14.0781C24.2524 14.1057 21.4702 14.5946 19.2272 16.4219C19.5637 13.6594 20.6194 11.0336 22.2888 8.80702C22.4739 8.55767 22.5526 8.24506 22.5075 7.93778C22.4625 7.63049 22.2974 7.35361 22.0485 7.16786C21.8472 7.01627 21.6019 6.9345 21.3498 6.93495C21.1672 6.93542 20.9873 6.97826 20.8241 7.06011C20.6609 7.14196 20.5189 7.26058 20.4094 7.40663C19.2523 8.95766 18.3472 10.6815 17.7272 12.5145C17.0906 14.3929 16.7659 16.3628 16.7663 18.3461C16.7679 19.5979 16.8955 20.8464 17.1472 22.0726L17.4768 23.684C16.923 23.8873 16.4216 24.2116 16.009 24.6332C15.6488 24.9988 15.3619 25.4298 15.1638 25.9032C14.9606 26.389 14.856 26.9103 14.8562 27.4369C14.8564 27.7663 14.8972 28.0945 14.9777 28.414L15.6457 31.0858C15.8992 32.1048 16.4462 33.0269 17.2187 33.738C17.9913 34.4491 18.9555 34.9179 19.9919 35.0863C21.1077 38.1506 23.1262 40.8047 25.7813 42.6982V47.2624C25.7813 47.5369 25.685 47.8026 25.5091 48.0134C25.3333 48.2241 25.089 48.3664 24.819 48.4155L9.62241 51.1785C6.9218 51.6684 4.47899 53.0912 2.72034 55.1984C0.96169 57.3057 -0.00110281 59.9636 9.47975e-07 62.7083V73.8279C9.47975e-07 74.1387 0.123466 74.4368 0.343235 74.6566C0.563004 74.8763 0.861075 74.9998 1.17188 74.9998C1.48268 74.9998 1.78075 74.8763 2.00052 74.6566C2.22029 74.4368 2.34375 74.1387 2.34375 73.8279V62.7083C2.34288 60.5125 3.11311 58.3862 4.52002 56.7004C5.92693 55.0146 7.88117 53.8764 10.0417 53.4845L23.5793 51.0235C24.0091 53.7853 25.4122 56.3025 27.5352 58.1205C29.6582 59.9385 32.3612 60.9375 35.1563 60.9373C35.4671 60.9373 35.7651 60.8138 35.9849 60.5941C36.2047 60.3743 36.3281 60.0762 36.3281 59.7654C36.3281 59.4546 36.2047 59.1565 35.9849 58.9368C35.7651 58.717 35.4671 58.5935 35.1563 58.5935C32.8991 58.5934 30.7177 57.779 29.0128 56.2998C27.3079 54.8206 26.1939 52.7759 25.8754 50.5413C26.5377 50.286 27.1072 49.836 27.5087 49.2507C27.9103 48.6654 28.1251 47.9722 28.125 47.2624V44.089C31.4652 45.7065 35.2608 46.1232 38.8723 45.2687C42.4838 44.4143 45.6904 42.341 47.9517 39.3982ZM35.1592 43.3592H35.1533C32.2042 43.3703 29.3299 42.4307 26.9568 40.6797C24.5836 38.9288 22.8379 36.4596 21.9785 33.6385L21.7251 32.8167L20.8579 32.8123C20.182 32.8133 19.5253 32.5877 18.9926 32.1716C18.46 31.7555 18.0821 31.1729 17.9194 30.5169L17.2515 27.845C17.1808 27.5685 17.1832 27.2784 17.2585 27.0031C17.3337 26.7278 17.4792 26.4768 17.6807 26.2747C17.8346 26.1175 18.0186 25.9927 18.2216 25.9079C18.4247 25.8231 18.6427 25.78 18.8628 25.781H20.2998L19.4429 21.6004C19.3415 21.1047 19.2645 20.6043 19.2095 20.1033C20.3303 17.7099 23.2688 16.7635 24.374 16.4851L28.0654 18.9461C30.1654 20.3457 32.6327 21.0926 35.1564 21.0926C37.6801 21.0926 40.1474 20.3457 42.2474 18.9461L45.9388 16.4851C47.0462 16.7635 49.9827 17.7103 51.1034 20.1024C51.0485 20.6037 50.9716 21.1044 50.8701 21.6013L50.0146 25.7715L50.0131 25.7805H51.45C51.6701 25.7795 51.8881 25.8227 52.0911 25.9075C52.2942 25.9923 52.4782 26.117 52.6323 26.2741C52.8338 26.4765 52.9794 26.7277 53.0546 27.0033C53.1298 27.2788 53.1321 27.5692 53.0613 27.8459L52.3935 30.5163C52.2309 31.1725 51.853 31.7553 51.3202 32.1716C50.7875 32.5878 50.1305 32.8134 49.4544 32.8123H48.5947L48.334 33.6385C47.4745 36.4596 45.7288 38.9287 43.3557 40.6797C40.9826 42.4307 38.1083 43.3703 35.1592 43.3592Z" fill="black"/>
<path d="M72.6562 54.1078V49.2188C72.6573 47.5256 72.3246 45.8489 71.6772 44.2845C71.0297 42.72 70.0803 41.2986 68.883 40.1013C67.6858 38.9041 66.2643 37.9546 64.6999 37.3072C63.1355 36.6598 61.4587 36.3271 59.7656 36.3281C58.7292 36.3279 57.6964 36.4518 56.6895 36.6973C56.4113 36.7655 56.1677 36.9332 56.0047 37.1687C55.8418 37.4042 55.7707 37.6913 55.805 37.9756C55.8392 38.26 55.9764 38.5219 56.1907 38.712C56.4049 38.9021 56.6814 39.0072 56.9678 39.0073C57.0621 39.0078 57.1562 38.9965 57.2477 38.9736C58.801 38.5927 60.4205 38.5697 61.9839 38.9066C63.5473 39.2435 65.0137 39.9314 66.2721 40.9183C67.5306 41.9052 68.5483 43.1652 69.2483 44.6032C69.9482 46.0412 70.3121 47.6195 70.3125 49.2188V53.9063H67.9688V49.2188C67.9687 47.0431 67.1045 44.9567 65.5661 43.4183C64.0277 41.8799 61.9412 41.0156 59.7656 41.0156C57.59 41.0156 55.5035 41.8799 53.9651 43.4183C52.4268 44.9567 51.5625 47.0431 51.5625 49.2188V53.9063H49.2188V49.2188C49.2179 47.3442 49.7164 45.5033 50.6629 43.8853C50.7463 43.7525 50.8023 43.6043 50.8273 43.4495C50.8524 43.2947 50.8462 43.1364 50.809 42.984C50.7718 42.8317 50.7044 42.6884 50.6108 42.5625C50.5172 42.4367 50.3993 42.3309 50.2641 42.2515C50.1289 42.1721 49.9791 42.1206 49.8236 42.1001C49.6681 42.0797 49.5101 42.0906 49.3589 42.1323C49.2078 42.174 49.0665 42.2456 48.9435 42.3429C48.8205 42.4402 48.7183 42.5612 48.6429 42.6987C47.4841 44.6761 46.8738 46.9268 46.875 49.2188V54.1078C46.1901 54.3508 45.5972 54.7998 45.1776 55.3932C44.7579 55.9865 44.5322 56.6951 44.5312 57.4219V71.4844C44.5323 72.4164 44.9031 73.31 45.5622 73.9691C46.2212 74.6282 47.1148 74.9989 48.0469 75H71.4844C72.4164 74.9989 73.31 74.6282 73.9691 73.9691C74.6282 73.31 74.9989 72.4164 75 71.4844V57.4219C74.9991 56.6951 74.7733 55.9865 74.3537 55.3932C73.9341 54.7998 73.3411 54.3508 72.6562 54.1078ZM53.9062 49.2188C53.9063 47.6647 54.5236 46.1744 55.6224 45.0755C56.7213 43.9767 58.2116 43.3594 59.7656 43.3594C61.3196 43.3594 62.81 43.9767 63.9088 45.0755C65.0077 46.1744 65.625 47.6647 65.625 49.2188V53.9063H53.9062V49.2188ZM72.6562 71.4844C72.6559 71.7951 72.5323 72.0929 72.3126 72.3126C72.0929 72.5323 71.7951 72.6559 71.4844 72.6563H48.0469C47.7362 72.6559 47.4383 72.5323 47.2186 72.3126C46.9989 72.0929 46.8753 71.7951 46.875 71.4844V57.4219C46.8753 57.1112 46.9989 56.8133 47.2186 56.5936C47.4383 56.3739 47.7362 56.2504 48.0469 56.25H71.4844C71.7951 56.2504 72.0929 56.3739 72.3126 56.5936C72.5323 56.8133 72.6559 57.1112 72.6562 57.4219V71.4844Z" fill="black"/>
<path d="M52.7579 38.6529C52.4941 38.6533 52.2381 38.7427 52.0314 38.9067C51.8248 39.0706 51.6794 39.2996 51.619 39.5564C51.5586 39.8132 51.5866 40.0829 51.6985 40.3218C51.8105 40.5607 51.9997 40.7549 52.2357 40.8729C52.4717 40.9909 52.7406 41.0258 52.9988 40.972C53.2571 40.9181 53.4897 40.7787 53.6589 40.5763C53.8281 40.3739 53.924 40.1203 53.9312 39.8565C53.9384 39.5928 53.8563 39.3344 53.6984 39.1231C53.5896 38.9763 53.4477 38.8573 53.2844 38.7756C53.121 38.6939 52.9406 38.6518 52.7579 38.6529Z" fill="black"/>
<path d="M59.7657 58.5938C58.7808 58.5942 57.829 58.949 57.0842 59.5934C56.3393 60.2377 55.8512 61.1286 55.709 62.1031C55.5668 63.0777 55.78 64.0709 56.3097 64.9012C56.8394 65.7315 57.6502 66.3435 58.5938 66.6253V69.1406C58.5938 69.4514 58.7173 69.7495 58.9371 69.9693C59.1568 70.189 59.4549 70.3125 59.7657 70.3125C60.0765 70.3125 60.3746 70.189 60.5944 69.9693C60.8141 69.7495 60.9376 69.4514 60.9376 69.1406V66.6253C61.8813 66.3435 62.692 65.7315 63.2217 64.9012C63.7514 64.0709 63.9646 63.0777 63.8224 62.1031C63.6802 61.1286 63.1921 60.2377 62.4473 59.5934C61.7024 58.949 60.7506 58.5942 59.7657 58.5938ZM59.7657 64.4531C59.4181 64.4531 59.0782 64.35 58.7891 64.1569C58.5001 63.9637 58.2748 63.6892 58.1417 63.368C58.0087 63.0468 57.9739 62.6934 58.0417 62.3524C58.1095 62.0114 58.2769 61.6982 58.5228 61.4524C58.7686 61.2065 59.0818 61.0391 59.4228 60.9713C59.7638 60.9035 60.1172 60.9383 60.4384 61.0713C60.7596 61.2044 61.0341 61.4297 61.2273 61.7187C61.4204 62.0078 61.5235 62.3477 61.5235 62.6953C61.523 63.1614 61.3377 63.6082 61.0081 63.9377C60.6786 64.2673 60.2318 64.4526 59.7657 64.4531Z" fill="black"/>
</g>
<defs>
<clipPath id="clip0_683_1053">
<rect width="75" height="75" fill="white"/>
</clipPath>
</defs>
</svg>
