<svg width="75" height="75" viewBox="0 0 75 75" fill="none" xmlns="http://www.w3.org/2000/svg">
<g clip-path="url(#clip0_683_1174)">
<path d="M70.1655 48.6787H4.83496V9.59888C4.83496 7.98081 6.14658 6.66919 7.76465 6.66919H67.2357C68.8538 6.66919 70.1654 7.98081 70.1654 9.59888V48.6787H70.1655Z" fill="#F9F6F6"/>
<path d="M4.83496 46.042H70.1654V48.6787H4.83496V46.042Z" fill="#ECDAEC"/>
<path d="M72.3633 48.6787H2.63672C1.82769 48.6787 1.17188 49.3345 1.17188 50.1436V52.7111C1.17188 53.5202 1.82769 54.176 2.63672 54.176H72.3633C73.1723 54.176 73.8281 53.5202 73.8281 52.7111V50.1436C73.8281 49.3345 73.1723 48.6787 72.3633 48.6787Z" fill="#FFBA57"/>
<path d="M72.3633 48.6787H2.63672C1.82769 48.6787 1.17188 49.3345 1.17188 50.1436V52.7111C1.17188 53.5202 1.82769 54.176 2.63672 54.176H72.3633C73.1723 54.176 73.8281 53.5202 73.8281 52.7111V50.1436C73.8281 49.3345 73.1723 48.6787 72.3633 48.6787Z" fill="#FFBA57"/>
<path d="M72.3633 51.5392H2.63672C1.8394 51.5392 1.19209 50.9017 1.17363 50.1089C1.17334 50.1205 1.17188 50.1317 1.17188 50.1435V52.711C1.17188 53.5201 1.82769 54.1759 2.63672 54.1759H72.3633C73.1723 54.1759 73.8281 53.5201 73.8281 52.711V50.1435C73.8281 50.1317 73.8267 50.1205 73.8264 50.1089C73.8079 50.9018 73.1606 51.5392 72.3633 51.5392Z" fill="#FFAC3E"/>
<path d="M42.0044 1.17188H32.9956C32.1866 1.17188 31.5308 1.82769 31.5308 2.63672V6.66914H43.4692V2.63672C43.4692 1.82769 42.8134 1.17188 42.0044 1.17188Z" fill="#E8834D"/>
<path d="M31.5308 4.03247H43.4692V6.66919H31.5308V4.03247Z" fill="#D66E41"/>
<path d="M24.1199 73.8282H17.5293L21.4844 54.176H28.075L24.1199 73.8282Z" fill="#E8834D"/>
<path d="M20.9541 56.8125H27.5447L28.0754 54.1758H21.4848L20.9541 56.8125Z" fill="#D66E41"/>
<path d="M50.9478 73.8282H57.5384L53.5833 54.176H46.9927L50.9478 73.8282Z" fill="#E8834D"/>
<path d="M53.5833 54.176H46.9927L47.5232 56.8127H54.1139L53.5833 54.176Z" fill="#D66E41"/>
<path d="M26.4468 62.27H48.6216L49.5664 66.9622H25.502L26.4468 62.27Z" fill="#FFBA57"/>
<path d="M26.0328 64.3254L25.502 66.9622H49.5664L49.0354 64.3254H26.0328Z" fill="#FFAC3E"/>
<path d="M22.5002 28.6638C26.4211 28.6638 29.5996 25.4853 29.5996 21.5645C29.5996 17.6436 26.4211 14.4651 22.5002 14.4651C18.5794 14.4651 15.4009 17.6436 15.4009 21.5645C15.4009 25.4853 18.5794 28.6638 22.5002 28.6638Z" fill="#98DB7C"/>
<path d="M22.5002 26.0271C19.03 26.0271 16.1433 23.5367 15.5251 20.2461C15.4448 20.6735 15.4009 21.1137 15.4009 21.5645C15.4009 25.4854 18.5793 28.6638 22.5002 28.6638C26.421 28.6638 29.5996 25.4854 29.5996 21.5645C29.5996 21.1137 29.5558 20.6735 29.4754 20.2461C28.8572 23.5367 25.9705 26.0271 22.5002 26.0271Z" fill="#82D361"/>
<path d="M43.4125 38.774C43.7268 36.8351 42.4099 35.0085 40.471 34.6942C38.5322 34.3799 36.7057 35.6969 36.3914 37.6358C36.0771 39.5747 37.394 41.4013 39.3328 41.7156C41.2716 42.0299 43.0982 40.7129 43.4125 38.774Z" fill="#FF4755"/>
<path d="M39.9123 39.1286C38.4139 39.1286 37.1327 38.2015 36.6089 36.8901C36.446 37.2979 36.3555 37.7425 36.3555 38.2085C36.3555 40.1729 37.9479 41.7653 39.9123 41.7653C41.8766 41.7653 43.469 40.1729 43.469 38.2085C43.469 37.7425 43.3785 37.2979 43.2156 36.8901C42.6918 38.2015 41.4106 39.1286 39.9123 39.1286Z" fill="#FC2B3A"/>
<path d="M72.4317 47.5998H71.33V9.54434C71.33 7.3188 69.5193 5.50811 67.2938 5.50811H44.5818V2.56846C44.5818 1.15225 43.4296 0 42.0134 0H32.987C31.5708 0 30.4186 1.15225 30.4186 2.56846V5.50811H22.6533C22.0452 5.50811 21.5524 6.00088 21.5524 6.60894C21.5524 7.21699 22.0452 7.70977 22.6533 7.70977H67.2939C68.3056 7.70977 69.1287 8.53271 69.1287 9.54448V47.6H51.7916C51.1836 47.6 50.6908 48.0927 50.6908 48.7008C50.6908 49.3088 51.1836 49.8016 51.7916 49.8016H72.4317C72.6342 49.8016 72.7987 49.9661 72.7987 50.1686V52.7413C72.7987 52.9437 72.6342 53.1082 72.4317 53.1082H13.7122C13.1041 53.1082 12.6113 53.601 12.6113 54.209C12.6113 54.8171 13.1041 55.3099 13.7122 55.3099H20.1091L16.4116 73.6825C16.3465 74.006 16.4299 74.3417 16.6391 74.597C16.8481 74.8525 17.1607 75.0004 17.4907 75.0004H24.0942C24.6184 75.0004 25.07 74.6309 25.1734 74.1168L26.3801 68.1211H48.6887L49.8953 74.1168C49.9988 74.6309 50.4503 75.0004 50.9744 75.0004H57.5779C57.908 75.0004 58.2207 74.8523 58.4296 74.597C58.6388 74.3417 58.7221 74.0061 58.6571 73.6825L54.9595 55.3099H72.4317C73.8479 55.3099 75.0002 54.1576 75.0002 52.7414V50.1687C75.0002 48.752 73.8479 47.5998 72.4317 47.5998ZM32.6201 2.56846C32.6201 2.36602 32.7846 2.20151 32.987 2.20151H42.0134C42.2158 2.20151 42.3803 2.36602 42.3803 2.56846V5.50811H32.6201V2.56846ZM46.1103 55.3094L47.2994 61.2179H27.7692L28.9584 55.3094H46.1103ZM23.1929 72.7985H18.8352L22.3549 55.3096H26.7128L23.1929 72.7985ZM26.8231 65.9191L27.3261 63.4194H47.7424L48.2454 65.9191H26.8231ZM56.2333 72.7985H51.8754L48.3557 55.3096H52.7136L56.2333 72.7985Z" fill="black"/>
<path d="M9.30879 53.108H2.56846C2.36602 53.108 2.20151 52.9435 2.20151 52.7411V50.1684C2.20151 49.9659 2.36602 49.8014 2.56846 49.8014H47.3883C47.9963 49.8014 48.4891 49.3086 48.4891 48.7006C48.4891 48.0925 47.9963 47.5998 47.3883 47.5998H5.87153V9.54443C5.87153 8.53281 6.69448 7.70972 7.7061 7.70972H18.2499C18.858 7.70972 19.3507 7.21694 19.3507 6.60889C19.3507 6.00083 18.858 5.50806 18.2499 5.50806H7.70625C5.48071 5.50806 3.67002 7.31875 3.67002 9.54429V47.5998H2.56846C1.15225 47.5999 0 48.7521 0 50.1684V52.7411C0 54.1573 1.15225 55.3095 2.56846 55.3095H9.30879C9.91685 55.3095 10.4096 54.8167 10.4096 54.2087C10.4096 53.6006 9.91685 53.108 9.30879 53.108Z" fill="black"/>
<path d="M26.5545 18.7189C26.1193 18.2941 25.4221 18.303 24.9979 18.7384L21.4238 22.4033L19.9228 20.9437C19.4867 20.5196 18.7902 20.5298 18.3663 20.9655C17.9425 21.4013 17.9522 22.0983 18.3881 22.5221L20.6771 24.7481C20.8909 24.9561 21.1678 25.0596 21.4444 25.0596C21.7307 25.0596 22.0168 24.9486 22.2326 24.7274L26.5741 20.2756C26.9985 19.8401 26.9897 19.1433 26.5545 18.7189Z" fill="black"/>
<path d="M30.6848 21.5333C30.6848 17.004 26.9999 13.3193 22.4708 13.3193C17.9415 13.3193 14.2568 17.0042 14.2568 21.5333C14.2568 26.0626 17.9416 29.7473 22.4708 29.7473C27.0001 29.7473 30.6848 26.0626 30.6848 21.5333ZM22.4708 27.5458C19.1556 27.5458 16.4583 24.8485 16.4583 21.5333C16.4583 18.2181 19.1556 15.5208 22.4708 15.5208C25.786 15.5208 28.4832 18.2181 28.4832 21.5333C28.4832 24.8485 25.786 27.5458 22.4708 27.5458Z" fill="black"/>
<path d="M25.7131 34.9678C25.283 34.5381 24.5862 34.5381 24.1562 34.9678L22.4711 36.653L20.7859 34.9678C20.356 34.5381 19.659 34.5381 19.2291 34.9678C18.7993 35.3978 18.7993 36.0948 19.2291 36.5247L20.9142 38.2098L19.2291 39.895C18.7993 40.3249 18.7993 41.0219 19.2291 41.4518C19.4441 41.6667 19.7258 41.7742 20.0075 41.7742C20.2892 41.7742 20.5709 41.6667 20.7859 41.4518L22.4711 39.7667L24.1562 41.4518C24.3713 41.6667 24.653 41.7742 24.9346 41.7742C25.2163 41.7742 25.498 41.6667 25.7131 41.4518C26.1428 41.0219 26.1428 40.3249 25.7131 39.895L24.0279 38.2098L25.7131 36.5247C26.143 36.0948 26.143 35.3979 25.7131 34.9678Z" fill="black"/>
<path d="M59.2845 34.9678C58.8545 34.5381 58.1576 34.5381 57.7276 34.9678L56.0425 36.653L54.3573 34.9678C53.9272 34.5381 53.2304 34.5381 52.8005 34.9678C52.3705 35.3978 52.3705 36.0948 52.8005 36.5247L54.4856 38.2098L52.8005 39.895C52.3705 40.3249 52.3705 41.0219 52.8005 41.4518C53.0155 41.6667 53.2972 41.7742 53.5789 41.7742C53.8606 41.7742 54.1423 41.6667 54.3573 41.4518L56.0425 39.7667L57.7276 41.4518C57.9427 41.6667 58.2244 41.7742 58.506 41.7742C58.7877 41.7742 59.0694 41.6667 59.2845 41.4518C59.7144 41.0219 59.7144 40.3249 59.2845 39.895L57.5993 38.2098L59.2845 36.5247C59.7144 36.0948 59.7144 35.3979 59.2845 34.9678Z" fill="black"/>
<path d="M36.675 24.975C36.89 25.1899 37.1717 25.2974 37.4534 25.2974C37.7351 25.2974 38.0168 25.1899 38.2318 24.975L39.917 23.2898L41.6021 24.975C41.8172 25.1899 42.0987 25.2974 42.3806 25.2974C42.6622 25.2974 42.9439 25.1899 43.159 24.975C43.5888 24.545 43.5888 23.8481 43.159 23.4181L41.4738 21.733L43.159 20.0478C43.5888 19.6179 43.5888 18.9209 43.159 18.491C42.729 18.0613 42.0321 18.0613 41.6021 18.491L39.917 20.1761L38.2318 18.491C37.8019 18.0613 37.1051 18.0612 36.675 18.491C36.2452 18.9209 36.2452 19.6179 36.675 20.0478L38.3601 21.733L36.675 23.4181C36.2451 23.8481 36.2451 24.545 36.675 24.975Z" fill="black"/>
<path d="M35.2524 38.2098C35.2524 40.7819 37.345 42.8743 39.9171 42.8743C42.4892 42.8743 44.5816 40.7818 44.5816 38.2098C44.5816 35.6378 42.4891 33.5452 39.9171 33.5452C37.3451 33.5452 35.2524 35.6378 35.2524 38.2098ZM42.3799 38.2098C42.3799 39.5679 41.275 40.6728 39.9169 40.6728C38.5589 40.6728 37.454 39.5679 37.454 38.2098C37.454 36.8518 38.5589 35.7468 39.9169 35.7468C41.275 35.7468 42.3799 36.8518 42.3799 38.2098Z" fill="black"/>
<path d="M32.8792 29.8922C32.7708 30.4904 33.1679 31.0632 33.7661 31.1716C33.946 31.2041 35.8458 31.5356 38.4883 31.5356C42.1097 31.5356 47.1261 30.9128 51.0201 28.0445C54.195 25.7057 56.0795 22.2756 56.6215 17.8493C56.6955 17.2459 56.266 16.6967 55.6626 16.6229C55.0608 16.5495 54.5102 16.9784 54.4362 17.5818C53.9713 21.3796 52.385 24.3015 49.7215 26.2666C43.7584 30.6662 34.2532 29.0222 34.1578 29.0051C33.5606 28.8977 32.9876 29.2941 32.8792 29.8922Z" fill="black"/>
</g>
<defs>
<clipPath id="clip0_683_1174">
<rect width="75" height="75" fill="white"/>
</clipPath>
</defs>
</svg>
