<svg width="20" height="19" viewBox="0 0 20 19" fill="none" xmlns="http://www.w3.org/2000/svg">
<path fill-rule="evenodd" clip-rule="evenodd" d="M11.819 0.784954C12.3216 0.282356 13.0032 0 13.714 0C14.0659 0 14.4144 0.0693203 14.7396 0.204003C15.0647 0.338685 15.3602 0.536093 15.609 0.784954C15.8579 1.03381 16.0553 1.32926 16.19 1.65441C16.2603 1.82419 16.3128 2.00033 16.3469 2.18H19C19.2761 2.18 19.5 2.40386 19.5 2.68C19.5 2.95614 19.2761 3.18 19 3.18H16.3469C16.3128 3.35967 16.2603 3.53581 16.19 3.70559C16.0553 4.03074 15.8579 4.32619 15.609 4.57505C15.3602 4.82391 15.0647 5.02131 14.7396 5.156C14.4144 5.29068 14.0659 5.36 13.714 5.36C13.0032 5.36 12.3216 5.07764 11.819 4.57505C11.4358 4.19194 11.1807 3.70478 11.081 3.18H0.5C0.223858 3.18 0 2.95614 0 2.68C0 2.40386 0.223858 2.18 0.5 2.18H11.081C11.1807 1.65522 11.4358 1.16806 11.819 0.784954ZM13.714 1C13.2684 1 12.8411 1.177 12.5261 1.49206C12.211 1.80712 12.034 2.23444 12.034 2.68C12.034 3.12556 12.211 3.55288 12.5261 3.86794C12.8411 4.183 13.2684 4.36 13.714 4.36C13.9346 4.36 14.1531 4.31655 14.3569 4.23212C14.5607 4.14769 14.7459 4.02394 14.9019 3.86794C15.0579 3.71194 15.1817 3.52674 15.2661 3.32291C15.3505 3.11908 15.394 2.90062 15.394 2.68C15.394 2.45938 15.3505 2.24092 15.2661 2.03709C15.1817 1.83326 15.0579 1.64806 14.9019 1.49206C14.7459 1.33606 14.5607 1.21231 14.3569 1.12788C14.1531 1.04345 13.9346 1 13.714 1ZM2.56895 7.39195C3.07155 6.88936 3.75322 6.607 4.464 6.607C5.17478 6.607 5.85645 6.88936 6.35905 7.39195C6.74215 7.77506 6.99729 8.26222 7.09696 8.787H19C19.2761 8.787 19.5 9.01086 19.5 9.287C19.5 9.56314 19.2761 9.787 19 9.787H7.09696C6.99729 10.3118 6.74215 10.7989 6.35905 11.182C5.85645 11.6846 5.17478 11.967 4.464 11.967C3.75322 11.967 3.07155 11.6846 2.56895 11.182C2.18585 10.7989 1.93071 10.3118 1.83104 9.787H0.5C0.223858 9.787 0 9.56314 0 9.287C0 9.01086 0.223858 8.787 0.5 8.787H1.83104C1.93071 8.26222 2.18585 7.77506 2.56895 7.39195ZM4.464 7.607C4.01844 7.607 3.59112 7.784 3.27606 8.09906C2.961 8.41412 2.784 8.84144 2.784 9.287C2.784 9.73256 2.961 10.1599 3.27606 10.4749C3.59112 10.79 4.01844 10.967 4.464 10.967C4.90956 10.967 5.33688 10.79 5.65194 10.4749C5.967 10.1599 6.144 9.73256 6.144 9.287C6.144 8.84144 5.967 8.41412 5.65194 8.09906C5.33688 7.784 4.90956 7.607 4.464 7.607ZM9.17595 13.999C9.67855 13.4964 10.3602 13.214 11.071 13.214C11.7819 13.214 12.4637 13.4964 12.9664 13.9991C13.3494 14.3821 13.605 14.869 13.7049 15.394H19C19.2761 15.394 19.5 15.6179 19.5 15.894C19.5 16.1701 19.2761 16.394 19 16.394H13.7049C13.6051 16.9192 13.3495 17.4068 12.9664 17.7899C12.4637 18.2926 11.7819 18.575 11.071 18.575C10.3596 18.575 9.67814 18.2912 9.17595 17.789C8.79285 17.4059 8.53771 16.9188 8.43804 16.394H0.5C0.223858 16.394 0 16.1701 0 15.894C0 15.6179 0.223858 15.394 0.5 15.394H8.43804C8.53771 14.8692 8.79285 14.3821 9.17595 13.999ZM11.071 14.214C10.6254 14.214 10.1981 14.391 9.88306 14.7061C9.568 15.0211 9.391 15.4484 9.391 15.894C9.391 16.3396 9.568 16.7669 9.88306 17.0819C10.1985 17.3974 10.626 17.575 11.071 17.575C11.5167 17.575 11.9441 17.3979 12.2593 17.0828C12.5746 16.7675 12.752 16.3395 12.752 15.894C12.752 15.4487 12.5747 15.0217 12.2593 14.7062C11.9441 14.3911 11.5167 14.214 11.071 14.214Z" fill="white"/>
</svg>
